<?xml version="1.0" encoding="utf-8"?>
<!-- Generator: Adobe Illustrator 16.0.0, SVG Export Plug-In . SVG Version: 6.00 Build 0)  -->
<!DOCTYPE svg PUBLIC "-//W3C//DTD SVG 1.1//EN" "http://www.w3.org/Graphics/SVG/1.1/DTD/svg11.dtd">
<svg version="1.1" id="Lager_1" xmlns="http://www.w3.org/2000/svg" xmlns:xlink="http://www.w3.org/1999/xlink" x="0px" y="0px"
	 width="300px" height="350px" viewBox="0 0 300 350" enable-background="new 0 0 300 350" xml:space="preserve">
<g>
	<path fill="#FFFFFF" d="M6.532,7.904c100.178,0,200.355,0,300.533,0c0,114.209,0,228.419,0,342.629c-100.178,0-200.355,0-300.533,0
		C6.533,236.323,6.533,122.113,6.532,7.904z M58.002,283.319c0-1.857,0.095-3.36-0.015-4.848c-1.041-14.043-8.987-23.54-20.435-30.6
		c-3.267-2.015-7.06-1.882-10.612-0.887c-3.438,0.963-5.763,3.521-5.825,7.15c-0.062,3.598,0.221,7.305,1.06,10.793
		c1.785,7.426,6.974,12.638,12.524,17.447c2.668,2.312,5.555,4.371,8.335,6.538c-0.065,0.2-0.083,0.389-0.179,0.521
		c-0.259,0.358-0.555,0.689-0.828,1.037c-4.389,5.594-5.763,11.936-3.247,18.517c2.688,7.03,8.145,11.447,15.694,12.438
		c8.262,1.084,14.488-2.834,18.952-9.438c6.886-10.188,13.473-20.576,20.227-30.853c0.793-1.206,1.554-2.585,3.538-2.174
		c0.436,0.09,1.542-0.886,1.591-1.437c0.415-4.667,4.152-5.762,7.539-7.234c3.127-1.36,6.281-2.658,10.046-4.246
		c-0.973,2.972-1.843,5.178-2.414,7.459c-1.464,5.844-2.824,11.715-4.164,17.59c-0.491,2.153-0.413,2.172-2.247,2.243
		c0.771-3.045,0.792-6.13-2.294-7.715c-1.506-0.773-4.046-0.993-5.442-0.229c-3.342,1.828-3.459,5.188-2.559,8.788
		c-0.998-0.544-1.855-1.123-2.394-1.919c-0.905-1.337-1.979-2.254-3.516-1.356c-1.725,1.008-1.204,2.574-0.455,3.978
		c1.904,3.558,6.426,5.023,10.646,3.812c2.133-0.612,4.426-0.674,7.071-1.044c-0.299,2.165-0.514,3.72-0.729,5.273
		c-0.231,1.671-0.514,3.335-0.685,5.012c-0.449,4.414,0.03,4.999,4.42,5.108c4.438,0.11,8.879,0.1,13.319,0.158
		c4.009,0.055,4.009,0.064,3.967,3.926c-0.012,1.066-0.012,2.132-0.026,3.197c-0.071,5.283,0.484,4.259-4.681,5.271
		c-4.082,0.8-8.143,1.777-12.125,2.974c-1.159,0.348-2.011,1.719-3.003,2.62c1.072,0.845,2.024,2.025,3.242,2.461
		c2.41,0.861,4.937,1.52,7.468,1.898c23.145,3.453,46.354,3.496,69.558,0.802c5.158-0.6,10.214-2.15,15.285-3.392
		c0.721-0.177,1.735-1.08,1.751-1.669c0.016-0.613-0.904-1.593-1.608-1.825c-3.777-1.243-7.551-2.7-11.447-3.332
		c-5.679-0.921-11.456-1.279-17.204-1.716c-2.094-0.159-2.825-0.899-2.481-2.996c0.257-1.563,0.32-3.194,0.199-4.775
		c-0.182-2.37,0.808-3.008,3.087-3.046c7.721-0.13,15.437-0.492,23.156-0.734c2.156-0.067,3.069-1.108,2.799-3.229
		c-0.225-1.76-0.427-3.522-0.674-5.279c-1.733-12.304-3.501-24.601-7.942-36.312c-0.169-0.446-0.189-0.948-0.363-1.871
		c4.136,1.796,7.902,3.347,11.595,5.057c4.835,2.237,4.587,2.219,2.922,7.295c-1.927,5.876-3.506,11.873-5.013,17.873
		c-0.367,1.467-0.79,3.957,1.572,4.103c2.422,0.149,1.638-2.337,1.696-3.714c0.264-6.229,2.55-11.823,5.114-17.411
		c0.343,0.76,0.41,1.494,0.474,2.229c0.489,5.656,0.913,11.32,1.535,16.962c0.1,0.908,1.076,1.72,1.648,2.575
		c0.505-0.967,1.242-1.888,1.448-2.915c0.199-0.998-0.151-2.104-0.251-3.165c-0.264-2.841-0.521-5.683-0.782-8.523
		c0.217-0.031,0.433-0.062,0.649-0.093c0.367,1.52,0.822,3.024,1.084,4.562c0.491,2.887,0.756,5.816,1.371,8.673
		c0.172,0.796,1.25,1.396,1.912,2.085c0.423-0.862,1.34-1.821,1.193-2.571c-1.317-6.69-2.839-13.341-4.25-20.014
		c-0.191-0.903-0.104-1.866-0.146-2.802c0.261,0.209,0.521,0.419,0.78,0.628c1.334-0.384,2.669-0.769,4.002-1.153
		c-0.536-1.474-1.072-2.948-1.571-4.317c0.348-0.811,1.453-2.203,1.118-2.915c-0.405-0.86-1.987-1.326-3.146-1.619
		c-1.036-0.263-2.19-0.056-3.488-0.056c0.713-6.054,1.472-11.67,2.021-17.308c2.029-20.84,3.604-41.733,6.099-62.518
		c1.954-16.28,5.033-32.424,7.566-48.637c0.305-1.951,0.97-2.983,3.104-2.14c0.397,0.157,0.875,0.128,1.318,0.158
		c2.918,0.192,4.089-1.389,2.955-4.139c-1.081-2.622-2.312-5.182-3.452-7.779c-0.868-1.977,0.054-3.554,2.183-3.643
		c12.821-0.537,22.75-6.521,30.104-16.672c8.518-11.761,13.266-25.018,14.016-39.588c0.755-14.696-3.057-27.951-12.846-39.185
		c-12.933-14.842-33.373-18.413-48.954-7.962c-1.395,0.936-2.174,0.412-3.256-0.27c-15.542-9.794-32.695-8.754-45.479,2.947
		c-2.78,2.545-5.014,5.688-7.575,8.642c-0.877-0.288-1.89-0.604-2.892-0.952c-6.073-2.11-12.372-2.816-18.638-1.69
		c-15.099,2.713-24.846,11.876-28.982,26.429c-5.032,17.708-1.92,34.657,6.595,50.708c6.139,11.571,14.982,20.471,27.152,25.624
		c4.096,1.734,8.539,2.645,12.643,3.877c-0.224,0.521-0.54,1.255-0.856,1.989c0.891,0.019,1.803,0.169,2.664,0.021
		c0.911-0.157,1.772-0.598,3.205-1.112c-2.469,4.212-4.722,7.892-6.783,11.677c-0.56,1.028-0.543,2.371-0.791,3.569
		c1.151,0.137,2.36,0.569,3.444,0.358c4.315-0.835,8.593-1.872,13.042-2.869c1.506,6.944,2.942,13.569,4.359,20.104
		c-7.965,2.234-15.598,4.375-22.825,6.403c-0.686-0.944-1.139-2.013-1.945-2.589c-1.941-1.39-3.996-2.646-6.098-3.782
		c-6.71-3.625-13.503-7.098-20.189-10.764c-10.19-5.586-20.388-11.165-30.439-16.994c-4.123-2.391-7.944-1.972-11.452,0.51
		c-11.169,7.904-16.22,19.399-14.278,32.24c0.144,0.949,1.283,1.747,1.96,2.616c0.368-1.029,1-2.045,1.054-3.091
		c0.174-3.43-0.371-6.971,0.284-10.287c1.57-7.946,5.946-14.211,12.702-18.895c-1.977,3.394-4.103,6.542-5.722,9.931
		c-3.172,6.639-4.513,13.63-2.856,20.958c0.271,1.198,0.374,3.075,2.291,2.423c0.582-0.198,0.863-1.937,0.892-2.98
		c0.104-3.695-0.384-7.456,0.139-11.077c0.73-5.047,3.175-9.5,6.002-13.404c-0.329,5.225-0.976,10.52-0.893,15.803
		c0.064,4.133,0.958,8.265,1.678,12.363c0.12,0.685,1.227,1.196,1.877,1.787c0.413-0.849,0.876-1.678,1.207-2.556
		c0.101-0.267-0.188-0.666-0.259-1.012c-1.947-9.414-1.824-18.736,1.129-28.079c0.244,0.277,0.411,0.386,0.458,0.533
		c6.138,18.982,12.261,37.968,18.407,56.948c0.64,1.977,1.149,4.357,4.759,1.689c-3.916,8.866-4.545,17.27-3.308,25.833
		c1.252,8.672,4.838,16.257,11.004,22.21c-1.801,5.272-4.871,8.555-10.53,9.184c-2.507,0.278-4.891,1.663-7.562,2.63
		c0.158-1.109,0.324-1.798,0.342-2.49c0.052-2.001,0.018-4.424-2.221-4.86c-1.637-0.319-3.568,0.772-5.339,1.329
		c-0.356,0.112-0.526,0.718-0.873,0.974c-2.483,1.842-3.445,5.487-7.121,5.968c-0.383,0.05-0.892,0.902-0.948,1.425
		c-0.577,5.388-4.667,8.72-7.529,12.717c-1.978,2.763-4.637,5.029-6.884,7.611c-0.961,1.104-1.648,2.448-2.615,3.919
		C68.451,286.431,63.833,283.975,58.002,283.319z"/>
	<path fill-rule="evenodd" clip-rule="evenodd" d="M58.002,283.319c5.831,0.655,10.449,3.111,13.611,8.41
		c0.967-1.471,1.653-2.814,2.615-3.919c2.247-2.582,4.906-4.849,6.884-7.611c2.862-3.997,6.952-7.329,7.529-12.717
		c0.056-0.522,0.564-1.375,0.948-1.425c3.675-0.48,4.638-4.126,7.121-5.968c0.347-0.256,0.517-0.861,0.873-0.974
		c1.771-0.557,3.703-1.648,5.339-1.329c2.239,0.437,2.272,2.859,2.221,4.86c-0.018,0.692-0.184,1.381-0.342,2.49
		c2.671-0.967,5.055-2.352,7.562-2.63c5.659-0.629,8.729-3.911,10.53-9.184c-6.167-5.953-9.752-13.538-11.004-22.21
		c-1.237-8.563-0.607-16.967,3.308-25.833c-3.61,2.668-4.119,0.287-4.759-1.689c-6.146-18.979-12.269-37.966-18.407-56.948
		c-0.047-0.147-0.215-0.256-0.458-0.533c-2.953,9.343-3.076,18.665-1.129,28.079c0.071,0.346,0.359,0.746,0.259,1.012
		c-0.331,0.878-0.794,1.708-1.207,2.556c-0.65-0.591-1.757-1.103-1.877-1.787c-0.719-4.098-1.613-8.23-1.678-12.363
		c-0.083-5.284,0.564-10.579,0.893-15.803c-2.827,3.903-5.272,8.356-6.002,13.404c-0.523,3.622-0.036,7.382-0.139,11.077
		c-0.029,1.044-0.311,2.783-0.892,2.98c-1.917,0.652-2.02-1.225-2.291-2.423c-1.656-7.328-0.315-14.319,2.856-20.958
		c1.62-3.39,3.746-6.537,5.722-9.931c-6.756,4.684-11.132,10.949-12.702,18.895c-0.655,3.316-0.11,6.857-0.284,10.287
		c-0.054,1.046-0.687,2.062-1.054,3.091c-0.677-0.869-1.816-1.667-1.96-2.616c-1.942-12.841,3.109-24.336,14.278-32.24
		c3.508-2.482,7.33-2.901,11.452-0.51c10.051,5.829,20.249,11.407,30.439,16.994c6.687,3.666,13.479,7.139,20.189,10.764
		c2.102,1.136,4.157,2.392,6.098,3.782c0.807,0.577,1.26,1.646,1.945,2.589c7.228-2.027,14.86-4.168,22.825-6.403
		c-1.417-6.535-2.854-13.16-4.359-20.104c-4.449,0.998-8.727,2.034-13.042,2.869c-1.084,0.21-2.293-0.222-3.444-0.358
		c0.248-1.198,0.231-2.541,0.791-3.569c2.062-3.785,4.314-7.465,6.783-11.677c-1.433,0.514-2.294,0.955-3.205,1.112
		c-0.861,0.148-1.773-0.002-2.664-0.021c0.316-0.734,0.633-1.468,0.856-1.989c-4.104-1.232-8.547-2.143-12.643-3.877
		c-12.17-5.153-21.013-14.053-27.152-25.624c-8.515-16.051-11.627-33-6.595-50.708c4.136-14.553,13.883-23.715,28.982-26.429
		c6.266-1.126,12.564-0.42,18.638,1.69c1.002,0.348,2.015,0.664,2.892,0.952c2.562-2.954,4.795-6.097,7.575-8.642
		c12.784-11.702,29.938-12.742,45.479-2.947c1.082,0.682,1.861,1.205,3.256,0.27c15.581-10.45,36.021-6.88,48.954,7.962
		c9.789,11.234,13.601,24.489,12.846,39.185c-0.75,14.571-5.498,27.828-14.016,39.588c-7.354,10.152-17.283,16.136-30.104,16.672
		c-2.129,0.089-3.051,1.666-2.183,3.643c1.14,2.598,2.371,5.157,3.452,7.779c1.134,2.75-0.037,4.331-2.955,4.139
		c-0.443-0.03-0.921-0.001-1.318-0.158c-2.135-0.843-2.8,0.189-3.104,2.14c-2.533,16.212-5.612,32.357-7.566,48.637
		c-2.495,20.784-4.069,41.678-6.099,62.518c-0.549,5.638-1.308,11.254-2.021,17.308c1.298,0,2.452-0.207,3.488,0.056
		c1.159,0.293,2.741,0.759,3.146,1.619c0.335,0.712-0.771,2.104-1.118,2.915c0.499,1.369,1.035,2.844,1.571,4.317
		c-1.333,0.385-2.668,0.77-4.002,1.153c-0.26-0.209-0.52-0.419-0.78-0.628c0.042,0.936-0.045,1.898,0.146,2.802
		c1.411,6.673,2.933,13.323,4.25,20.014c0.146,0.75-0.771,1.709-1.193,2.571c-0.662-0.689-1.74-1.289-1.912-2.085
		c-0.615-2.856-0.88-5.786-1.371-8.673c-0.262-1.538-0.717-3.043-1.084-4.562c-0.217,0.03-0.433,0.062-0.649,0.093
		c0.261,2.841,0.519,5.683,0.782,8.523c0.1,1.061,0.45,2.167,0.251,3.165c-0.206,1.027-0.943,1.948-1.448,2.915
		c-0.572-0.855-1.549-1.667-1.648-2.575c-0.622-5.642-1.046-11.306-1.535-16.962c-0.063-0.735-0.131-1.47-0.474-2.229
		c-2.564,5.588-4.851,11.182-5.114,17.411c-0.059,1.377,0.726,3.863-1.696,3.714c-2.362-0.146-1.939-2.636-1.572-4.103
		c1.507-6,3.086-11.997,5.013-17.873c1.665-5.076,1.913-5.058-2.922-7.295c-3.692-1.71-7.459-3.261-11.595-5.057
		c0.174,0.923,0.194,1.425,0.363,1.871c4.441,11.712,6.209,24.009,7.942,36.312c0.247,1.757,0.449,3.52,0.674,5.279
		c0.271,2.121-0.643,3.162-2.799,3.229c-7.72,0.242-15.436,0.604-23.156,0.734c-2.279,0.038-3.269,0.676-3.087,3.046
		c0.121,1.581,0.058,3.212-0.199,4.775c-0.344,2.097,0.388,2.837,2.481,2.996c5.748,0.437,11.525,0.795,17.204,1.716
		c3.896,0.632,7.67,2.089,11.447,3.332c0.704,0.232,1.624,1.212,1.608,1.825c-0.016,0.589-1.03,1.492-1.751,1.669
		c-5.071,1.241-10.127,2.792-15.285,3.392c-23.204,2.694-46.414,2.651-69.558-0.802c-2.532-0.379-5.059-1.037-7.468-1.898
		c-1.218-0.436-2.17-1.616-3.242-2.461c0.993-0.901,1.845-2.272,3.003-2.62c3.981-1.196,8.043-2.174,12.125-2.974
		c5.166-1.013,4.61,0.012,4.681-5.271c0.015-1.065,0.015-2.131,0.026-3.197c0.042-3.861,0.042-3.871-3.967-3.926
		c-4.439-0.059-8.881-0.048-13.319-0.158c-4.39-0.109-4.869-0.694-4.42-5.108c0.171-1.677,0.454-3.341,0.685-5.012
		c0.215-1.554,0.43-3.108,0.729-5.273c-2.645,0.37-4.938,0.432-7.071,1.044c-4.221,1.212-8.743-0.254-10.646-3.812
		c-0.75-1.403-1.271-2.97,0.455-3.978c1.538-0.897,2.611,0.02,3.516,1.356c0.538,0.796,1.396,1.375,2.394,1.919
		c-0.901-3.6-0.783-6.96,2.559-8.788c1.396-0.764,3.936-0.544,5.442,0.229c3.086,1.585,3.065,4.67,2.294,7.715
		c1.834-0.071,1.756-0.09,2.247-2.243c1.34-5.875,2.7-11.746,4.164-17.59c0.571-2.281,1.441-4.487,2.414-7.459
		c-3.765,1.588-6.919,2.886-10.046,4.246c-3.387,1.473-7.124,2.567-7.539,7.234c-0.049,0.551-1.155,1.526-1.591,1.437
		c-1.983-0.411-2.745,0.968-3.538,2.174c-6.754,10.276-13.341,20.665-20.227,30.853c-4.464,6.604-10.69,10.522-18.952,9.438
		c-7.55-0.991-13.006-5.408-15.694-12.438c-2.517-6.581-1.143-12.923,3.247-18.517c0.273-0.348,0.569-0.679,0.828-1.037
		c0.096-0.133,0.113-0.321,0.179-0.521c-2.78-2.167-5.667-4.227-8.335-6.538c-5.551-4.81-10.74-10.021-12.524-17.447
		c-0.838-3.488-1.121-7.195-1.06-10.793c0.062-3.629,2.387-6.188,5.825-7.15c3.552-0.995,7.345-1.128,10.612,0.887
		c11.448,7.06,19.394,16.557,20.435,30.6C58.097,279.959,58.002,281.462,58.002,283.319z M200.537,67.942
		c-0.031,12.891,3.307,24.752,11.046,35.147c6.573,8.828,15.299,14.024,26.538,13.797c9.793-0.198,17.448-5.119,23.472-12.441
		c12.497-15.189,17.37-32.771,14.811-52.179c-1.643-12.445-7.309-22.877-17.903-30.215c-15.311-10.604-34.442-7.583-45.588,7.33
		C204.383,40.794,200.573,53.769,200.537,67.942z M114.6,69.857c-0.146,7.261,1.608,15.298,4.513,23.074
		c5.468,14.637,14.447,26.212,29.313,32.313c7.669,3.147,15.585,4.295,23.616,1.367c9.383-3.421,15.202-10.526,18.129-19.654
		c6.678-20.823,3.745-40.484-8.722-58.513c-5.548-8.022-13.01-13.71-22.416-16.712c-15.924-5.083-32.39,1.046-39.624,14.872
		C115.786,53.531,114.605,61.018,114.6,69.857z M126.417,256.629c-0.555,0.876-1.053,1.602-1.49,2.361
		c-8.532,14.846-10.637,31.412-12.846,47.955c-0.269,2.018,0.906,2.146,2.389,2.18c10.904,0.243,21.807,0.627,32.712,0.742
		c12.334,0.131,24.671,0.086,37.006-0.005c4.567-0.034,9.133-0.414,13.941-0.649c-0.515-3.67-0.954-7.081-1.478-10.479
		c-1.812-11.766-4.049-23.423-9.032-34.354c-1.94-4.259-3.991-8.454-7.332-11.801C163.071,264.228,145.379,267.147,126.417,256.629z
		 M178.239,170.757c-10.391,1.673-20.008,4.937-29.418,8.883c-0.387,0.161-0.735,0.504-1.008,0.838
		c-7.028,8.587-16.074,14.663-25.348,20.472c-0.837,0.525-1.531,1.416-2.055,2.279c-4.295,7.087-5.771,14.867-4.984,23.001
		c1.027,10.623,4.735,20.066,13.806,26.47c7.517,5.306,16.093,6.644,25.097,5.631c9.9-1.114,18.851-4.671,25.896-11.77
		c8.874-8.939,9.786-19.894,3.346-31.495c-0.76-1.369-1.455-2.267-3.301-1.797c-0.595,0.151-1.496-0.902-2.258-1.404
		c1.378-1.524,2.589-3.266,4.191-4.497c1.128-0.868,3.011-0.741,4.165-1.591c2.773-2.043,5.334-4.381,7.942-6.644
		c0.722-0.625,1.309-1.405,2.192-2.371C184.554,196.65,176.278,181.962,178.239,170.757z M221.618,117.323
		c-2.083-2.329-4.148-2.626-6.932-0.98c-2.236,1.324-4.927,1.928-7.467,2.677c-2.675,0.789-3.189,2.109-1.553,4.31
		c1.481,1.992,3.024,3.961,4.264,6.102c0.638,1.103,1.262,2.838,0.812,3.766c-0.433,0.895-2.252,1.541-3.465,1.545
		c-2.247,0.007-3.199,0.622-3.136,3.018c0.278,10.552,0.344,21.11,0.703,31.658c0.072,2.123,0.855,4.314,1.717,6.297
		c2.061,4.737,3.094,9.396,0.62,14.325c-0.49,0.977-0.658,2.24-0.59,3.348c0.208,3.361,0.593,6.712,0.93,10.065
		c1.363,13.584,2.747,27.165,4.098,40.751c0.467,4.69,0.86,9.387,1.288,14.081c5.147-40.944,6.726-82.271,15.662-122.846
		c-4.641-0.895-8.911-1.638-13.135-2.588c-1.048-0.236-1.946-1.142-2.913-1.74c0.693-1.002,1.193-2.252,2.111-2.96
		c3.368-2.596,6.874-5.012,10.561-7.663c-2.156-0.485-3.811-0.858-5.465-1.231c0.021-0.265,0.042-0.53,0.063-0.795
		C220.398,118.085,221.005,117.707,221.618,117.323z M150.22,172.471c-18.6-10.388-37.028-20.681-55.456-30.974
		c-0.215,0.216-0.43,0.431-0.646,0.646c5.026,20.54,12.649,40.257,19.194,60.342C123.874,198.041,142.379,184.612,150.22,172.471z
		 M196.567,73.789c-0.908-19.918,4.085-37.777,17.988-52.563c-16.055-11.666-39.147-6.347-46.963,9.736
		C184.241,40.444,193.031,55.311,196.567,73.789z M201.648,169.456c0.102-0.444,0.21-0.691,0.208-0.938
		c-0.116-10.461-0.267-20.921-0.342-31.383c-0.013-1.746-0.682-2.341-2.391-2.276c-3.723,0.143-7.456,0.267-11.176,0.144
		c-1.148-0.038-2.27-0.898-3.403-1.382c0.532-1.024,0.884-2.211,1.63-3.044c2.988-3.34,6.099-6.569,9.402-10.095
		c-1.424,0.229-2.458,0.496-3.5,0.531c-0.816,0.029-1.643-0.229-2.465-0.358c0.334-0.769,0.667-1.537,1.336-3.08
		c-1.153,0.59-2.045,0.766-2.471,1.308c-3.69,4.692-8.171,8.335-13.605,10.847c-2.07,0.957-2.145,2.873-0.378,4.385
		c1.818,1.556,3.744,3.026,5.343,4.788c0.976,1.076,2.038,2.705,1.894,3.949c-0.1,0.855-2.124,1.782-3.434,2.13
		c-1.873,0.498-2.407,1.276-1.949,3.169c1.294,5.345,2.462,10.72,3.63,16.095c0.374,1.722,1.186,2.061,2.854,1.521
		c5.84-1.891,11.362-1.066,16.515,2.27C200.068,168.501,200.812,168.94,201.648,169.456z M185.63,211.374
		c3.94,6.155,6.4,12.464,6.154,19.527c-0.252,7.237-3.596,13.201-8.129,18.249c2.401,3.736,4.635,7.24,6.911,10.718
		c0.319,0.488,0.776,1.057,1.288,1.223c5.533,1.788,11.09,3.502,17.161,5.4c-6.355-19.176-12.679-38.251-19.083-57.572
		C188.29,209.856,187.074,210.55,185.63,211.374z M81.504,282.74c-1.31,1.764-2.646,3.292-3.678,5.004
		c-2.7,4.48-6.045,8.497-6.993,14.048c-1.003,5.868-5.238,9.74-10.653,12.053c-5.146,2.197-13.127-2.315-13.187-7.578
		c-0.049-4.356,0.343-8.784,5.041-11.179c1.905-0.971,1.099-1.918-0.3-2.565c-1.449-0.669-2.924-1.319-4.45-1.76
		c-0.621-0.179-1.682-0.036-2.076,0.391c-4.337,4.704-6.346,10.386-4.055,16.392c5.384,14.118,21.394,13.549,27.87,5.636
		c4.695-5.737,8.688-12.062,12.818-18.245c1.735-2.598,3.013-5.501,4.399-8.08C84.604,285.435,83.278,284.282,81.504,282.74z
		 M209.116,257.262c0.288-0.037,0.577-0.075,0.865-0.112c-2.013-20.255-4.025-40.509-5.979-60.16
		c-3.221,2.818-6.278,5.642-9.506,8.256c-1.552,1.256-1.876,2.386-1.22,4.298c3.453,10.073,6.765,20.195,10.113,30.305
		C205.311,245.647,207.208,251.457,209.116,257.262z M134.076,324.537c3.915-0.207,7.691-0.525,11.471-0.581
		c6.834-0.1,13.672-0.082,20.508-0.024c1.799,0.016,2.624-0.545,2.5-2.441c-0.104-1.59-0.246-3.254,0.102-4.778
		c0.626-2.737-0.597-3.164-2.92-3.102c-4.791,0.129-9.589,0.114-14.382,0.068c-4.97-0.048-9.94-0.262-14.909-0.248
		c-0.791,0.002-2.231,0.776-2.264,1.267C133.976,317.851,134.076,321.024,134.076,324.537z M188.031,169.423
		c-5.253,0.043-6.812,1.709-6.074,7.026c0.717,5.168,3.091,9.618,7.003,13.074c3.704,3.274,8.626,3.586,11.987,1.061
		c3.566-2.678,4.413-6.883,2.364-11.739C200.762,172.804,195.184,169.365,188.031,169.423z M191.799,114.009
		c6.946,2.872,16.81,1.978,22.079-1.663c-3.429-4.787-7.332-9.315-10.153-14.438c-2.766-5.023-4.43-10.652-6.255-15.21
		C197.682,97.521,197.682,97.521,191.799,114.009z M53.94,297.092c-3.276,1.286-4.897,4.673-4.54,9.108
		c0.201,2.501,2.47,4.691,5.562,5.244c3.134,0.561,6.245,0.139,8.329-2.32c2.134-2.518,4.35-5.311,5.358-8.368
		c2.433-7.378-0.956-13.266-10.016-14.374c-0.449-0.056-1.274,0.153-1.366,0.427c-0.696,2.086-1.254,4.217-1.882,6.432
		c5.228,0.492,7.707,2.36,7.917,5.518c0.162,2.438-1.163,4.478-3.426,5.014C54.029,305.157,54.907,300.188,53.94,297.092z
		 M96.354,263.877c-3.896,5.563-7.714,10.977-11.48,16.426c-0.96,1.391-0.354,2.562,0.915,3.386
		c1.241,0.805,2.461,0.943,3.474-0.466c3.899-5.422,7.816-10.831,11.713-16.227C99.337,265.89,98.103,265.057,96.354,263.877z
		 M191.404,130.796c3.548,0,6.287,0.09,9.013-0.07c0.607-0.036,1.553-0.881,1.663-1.479c0.251-1.367,0.271-2.842,0.04-4.216
		c-0.401-2.403-2.131-3.004-3.883-1.332C196.022,125.812,193.979,128.103,191.404,130.796z M220.277,128.952
		c0.092,0.234,0.184,0.468,0.275,0.702c2.656,0.52,5.305,1.094,7.977,1.515c0.531,0.084,1.573-0.309,1.667-0.668
		c0.662-2.539,2.202-5.201-0.829-7.864C226.399,124.7,223.338,126.826,220.277,128.952z M168.818,134.226
		c-1.969,3.191-3.939,6.384-5.909,9.578c3.172-0.096,5.83-0.653,8.451-1.35c0.426-0.113,0.999-0.865,0.973-1.29
		C172.176,138.561,172.246,135.786,168.818,134.226z M57.5,296.084c-0.229,0.255-0.456,0.512-0.685,0.768
		c0.142,0.949,0.199,1.923,0.457,2.841c0.168,0.598,0.55,1.482,0.976,1.573c0.538,0.112,1.451-0.292,1.782-0.767
		c0.452-0.647,0.945-1.986,0.649-2.3C59.827,297.298,58.587,296.763,57.5,296.084z M102.867,263.529
		c-0.532-1.158-1.064-2.316-1.595-3.475c-0.784,0.538-2.15,0.991-2.243,1.63C98.726,263.76,100.381,263.95,102.867,263.529z"/>
	<path fill-rule="evenodd" clip-rule="evenodd" fill="#FFFFFF" d="M200.537,67.942c0.036-14.173,3.846-27.147,12.375-38.561
		c11.146-14.913,30.277-17.934,45.588-7.33c10.595,7.338,16.261,17.77,17.903,30.215c2.56,19.408-2.313,36.99-14.811,52.179
		c-6.023,7.322-13.679,12.243-23.472,12.441c-11.239,0.227-19.965-4.97-26.538-13.797C203.844,92.694,200.506,80.833,200.537,67.942
		z"/>
	<path fill-rule="evenodd" clip-rule="evenodd" fill="#FFFFFF" d="M114.6,69.857c0.005-8.839,1.186-16.326,4.81-23.253
		c7.233-13.826,23.699-19.956,39.624-14.872c9.406,3.002,16.868,8.69,22.416,16.712c12.467,18.028,15.399,37.689,8.722,58.513
		c-2.927,9.127-8.746,16.233-18.129,19.654c-8.031,2.929-15.947,1.78-23.616-1.367c-14.866-6.101-23.845-17.676-29.313-32.313
		C116.208,85.155,114.454,77.118,114.6,69.857z"/>
	<path fill-rule="evenodd" clip-rule="evenodd" fill="#FFFFFF" d="M126.417,256.629c18.963,10.519,36.655,7.599,53.871-4.051
		c3.341,3.347,5.392,7.542,7.332,11.801c4.983,10.932,7.22,22.589,9.032,34.354c0.523,3.398,0.963,6.81,1.478,10.479
		c-4.809,0.235-9.374,0.615-13.941,0.649c-12.335,0.091-24.672,0.136-37.006,0.005c-10.905-0.115-21.808-0.499-32.712-0.742
		c-1.482-0.033-2.658-0.162-2.389-2.18c2.208-16.543,4.313-33.109,12.846-47.955C125.363,258.23,125.861,257.505,126.417,256.629z"
		/>
	<path fill-rule="evenodd" clip-rule="evenodd" fill="#FFFFFF" d="M178.239,170.757c-1.961,11.205,6.314,25.894,18.263,26.005
		c-0.884,0.966-1.471,1.746-2.192,2.371c-2.608,2.263-5.169,4.601-7.942,6.644c-1.154,0.85-3.037,0.723-4.165,1.591
		c-1.603,1.231-2.813,2.973-4.191,4.497c0.762,0.502,1.663,1.556,2.258,1.404c1.846-0.47,2.541,0.428,3.301,1.797
		c6.44,11.602,5.528,22.556-3.346,31.495c-7.045,7.099-15.995,10.655-25.896,11.77c-9.004,1.013-17.58-0.325-25.097-5.631
		c-9.07-6.403-12.779-15.847-13.806-26.47c-0.787-8.134,0.689-15.914,4.984-23.001c0.524-0.863,1.218-1.754,2.055-2.279
		c9.274-5.809,18.32-11.885,25.348-20.472c0.273-0.334,0.622-0.677,1.008-0.838C158.231,175.693,167.849,172.43,178.239,170.757z
		 M120.562,222.55c0.019,6.863,4.297,12.109,10.768,13.18c3.597,0.595,6.479-0.638,8.552-3.595
		c4.458-6.36,1.964-14.731-5.214-17.656C127.156,211.418,120.542,215.203,120.562,222.55z M162.344,240.916
		c1.186-0.253,3.492-0.527,5.65-1.246c7.718-2.566,12.619-9.237,11.795-16.019c-0.097-0.791-1.07-1.476-1.637-2.211
		c-0.437,0.723-1.201,1.422-1.255,2.171c-0.284,3.986-1.558,7.428-4.819,9.937c-6.268,4.821-14.129,4.421-20.194-0.869
		c-0.741-0.646-2.079-0.606-3.141-0.884c0.127,1.177-0.151,2.646,0.451,3.481C152.115,239.332,156.394,240.766,162.344,240.916z
		 M138.042,195.669c-0.023,4.538,3.125,7.864,7.5,7.925c4.841,0.067,8.364-3.44,8.375-8.338c0.012-5.021-3.45-9.256-7.583-9.28
		C141.986,185.951,138.067,190.532,138.042,195.669z M155.536,184.997c0.024,4.802,2.974,7.983,7.349,7.927
		c4.603-0.061,8.419-3.893,8.44-8.475c0.021-4.527-3.289-7.704-7.982-7.657C158.722,176.838,155.513,180.211,155.536,184.997z"/>
	<path fill-rule="evenodd" clip-rule="evenodd" fill="#FFFFFF" d="M221.618,117.323c-0.613,0.384-1.22,0.763-1.825,1.141
		c-0.021,0.265-0.042,0.53-0.063,0.795c1.654,0.373,3.309,0.746,5.465,1.231c-3.687,2.651-7.192,5.066-10.561,7.663
		c-0.918,0.708-1.418,1.958-2.111,2.96c0.967,0.598,1.865,1.504,2.913,1.74c4.224,0.95,8.494,1.693,13.135,2.588
		c-8.937,40.575-10.515,81.901-15.662,122.846c-0.428-4.694-0.821-9.391-1.288-14.081c-1.351-13.586-2.734-27.167-4.098-40.751
		c-0.337-3.354-0.722-6.704-0.93-10.065c-0.068-1.107,0.1-2.371,0.59-3.348c2.474-4.929,1.44-9.588-0.62-14.325
		c-0.861-1.982-1.645-4.174-1.717-6.297c-0.359-10.548-0.425-21.106-0.703-31.658c-0.063-2.396,0.889-3.011,3.136-3.018
		c1.213-0.004,3.032-0.65,3.465-1.545c0.449-0.928-0.175-2.664-0.812-3.766c-1.239-2.141-2.782-4.11-4.264-6.102
		c-1.637-2.201-1.122-3.521,1.553-4.31c2.54-0.75,5.23-1.354,7.467-2.677C217.47,114.696,219.535,114.994,221.618,117.323z"/>
	<path fill-rule="evenodd" clip-rule="evenodd" fill="#FFFFFF" d="M150.22,172.471c-7.84,12.142-26.346,25.57-36.907,30.015
		c-6.545-20.085-14.168-39.803-19.194-60.342c0.215-0.215,0.43-0.43,0.646-0.646C113.192,151.79,131.62,162.083,150.22,172.471z"/>
	<path fill-rule="evenodd" clip-rule="evenodd" fill="#FFFFFF" d="M196.567,73.789c-3.536-18.478-12.326-33.345-28.975-42.827
		c7.815-16.083,30.908-21.402,46.963-9.736C200.652,36.011,195.659,53.87,196.567,73.789z"/>
	<path fill-rule="evenodd" clip-rule="evenodd" fill="#FFFFFF" d="M201.648,169.456c-0.837-0.516-1.58-0.954-2.303-1.422
		c-5.152-3.336-10.675-4.161-16.515-2.27c-1.668,0.54-2.479,0.201-2.854-1.521c-1.168-5.375-2.336-10.75-3.63-16.095
		c-0.458-1.893,0.076-2.671,1.949-3.169c1.31-0.348,3.334-1.275,3.434-2.13c0.145-1.244-0.918-2.873-1.894-3.949
		c-1.599-1.762-3.524-3.232-5.343-4.788c-1.767-1.512-1.692-3.428,0.378-4.385c5.435-2.511,9.915-6.154,13.605-10.847
		c0.426-0.542,1.317-0.718,2.471-1.308c-0.669,1.542-1.002,2.311-1.336,3.08c0.822,0.13,1.648,0.387,2.465,0.358
		c1.042-0.036,2.076-0.302,3.5-0.531c-3.304,3.525-6.414,6.755-9.402,10.095c-0.746,0.833-1.098,2.02-1.63,3.044
		c1.134,0.484,2.255,1.344,3.403,1.382c3.72,0.123,7.453-0.001,11.176-0.144c1.709-0.065,2.378,0.53,2.391,2.276
		c0.075,10.461,0.226,20.922,0.342,31.383C201.858,168.764,201.75,169.012,201.648,169.456z"/>
	<path fill-rule="evenodd" clip-rule="evenodd" fill="#FFFFFF" d="M185.63,211.374c1.444-0.824,2.66-1.518,4.303-2.455
		c6.404,19.321,12.728,38.396,19.083,57.572c-6.071-1.898-11.628-3.612-17.161-5.4c-0.512-0.166-0.969-0.734-1.288-1.223
		c-2.276-3.478-4.51-6.981-6.911-10.718c4.533-5.048,7.877-11.012,8.129-18.249C192.03,223.838,189.57,217.529,185.63,211.374z"/>
	<path fill-rule="evenodd" clip-rule="evenodd" fill="#FFFFFF" d="M81.504,282.74c1.774,1.542,3.1,2.694,4.735,4.115
		c-1.386,2.579-2.664,5.482-4.399,8.08c-4.129,6.183-8.123,12.508-12.818,18.245c-6.477,7.913-22.486,8.482-27.87-5.636
		c-2.291-6.006-0.282-11.688,4.055-16.392c0.394-0.427,1.455-0.569,2.076-0.391c1.526,0.44,3.001,1.091,4.45,1.76
		c1.399,0.647,2.205,1.595,0.3,2.565c-4.698,2.395-5.089,6.822-5.041,11.179c0.06,5.263,8.042,9.775,13.187,7.578
		c5.415-2.312,9.65-6.185,10.653-12.053c0.948-5.551,4.293-9.567,6.993-14.048C78.858,286.032,80.194,284.504,81.504,282.74z"/>
	<path fill-rule="evenodd" clip-rule="evenodd" fill="#FFFFFF" d="M209.116,257.262c-1.908-5.805-3.806-11.614-5.726-17.414
		c-3.349-10.109-6.66-20.231-10.113-30.305c-0.656-1.912-0.332-3.042,1.22-4.298c3.228-2.614,6.285-5.438,9.506-8.256
		c1.953,19.651,3.966,39.905,5.979,60.16C209.693,257.187,209.404,257.225,209.116,257.262z"/>
	<path fill-rule="evenodd" clip-rule="evenodd" fill="#FFFFFF" d="M134.076,324.537c0-3.513-0.101-6.687,0.106-9.84
		c0.032-0.49,1.473-1.265,2.264-1.267c4.969-0.014,9.939,0.2,14.909,0.248c4.793,0.046,9.591,0.061,14.382-0.068
		c2.323-0.062,3.546,0.364,2.92,3.102c-0.348,1.524-0.205,3.188-0.102,4.778c0.124,1.896-0.701,2.457-2.5,2.441
		c-6.836-0.058-13.674-0.075-20.508,0.024C141.768,324.012,137.991,324.33,134.076,324.537z"/>
	<path fill-rule="evenodd" clip-rule="evenodd" fill="#FFFFFF" d="M188.031,169.423c7.152-0.059,12.73,3.38,15.28,9.421
		c2.049,4.856,1.202,9.062-2.364,11.739c-3.361,2.525-8.283,2.214-11.987-1.061c-3.912-3.456-6.286-7.906-7.003-13.074
		C181.22,171.132,182.778,169.467,188.031,169.423z M186.527,182.112c0.978,0.697,1.888,1.832,2.947,1.996
		c1.778,0.276,2.629-1.305,2.31-2.733c-0.221-0.99-1.413-2.235-2.393-2.48C187.63,178.455,186.953,179.815,186.527,182.112z
		 M200.745,178.902c-1.711-1.272-2.631-2.47-3.716-2.646c-1.748-0.283-2.386,1.112-2.359,2.755c0.027,1.718,0.93,2.879,2.583,2.562
		C198.271,181.378,199.103,180.212,200.745,178.902z"/>
	<path fill-rule="evenodd" clip-rule="evenodd" fill="#FFFFFF" d="M191.799,114.009c5.883-16.487,5.883-16.487,5.671-31.311
		c1.825,4.558,3.489,10.187,6.255,15.21c2.821,5.124,6.725,9.651,10.153,14.438C208.608,115.986,198.745,116.88,191.799,114.009z"/>
	<path fill-rule="evenodd" clip-rule="evenodd" fill="#FFFFFF" d="M53.94,297.092c0.967,3.096,0.088,8.065,5.936,6.68
		c2.263-0.536,3.588-2.576,3.426-5.014c-0.21-3.157-2.689-5.025-7.917-5.518c0.628-2.215,1.186-4.346,1.882-6.432
		c0.091-0.273,0.917-0.482,1.366-0.427c9.06,1.108,12.449,6.996,10.016,14.374c-1.008,3.058-3.224,5.851-5.358,8.368
		c-2.084,2.459-5.194,2.881-8.329,2.32c-3.091-0.553-5.36-2.743-5.562-5.244C49.043,301.765,50.664,298.378,53.94,297.092z"/>
	<path fill-rule="evenodd" clip-rule="evenodd" fill="#FFFFFF" d="M96.354,263.877c1.748,1.18,2.983,2.013,4.622,3.119
		c-3.897,5.396-7.814,10.805-11.713,16.227c-1.013,1.409-2.233,1.271-3.474,0.466c-1.268-0.823-1.875-1.995-0.915-3.386
		C88.64,274.854,92.459,269.44,96.354,263.877z"/>
	<path fill-rule="evenodd" clip-rule="evenodd" fill="#FFFFFF" d="M191.404,130.796c2.574-2.693,4.618-4.984,6.833-7.097
		c1.752-1.673,3.481-1.072,3.883,1.332c0.23,1.374,0.211,2.85-0.04,4.216c-0.11,0.598-1.056,1.443-1.663,1.479
		C197.691,130.886,194.952,130.796,191.404,130.796z"/>
	<path fill-rule="evenodd" clip-rule="evenodd" fill="#FFFFFF" d="M220.277,128.952c3.061-2.126,6.122-4.252,9.09-6.315
		c3.031,2.663,1.491,5.326,0.829,7.864c-0.094,0.359-1.136,0.752-1.667,0.668c-2.672-0.421-5.32-0.995-7.977-1.515
		C220.461,129.42,220.369,129.187,220.277,128.952z"/>
	<path fill-rule="evenodd" clip-rule="evenodd" fill="#FFFFFF" d="M168.818,134.226c3.428,1.561,3.357,4.335,3.515,6.938
		c0.026,0.425-0.547,1.177-0.973,1.29c-2.621,0.697-5.279,1.254-8.451,1.35C164.879,140.61,166.85,137.417,168.818,134.226z"/>
	<path fill-rule="evenodd" clip-rule="evenodd" fill="#FFFFFF" d="M57.5,296.084c1.087,0.679,2.327,1.214,3.179,2.115
		c0.296,0.313-0.198,1.652-0.649,2.3c-0.331,0.475-1.244,0.879-1.782,0.767c-0.426-0.091-0.808-0.976-0.976-1.573
		c-0.258-0.918-0.314-1.892-0.457-2.841C57.044,296.596,57.271,296.339,57.5,296.084z"/>
	<path fill-rule="evenodd" clip-rule="evenodd" fill="#FFFFFF" d="M102.867,263.529c-2.485,0.421-4.141,0.23-3.838-1.845
		c0.093-0.639,1.459-1.092,2.243-1.63C101.803,261.213,102.335,262.371,102.867,263.529z"/>
	<path fill-rule="evenodd" clip-rule="evenodd" d="M120.562,222.55c-0.021-7.347,6.594-11.132,14.106-8.071
		c7.179,2.925,9.673,11.296,5.214,17.656c-2.073,2.957-4.956,4.189-8.552,3.595C124.86,234.659,120.581,229.413,120.562,222.55z"/>
	<path fill-rule="evenodd" clip-rule="evenodd" d="M162.344,240.916c-5.95-0.15-10.229-1.584-13.15-5.64
		c-0.602-0.835-0.324-2.305-0.451-3.481c1.062,0.277,2.399,0.238,3.141,0.884c6.065,5.29,13.927,5.69,20.194,0.869
		c3.262-2.509,4.535-5.95,4.819-9.937c0.054-0.749,0.818-1.448,1.255-2.171c0.566,0.735,1.54,1.42,1.637,2.211
		c0.824,6.781-4.077,13.452-11.795,16.019C165.836,240.389,163.529,240.663,162.344,240.916z"/>
	<path fill-rule="evenodd" clip-rule="evenodd" d="M138.042,195.669c0.025-5.137,3.944-9.718,8.293-9.693
		c4.133,0.024,7.595,4.26,7.583,9.28c-0.012,4.897-3.535,8.405-8.375,8.338C141.167,203.533,138.019,200.207,138.042,195.669z
		 M140.85,195.262c-0.033,2.992,2.021,5.314,4.739,5.359c2.954,0.049,5.441-2.435,5.417-5.41c-0.022-2.844-2.414-5.713-4.855-5.825
		C143.417,189.261,140.885,192.066,140.85,195.262z"/>
	<path fill-rule="evenodd" clip-rule="evenodd" d="M155.536,184.997c-0.023-4.786,3.186-8.159,7.807-8.205
		c4.693-0.047,8.004,3.13,7.982,7.657c-0.021,4.582-3.838,8.414-8.44,8.475C158.51,192.98,155.561,189.799,155.536,184.997z
		 M162.74,180.141c-2.619,0.015-4.319,1.845-4.33,4.66c-0.011,2.891,1.662,4.854,4.116,4.825c2.95-0.034,5.527-2.394,5.492-5.03
		C167.984,182.023,165.734,180.123,162.74,180.141z"/>
	<path fill-rule="evenodd" clip-rule="evenodd" d="M186.527,182.112c0.426-2.297,1.103-3.657,2.864-3.218
		c0.979,0.245,2.172,1.49,2.393,2.48c0.319,1.429-0.531,3.01-2.31,2.733C188.415,183.944,187.505,182.81,186.527,182.112z"/>
	<path fill-rule="evenodd" clip-rule="evenodd" d="M200.745,178.902c-1.643,1.31-2.475,2.476-3.492,2.671
		c-1.653,0.317-2.556-0.844-2.583-2.562c-0.026-1.643,0.611-3.038,2.359-2.755C198.114,176.433,199.034,177.63,200.745,178.902z"/>
	<path fill-rule="evenodd" clip-rule="evenodd" fill="#FFFFFF" d="M140.85,195.262c0.035-3.195,2.567-6.001,5.301-5.876
		c2.442,0.112,4.833,2.981,4.855,5.825c0.023,2.976-2.463,5.459-5.417,5.41C142.871,200.576,140.817,198.254,140.85,195.262z
		 M145.387,192.246c-0.407,0.002-0.814,0.005-1.222,0.007c-0.674,1.013-2.073,2.235-1.854,2.988
		c0.333,1.145,1.669,2.442,2.815,2.729c0.635,0.158,2.479-1.62,2.463-2.502C147.571,194.382,146.183,193.319,145.387,192.246z"/>
	<path fill-rule="evenodd" clip-rule="evenodd" fill="#FFFFFF" d="M162.74,180.141c2.994-0.018,5.244,1.883,5.278,4.455
		c0.035,2.637-2.542,4.996-5.492,5.03c-2.454,0.028-4.127-1.935-4.116-4.825C158.421,181.985,160.121,180.155,162.74,180.141z
		 M162.637,182.044c-0.393,0.012-0.785,0.023-1.178,0.035c-0.702,0.936-1.903,1.824-1.996,2.816
		c-0.169,1.825,1.232,3.137,2.988,2.878c0.933-0.137,2.375-1.678,2.316-2.493C164.688,184.156,163.404,183.118,162.637,182.044z"/>
	<path fill-rule="evenodd" clip-rule="evenodd" d="M145.387,192.246c0.796,1.073,2.184,2.136,2.203,3.222
		c0.016,0.882-1.829,2.66-2.463,2.502c-1.146-0.286-2.481-1.584-2.815-2.729c-0.219-0.753,1.18-1.976,1.854-2.988
		C144.572,192.251,144.979,192.248,145.387,192.246z"/>
	<path fill-rule="evenodd" clip-rule="evenodd" d="M162.637,182.044c0.768,1.074,2.051,2.112,2.131,3.236
		c0.059,0.815-1.384,2.356-2.316,2.493c-1.756,0.259-3.157-1.053-2.988-2.878c0.093-0.992,1.294-1.881,1.996-2.816
		C161.852,182.067,162.244,182.056,162.637,182.044z"/>
</g>
</svg>
