<?xml version="1.0" encoding="utf-8"?>
<!-- Generator: Adobe Illustrator 16.0.0, SVG Export Plug-In . SVG Version: 6.00 Build 0)  -->
<!DOCTYPE svg PUBLIC "-//W3C//DTD SVG 1.1//EN" "http://www.w3.org/Graphics/SVG/1.1/DTD/svg11.dtd">
<svg version="1.1" id="Lager_1" xmlns="http://www.w3.org/2000/svg" xmlns:xlink="http://www.w3.org/1999/xlink" x="0px" y="0px"
	 width="300px" height="350px" viewBox="0 0 300 350" enable-background="new 0 0 300 350" xml:space="preserve">
<g>
	<path fill="#FFFFFF" d="M-0.758-37.493c96.592,0,193.183,0,289.775,0c0,136.498,0,272.995,0,409.493c-96.592,0-193.183,0-289.775,0
		C-0.758,235.502-0.758,99.005-0.758-37.493z M188.293,310.218c19.17-0.621,38.069,1.7,57.33-0.302c0-8.876,0-16.955,0-25.176
		c5.709,0.592,10.943,0.01,16.124,2.708c5.012,2.612,10.242,0.464,12.412-3.599c1.306-2.445,1.174-4.352-2.022-5.088
		c-3.219,0.948-4.955,7.489-9.892,2.876c4.248-6.379,4.899-10.304,2.271-13.089c-1.781-1.885-6.386-2.363-9.623-0.997
		c-4.122,1.737-4.853,4.169-3.551,12.749c-2.475-0.94-4.668-1.772-5.768-2.191c-3.113-19.622-6.055-38.17-9.149-57.685
		c6.469,4.813,12.455,8.572,16.888,14.625c2.549,3.478,6.465,6.29,10.317,8.388c4.215,2.29,8.487,0.542,11.74-2.739
		c2.881-2.904,2.869-6.459,1.201-10.07c-0.464-1.007-0.873-2.04-1.242-2.909c3.46-5.301,3.786-7.257,1.791-10.02
		c-2.267-3.141-5.903-3.775-11.112-1.843c-1.855,0.687-3.646,1.545-5.069,2.154c-13.383-9.835-26.3-19.329-38.296-28.144
		c0.403-5.598,1.888-10.72,0.785-15.207c-1.104-4.497-4.789-8.359-7.664-13.019c12.21-21.197,10.155-43.564,1.748-66.044
		c11.388-3.706,15.014-13.041,8.917-22.566c6.699-14.113,4.963-27.166-5.537-39.226c2.469-1.184,4.767-2.089,6.865-3.333
		c4.28-2.538,7.456-5.859,7.379-11.332c-0.099-6.781-6.048-12.404-13.481-12.622c-7.08-0.206-13.688,5.66-14.309,12.834
		c-0.188,2.173-0.029,4.376-0.029,6.619c-13.986-2.93-26.646-0.306-37.571,8.924c-2.433,2.054-4.479,2.993-7.729,2.461
		c-1.978-0.323-4.563,0.518-6.284,1.698c-4.488,3.082-8.491,6.737-7.394,13.262c-2.043-0.226-3.404-0.248-4.705-0.54
		c-20.606-4.615-41.545-6.595-62.56-8.008c-6.198-0.417-11.592,1.364-16.219,5.52c-8.513,7.646-10.226,20.911-4.091,31.038
		c5.783,9.548,14.39,15.482,24.534,19.505c2.196,0.872,4.425,1.659,6.907,2.586c-11.232,20.001-13.406,39.938-4.451,60.828
		c-8.465,6.121-10.956,14.708-10.16,23.979c-13.875,10.006-27.254,19.654-40.848,29.458c-1.311-0.697-2.64-1.531-4.069-2.129
		c-1.452-0.608-2.974-1.217-4.517-1.413c-3.177-0.402-5.702,0.802-7.521,3.55c-1.689,2.553-0.816,4.728,0.714,6.872
		c0.616,0.863,1.305,1.675,1.835,2.351c-0.374,0.816-0.565,1.226-0.75,1.638c-2.685,6.019-2.363,8.956,1.343,12.251
		c3.94,3.503,8.271,4.069,13.12,1.057c2.638-1.639,5.281-3.752,7.018-6.273c5.178-7.516,12.695-12.034,20.981-17.833
		c-7.943,29.801-11.55,58.928-11.33,89.023c19.115,0.854,37.213,1.664,55.31,2.492c0.428,0.021,0.862,0.256,1.252,0.465
		c0.125,0.067,0.141,0.375,0.166,0.578c0.027,0.217,0.006,0.44,0.006,0.93c-2.593,0.283-5.225,0.572-7.609,0.832
		c-0.479,0.679-0.908,1.021-0.97,1.418c-0.374,2.411-0.662,4.836-1.009,7.48c-2.609,0.25-5.082,0.28-7.469,0.753
		c-5.552,1.094-7.342,3.593-7.256,9.639c0.083,5.893,1.939,8.673,7.759,9.027c8.781,0.536,17.615,0.233,26.426,0.252
		c2.801,0.008,4.07-1.539,4.108-4.271c0.065-4.758,0.222-9.518,0.244-14.276c0.039-8.977,0.011-8.977-7.752-11.601
		c4.527-1.524,50.119-1.12,63.751,0.565c-7.828,1.7-7.828,1.7-9.263,10.715c-2.144,0.171-4.375,0.277-6.588,0.538
		c-5.754,0.678-7.66,2.663-7.945,8.127c-0.353,6.793,1.005,9.632,7.024,10.217c8.969,0.868,18.047,0.69,27.081,0.749
		c2.483,0.017,4.287-1.396,4.288-4.252c0.001-7.888,0-15.774,0-23.788C192.484,311.535,190.39,310.877,188.293,310.218z"/>
	<path fill-rule="evenodd" clip-rule="evenodd" d="M188.293,310.218c2.097,0.659,4.191,1.317,6.833,2.147
		c0,8.014,0.001,15.9,0,23.788c-0.001,2.856-1.805,4.269-4.288,4.252c-9.034-0.059-18.112,0.119-27.081-0.749
		c-6.02-0.585-7.377-3.424-7.024-10.217c0.285-5.464,2.191-7.449,7.945-8.127c2.213-0.261,4.444-0.367,6.588-0.538
		c1.435-9.015,1.435-9.015,9.263-10.715c-13.633-1.686-59.225-2.09-63.751-0.565c7.763,2.624,7.792,2.624,7.752,11.601
		c-0.022,4.759-0.179,9.519-0.244,14.276c-0.038,2.732-1.307,4.279-4.108,4.271c-8.811-0.019-17.645,0.284-26.426-0.252
		c-5.819-0.354-7.675-3.135-7.759-9.027c-0.086-6.046,1.704-8.545,7.256-9.639c2.387-0.473,4.86-0.503,7.469-0.753
		c0.347-2.645,0.636-5.069,1.009-7.48c0.062-0.396,0.49-0.739,0.97-1.418c2.384-0.26,5.016-0.549,7.609-0.832
		c0-0.489,0.021-0.713-0.006-0.93c-0.025-0.203-0.041-0.511-0.166-0.578c-0.391-0.209-0.825-0.444-1.252-0.465
		c-18.096-0.828-36.194-1.638-55.31-2.492c-0.22-30.096,3.387-59.223,11.33-89.023c-8.286,5.799-15.803,10.317-20.981,17.833
		c-1.737,2.521-4.38,4.635-7.018,6.273c-4.848,3.013-9.179,2.446-13.12-1.057c-3.706-3.295-4.028-6.232-1.343-12.251
		c0.184-0.412,0.376-0.821,0.75-1.638c-0.531-0.676-1.219-1.487-1.835-2.351c-1.53-2.145-2.403-4.319-0.714-6.872
		c1.819-2.748,4.344-3.952,7.521-3.55c1.543,0.196,3.065,0.805,4.517,1.413c1.429,0.598,2.758,1.432,4.069,2.129
		c13.594-9.804,26.973-19.452,40.848-29.458c-0.796-9.271,1.694-17.858,10.16-23.979c-8.956-20.89-6.782-40.827,4.451-60.828
		c-2.482-0.927-4.711-1.714-6.907-2.586c-10.144-4.023-18.751-9.957-24.534-19.505c-6.135-10.127-4.422-23.392,4.091-31.038
		c4.627-4.156,10.021-5.937,16.219-5.52c21.015,1.413,41.954,3.393,62.56,8.008c1.301,0.292,2.662,0.313,4.705,0.54
		c-1.097-6.525,2.906-10.18,7.394-13.262c1.721-1.181,4.307-2.021,6.284-1.698c3.249,0.532,5.296-0.407,7.729-2.461
		c10.926-9.229,23.585-11.854,37.571-8.924c0-2.243-0.159-4.446,0.029-6.619c0.621-7.174,7.229-13.04,14.309-12.834
		c7.434,0.217,13.383,5.841,13.481,12.622c0.077,5.472-3.099,8.793-7.379,11.332c-2.099,1.243-4.396,2.149-6.865,3.333
		c10.5,12.06,12.236,25.113,5.537,39.226c6.097,9.526,2.471,18.86-8.917,22.566c8.407,22.479,10.462,44.847-1.748,66.044
		c2.875,4.659,6.56,8.522,7.664,13.019c1.103,4.487-0.382,9.609-0.785,15.207c11.996,8.814,24.913,18.309,38.296,28.144
		c1.424-0.609,3.214-1.468,5.069-2.154c5.209-1.933,8.846-1.298,11.112,1.843c1.995,2.763,1.669,4.719-1.791,10.02
		c0.369,0.869,0.778,1.902,1.242,2.909c1.668,3.611,1.68,7.166-1.201,10.07c-3.253,3.281-7.525,5.029-11.74,2.739
		c-3.853-2.098-7.769-4.91-10.317-8.388c-4.433-6.053-10.419-9.812-16.888-14.625c3.095,19.515,6.036,38.062,9.149,57.685
		c1.1,0.419,3.293,1.251,5.768,2.191c-1.302-8.58-0.571-11.012,3.551-12.749c3.237-1.366,7.842-0.888,9.623,0.997
		c2.629,2.785,1.978,6.71-2.271,13.089c4.937,4.613,6.673-1.928,9.892-2.876c3.196,0.736,3.328,2.643,2.022,5.088
		c-2.17,4.062-7.4,6.211-12.412,3.599c-5.181-2.698-10.415-2.116-16.124-2.708c0,8.221,0,16.3,0,25.176
		C226.362,311.918,207.463,309.597,188.293,310.218z M185.827,243.973c-4.952,1.783-9.904,3.567-15.596,5.619
		c0.662,2.819,1.389,5.917,2.123,9.046c10.724,0.147,20.501,0.131,30.544-2.871c-0.26-4.987-0.489-9.379-0.75-14.394
		c-6.057,1.01-11.286,1.879-16.516,2.751c5.186-1.772,10.374-3.545,16.237-5.548c-0.605-3.291-1.275-6.931-2.078-11.294
		c-5.401,1.021-10.212,1.932-15.022,2.842c1.481-0.839,2.877-1.95,4.465-2.457c3.126-0.995,6.36-1.653,10.528-2.697
		c-2.853-5.187-5.277-9.592-7.561-13.744c-11.043,2.721-21.031,5.183-31.524,7.771c1.112,2.9,2.369,5.333,2.957,7.919
		c0.794,3.482,2.868,4.114,5.983,3.83c3.143-0.287,6.318-0.218,9.48-0.306c-1.836,0.536-3.649,1.179-5.515,1.58
		c-2.301,0.495-4.645,0.79-7.621,1.278c1.295,4.953,2.39,9.145,3.556,13.604C175.417,245.841,180.622,244.906,185.827,243.973z
		 M105.181,186.595c-0.388-1.903-0.138-4.422-1.275-5.602c-4.598-4.767-9.623-9.123-14.49-13.629
		c-13.788,12.76-9.341,28.988,9.567,35.273c0.927-1.521,1.842-3.022,2.756-4.525c0,2.012,0,4.023,0,6.164
		c7.072,2.827,13.853,6.361,21.869,7.008c1.697-6.51,3.268-12.541,4.843-18.586c-7.276-3.154-14.067-6.1-20.917-9.069
		C106.809,184.543,105.995,185.569,105.181,186.595z M84.887,67.284c3.55-3.804,3.644-8.539,3.088-13.197
		c-0.63-5.288-3.849-7.705-9.021-6.146c-4.405,1.328-8.893,3.391-12.477,6.225c-7.285,5.757-7.743,17.95-1.579,24.969
		c2.865,3.261,5.211,3.87,8.874,1.579c5.204-3.254,9.924-7.069,11.258-13.6L84.887,67.284z M199.231,185.59
		c-0.95-0.748-1.899-1.496-2.133-1.68c-9.868,4.321-19.271,8.44-29.02,12.711c0.527,5.037,1.086,10.37,1.686,16.096
		c11.619-2.343,22.438-5.635,32.46-11.843c-1.101-5.431-2.12-10.457-3.14-15.482c1.807,4.454,3.614,8.909,5.42,13.364
		c5.936-2.981,10.395-7.241,13.386-12.788c4.148-7.69,2.386-13.913-5.232-18.737c-3.428,3.602-6.639,7.413-10.319,10.697
		C199.873,180.125,198.956,182.503,199.231,185.59z M96.531,103.748c-5.526,7.544-8.581,16.308-9.671,25.199
		c-2.512,20.452,3.556,38.394,22.737,49.924c12.232,7.354,25.606,11.199,39.795,12.438c23.246,2.026,42.303-6.255,56.871-24.118
		c15.608-19.139,16.48-40.833,9.268-63.535c-2.623-8.252-6.887-14.965-14.757-19.394c-13.995-7.872-27.708-16.244-41.604-24.296
		c-1.716-0.995-3.785-1.55-5.764-1.897c-16.024-2.812-32.055-5.599-48.112-8.221c-4.588-0.749-9.271-0.925-14.14-1.386
		c2.153,8.552,1.052,15.973-2.856,22.996c-3.914,7.031-9.407,12.305-18.223,14.967c8.509,6.343,16.405,11.173,26.445,11.147
		c2.566-0.007,5.555,3.09,5.989,6.175C100.518,103.748,98.566,103.748,96.531,103.748z M196.066,209.438
		c4.815,7.162,7.2,14.58,8.908,22.391c2.703,12.364,0.965,24.724,0.797,37.091c-0.002,0.205-0.627,0.399-1.459,0.896
		c-0.97-3.066-1.914-6.053-2.926-9.25c-6.427,1.952-1.057,7.72-4.509,10.371c-3.841-1.554,0.231-8.043-5.416-8.845
		c-0.173,3.008-0.336,5.812-0.504,8.701c-3.409-0.649-2.437-3.178-2.927-4.971c-1.044-3.813-1.388-3.929-6.145-2.155
		c-0.938,2.44,2.458,5.588-1.29,7.955c-3.126-2.627,0.15-11.278-8.242-8.604c-0.144,3.178-0.285,6.323-0.429,9.472
		c-0.64,0.056-1.279,0.109-1.92,0.165c-2.979-18.547-6.778-36.852-14.238-53.658c-6.447,0-12.03,0-18.285,0
		c-0.315,3.723-0.604,7.146-0.844,9.974c2.601,0,4.608,0,6.615,0c-0.003,1.298,0.437,2.819-0.088,3.854
		c-1.934,3.812-4.823,0.954-7.543,0.402c-1.789,23.69-3.552,47.037-5.381,71.265c37.188,0.599,73.945,1.191,111.165,1.791
		c0-2.82,0.074-4.609-0.012-6.391c-0.431-8.816-0.828-17.636-1.375-26.444c-1.126-18.109-4.352-35.843-9.311-53.304
		c-1.072-3.775-2.927-6.373-6.11-8.461c-5.09-3.334-10.021-6.91-14.86-10.276C205.28,204.026,201.011,206.535,196.066,209.438z
		 M80.188,194.064C63.74,216.361,55.397,284.187,58.82,302.217c22.074,0.62,44.164,1.241,66.887,1.882
		c1.193-14.781,2.292-28.729,3.452-42.67c1.178-14.164,2.415-28.323,3.653-42.797c-1.24-0.408-2.471-1.029-3.762-1.208
		c-11.336-1.568-21.742-5.937-32.058-10.568C90.527,203.954,84.564,200.328,80.188,194.064z M221.456,70.813
		c7.585-8.925,4.782-24.037-2.4-32.341c-13.149-15.202-40.209-9.629-48.083,1.86C186.154,53.206,202.109,64.803,221.456,70.813z
		 M150.668,49.999c12.317,7.295,23.604,13.862,34.772,20.627c11.3,6.843,22.481,13.881,33.709,20.829
		c1.03-0.961,1.753-1.513,2.328-2.19c6.571-7.737,5.815-10.999-3.455-15.049c-0.414-0.181-0.834-0.353-1.262-0.504
		c-14.885-5.286-28.003-13.528-40.096-23.599c-3.452-2.875-7.393-5.186-11.2-7.61c-3.044-1.938-6.061-1.614-8.665,0.902
		C155.047,45.097,153.47,46.968,150.668,49.999z M125.392,211.741c9.016,2.771,29.762,3.752,38.288,2.166
		c3.012-0.561,4.389-2.114,4.07-5.09c-0.469-4.39-1.039-8.77-1.576-13.235c-12.525,1.814-24.028-0.345-35.947-2.707
		C128.575,199.322,126.979,205.55,125.392,211.741z M107.042,315.568c-0.1,1.711-0.159,2.833-0.231,3.952
		c-0.384,5.847-0.718,6.077-6.431,5.606c-2.211-0.181-4.538-0.384-6.658,0.097c-3.052,0.695-4.228,3.316-4.153,6.198
		c0.07,2.69,2.002,3.446,4.534,3.955c8.55,1.717,16.93,0.321,25.615-0.439c0-6.569,0-12.752,0-19.369
		C115.428,315.568,111.501,315.568,107.042,315.568z M190.468,336.202c0-7.091,0-13.289,0-19.842c-4.338,0-8.268,0-12.146,0
		c-1.465,9.012-1.465,9.002-10.532,9.175c-1.123,0.021-2.303,0.001-3.347,0.34c-1.008,0.327-2.099,0.902-2.761,1.696
		c-3.174,3.804-1.461,8.189,3.833,8.504C173.575,336.557,181.685,336.202,190.468,336.202z M213.191,198.643
		c12.594,9.092,24.817,17.918,37.434,27.026c1.868-1.952,3.475-3.632,5.806-6.069c-12.786-9.258-24.979-18.087-37.186-26.928
		C217.06,194.829,215.301,196.562,213.191,198.643z M219.281,29.012c5.962-0.099,11.935-5.13,11.878-10.005
		c-0.051-4.304-4.949-8.449-9.919-8.395c-5.579,0.061-9.686,4.356-9.638,10.079C211.646,25.834,214.648,29.089,219.281,29.012z
		 M72.764,196.267c-11.216,7.224-21.596,13.816-30.713,22.936c2.153,1.959,3.75,3.41,5.389,4.901
		c3.968-2.787,7.281-5.628,11.037-7.644C66.211,212.308,70.319,205.728,72.764,196.267z M273.938,221.383
		c-0.276-0.511-0.552-1.021-0.827-1.533c-8.666-1.866-12.274,4.981-17.046,9.715c2.922,6.119,5.619,9.21,9.52,9.509
		c2.146,0.164,5.09-0.747,6.401-2.27c0.892-1.039-0.014-4.158-0.857-6.008c-0.84-1.84-2.609-3.254-4.319-5.263
		c1.99-0.874,3.255-1.299,4.377-1.962C272.187,222.981,273.027,222.122,273.938,221.383z M31.303,224.184
		c-2.09,2.469-3.812,3.997-4.849,5.898c-0.774,1.418-1.262,3.501-0.816,4.964c0.776,2.541,6.28,3.127,9.725,1.361
		c3.997-2.049,7.236-6.696,5.68-8.779c-3.205-4.294-6.536-8.659-12.274-9.943c-2.466-0.552-3.749,0.336-4.125,2.987
		C26.751,221.783,28.646,222.782,31.303,224.184z"/>
	<path fill-rule="evenodd" clip-rule="evenodd" fill="#FFFFFF" d="M96.531,103.748c2.035,0,3.987,0,5.979,0
		c-0.435-3.085-3.423-6.182-5.989-6.175c-10.04,0.025-17.937-4.805-26.445-11.147c8.816-2.662,14.309-7.936,18.223-14.967
		c3.908-7.023,5.01-14.444,2.856-22.996c4.87,0.461,9.552,0.638,14.14,1.386c16.057,2.622,32.087,5.409,48.112,8.221
		c1.979,0.347,4.048,0.902,5.764,1.897c13.896,8.052,27.608,16.424,41.604,24.296c7.87,4.428,12.134,11.141,14.757,19.394
		c7.213,22.702,6.341,44.396-9.268,63.535c-14.567,17.863-33.625,26.145-56.871,24.118c-14.188-1.238-27.562-5.084-39.795-12.438
		c-19.182-11.531-25.25-29.472-22.737-49.924C87.951,120.056,91.005,111.292,96.531,103.748z M158.428,137.241
		c-0.63,8.839,4.749,12.812,11.691,13.331c7.805,0.583,16.243-7.732,16.516-15.564c0.202-5.816-5.932-11.677-12.453-11.897
		C165.512,122.816,158.555,129.057,158.428,137.241z M122.66,88.625c3.23-4.855,5.95-3.833,8.135-1.443
		c1.946-1.748,3.638-3.388,5.455-4.875c3.136-2.568,5.93-5.727,4.756-9.815c-1.137-3.957-0.898-7.321,2.18-11.439
		c-1.951,0.704-2.599,0.846-3.153,1.156c-1.4,0.783-2.875,2.477-4.11,2.303c-2.927-0.412-1.517-3.18-1.875-5.003
		c-0.1-0.509-0.462-0.967-0.999-2.037c-0.673,1.311-0.942,2.163-1.472,2.793c-0.893,1.062-1.954,1.985-2.944,2.966
		c-0.938-1.075-1.897-2.132-2.807-3.232c-0.608-0.733-1.143-1.527-1.861-2.498c-0.46,0.896-0.883,1.323-0.825,1.671
		c0.288,1.75,0.702,3.481,1.072,5.218c-0.292-0.089-0.583-0.178-0.875-0.268c-2.114,5.863-4.227,11.725-6.353,17.625
		C122.041,81.604,122.073,81.635,122.66,88.625z M177.201,81.381c-7.7,3.183-8.469,2.788-9.889-5.965
		c-1.266,2.57-2.208,4.481-3.522,7.146c-1.225-0.837-2.604-1.397-3.377-2.417c-0.774-1.025-0.942-2.509-1.376-3.792
		c-0.429,0.105-0.856,0.209-1.283,0.314c0.144,2.32,0.287,4.64,0.473,7.619c-6.895,3.039-5.098,10.554-8.626,17.477
		c6.114-4.599,5.488,0.616,6.733,3.092c3.227-4.024,5.589-1.774,7.136,0.016c2.062-1.576,3.627-2.985,5.39-4.077
		c3.759-2.331,6.418-5.548,5.668-9.99C173.885,87.006,175.182,84.29,177.201,81.381z M104.453,133.202
		c-0.514,0.194-1.028,0.389-1.542,0.584c-1.438,6.391,1.879,11.09,6.581,14.74c8.282,6.432,17.538,6.372,26.804,2.422
		c3.481-1.483,7.351-3.323,7.053-8.487c-3.46,0.422-3.46,0.422-6.061,2.469c-10.926,8.599-25.855,4.302-30.69-8.773
		C106.191,135.059,105.183,134.182,104.453,133.202z"/>
	<path fill-rule="evenodd" clip-rule="evenodd" fill="#FFFFFF" d="M196.066,209.438c4.944-2.903,9.214-5.412,13.673-8.032
		c4.84,3.366,9.771,6.942,14.86,10.276c3.184,2.088,5.038,4.686,6.11,8.461c4.959,17.461,8.185,35.194,9.311,53.304
		c0.547,8.809,0.944,17.628,1.375,26.444c0.086,1.781,0.012,3.57,0.012,6.391c-37.22-0.6-73.977-1.192-111.165-1.791
		c1.829-24.228,3.592-47.574,5.381-71.265c2.72,0.552,5.61,3.409,7.543-0.402c0.524-1.034,0.085-2.556,0.088-3.854
		c-2.007,0-4.014,0-6.615,0c0.239-2.827,0.529-6.251,0.844-9.974c6.255,0,11.838,0,18.285,0
		c7.46,16.807,11.259,35.111,14.238,53.658c0.641-0.056,1.28-0.109,1.92-0.165c0.144-3.148,0.285-6.294,0.429-9.472
		c8.393-2.674,5.116,5.978,8.242,8.604c3.748-2.367,0.352-5.515,1.292-7.955c4.755-1.773,5.099-1.658,6.143,2.155
		c0.49,1.793-0.482,4.321,2.927,4.971c0.168-2.89,0.331-5.693,0.504-8.701c5.647,0.802,1.575,7.291,5.416,8.845
		c3.452-2.651-1.918-8.419,4.509-10.371c1.012,3.197,1.956,6.184,2.926,9.25c0.832-0.497,1.457-0.691,1.459-0.896
		c0.168-12.367,1.906-24.727-0.797-37.091C203.267,224.019,200.882,216.601,196.066,209.438z"/>
	<path fill-rule="evenodd" clip-rule="evenodd" fill="#FFFFFF" d="M80.188,194.064c4.376,6.264,10.34,9.89,16.804,12.791
		c10.315,4.632,20.722,9,32.058,10.568c1.292,0.179,2.522,0.8,3.762,1.208c-1.238,14.474-2.476,28.633-3.653,42.797
		c-1.159,13.941-2.258,27.889-3.452,42.67c-22.723-0.641-44.812-1.262-66.887-1.882C55.397,284.187,63.74,216.361,80.188,194.064z"
		/>
	<path fill-rule="evenodd" clip-rule="evenodd" fill="#FFFFFF" d="M221.456,70.813c-19.347-6.01-35.302-17.608-50.483-30.481
		c7.874-11.489,34.934-17.062,48.083-1.86C226.238,46.776,229.041,61.888,221.456,70.813z"/>
	<path fill-rule="evenodd" clip-rule="evenodd" fill="#FFFFFF" d="M150.668,49.999c2.802-3.031,4.379-4.902,6.132-6.594
		c2.604-2.516,5.621-2.84,8.665-0.902c3.808,2.424,7.748,4.735,11.2,7.61c12.093,10.07,25.211,18.313,40.096,23.599
		c0.428,0.151,0.848,0.324,1.262,0.504c9.271,4.05,10.026,7.312,3.455,15.049c-0.575,0.677-1.298,1.229-2.328,2.19
		c-11.228-6.948-22.409-13.986-33.709-20.829C174.272,63.861,162.985,57.294,150.668,49.999z"/>
	<path fill-rule="evenodd" clip-rule="evenodd" fill="#FFFFFF" d="M125.392,211.741c1.587-6.191,3.184-12.419,4.835-18.866
		c11.919,2.362,23.422,4.521,35.947,2.707c0.537,4.466,1.107,8.846,1.576,13.235c0.318,2.976-1.059,4.529-4.07,5.09
		C155.153,215.493,134.408,214.513,125.392,211.741z"/>
	<path fill-rule="evenodd" clip-rule="evenodd" fill="#FFFFFF" d="M199.085,185.392c1.02,5.025,2.039,10.052,3.14,15.482
		c-10.021,6.208-20.841,9.5-32.46,11.843c-0.6-5.726-1.158-11.059-1.686-16.096c9.748-4.271,19.151-8.39,29.02-12.711
		c0.233,0.184,1.183,0.932,2.133,1.68L199.085,185.392z"/>
	<path fill-rule="evenodd" clip-rule="evenodd" fill="#FFFFFF" d="M85.03,67.113c-1.334,6.531-6.054,10.346-11.258,13.6
		c-3.663,2.291-6.009,1.682-8.874-1.579c-6.164-7.019-5.706-19.211,1.579-24.969c3.584-2.833,8.072-4.897,12.477-6.225
		c5.172-1.559,8.391,0.858,9.021,6.146c0.555,4.659,0.462,9.393-3.088,13.197c-0.184-1.729,0.234-4.012-0.711-5.042
		c-1.083-1.181-3.523-1.914-5.096-1.57c-1.062,0.232-2.322,2.698-2.249,4.099c0.071,1.37,1.566,3.575,2.712,3.768
		C81.244,68.825,83.189,67.659,85.03,67.113z M72.508,62.758c0.132-2.303-2.203-5.042-4.441-4.989
		c-2.708,0.063-4.026,1.842-4.178,4.305c-0.15,2.425,0.843,4.41,3.516,4.876C69.779,67.365,72.372,65.15,72.508,62.758z"/>
	<path fill-rule="evenodd" clip-rule="evenodd" fill="#FFFFFF" d="M101.74,198.111c-0.914,1.503-1.83,3.004-2.756,4.525
		c-18.909-6.285-23.355-22.513-9.567-35.273c4.867,4.506,9.892,8.863,14.49,13.629c1.138,1.18,0.887,3.698,1.275,5.602
		C104.034,190.434,102.888,194.273,101.74,198.111z"/>
	<path fill-rule="evenodd" clip-rule="evenodd" fill="#FFFFFF" d="M101.74,198.111c1.148-3.838,2.294-7.678,3.441-11.517
		c0.813-1.025,1.627-2.052,2.353-2.967c6.85,2.97,13.641,5.915,20.917,9.069c-1.575,6.045-3.146,12.076-4.843,18.586
		c-8.017-0.646-14.797-4.181-21.869-7.008C101.74,202.135,101.74,200.123,101.74,198.111z"/>
	<path fill-rule="evenodd" clip-rule="evenodd" fill="#FFFFFF" d="M179.099,230.439c-3.162,0.088-6.338,0.019-9.48,0.306
		c-3.115,0.284-5.189-0.348-5.983-3.83c-0.588-2.586-1.845-5.019-2.957-7.919c10.493-2.588,20.481-5.05,31.524-7.771
		c2.283,4.152,4.708,8.558,7.561,13.744c-4.168,1.044-7.402,1.702-10.528,2.697c-1.588,0.507-2.983,1.618-4.465,2.457
		C182.879,230.229,180.988,230.335,179.099,230.439z"/>
	<path fill-rule="evenodd" clip-rule="evenodd" fill="#FFFFFF" d="M107.042,315.568c4.459,0,8.387,0,12.675,0
		c0,6.617,0,12.8,0,19.369c-8.685,0.761-17.065,2.156-25.615,0.439c-2.532-0.509-4.464-1.265-4.534-3.955
		c-0.075-2.882,1.101-5.503,4.153-6.198c2.121-0.48,4.447-0.277,6.658-0.097c5.713,0.471,6.047,0.24,6.431-5.606
		C106.883,318.401,106.942,317.279,107.042,315.568z"/>
	<path fill-rule="evenodd" clip-rule="evenodd" fill="#FFFFFF" d="M190.468,336.202c-8.783,0-16.893,0.354-24.952-0.127
		c-5.294-0.314-7.007-4.7-3.833-8.504c0.662-0.794,1.753-1.369,2.761-1.696c1.044-0.339,2.224-0.318,3.347-0.34
		c9.067-0.173,9.067-0.163,10.532-9.175c3.878,0,7.808,0,12.146,0C190.468,322.913,190.468,329.111,190.468,336.202z"/>
	<path fill-rule="evenodd" clip-rule="evenodd" fill="#FFFFFF" d="M179.099,230.439c1.89-0.104,3.78-0.211,5.671-0.315
		c4.811-0.91,9.621-1.82,15.022-2.842c0.803,4.363,1.473,8.003,2.078,11.294c-5.863,2.003-11.052,3.775-16.237,5.548l0.194-0.151
		c-5.205,0.934-10.41,1.868-16.309,2.929c-1.166-4.459-2.261-8.65-3.556-13.604c2.977-0.488,5.32-0.783,7.621-1.278
		C175.449,231.618,177.263,230.976,179.099,230.439z"/>
	<path fill-rule="evenodd" clip-rule="evenodd" fill="#FFFFFF" d="M185.633,244.124c5.229-0.872,10.459-1.741,16.516-2.751
		c0.261,5.015,0.49,9.406,0.75,14.394c-10.043,3.002-19.82,3.019-30.544,2.871c-0.734-3.129-1.461-6.227-2.123-9.046
		c5.691-2.052,10.644-3.836,15.596-5.619L185.633,244.124z"/>
	<path fill-rule="evenodd" clip-rule="evenodd" fill="#FFFFFF" d="M199.231,185.59c-0.275-3.087,0.642-5.465,3.107-7.662
		c3.681-3.284,6.892-7.095,10.319-10.697c7.618,4.824,9.381,11.046,5.232,18.737c-2.991,5.547-7.45,9.807-13.386,12.788
		c-1.806-4.455-3.613-8.91-5.42-13.364L199.231,185.59z"/>
	<path fill-rule="evenodd" clip-rule="evenodd" fill="#FFFFFF" d="M213.191,198.643c2.109-2.08,3.868-3.813,6.054-5.971
		c12.207,8.841,24.399,17.67,37.186,26.928c-2.331,2.438-3.938,4.117-5.806,6.069C238.009,216.561,225.785,207.734,213.191,198.643z
		"/>
	<path fill-rule="evenodd" clip-rule="evenodd" fill="#FFFFFF" d="M219.281,29.012c-4.633,0.077-7.636-3.178-7.679-8.32
		c-0.048-5.723,4.059-10.018,9.638-10.079c4.97-0.055,9.868,4.091,9.919,8.395C231.216,23.882,225.243,28.914,219.281,29.012z"/>
	<path fill-rule="evenodd" clip-rule="evenodd" fill="#FFFFFF" d="M72.764,196.267c-2.445,9.461-6.553,16.041-14.287,20.193
		c-3.756,2.016-7.069,4.856-11.037,7.644c-1.639-1.491-3.236-2.942-5.389-4.901C51.168,210.083,61.548,203.49,72.764,196.267z"/>
	<path fill-rule="evenodd" clip-rule="evenodd" fill="#FFFFFF" d="M273.938,221.383c-0.911,0.739-1.752,1.599-2.752,2.188
		c-1.122,0.663-2.387,1.088-4.377,1.962c1.71,2.009,3.479,3.423,4.319,5.263c0.844,1.85,1.749,4.969,0.857,6.008
		c-1.312,1.522-4.255,2.434-6.401,2.27c-3.9-0.299-6.598-3.39-9.52-9.509c4.771-4.733,8.38-11.581,17.046-9.715
		C273.387,220.361,273.662,220.872,273.938,221.383z"/>
	<path fill-rule="evenodd" clip-rule="evenodd" fill="#FFFFFF" d="M31.303,224.184c-2.657-1.401-4.551-2.4-6.659-3.512
		c0.376-2.651,1.659-3.539,4.125-2.987c5.738,1.284,9.069,5.649,12.274,9.943c1.556,2.083-1.683,6.73-5.68,8.779
		c-3.445,1.766-8.949,1.18-9.725-1.361c-0.446-1.463,0.042-3.546,0.816-4.964C27.491,228.181,29.213,226.652,31.303,224.184z"/>
	<path fill-rule="evenodd" clip-rule="evenodd" fill="#FFFFFF" d="M158.428,137.241c0.127-8.184,7.084-14.424,15.754-14.13
		c6.521,0.22,12.655,6.081,12.453,11.897c-0.272,7.833-8.711,16.147-16.516,15.564C163.177,150.053,157.798,146.08,158.428,137.241z
		"/>
	<path fill-rule="evenodd" clip-rule="evenodd" d="M122.66,88.625c-0.587-6.99-0.619-7.021-5.676-6.878
		c2.126-5.9,4.239-11.762,6.353-17.625c0.292,0.09,0.583,0.179,0.875,0.268c-0.37-1.737-0.784-3.468-1.072-5.218
		c-0.058-0.348,0.364-0.775,0.825-1.671c0.718,0.971,1.253,1.765,1.861,2.498c0.909,1.1,1.869,2.157,2.807,3.232
		c0.99-0.981,2.051-1.904,2.944-2.966c0.53-0.63,0.799-1.482,1.472-2.793c0.537,1.07,0.898,1.528,0.999,2.037
		c0.358,1.823-1.052,4.592,1.875,5.003c1.234,0.174,2.709-1.52,4.11-2.303c0.554-0.31,1.203-0.453,3.153-1.156
		c-3.078,4.118-3.316,7.482-2.18,11.439c1.174,4.088-1.62,7.247-4.756,9.815c-1.817,1.487-3.509,3.127-5.455,4.875
		C128.61,84.792,125.89,83.77,122.66,88.625z M124.16,78.167c3.909,3.391,7.23,3.105,10.529-0.478
		c2.413-2.621,2.685-5.882,0.234-7.733c-1.545-1.167-3.664-2.213-5.498-2.168c-1.657,0.04-3.276,1.636-4.46,2.295
		c1.965,1.556,4.535,2.565,4.799,3.999C130.447,77.792,126.289,76.403,124.16,78.167z"/>
	<path fill-rule="evenodd" clip-rule="evenodd" d="M177.201,81.381c-2.02,2.909-3.316,5.625-2.675,9.423
		c0.75,4.442-1.909,7.66-5.668,9.99c-1.763,1.092-3.328,2.501-5.39,4.077c-1.547-1.79-3.909-4.041-7.136-0.016
		c-1.245-2.477-0.619-7.691-6.733-3.092c3.529-6.922,1.732-14.438,8.626-17.477c-0.186-2.979-0.329-5.299-0.473-7.619
		c0.427-0.105,0.854-0.209,1.283-0.314c0.434,1.283,0.602,2.767,1.376,3.792c0.772,1.021,2.152,1.58,3.377,2.417
		c1.314-2.666,2.257-4.577,3.522-7.146C168.732,84.169,169.501,84.563,177.201,81.381z M156.494,93.337
		c2.06,5.062,4.84,6.082,9.468,3.924c3.785-1.765,5.041-5.459,3.051-8.966c-1.883-3.315-4.615-3.323-9.68,0.016
		c1.826,1.105,5.597,0.764,4.154,4.405C162.073,96.286,159.047,93.808,156.494,93.337z"/>
	<path fill-rule="evenodd" clip-rule="evenodd" d="M104.453,133.202c0.729,0.98,1.738,1.857,2.145,2.956
		c4.835,13.075,19.765,17.372,30.69,8.773c2.6-2.047,2.6-2.047,6.061-2.469c0.298,5.164-3.572,7.003-7.053,8.487
		c-9.266,3.949-18.522,4.01-26.804-2.422c-4.702-3.65-8.02-8.349-6.581-14.74C103.425,133.591,103.939,133.396,104.453,133.202z"/>
	<path fill-rule="evenodd" clip-rule="evenodd" d="M72.508,62.758c-0.136,2.392-2.729,4.606-5.104,4.192
		c-2.673-0.466-3.666-2.451-3.516-4.876c0.152-2.462,1.47-4.242,4.178-4.305C70.305,57.716,72.64,60.455,72.508,62.758z"/>
	<path fill-rule="evenodd" clip-rule="evenodd" d="M85.03,67.113c-1.841,0.546-3.786,1.712-5.488,1.426
		c-1.146-0.193-2.642-2.398-2.712-3.768c-0.073-1.401,1.187-3.867,2.249-4.099c1.573-0.343,4.013,0.389,5.096,1.57
		c0.946,1.03,0.527,3.313,0.711,5.042L85.03,67.113z"/>
	<path fill-rule="evenodd" clip-rule="evenodd" fill="#FFFFFF" d="M124.16,78.167c2.128-1.765,6.287-0.375,5.604-4.085
		c-0.264-1.434-2.833-2.443-4.799-3.999c1.184-0.66,2.803-2.255,4.46-2.295c1.833-0.045,3.953,1.001,5.498,2.168
		c2.451,1.851,2.178,5.112-0.234,7.733C131.39,81.273,128.069,81.559,124.16,78.167z"/>
	<path fill-rule="evenodd" clip-rule="evenodd" fill="#FFFFFF" d="M156.494,93.337c2.553,0.47,5.579,2.949,6.993-0.621
		c1.442-3.642-2.328-3.3-4.154-4.405c5.064-3.339,7.797-3.332,9.68-0.016c1.99,3.506,0.734,7.201-3.051,8.966
		C161.334,99.419,158.554,98.4,156.494,93.337z"/>
</g>
</svg>
