<?xml version="1.0" encoding="utf-8"?>
<!-- Generator: Adobe Illustrator 16.0.0, SVG Export Plug-In . SVG Version: 6.00 Build 0)  -->
<!DOCTYPE svg PUBLIC "-//W3C//DTD SVG 1.1//EN" "http://www.w3.org/Graphics/SVG/1.1/DTD/svg11.dtd">
<svg version="1.1" id="Lager_1" xmlns="http://www.w3.org/2000/svg" xmlns:xlink="http://www.w3.org/1999/xlink" x="0px" y="0px"
	 width="300px" height="350px" viewBox="0 0 300 350" enable-background="new 0 0 300 350" xml:space="preserve">
<g>
	<path fill="#FFFFFF" d="M7.856-4.682c96.19,0,192.381,0,288.571,0c0,126.889,0,253.778,0,380.668c-96.19,0-192.381,0-288.571,0
		C7.856,249.097,7.856,122.208,7.856-4.682z M245.87,180.161c3.767,3.049,7.936,4.23,12.388,4.511
		c6.287,0.395,12.145-0.887,17.236-4.773c2.981-2.275,3.87-5.657,4.476-9.133c0.733-4.216,2.473-7.67,6.754-9.34
		c6.73-2.624,5.077-11.305,0.548-14.612c-5.179-3.781-10.888-3.088-16.513-1.208c-2.059,0.689-3.006,0.175-4.054-1.61
		c-1.386-2.358-2.837-4.878-4.869-6.618c-6.484-5.552-13.168-6.194-20.613-0.809c-1.85,1.337-3.573,2.849-5.33,4.31
		c-3.659,3.043-4.607,2.896-8.468,0.373c-4.075-2.664-7.251-6.813-12.234-7.949c-2.878-0.656-3.809-2.843-5.142-4.866
		c1.414-1.154,2.765-2.059,3.876-3.197c4.895-5.013,9.671-10.073,9.237-17.9c-0.251-4.526-3.821-7.973-8.317-8.3
		c-4.874-0.354-8.731,1.476-11.683,5.008c-2.882,3.45-5.295,7.291-8.017,11.103c-1.947-1.247-4.338-2.776-6.751-4.319
		c0.252-0.424,0.364-0.65,0.511-0.853c4.054-5.633,7.338-11.53,7.337-18.786c-0.001-7.08-6.081-10.392-12.107-8.57
		c-6.058,1.83-9.331,6.396-10.534,12.47c-0.546,2.755-0.869,5.554-1.286,8.294c-4.823-1.434-9.602-3.165-14.523-4.244
		c-7.489-1.643-15.062-2.931-22.63-4.185c-5.941-0.983-11.752-3.24-17.95-2.08c-0.229,0.043-0.522-0.038-0.734-0.154
		c-2.06-1.133-4.109-2.286-6.259-3.487c0.241-0.354,0.384-0.661,0.61-0.884c5.413-5.333,4.269-17.221-2.129-21.504
		c-6.621-4.433-13.636-3.837-20.591-1.458c-2.777,0.949-5.127,3.145-7.854,4.889c-1.78-1.238-3.741-2.917-5.968-4.086
		c-4.357-2.288-9.033-3.085-13.991-2.472c-5.831,0.722-10.283,2.73-11.923,8.886c-0.317-0.092-0.647-0.148-0.942-0.282
		c-4.09-1.855-8.401-2.627-12.855-2.358c-3.406,0.206-6.724,0.764-9.105,3.698c-2.266,2.792-1.484,5.877-1.235,8.997
		c0.162,2.032,0.262,4.22-0.314,6.125c-0.876,2.895-2.462,5.567-3.566,8.404c-1.333,3.426-0.086,7.666,2.818,10.043
		c2.137,1.749,4.512,3.439,7.348,2.305c2.861-1.144,5.546-2.781,8.188-4.4c2-1.226,3.809-2.762,5.771-4.211
		c0.515,1.137,0.868,2.185,1.428,3.109c3.828,6.319,8.97,11.294,16.14,13.344c5.396,1.543,10.846,1.018,15.86-2.143
		c2.986-1.883,4.577-4.552,5.409-8.144c4.643,1.232,9.071,2.407,13.589,3.605c-2.15,6.333-1.248,12.271,2.567,17.444
		c6.036,8.183,13.383,15.062,22.228,20.208c1.94,1.129,4.023,2.014,6.071,3.026c-9.312,16.851-9.245,32.52,4.388,46.792
		c-3.473,5.587-6.924,11.142-10.235,16.469c-4.581,0-9.118,0-13.703,0c-0.897-5.457-4.192-8.574-9.152-9.149
		c-5.48-0.634-8.96,2.57-10.663,7.584c-1.488-0.614-2.839-1.089-4.114-1.719c-1.452-0.718-2.724-1.212-3.406,0.896
		c-0.621,1.918,0.001,3.049,1.943,3.684c1.377,0.451,2.653,1.212,4.603,2.132c-1.917,0.615-3.188,0.847-4.283,1.418
		c-1.691,0.882-3.35,1.888-4.824,3.084c-0.411,0.333-0.405,1.65-0.11,2.298c1.107,2.425,2.89,0.989,4.324,0.438
		c1.661-0.64,2.689-0.951,2.865,1.456c0.061,0.836,1.06,1.873,1.892,2.274c0.44,0.212,1.747-0.567,2.13-1.215
		c0.836-1.414,1.844-1.503,3.222-1.121c1.94,0.538,3.948,0.861,5.841,1.521c0.569,0.197,1.232,1.226,1.206,1.847
		c-0.11,2.543-0.471,5.076-0.744,7.659c-1.441-1.116-2.495-2.374-3.833-2.872c-2.416-0.901-4.985-1.422-7.518-1.973
		c-8.173-1.778-16.163-0.376-24.002,1.845c-2.23,0.632-4.24,2.276-6.159,3.713c-2.07,1.548-1.301,3.804-1.012,5.902
		c0.109,0.795-0.063,1.629-0.105,2.41c-4.037,0.33-7.841,0.562-11.628,0.967c-8.726,0.932-17.447,1.906-26.158,2.959
		c-1.929,0.232-3.15,1.266-2.438,2.959c13.643-1.35,27.065-2.678,40.57-4.015c0.29,2.366,0.429,4.04,0.708,5.689
		c0.973,5.738,2.18,11.444,2.929,17.21c0.476,3.661,2.085,4.765,5.737,4.809c6.87,0.084,13.722,0.717,20.5-1.014
		c2.466-0.63,4.983-1.061,7.478-1.581c-1.897,2.275-3.215,4.208-0.815,7c1.129,1.315-0.36,3.198-2.191,3.558
		c-2.801,0.55-5.674,1.03-8.312,2.062c-7.329,2.868-11.973,8.507-15.23,15.48c-5.486,11.742-2.799,24.652,6.336,33.45
		c8.542,8.227,19.083,10.183,30.354,6.443c7.505-2.49,13.2-7.346,16.794-14.559c3.896-7.817,4.342-15.983,1.342-23.938
		c-3.967-10.52-12.11-16.579-23.156-18.816c0-0.833,0-1.622,0-2.401c2.515,0.596,4.933,1.031,7.266,1.747
		c8.858,2.716,16.419,7.816,24.066,12.869c5.352,3.536,11.057,6.635,16.885,9.32c5.087,2.344,10.565,3.837,15.265,5.493
		c-2.107,0-4.921-0.044-7.732,0.014c-2.266,0.047-4.583,1.846-4.729,3.544c-0.132,1.538,1.952,3.51,4.183,3.795
		c1.929,0.246,3.875,0.384,5.818,0.47c1.745,0.076,3.496,0.016,5.229,0.016c0.005,3.02,0.625,3.697,3.207,3.749
		c1.79,0.035,3.604-0.181,5.367,0.038c3.271,0.405,4.703-0.649,3.15-4.707c3.698-0.707,4.007-1.177,2.964-4.815
		c3.152,0.315,6.227,0.622,9.254,0.924c0.909,19.194,14.688,27.865,25.363,28.69c17.869,1.38,28.545-7.437,32.518-20.818
		c4.687-15.791-2.858-29.293-15.478-35.366c-8.561-4.118-17.274-4.231-25.931,0.015c-8.531,4.183-13.175,11.486-16.187,20.046
		c0-6.934,0-13.866,0-21.064c1.771,0,3.199,0.019,4.627-0.004c2.779-0.046,4.092-1.266,4.029-4.067
		c-0.03-1.354-0.536-2.698-0.841-4.115c0.399-0.02,0.988-0.064,1.577-0.073c9.277-0.144,18.555-0.281,27.832-0.424
		c2.894-0.046,3.881-1.354,3.409-4.207c-0.536-3.255-0.947-6.532-1.369-9.805c-0.221-1.708-0.349-3.428-0.584-5.816
		c3.504,0.583,6.462,1.014,9.396,1.574c4.637,0.885,8.93,0.76,12.319-3.235c0.541-0.638,1.76-1.13,2.581-1.026
		c4.688,0.593,9.415,1.112,14.008,2.175c7.279,1.685,14.464,3.776,21.786,5.722c0.618-1.762,0.331-3.078-1.761-3.606
		c-7.612-1.923-15.249-3.756-22.82-5.826c-4.483-1.226-9.506-0.338-13.523-3.485c-0.45-0.352-1.461-0.095-2.186,0.031
		c-1.551,0.269-3.085,0.635-4.689,0.975c-0.429-5.645-2.882-9.051-6.295-9.308c-3.182-0.239-6.506,2.863-7.519,7.116
		c-0.964-0.053-1.949-0.106-2.5-0.136c-2.42-8.556-4.625-16.869-7.138-25.088c-2.529-8.267-6.332-15.961-11.561-23.021
		c4.664-4.355,8.056-9.363,10.372-15.129c0.186-0.463,1.562-0.81,2.25-0.646c4.192,0.996,8.368,1.908,12.72,1.236
		C238.436,186.057,242.908,184.929,245.87,180.161z M217.827,41.437c0.872,3.727,1.453,7.463,2.636,11
		c2.124,6.354,6.515,11.011,12.204,14.382c4.638,2.749,9.62,4.019,15.065,2.751c5.992-1.395,10.408-4.89,13.938-9.808
		c6.31-8.788,8.962-18.321,5.955-28.947c-1.597-5.643-4.973-9.854-10.689-12.008c-6.626-2.497-13.361-2.834-20.12-1.034
		c-7.266,1.935-13.186,5.975-16.274,13.035C219.127,34.042,218.738,37.728,217.827,41.437z M248.231,10.971
		c0.332,0.335,0.989,1.501,1.578,1.468c0.729-0.042,1.823-0.968,2.019-1.707c0.684-2.585,0.953-5.277,1.573-7.882
		c0.279-1.175,0.638-2.143-0.879-2.566c-1.429-0.399-2.334,0.284-2.614,1.62C249.325,4.69,248.864,7.502,248.231,10.971z
		 M215.714,11.015c2.034,2.432,4.027,4.615,5.774,6.98c0.946,1.282,2.047,1.753,3.118,0.807c0.47-0.416,0.408-2.132-0.064-2.786
		c-1.462-2.021-3.232-3.821-4.896-5.697C217.828,8.268,217.027,8.412,215.714,11.015z M204.057,37.784
		c-0.67,0.6-1.958,1.263-1.921,1.841c0.05,0.781,0.981,1.885,1.776,2.166c2.377,0.84,4.854,1.435,7.334,1.921
		c0.608,0.12,1.9-0.468,1.951-0.853c0.101-0.759-0.243-2.117-0.764-2.326C209.864,39.505,207.177,38.771,204.057,37.784z
		 M220.882,70.643c-0.53-0.494-0.938-1.191-1.438-1.265c-0.728-0.106-1.733-0.011-2.246,0.433c-1.726,1.497-3.267,3.206-4.917,4.793
		c-0.984,0.947-1.995,2.083-0.646,3.147c0.542,0.427,2.248-0.024,3.021-0.608c1.878-1.422,3.544-3.133,5.242-4.782
		C220.288,71.984,220.466,71.391,220.882,70.643z M256.046,82.831c-0.193-0.151-0.387-0.301-0.58-0.452
		c-0.113-2.279-0.067-4.584-0.422-6.825c-0.136-0.854-1.138-2.148-1.838-2.211c-1.402-0.127-1.885,1.092-1.772,2.48
		c0.187,2.273,0.125,4.586,0.549,6.811c0.171,0.896,1.348,1.601,2.067,2.392C254.715,84.293,255.381,83.562,256.046,82.831z
		 M280.339,58.728c0.826-0.593,1.811-0.937,1.97-1.511c0.167-0.605-0.247-1.815-0.765-2.09c-2.222-1.181-4.535-2.228-6.908-3.058
		c-0.582-0.203-1.644,0.466-2.218,1.014c-0.2,0.192,0.212,1.55,0.67,1.819C275.388,56.25,277.796,57.411,280.339,58.728z
		 M279.937,21.677c-2.69,1.079-5.067,1.923-7.312,3.034c-0.405,0.201-0.469,1.541-0.302,2.265c0.086,0.372,1.127,0.879,1.571,0.751
		c2.246-0.646,4.48-1.382,6.618-2.32c0.5-0.219,0.884-1.375,0.805-2.037C281.246,22.782,280.459,22.278,279.937,21.677z"/>
	<path fill-rule="evenodd" clip-rule="evenodd" d="M245.87,180.161c-2.962,4.768-7.435,5.896-12.126,6.618
		c-4.352,0.672-8.527-0.24-12.72-1.236c-0.688-0.163-2.064,0.184-2.25,0.646c-2.316,5.766-5.708,10.773-10.372,15.129
		c5.229,7.061,9.031,14.755,11.561,23.021c2.513,8.219,4.718,16.532,7.138,25.088c0.551,0.029,1.536,0.083,2.5,0.136
		c1.013-4.253,4.337-7.355,7.519-7.116c3.413,0.257,5.866,3.663,6.295,9.308c1.604-0.34,3.139-0.706,4.689-0.975
		c0.725-0.126,1.735-0.383,2.186-0.031c4.018,3.147,9.04,2.26,13.523,3.485c7.571,2.07,15.208,3.903,22.82,5.826
		c2.092,0.528,2.379,1.845,1.761,3.606c-7.322-1.945-14.507-4.037-21.786-5.722c-4.593-1.062-9.319-1.582-14.008-2.175
		c-0.821-0.104-2.04,0.389-2.581,1.026c-3.39,3.995-7.683,4.12-12.319,3.235c-2.934-0.561-5.892-0.991-9.396-1.574
		c0.235,2.389,0.363,4.108,0.584,5.816c0.422,3.272,0.833,6.55,1.369,9.805c0.472,2.854-0.516,4.161-3.409,4.207
		c-9.277,0.143-18.555,0.28-27.832,0.424c-0.589,0.009-1.178,0.054-1.577,0.073c0.305,1.417,0.811,2.761,0.841,4.115
		c0.062,2.802-1.25,4.021-4.029,4.067c-1.428,0.022-2.855,0.004-4.627,0.004c0,7.198,0,14.131,0,21.064
		c3.012-8.56,7.655-15.863,16.187-20.046c8.656-4.246,17.37-4.133,25.931-0.015c12.619,6.073,20.164,19.575,15.478,35.366
		c-3.973,13.382-14.648,22.198-32.518,20.818c-10.675-0.825-24.454-9.496-25.363-28.69c-3.027-0.302-6.102-0.608-9.254-0.924
		c1.043,3.639,0.734,4.108-2.964,4.815c1.553,4.058,0.12,5.112-3.15,4.707c-1.764-0.219-3.577-0.003-5.367-0.038
		c-2.582-0.052-3.202-0.729-3.207-3.749c-1.733,0-3.484,0.061-5.229-0.016c-1.943-0.086-3.89-0.224-5.818-0.47
		c-2.23-0.285-4.314-2.257-4.183-3.795c0.146-1.698,2.463-3.497,4.729-3.544c2.812-0.058,5.625-0.014,7.732-0.014
		c-4.699-1.656-10.178-3.149-15.265-5.493c-5.828-2.686-11.534-5.784-16.885-9.32c-7.646-5.053-15.208-10.153-24.066-12.869
		c-2.333-0.716-4.751-1.151-7.266-1.747c0,0.779,0,1.568,0,2.401c11.046,2.237,19.189,8.297,23.156,18.816
		c3,7.954,2.553,16.12-1.342,23.938c-3.594,7.213-9.289,12.068-16.794,14.559c-11.272,3.739-21.812,1.783-30.354-6.443
		c-9.135-8.798-11.822-21.708-6.336-33.45c3.258-6.974,7.902-12.612,15.23-15.48c2.637-1.031,5.51-1.512,8.312-2.062
		c1.831-0.359,3.321-2.242,2.191-3.558c-2.4-2.792-1.083-4.725,0.815-7c-2.495,0.521-5.012,0.951-7.478,1.581
		c-6.778,1.73-13.629,1.098-20.5,1.014c-3.652-0.044-5.261-1.147-5.737-4.809c-0.749-5.766-1.956-11.472-2.929-17.21
		c-0.279-1.649-0.419-3.323-0.708-5.689c-13.505,1.337-26.928,2.665-40.57,4.015c-0.712-1.693,0.509-2.727,2.438-2.959
		c8.711-1.053,17.433-2.027,26.158-2.959c3.787-0.404,7.591-0.637,11.628-0.967c0.042-0.781,0.214-1.615,0.105-2.41
		c-0.289-2.099-1.058-4.354,1.012-5.902c1.919-1.437,3.928-3.081,6.159-3.713c7.839-2.221,15.829-3.623,24.002-1.845
		c2.533,0.551,5.102,1.071,7.518,1.973c1.338,0.498,2.392,1.756,3.833,2.872c0.273-2.583,0.633-5.116,0.744-7.659
		c0.026-0.621-0.636-1.649-1.206-1.847c-1.893-0.659-3.901-0.982-5.841-1.521c-1.377-0.382-2.386-0.293-3.222,1.121
		c-0.383,0.647-1.69,1.427-2.13,1.215c-0.833-0.401-1.832-1.438-1.892-2.274c-0.176-2.407-1.205-2.096-2.865-1.456
		c-1.434,0.551-3.217,1.986-4.324-0.438c-0.295-0.647-0.301-1.965,0.11-2.298c1.475-1.196,3.133-2.202,4.824-3.084
		c1.095-0.571,2.366-0.803,4.283-1.418c-1.95-0.92-3.225-1.681-4.603-2.132c-1.942-0.635-2.564-1.766-1.943-3.684
		c0.682-2.108,1.954-1.614,3.406-0.896c1.274,0.63,2.625,1.104,4.114,1.719c1.702-5.014,5.182-8.218,10.663-7.584
		c4.96,0.575,8.255,3.692,9.152,9.149c4.584,0,9.122,0,13.703,0c3.311-5.327,6.762-10.882,10.235-16.469
		c-13.633-14.272-13.7-29.941-4.388-46.792c-2.048-1.013-4.131-1.897-6.071-3.026c-8.845-5.146-16.192-12.025-22.228-20.208
		c-3.815-5.173-4.718-11.111-2.567-17.444c-4.518-1.199-8.946-2.374-13.589-3.605c-0.832,3.591-2.422,6.26-5.409,8.144
		c-5.015,3.161-10.465,3.687-15.86,2.143c-7.17-2.05-12.312-7.025-16.14-13.344c-0.56-0.924-0.913-1.972-1.428-3.109
		c-1.961,1.449-3.771,2.986-5.771,4.211c-2.642,1.62-5.328,3.256-8.188,4.4c-2.836,1.135-5.211-0.556-7.348-2.305
		c-2.905-2.377-4.152-6.617-2.818-10.043c1.104-2.837,2.69-5.509,3.566-8.404c0.576-1.905,0.476-4.093,0.314-6.125
		c-0.249-3.119-1.031-6.204,1.235-8.997c2.381-2.935,5.699-3.493,9.105-3.698c4.455-0.269,8.766,0.503,12.855,2.358
		c0.295,0.134,0.625,0.19,0.942,0.282c1.641-6.156,6.092-8.164,11.923-8.886c4.958-0.613,9.634,0.185,13.991,2.472
		c2.228,1.17,4.188,2.848,5.968,4.086c2.727-1.745,5.077-3.94,7.854-4.889c6.955-2.379,13.97-2.974,20.591,1.458
		c6.398,4.284,7.542,16.171,2.129,21.504c-0.226,0.223-0.369,0.529-0.61,0.884c2.149,1.202,4.199,2.354,6.259,3.487
		c0.212,0.117,0.505,0.197,0.734,0.154c6.198-1.161,12.008,1.096,17.95,2.08c7.568,1.254,15.141,2.542,22.63,4.185
		c4.922,1.08,9.7,2.811,14.523,4.244c0.417-2.74,0.74-5.54,1.286-8.294c1.203-6.074,4.477-10.64,10.534-12.47
		c6.026-1.821,12.106,1.49,12.107,8.57c0.001,7.256-3.283,13.153-7.337,18.786c-0.146,0.203-0.259,0.428-0.511,0.853
		c2.413,1.543,4.804,3.073,6.751,4.319c2.722-3.812,5.135-7.653,8.017-11.103c2.951-3.532,6.809-5.362,11.683-5.008
		c4.496,0.327,8.066,3.774,8.317,8.3c0.434,7.827-4.343,12.888-9.237,17.9c-1.111,1.138-2.462,2.043-3.876,3.197
		c1.333,2.023,2.264,4.21,5.142,4.866c4.983,1.136,8.159,5.285,12.234,7.949c3.86,2.523,4.809,2.67,8.468-0.373
		c1.757-1.461,3.48-2.973,5.33-4.31c7.445-5.385,14.129-4.743,20.613,0.809c2.032,1.74,3.483,4.26,4.869,6.618
		c1.048,1.785,1.995,2.3,4.054,1.61c5.625-1.881,11.334-2.574,16.513,1.208c4.529,3.307,6.183,11.988-0.548,14.612
		c-4.281,1.67-6.021,5.124-6.754,9.34c-0.605,3.476-1.494,6.857-4.476,9.133c-5.092,3.887-10.949,5.168-17.236,4.773
		C253.806,184.392,249.637,183.21,245.87,180.161z M130.741,152.214c-1.486,4.371-3.141,8.521-4.304,12.806
		c-2.638,9.713-0.771,18.719,5.53,26.495c7.864,9.705,18.653,14.706,30.604,17.044c8.68,1.698,17.443,1.571,26.084-1.13
		c6.695-2.094,12.658-5.354,17.582-10.264c5.877-5.859,9.588-13.158,11.249-21.167c2.225-10.72,2.337-21.559-2.421-31.775
		c-2.017-4.328-4.769-8.33-7.404-12.335c-0.454-0.69-2.398-0.345-2.955-1.039c-0.657-0.819-0.544-2.25-0.795-3.41
		c-0.027-0.126-0.265-0.199-0.388-0.313c-1.18-1.086-2.282-2.271-3.555-3.233c-1.037-0.783-1.846-2.367-3.721-1.346
		c-0.231,0.126-1.413-1.387-2.079-2.202c-0.472-0.578-0.686-1.429-1.244-1.86c-1.402-1.084-2.89-2.078-4.431-2.954
		c-0.988-0.561-2.147-0.813-3.201-1.269c-0.772-0.334-1.756-0.591-2.193-1.205c-1.088-1.524-4.505-2.892-6.17-2.238
		c-1.474,0.578-2.384,0.063-2.997-1.402c-0.288-0.686-0.894-1.425-1.548-1.735c-1.604-0.761-3.287-1.401-4.996-1.886
		c-5.59-1.586-11.16-3.283-16.824-4.556c-6.219-1.398-12.534-2.375-18.807-3.535c0.552,2.646,1.219,4.805,1.418,7.007
		c0.492,5.406-1.291,10.349-3.616,15.103c-4.164,8.518-10.531,13.693-19.853,13.211c4.849,3.998,9.733,7.967,14.908,11.514
		c2.015,1.381,4.112,3.636,7.197,2.32c0.267-0.114,1.176,0.43,1.176,0.67c0.005,1.697,1.12,2.229,2.42,2.805
		c0.424,0.188,0.907,1.278,0.73,1.56c-0.321,0.514-1.109,0.997-1.713,1.01C133.439,152.927,132.445,152.562,130.741,152.214z
		 M225.409,274.127c-3.59-24.294-5.914-48.63-20.126-69.5c-23.919,14.286-46.869,11.696-69.499-2.823
		c-5.002,5.147-7.673,11.831-10.396,17.979c1.751,1.257,3.33,2.479,5.003,3.554c0.875,0.561,2.003,1.344,2.875,1.195
		c4.569-0.78,9.088-1.854,13.636-2.771c4.137-0.835,8.273-1.701,12.445-2.314c0.927-0.136,2.001,0.731,3.008,1.137
		c-0.645,0.878-1.247,1.796-1.958,2.617c-0.245,0.284-0.759,0.336-1.151,0.49c-6.778,2.66-13.702,4.7-20.971,5.603
		c-2.151,0.269-4.292,0.747-5.491,3.54c-0.993,2.312-3.493,3.996-5.386,5.898c-0.902,0.905-1.914,1.064-2.814-0.113
		c-0.844-1.106-1.308-2.216-0.169-3.419c0.52-0.549,1.024-1.112,1.539-1.673c-1.927,0-3.629,0-5.392,0
		c-3.06,13.562-5.45,27.123-7.328,41.078c9.897,0.391,19.304,1.054,28.711,1.063c13.44,0.015,26.879-0.501,40.319-0.695
		c12.947-0.188,25.896-0.243,38.844-0.393C222.427,274.564,223.744,274.309,225.409,274.127z M50.856,77.854
		c-5.986-4.202-13.208-5.702-19.533-4.244c-3.204,0.739-4.915,3.352-4.236,6.629c0.874,4.224,0.942,8.213-1.434,12.235
		c-1.44,2.438-2.115,5.538-2.371,8.408c-0.271,3.04,3.441,6.52,5.829,5.83c2.155-0.623,4.308-1.565,6.173-2.802
		c2.738-1.815,5.224-4.009,7.805-6.058c2.417-1.92,3.37-1.626,4.237,1.336c3.29,11.244,14.833,17.797,26.076,14.805
		c3.998-1.064,6.545-3.608,6.527-7.026c-0.011-2.107,0.784-2.88,2.686-2.501c4.04,0.805,8.073,1.661,12.075,2.633
		c2.036,0.494,3.402,0.347,4.564-1.783c2.544-4.663,6.349-8.088,11.309-10.159c0.699-0.292,1.32-0.766,2.122-1.241
		c-1.815-0.929-3.311-1.715-4.825-2.464c-2.139-1.058-2.557-2.458-0.778-3.767c2.694-1.982,3.791-4.535,4.159-7.761
		c0.571-5.005-1.94-9.643-6.524-11.825c-4.49-2.138-9.067-1.936-13.587-0.538c-3.102,0.959-6.311,2.076-8.001,5.305
		c-1.508,2.883-1.923,2.986-4.248,0.648c-5.653-5.683-12.305-8.039-20.301-6.532c-4.646,0.875-7.106,3.804-6.79,8.344
		C51.845,76.079,51.238,76.876,50.856,77.854z M220.311,182.211c5.029,2.055,9.892,2.624,14.747,1.701
		c3.736-0.712,7.362-2.093,8.906-6.237c0.609-1.635,1.579-1.396,2.736-0.388c6.78,5.905,14.537,5.787,22.452,3.19
		c4.414-1.448,7.345-4.531,8.039-9.479c0.3-2.14,1.142-4.236,1.956-6.264c1.34-3.334,4.614-4.521,7.315-6.368
		c0.871-0.596,1.787-1.75,1.892-2.732c0.574-5.388-6.428-10.767-11.682-9.105c-1.836,0.581-3.644,1.251-5.48,1.827
		c-3.406,1.068-4.713,0.604-6.455-2.609c-1.402-2.587-2.721-5.097-5.213-6.952c-4.412-3.283-9.071-4.191-13.959-1.693
		c-2.521,1.289-4.684,3.32-6.913,5.133c-5.355,4.356-7.639,4.463-11.594,2.108c-2.023-1.206-3.79-2.839-5.704-4.236
		c-1.747-1.275-3.537-2.493-5.309-3.735c-0.131,0.177-0.263,0.354-0.394,0.533C223.608,151.341,224.987,166.503,220.311,182.211z
		 M163.613,296.413c-2.391-0.357-5.292-0.811-8.199-1.223c-1.904-0.271-2.592-1.709-2.614-3.243
		c-0.021-1.507,0.95-2.498,2.585-3.028c5.529-1.794,11.023-0.617,16.695-0.126c-1.4-1.8-2.756-3.163-5.327-3.17
		c-3.911-0.011-4.783-1.45-3.625-5.062c0.116-0.36,0.062-0.773,0.096-1.269c-0.563-0.071-0.973-0.163-1.385-0.171
		c-16.592-0.286-33.185-0.567-49.777-0.843c-3.073-0.051-4.059-0.977-3.638-3.965c0.953-6.778,2.062-13.534,3.079-20.305
		c0.281-1.87,0.456-3.756,0.688-5.706c-3.116,0-5.806,0-8.707,0c0.099,0.986-0.125,2.23,0.311,2.537
		c3.306,2.328,0.268,2.269-0.931,2.843c-0.383,3.144-0.762,6.244-1.146,9.389c0.713,0.488,1.551,1.061,2.499,1.708
		c-1.266,0.864-2.85,1.364-3.031,2.176c-0.654,2.933-0.835,5.971-1.184,8.882c1.505,0.509,2.592,1.017,3.735,1.239
		c8.539,1.656,16.275,5.115,23.372,10.113c3.321,2.34,6.764,4.504,10.121,6.794c8.126,5.544,16.979,9.29,26.651,11.191
		c2.459,0.483,3.682-1.132,4.879-2.416c1.252-1.342-0.023-3.418-1.766-3.969C165.91,298.447,165.034,297.447,163.613,296.413z
		 M59.066,246.329c0.099,0.634,0.241,1.446,0.353,2.263c1.092,8.024,2.14,16.056,3.334,24.063c0.107,0.715,1.092,1.745,1.781,1.844
		c2.427,0.345,4.901,0.406,7.359,0.468c6.038,0.152,11.949-0.545,17.881-1.849c2.99-0.658,3.342-2.033,3.458-4.433
		c0.135-2.784,0.489-5.564,0.866-8.33c0.585-4.309,1.269-8.603,1.86-12.56C83.394,252.363,71.188,251.998,59.066,246.329z
		 M111.621,129.267c2.388-0.944,5.005-1.535,7.119-2.902c5.208-3.369,8.154-8.549,9.782-14.371c0.772-2.766,1.094-5.794,0.893-8.652
		c-0.167-2.369-1.257-5.093-3.936-5.665c-3.82-0.815-7.741-0.228-11.436,1.009c-7.221,2.418-11.608,7.695-13.732,14.801
		C97.736,122.1,105.531,128.932,111.621,129.267z M96.317,266.839c-0.075,0.419-0.147,0.738-0.186,1.062
		c-0.411,3.436,0.191,7.121-2.743,9.921c-0.396,0.378-0.104,1.584,0.026,2.38c0.249,1.528,0.954,3.058,0.868,4.551
		c-0.547,9.552-1.261,19.094-1.914,28.639c-0.101,1.469-0.025,2.708,2.011,2.764c2.171,0.061,1.964-1.43,2.023-2.75
		c0.324-7.202,0.577-14.406,0.94-21.605c0.141-2.79,0.492-5.571,0.775-8.354c0.106-1.055,0.372-1.578,1.78-1.29
		c10.258,2.101,19.38,6.593,28.037,12.396c6.376,4.273,12.991,8.273,19.826,11.752c5.223,2.657,11,4.147,16.799,4.809
		c0.132-1.638,0.248-3.086,0.385-4.773c-0.407-0.104-1.043-0.256-1.674-0.431c-4.274-1.187-8.867-1.749-12.754-3.707
		c-7.144-3.6-13.937-7.921-20.756-12.134c-6.403-3.955-12.571-8.311-19.971-10.322c-3.562-0.969-7.113-1.981-10.953-3.054
		c0.403-3.207,0.81-6.437,1.238-9.853C98.683,266.839,97.539,266.839,96.317,266.839z M229.714,292.587
		c-12.826-7.214-26.806,0.521-31.677,9.773c4.154,2.361,8.369,4.645,12.457,7.135c1.632,0.995,2.611,0.999,4.192-0.295
		c1.757-1.438,3.833-3.286,6.579-1.476c0.244,0.16,1.446-0.558,1.72-1.108C225.271,302.018,227.442,297.362,229.714,292.587z
		 M79.25,248.738c3.482-0.613,8.09-1.202,12.571-2.307c2.276-0.56,4.326-2.044,4.603-4.853c0.278-2.81-1.269-4.994-4.645-5.695
		c-9.95-2.068-19.816-1.281-29.447,1.751c-4.131,1.301-4.313,3.706-0.897,6.604c0.447,0.379,0.979,0.664,1.49,0.962
		C67.627,247.95,72.92,248.055,79.25,248.738z M72.796,303.959c-5.923,8.786-3.067,21.408,4.297,27.985
		c4.083-4.447,8.165-8.894,11.894-12.957c-0.792-1.849-1.869-3.184-1.785-4.441c0.131-1.967-0.875-2.687-2.226-3.469
		C80.971,308.757,76.982,306.409,72.796,303.959z M78.542,333.193c5.709,6.548,17.09,8.274,24.935,4.034
		c-1.896-4.825-3.739-9.64-5.714-14.398c-0.283-0.683-1.13-1.361-1.856-1.582c-1.578-0.479-3.245-0.663-5.375-1.061
		C86.765,324.273,82.648,328.74,78.542,333.193z M227.903,337.588c-1.953-5.139-3.77-10.02-5.695-14.857
		c-0.252-0.633-0.98-1.287-1.631-1.508c-1.329-0.448-2.746-0.753-4.144-0.828c-0.773-0.042-1.811,0.276-2.329,0.817
		c-2.924,3.04-5.732,6.189-8.563,9.318c-0.918,1.015-1.785,2.074-2.727,3.174C210.785,340.229,219.162,340.539,227.903,337.588z
		 M229.88,336.774c10.129-5.266,14.78-15.729,13.534-23.117c-5.647,0.831-11.288,1.654-16.926,2.506
		c-0.386,0.059-0.83,0.23-1.095,0.5c-1.833,1.871-2.089,4.066-0.879,6.596c0.289,0.605,0.411,1.289,0.662,1.915
		C226.714,328.986,228.266,332.795,229.88,336.774z M105.316,336.669c8.721-4.115,14.955-13.669,13.493-23.195
		c-4.687,0.869-9.353,1.873-14.065,2.546c-2.095,0.299-4.02,0.021-5.007,2.67c-0.488,1.309-0.711,2.128-0.152,3.455
		C101.599,326.93,103.414,331.799,105.316,336.669z M176.675,312.986c2.066,0.22,3.987,0.454,5.912,0.623
		c5.977,0.53,11.95,1.116,17.936,1.526c6.17,0.423,12.352,0.71,18.531,0.959c1.863,0.076,2.814-1.491,1.735-3.019
		c-0.62-0.879-1.975-1.651-3.051-1.727c-6.094-0.422-12.207-0.54-18.304-0.924c-3.767-0.238-7.515-0.767-11.227-1.159
		c0-7.396,0-14.738,0-22.102c-1.164,0-2.209,0-3.727,0c0,7.393,0,14.588,0,22.076c-2.321-0.315-4.133-0.562-5.944-0.809
		C177.9,309.99,177.31,311.434,176.675,312.986z M207.723,125.522c0.813-0.632,1.754-1.226,2.529-1.987
		c3.811-3.733,7.791-7.389,8.582-13.086c0.323-2.333,0.295-4.844-1.812-6.282c-2.226-1.52-4.734-1.242-7.176,0.075
		c-5.381,2.898-7.776,8.031-10.053,13.238c-0.181,0.413,0.437,1.391,0.926,1.843C203.006,121.44,205.378,123.463,207.723,125.522z
		 M107.126,293.621c-2.478,5.109-4.812,9.857-7.059,14.646c-0.276,0.589-0.243,1.447-0.063,2.099
		c0.369,1.338,0.935,2.621,1.563,4.314c5.629-1.065,11.432-2.165,17.41-3.297C117.941,303.438,114.03,297.915,107.126,293.621z
		 M231.624,293.62c-1.961,3.931-3.65,7.94-5.888,11.616c-2.03,3.333-0.988,6.195,0.226,9.456c5.352-0.995,10.558-1.93,15.749-2.954
		c1.265-0.249,1.688-1.091,1.378-2.479C241.601,302.543,237.854,297.496,231.624,293.62z M186.968,85.92
		c-1.487,0.685-3.175,1.115-4.425,2.1c-4.363,3.436-5.566,8.378-5.52,13.578c0.016,1.63,0.991,3.629,2.186,4.769
		c1.264,1.206,3.292,1.643,5.034,2.291c0.415,0.154,1.297-0.018,1.488-0.331c3.008-4.905,5.944-9.868,6.334-15.811
		C192.332,88.461,190.628,86.391,186.968,85.92z M73.479,302.14c5.082,2.912,10.022,5.744,14.952,8.568
		c3.445-3.035,3.367-3.037,3.478-7.076c0.123-4.472,0.408-8.939,0.623-13.4C87.175,289.288,78.338,294.8,73.479,302.14z
		 M101.076,227.753c-0.644,6.339-1.119,12.41-1.929,18.436c-0.468,3.484,0.074,4.36,3.34,3.671
		c0.788-6.903,1.579-13.839,2.396-21.003c1.552,0.346,2.923,0.673,4.304,0.956c4.543,0.929,9.081,1.892,13.645,2.714
		c0.795,0.144,1.702-0.333,2.558-0.521c-1.793-0.721-3.489-0.712-5.09-1.095c-1.055-0.253-2.583-0.878-2.834-1.673
		c-0.592-1.875-2.023-2.103-3.421-2.48c-1.958-0.528-3.953-0.938-5.949-1.311c-3.683-0.688-7.24-2.011-11.146-1.556
		c-1.428,0.166-3.305-0.465-4.43-1.394c-2.198-1.816-4.752-1.995-7.286-2.264c-0.68-0.072-1.477,0.958-2.22,1.482
		c0.602,0.748,1.079,1.973,1.826,2.168C90.125,225.271,95.465,226.444,101.076,227.753z M201.476,331.995
		c3.541-3.904,7.104-7.792,10.601-11.738c0.544-0.613,0.784-1.497,1.165-2.255c-0.924-0.459-1.815-1.207-2.78-1.321
		c-2.679-0.315-5.388-0.425-8.089-0.503c-2.657-0.077-5.319-0.017-8.003-0.017C193.782,320.438,197.121,328.032,201.476,331.995z
		 M171.664,279.479c2.237,2.198,4.001,3.98,5.834,5.689c0.324,0.303,0.928,0.41,1.408,0.427c4.917,0.168,9.835,0.367,14.755,0.411
		c2.682,0.022,3.812-1.189,3.856-3.676c0.034-1.908-1.353-3.17-3.811-3.186c-2.108-0.014-4.218,0.296-6.327,0.317
		C182.37,279.515,177.36,279.479,171.664,279.479z M104.191,245.318c2.547,0,4.755-0.063,6.957,0.023
		c1.438,0.056,1.895-0.683,2.153-1.923c0.755-3.62,1.588-7.223,2.451-11.101c-3.283-0.729-6.601-1.466-9.962-2.212
		C105.25,235.236,104.739,240.104,104.191,245.318z M89.575,214.92c0.017,4.635,3.242,8.044,7.654,8.091
		c5.402,0.058,9.837-3.81,9.752-8.503c-0.08-4.399-4.005-7.875-8.892-7.869C92.876,206.644,89.557,209.872,89.575,214.92z
		 M102.531,223.196c4.65,1.085,8.951,2.138,13.281,3.047c0.651,0.137,1.901-0.205,2.092-0.656c0.925-2.187,1.584-4.486,2.348-6.778
		c-3.884,0.477-7.481,1.26-11.075,1.246C106.388,220.045,104.645,221.299,102.531,223.196z M105.607,292.501
		c-2.308-0.78-4.481-1.517-6.954-2.353c-0.352,5.916-0.675,11.351-0.998,16.783c0.186,0.005,0.372,0.009,0.559,0.012
		C100.614,302.254,103.015,297.566,105.607,292.501z M179.356,294.759c0,3.512-0.003,6.793,0,10.073
		c0.003,3.016,0.248,3.217,3.522,2.851c0.161-0.708,0.462-1.441,0.472-2.177c0.048-3.818,0.022-7.638,0.022-11.635
		c-0.771,0.303-1.357,0.623-1.984,0.756C180.736,294.766,180.045,294.723,179.356,294.759z M97.225,309.811
		c0.363,0.704,0.768,1.391,1.084,2.115c1,2.29,0.493,5.066-1.103,6.227c-1.416,1.029-4.213,0.435-5.996-1.274
		c-2.129-2.041-2.18-2.774-0.48-5.242c0.354-0.514,0.541-1.142,0.805-1.718c-2.296,1.213-3.907,2.815-3.192,5.428
		c0.567,2.07,4.359,4.825,6.4,4.879c2.142,0.056,4.608-1.732,5.224-3.786C100.648,314.16,99.57,310.852,97.225,309.811z
		 M101.866,254.03c-3.397-0.819-5.913,4.562-4.514,9.305c2.46-0.008,3.838-0.864,3.7-3.702
		C100.965,257.843,101.553,256.019,101.866,254.03z M214.93,317.984c2.026,2.439,5.576,3.051,7.985,0.855
		c2.125-1.936,2.021-7.343-0.177-9.195c-2.288-1.93-5.706-1.635-7.418,0.641c1.855-0.123,3.859-0.743,5.529-0.244
		c2.199,0.656,2.671,2.936,2.342,5.063c-0.156,1.007-0.804,2.672-1.397,2.749C219.377,318.169,216.895,317.984,214.93,317.984z
		 M196.815,304.031c-0.625,1.556-1.239,3.085-1.975,4.915c3.953,0.222,7.487,0.421,11.022,0.62
		c-1.339-1.362-2.771-2.218-4.235-3.017C200.073,305.701,198.49,304.903,196.815,304.031z M168.911,306.896
		c-1.635,1.814-1.638,3.784,0.173,5.119c1.828,1.347,4.1,0.826,5.462-1.253c1.312-2.001,0.769-3.805-1.523-4.992
		c-0.928,1.393,0.934,4.226-1.98,4.362C170.394,310.162,169.645,308.064,168.911,306.896z M166.146,321.322
		c0.022,0.391,0.044,0.781,0.066,1.172c2.932,0.238,5.86,0.553,8.797,0.647c0.562,0.018,1.153-0.829,1.73-1.277
		c-0.54-0.525-1.042-1.448-1.626-1.504c-2.018-0.19-4.07-0.188-6.093-0.033C168.043,320.401,167.103,320.976,166.146,321.322z
		 M176.745,308.807c-1.643,2.693-2.891,5.484-6.253,4.727c-1.272-0.286-2.947-1.463-3.301-2.592
		c-0.749-2.386-0.493-4.914,2.789-6.396c-3.056,0.2-4.253,1.738-4.184,4.637c0.075,3.148,1.866,5.319,4.438,5.382
		C173.789,314.652,176.448,312.525,176.745,308.807z M165.913,296.538c0.023,0.214,0.048,0.429,0.071,0.643
		c3.207,0.989,9.141,0.611,10.398-1.188C172.62,296.188,169.267,296.362,165.913,296.538z M171.235,299.101
		c-0.457,0.046-0.914,0.092-1.371,0.137c0.343,3.267,0.685,6.532,1.026,9.798c0.316-0.026,0.634-0.055,0.95-0.081
		C171.64,305.67,171.438,302.386,171.235,299.101z M183.325,287.1c-1.637-0.229-3-0.418-4.362-0.609
		c-0.118,0.215-0.235,0.429-0.354,0.644c1.454,1.227,2.906,2.453,4.716,3.979C183.325,289.448,183.325,288.378,183.325,287.1z"/>
	<path fill-rule="evenodd" clip-rule="evenodd" d="M217.827,41.437c0.911-3.709,1.3-7.395,2.715-10.63
		c3.089-7.06,9.009-11.1,16.274-13.035c6.759-1.8,13.494-1.462,20.12,1.034c5.717,2.154,9.093,6.365,10.689,12.008
		c3.007,10.626,0.354,20.159-5.955,28.947c-3.53,4.917-7.946,8.413-13.938,9.808c-5.445,1.268-10.428-0.003-15.065-2.751
		c-5.689-3.371-10.08-8.028-12.204-14.382C219.28,48.9,218.699,45.164,217.827,41.437z M264.772,38.096
		c-0.3-1.5-0.639-3.675-1.182-5.798c-0.938-3.668-2.921-6.506-6.349-8.432c-4.723-2.656-9.724-2.848-14.938-2.573
		c-4.955,0.261-9.195,2.129-13.062,5.007c-4.73,3.521-6.533,8.545-6.461,14.193c0.044,3.361,0.09,6.992,1.333,10.008
		c2.356,5.712,6.262,10.408,12.08,13.183c6.638,3.166,12.704,2.777,18.148-2.038C261.114,55.661,264.129,47.726,264.772,38.096z"/>
	<path fill-rule="evenodd" clip-rule="evenodd" d="M248.231,10.971c0.633-3.469,1.094-6.281,1.677-9.068
		c0.28-1.336,1.186-2.019,2.614-1.62c1.517,0.423,1.158,1.391,0.879,2.566c-0.62,2.605-0.89,5.296-1.573,7.882
		c-0.195,0.739-1.29,1.666-2.019,1.707C249.221,12.472,248.563,11.307,248.231,10.971z"/>
	<path fill-rule="evenodd" clip-rule="evenodd" d="M215.714,11.015c1.313-2.603,2.114-2.747,3.933-0.695
		c1.663,1.875,3.434,3.675,4.896,5.697c0.473,0.653,0.534,2.37,0.064,2.786c-1.071,0.946-2.172,0.475-3.118-0.807
		C219.741,15.63,217.748,13.446,215.714,11.015z"/>
	<path fill-rule="evenodd" clip-rule="evenodd" d="M204.057,37.784c3.12,0.987,5.808,1.721,8.377,2.749
		c0.521,0.208,0.864,1.567,0.764,2.326c-0.051,0.385-1.343,0.973-1.951,0.853c-2.479-0.486-4.957-1.081-7.334-1.921
		c-0.795-0.281-1.727-1.385-1.776-2.166C202.099,39.047,203.387,38.384,204.057,37.784z"/>
	<path fill-rule="evenodd" clip-rule="evenodd" d="M220.882,70.643c-0.416,0.749-0.594,1.342-0.982,1.718
		c-1.698,1.648-3.364,3.359-5.242,4.782c-0.773,0.584-2.479,1.035-3.021,0.608c-1.35-1.064-0.339-2.201,0.646-3.147
		c1.65-1.587,3.191-3.296,4.917-4.793c0.513-0.443,1.519-0.539,2.246-0.433C219.943,69.451,220.352,70.148,220.882,70.643z"/>
	<path fill-rule="evenodd" clip-rule="evenodd" d="M256.046,82.831c-0.665,0.731-1.331,1.463-1.996,2.194
		c-0.72-0.791-1.896-1.496-2.067-2.392c-0.424-2.224-0.362-4.537-0.549-6.811c-0.112-1.388,0.37-2.607,1.772-2.48
		c0.7,0.063,1.702,1.358,1.838,2.211c0.354,2.241,0.309,4.546,0.422,6.825C255.659,82.529,255.853,82.68,256.046,82.831z"/>
	<path fill-rule="evenodd" clip-rule="evenodd" d="M280.339,58.728c-2.543-1.317-4.951-2.479-7.251-3.826
		c-0.458-0.269-0.87-1.626-0.67-1.819c0.574-0.548,1.636-1.217,2.218-1.014c2.373,0.83,4.687,1.876,6.908,3.058
		c0.518,0.275,0.932,1.485,0.765,2.09C282.149,57.791,281.165,58.135,280.339,58.728z"/>
	<path fill-rule="evenodd" clip-rule="evenodd" d="M279.937,21.677c0.522,0.601,1.31,1.104,1.381,1.694
		c0.079,0.662-0.305,1.818-0.805,2.037c-2.138,0.938-4.372,1.674-6.618,2.32c-0.444,0.127-1.485-0.38-1.571-0.751
		c-0.167-0.724-0.104-2.064,0.302-2.265C274.869,23.601,277.246,22.756,279.937,21.677z"/>
	<path fill-rule="evenodd" clip-rule="evenodd" fill="#FFFFFF" d="M130.741,152.214c1.705,0.348,2.699,0.713,3.685,0.691
		c0.604-0.013,1.392-0.496,1.713-1.01c0.176-0.281-0.307-1.372-0.73-1.56c-1.3-0.575-2.415-1.107-2.42-2.805
		c0-0.24-0.909-0.784-1.176-0.67c-3.084,1.316-5.182-0.939-7.197-2.32c-5.175-3.547-10.06-7.517-14.908-11.514
		c9.322,0.481,15.688-4.694,19.853-13.211c2.325-4.754,4.107-9.697,3.616-15.103c-0.2-2.202-0.867-4.361-1.418-7.007
		c6.273,1.16,12.588,2.136,18.807,3.535c5.664,1.273,11.234,2.97,16.824,4.556c1.709,0.485,3.393,1.125,4.996,1.886
		c0.654,0.31,1.26,1.049,1.548,1.735c0.613,1.465,1.523,1.979,2.997,1.402c1.665-0.654,5.082,0.713,6.17,2.238
		c0.438,0.614,1.421,0.871,2.193,1.205c1.054,0.456,2.213,0.708,3.201,1.269c1.541,0.876,3.028,1.87,4.431,2.954
		c0.559,0.431,0.772,1.282,1.244,1.86c0.666,0.814,1.848,2.328,2.079,2.202c1.875-1.021,2.684,0.563,3.721,1.346
		c1.272,0.961,2.375,2.147,3.555,3.233c0.123,0.114,0.36,0.187,0.388,0.313c0.251,1.16,0.138,2.591,0.795,3.41
		c0.557,0.694,2.501,0.349,2.955,1.039c2.636,4.005,5.388,8.007,7.404,12.335c4.758,10.217,4.646,21.056,2.421,31.775
		c-1.661,8.009-5.372,15.308-11.249,21.167c-4.924,4.909-10.887,8.17-17.582,10.264c-8.641,2.701-17.404,2.828-26.084,1.13
		c-11.95-2.338-22.739-7.339-30.604-17.044c-6.301-7.776-8.167-16.782-5.53-26.495C127.6,160.735,129.255,156.585,130.741,152.214z
		 M142.871,115.24c-0.255,6.262,6.028,11.037,11.014,11.027c6.381-0.013,9.502-4.181,9.859-10.807
		c0.279-5.184-4.97-10.153-10.343-10.189C147.301,105.229,142.907,109.388,142.871,115.24z M136.149,167.682
		c-0.1,4.665,1.728,8.596,4.995,11.762c6.262,6.065,13.928,8.086,22.381,6.759c5.237-0.822,9.719-3.248,12.431-8.151
		c0.634-1.146,1.328-2.255,0.023-3.415c-1.426-1.268-2.25-0.189-3.138,0.754c-0.582,0.619-1.215,1.192-1.795,1.813
		c-7.318,7.831-21.727,6.188-27.906-0.839c-2.735-3.109-4.088-6.695-4.227-10.825c-0.02-0.607-0.822-1.188-1.263-1.78
		c-0.501,0.542-1.206,1.007-1.446,1.646C135.954,166.077,136.149,166.916,136.149,167.682z M165.91,128.059
		c0.329,1.175,0.66,2.828,1.253,4.38c1.411,3.701,6.243,6.24,10.903,5.811c3.815-0.351,7.708-3.934,8.4-7.678
		c1.348-7.291-3.196-12.293-8.397-14.672c-1.448-0.662-3.727-0.303-5.333,0.327C167.685,118.204,166.508,122.702,165.91,128.059z
		 M195.897,178.675c6.502,0.424,14.093-5.66,15.561-12.571c1.112-5.234,0.83-10.245-3.235-14.291
		c-4.876-4.852-12.854-3.317-18.152-0.117c-5.206,3.146-8.262,10.179-5.864,17.339C185.844,173.923,189.586,179.093,195.897,178.675
		z"/>
	<path fill-rule="evenodd" clip-rule="evenodd" fill="#FFFFFF" d="M225.409,274.127c-1.665,0.182-2.982,0.438-4.301,0.452
		c-12.948,0.149-25.896,0.205-38.844,0.393c-13.439,0.194-26.879,0.71-40.319,0.695c-9.407-0.01-18.813-0.673-28.711-1.063
		c1.877-13.955,4.268-27.517,7.328-41.078c1.763,0,3.465,0,5.392,0c-0.514,0.561-1.019,1.124-1.539,1.673
		c-1.139,1.203-0.675,2.312,0.169,3.419c0.9,1.178,1.912,1.019,2.814,0.113c1.894-1.902,4.393-3.586,5.386-5.898
		c1.199-2.793,3.339-3.271,5.491-3.54c7.27-0.902,14.193-2.942,20.971-5.603c0.393-0.154,0.906-0.206,1.151-0.49
		c0.711-0.821,1.313-1.739,1.958-2.617c-1.007-0.405-2.081-1.272-3.008-1.137c-4.172,0.613-8.309,1.479-12.445,2.314
		c-4.548,0.917-9.066,1.991-13.636,2.771c-0.872,0.148-2-0.635-2.875-1.195c-1.674-1.074-3.252-2.297-5.003-3.554
		c2.723-6.147,5.394-12.831,10.396-17.979c22.629,14.52,45.58,17.109,69.499,2.823C219.495,225.497,221.819,249.833,225.409,274.127
		z"/>
	<path fill-rule="evenodd" clip-rule="evenodd" fill="#FFFFFF" d="M50.856,77.854c0.381-0.978,0.988-1.775,0.936-2.525
		c-0.317-4.541,2.144-7.469,6.79-8.344c7.996-1.506,14.648,0.849,20.301,6.532c2.325,2.338,2.74,2.235,4.248-0.648
		c1.69-3.229,4.899-4.346,8.001-5.305c4.52-1.398,9.097-1.6,13.587,0.538c4.583,2.182,7.095,6.819,6.524,11.825
		c-0.368,3.226-1.465,5.779-4.159,7.761c-1.779,1.308-1.36,2.708,0.778,3.767c1.514,0.749,3.01,1.536,4.825,2.464
		c-0.802,0.475-1.423,0.95-2.122,1.241c-4.96,2.071-8.765,5.496-11.309,10.159c-1.163,2.13-2.528,2.277-4.564,1.783
		c-4.002-0.972-8.035-1.828-12.075-2.633c-1.902-0.379-2.697,0.394-2.686,2.501c0.018,3.417-2.53,5.962-6.527,7.026
		c-11.243,2.992-22.786-3.562-26.076-14.805c-0.867-2.963-1.82-3.256-4.237-1.336c-2.581,2.049-5.067,4.242-7.805,6.058
		c-1.865,1.237-4.018,2.179-6.173,2.802c-2.388,0.69-6.1-2.79-5.829-5.83c0.255-2.871,0.93-5.971,2.371-8.408
		c2.375-4.022,2.308-8.011,1.434-12.235c-0.679-3.278,1.032-5.89,4.236-6.629C37.649,72.152,44.871,73.652,50.856,77.854z"/>
	<path fill-rule="evenodd" clip-rule="evenodd" fill="#FFFFFF" d="M220.311,182.211c4.677-15.708,3.298-30.87-4.658-45.307
		c0.131-0.178,0.263-0.355,0.394-0.533c1.771,1.242,3.562,2.46,5.309,3.735c1.914,1.397,3.681,3.03,5.704,4.236
		c3.955,2.355,6.238,2.248,11.594-2.108c2.229-1.812,4.392-3.844,6.913-5.133c4.888-2.499,9.547-1.59,13.959,1.693
		c2.492,1.855,3.811,4.365,5.213,6.952c1.742,3.213,3.049,3.678,6.455,2.609c1.837-0.576,3.645-1.246,5.48-1.827
		c5.254-1.662,12.256,3.717,11.682,9.105c-0.104,0.982-1.021,2.137-1.892,2.732c-2.701,1.847-5.976,3.034-7.315,6.368
		c-0.814,2.027-1.656,4.124-1.956,6.264c-0.694,4.947-3.625,8.03-8.039,9.479c-7.915,2.597-15.672,2.715-22.452-3.19
		c-1.157-1.008-2.127-1.247-2.736,0.388c-1.544,4.145-5.17,5.525-8.906,6.237C230.202,184.835,225.34,184.266,220.311,182.211z"/>
	<path fill-rule="evenodd" clip-rule="evenodd" fill="#FFFFFF" d="M163.613,296.413c1.421,1.034,2.297,2.034,3.381,2.377
		c1.742,0.551,3.018,2.627,1.766,3.969c-1.197,1.284-2.42,2.899-4.879,2.416c-9.672-1.901-18.525-5.647-26.651-11.191
		c-3.357-2.29-6.8-4.454-10.121-6.794c-7.097-4.998-14.833-8.457-23.372-10.113c-1.143-0.223-2.23-0.73-3.735-1.239
		c0.349-2.911,0.53-5.949,1.184-8.882c0.181-0.812,1.765-1.312,3.031-2.176c-0.948-0.647-1.786-1.22-2.499-1.708
		c0.384-3.145,0.762-6.245,1.146-9.389c1.199-0.574,4.237-0.515,0.931-2.843c-0.436-0.307-0.212-1.551-0.311-2.537
		c2.9,0,5.591,0,8.707,0c-0.232,1.95-0.407,3.836-0.688,5.706c-1.016,6.771-2.125,13.526-3.079,20.305
		c-0.42,2.988,0.565,3.914,3.638,3.965c16.592,0.275,33.185,0.557,49.777,0.843c0.412,0.008,0.821,0.1,1.385,0.171
		c-0.033,0.495,0.021,0.908-0.096,1.269c-1.158,3.612-0.286,5.052,3.625,5.062c2.571,0.007,3.927,1.37,5.327,3.17
		c-5.672-0.491-11.166-1.668-16.695,0.126c-1.635,0.53-2.606,1.521-2.585,3.028c0.022,1.534,0.71,2.973,2.614,3.243
		C158.321,295.603,161.223,296.056,163.613,296.413z"/>
	<path fill-rule="evenodd" clip-rule="evenodd" fill="#FFFFFF" d="M59.066,246.329c12.123,5.669,24.328,6.034,36.893,1.467
		c-0.591,3.957-1.274,8.251-1.86,12.56c-0.376,2.766-0.73,5.546-0.866,8.33c-0.117,2.399-0.468,3.774-3.458,4.433
		c-5.933,1.304-11.844,2.001-17.881,1.849c-2.458-0.062-4.933-0.123-7.359-0.468c-0.689-0.099-1.674-1.129-1.781-1.844
		c-1.195-8.008-2.242-16.039-3.334-24.063C59.307,247.775,59.165,246.963,59.066,246.329z"/>
	<path fill-rule="evenodd" clip-rule="evenodd" fill="#FFFFFF" d="M111.621,129.267c-6.09-0.334-13.885-7.167-11.311-15.78
		c2.124-7.106,6.511-12.383,13.732-14.801c3.695-1.237,7.616-1.825,11.436-1.009c2.678,0.572,3.769,3.296,3.936,5.665
		c0.202,2.858-0.12,5.887-0.893,8.652c-1.627,5.822-4.574,11.002-9.782,14.371C116.625,127.731,114.009,128.323,111.621,129.267z
		 M112.932,110.857c-0.014-2.077-1.273-3.48-3.146-3.504c-1.936-0.025-3.119,1.443-3.089,3.8c0.025,1.957,0.742,3.262,2.94,3.224
		C111.98,114.336,112.949,113.3,112.932,110.857z M122.949,113.64c0.014-2.559-0.69-3.277-2.974-3.37
		c-2.256-0.091-2.967,1.345-3.177,3.132c-0.224,1.899,1.348,3.817,2.901,3.818C121.868,117.224,122.936,116.046,122.949,113.64z"/>
	<path fill-rule="evenodd" clip-rule="evenodd" fill="#FFFFFF" d="M96.317,266.839c1.221,0,2.365,0,3.757,0
		c-0.429,3.416-0.835,6.646-1.238,9.853c3.84,1.072,7.39,2.085,10.953,3.054c7.4,2.012,13.568,6.367,19.971,10.322
		c6.82,4.213,13.613,8.534,20.756,12.134c3.887,1.958,8.479,2.521,12.754,3.707c0.631,0.175,1.267,0.326,1.674,0.431
		c-0.137,1.688-0.253,3.136-0.385,4.773c-5.799-0.661-11.576-2.151-16.799-4.809c-6.835-3.479-13.45-7.479-19.826-11.752
		c-8.657-5.803-17.779-10.295-28.037-12.396c-1.408-0.288-1.674,0.235-1.78,1.29c-0.283,2.782-0.634,5.563-0.775,8.354
		c-0.363,7.199-0.616,14.403-0.94,21.605c-0.059,1.32,0.148,2.811-2.023,2.75c-2.036-0.056-2.112-1.295-2.011-2.764
		c0.653-9.545,1.367-19.087,1.914-28.639c0.085-1.493-0.62-3.022-0.868-4.551c-0.13-0.796-0.422-2.002-0.026-2.38
		c2.935-2.8,2.332-6.485,2.743-9.921C96.17,267.577,96.243,267.258,96.317,266.839z"/>
	<path fill-rule="evenodd" clip-rule="evenodd" fill="#FFFFFF" d="M229.714,292.587c-2.271,4.775-4.443,9.431-6.729,14.029
		c-0.273,0.551-1.476,1.269-1.72,1.108c-2.746-1.811-4.822,0.038-6.579,1.476c-1.581,1.294-2.561,1.29-4.192,0.295
		c-4.088-2.49-8.303-4.773-12.457-7.135C202.908,293.108,216.888,285.373,229.714,292.587z"/>
	<path fill-rule="evenodd" clip-rule="evenodd" fill="#FFFFFF" d="M79.25,248.738c-6.329-0.684-11.623-0.788-16.324-3.538
		c-0.51-0.298-1.042-0.583-1.49-0.962c-3.417-2.897-3.234-5.303,0.897-6.604c9.63-3.032,19.497-3.819,29.447-1.751
		c3.376,0.701,4.922,2.886,4.645,5.695c-0.277,2.809-2.327,4.293-4.603,4.853C87.34,247.536,82.731,248.125,79.25,248.738z"/>
	<path fill-rule="evenodd" clip-rule="evenodd" fill="#FFFFFF" d="M72.796,303.959c4.187,2.45,8.175,4.798,12.18,7.118
		c1.351,0.782,2.357,1.502,2.226,3.469c-0.084,1.258,0.994,2.593,1.785,4.441c-3.729,4.063-7.812,8.51-11.894,12.957
		C69.729,325.367,66.873,312.745,72.796,303.959z"/>
	<path fill-rule="evenodd" clip-rule="evenodd" fill="#FFFFFF" d="M78.542,333.193c4.105-4.453,8.222-8.92,11.99-13.007
		c2.13,0.397,3.797,0.581,5.375,1.061c0.726,0.221,1.573,0.899,1.856,1.582c1.976,4.759,3.818,9.573,5.714,14.398
		C95.632,341.468,84.251,339.741,78.542,333.193z"/>
	<path fill-rule="evenodd" clip-rule="evenodd" fill="#FFFFFF" d="M227.903,337.588c-8.741,2.951-17.118,2.641-25.089-3.884
		c0.941-1.1,1.809-2.159,2.727-3.174c2.831-3.129,5.64-6.278,8.563-9.318c0.519-0.541,1.556-0.859,2.329-0.817
		c1.397,0.075,2.814,0.38,4.144,0.828c0.65,0.221,1.379,0.875,1.631,1.508C224.134,327.568,225.95,332.449,227.903,337.588z"/>
	<path fill-rule="evenodd" clip-rule="evenodd" fill="#FFFFFF" d="M229.88,336.774c-1.614-3.979-3.166-7.788-4.703-11.601
		c-0.251-0.626-0.373-1.31-0.662-1.915c-1.21-2.529-0.954-4.725,0.879-6.596c0.265-0.27,0.709-0.441,1.095-0.5
		c5.638-0.852,11.278-1.675,16.926-2.506C244.66,321.046,240.009,331.509,229.88,336.774z"/>
	<path fill-rule="evenodd" clip-rule="evenodd" fill="#FFFFFF" d="M105.316,336.669c-1.903-4.87-3.718-9.739-5.731-14.524
		c-0.559-1.327-0.336-2.146,0.152-3.455c0.987-2.649,2.912-2.371,5.007-2.67c4.713-0.673,9.378-1.677,14.065-2.546
		C120.271,323,114.037,332.554,105.316,336.669z"/>
	<path fill-rule="evenodd" clip-rule="evenodd" fill="#FFFFFF" d="M176.675,312.986c0.635-1.553,1.226-2.996,1.862-4.554
		c1.812,0.246,3.623,0.493,5.944,0.809c0-7.488,0-14.684,0-22.076c1.518,0,2.562,0,3.727,0c0,7.363,0,14.705,0,22.102
		c3.712,0.393,7.46,0.921,11.227,1.159c6.097,0.384,12.21,0.502,18.304,0.924c1.076,0.075,2.431,0.848,3.051,1.727
		c1.079,1.527,0.128,3.095-1.735,3.019c-6.18-0.249-12.361-0.536-18.531-0.959c-5.985-0.41-11.959-0.996-17.936-1.526
		C180.662,313.44,178.741,313.206,176.675,312.986z"/>
	<path fill-rule="evenodd" clip-rule="evenodd" fill="#FFFFFF" d="M207.723,125.522c-2.345-2.06-4.717-4.083-7.004-6.198
		c-0.489-0.453-1.106-1.431-0.926-1.843c2.276-5.208,4.672-10.34,10.053-13.238c2.441-1.316,4.95-1.594,7.176-0.075
		c2.107,1.438,2.136,3.949,1.812,6.282c-0.791,5.697-4.771,9.353-8.582,13.086C209.477,124.296,208.536,124.89,207.723,125.522z"/>
	<path fill-rule="evenodd" clip-rule="evenodd" fill="#FFFFFF" d="M107.126,293.621c6.904,4.294,10.815,9.817,11.852,17.762
		c-5.978,1.132-11.781,2.231-17.41,3.297c-0.628-1.693-1.194-2.977-1.563-4.314c-0.18-0.651-0.212-1.51,0.063-2.099
		C102.313,303.479,104.648,298.73,107.126,293.621z"/>
	<path fill-rule="evenodd" clip-rule="evenodd" fill="#FFFFFF" d="M231.624,293.62c6.23,3.876,9.977,8.923,11.465,15.639
		c0.31,1.389-0.113,2.23-1.378,2.479c-5.191,1.024-10.397,1.959-15.749,2.954c-1.214-3.261-2.256-6.123-0.226-9.456
		C227.974,301.561,229.663,297.551,231.624,293.62z"/>
	<path fill-rule="evenodd" clip-rule="evenodd" fill="#FFFFFF" d="M186.968,85.92c3.66,0.471,5.364,2.541,5.098,6.596
		c-0.39,5.943-3.326,10.906-6.334,15.811c-0.191,0.313-1.073,0.485-1.488,0.331c-1.742-0.648-3.771-1.085-5.034-2.291
		c-1.194-1.14-2.17-3.139-2.186-4.769c-0.047-5.2,1.156-10.143,5.52-13.578C183.793,87.035,185.48,86.604,186.968,85.92z"/>
	<path fill-rule="evenodd" clip-rule="evenodd" fill="#FFFFFF" d="M73.479,302.14c4.859-7.34,13.696-12.852,19.052-11.908
		c-0.214,4.461-0.5,8.929-0.623,13.4c-0.111,4.039-0.033,4.041-3.478,7.076C83.501,307.884,78.561,305.052,73.479,302.14z"/>
	<path fill-rule="evenodd" clip-rule="evenodd" fill="#FFFFFF" d="M101.076,227.753c-5.611-1.309-10.951-2.482-16.237-3.869
		c-0.747-0.195-1.224-1.42-1.826-2.168c0.743-0.524,1.54-1.555,2.22-1.482c2.534,0.269,5.088,0.447,7.286,2.264
		c1.125,0.929,3.001,1.56,4.43,1.394c3.907-0.455,7.463,0.868,11.146,1.556c1.996,0.372,3.991,0.782,5.949,1.311
		c1.398,0.378,2.83,0.605,3.421,2.48c0.251,0.795,1.779,1.42,2.834,1.673c1.602,0.383,3.297,0.374,5.09,1.095
		c-0.856,0.188-1.763,0.665-2.558,0.521c-4.563-0.822-9.101-1.785-13.645-2.714c-1.381-0.283-2.752-0.61-4.304-0.956
		c-0.817,7.164-1.608,14.1-2.396,21.003c-3.266,0.689-3.808-0.187-3.34-3.671C99.957,240.163,100.432,234.092,101.076,227.753z"/>
	<path fill-rule="evenodd" clip-rule="evenodd" fill="#FFFFFF" d="M201.476,331.995c-4.354-3.963-7.693-11.558-7.106-15.834
		c2.684,0,5.346-0.061,8.003,0.017c2.701,0.078,5.41,0.188,8.089,0.503c0.965,0.114,1.856,0.862,2.78,1.321
		c-0.381,0.758-0.621,1.642-1.165,2.255C208.579,324.203,205.017,328.091,201.476,331.995z"/>
	<path fill-rule="evenodd" clip-rule="evenodd" fill="#FFFFFF" d="M171.664,279.479c5.696,0,10.706,0.035,15.716-0.017
		c2.109-0.021,4.219-0.331,6.327-0.317c2.458,0.016,3.845,1.277,3.811,3.186c-0.044,2.486-1.175,3.698-3.856,3.676
		c-4.92-0.044-9.838-0.243-14.755-0.411c-0.48-0.017-1.084-0.124-1.408-0.427C175.665,283.46,173.901,281.678,171.664,279.479z"/>
	<path fill-rule="evenodd" clip-rule="evenodd" fill="#FFFFFF" d="M104.191,245.318c0.548-5.215,1.059-10.082,1.598-15.212
		c3.362,0.746,6.679,1.482,9.962,2.212c-0.862,3.878-1.696,7.48-2.451,11.101c-0.258,1.24-0.715,1.979-2.153,1.923
		C108.947,245.255,106.739,245.318,104.191,245.318z"/>
	<path fill-rule="evenodd" clip-rule="evenodd" fill="#FFFFFF" d="M89.575,214.92c-0.018-5.048,3.301-8.276,8.514-8.281
		c4.887-0.006,8.812,3.47,8.892,7.869c0.084,4.693-4.35,8.561-9.752,8.503C92.816,222.964,89.591,219.555,89.575,214.92z
		 M98.313,209.131c-3.53,0.014-6.415,2.789-6.389,6.147c0.021,2.782,2.731,5.254,5.757,5.248c3.39-0.005,6.775-3.054,6.685-6.021
		C104.284,211.774,101.294,209.119,98.313,209.131z"/>
	<path fill-rule="evenodd" clip-rule="evenodd" fill="#FFFFFF" d="M102.531,223.196c2.114-1.897,3.857-3.151,6.646-3.142
		c3.593,0.014,7.191-0.77,11.075-1.246c-0.764,2.292-1.422,4.592-2.348,6.778c-0.191,0.451-1.441,0.793-2.092,0.656
		C111.482,225.334,107.182,224.281,102.531,223.196z"/>
	<path fill-rule="evenodd" clip-rule="evenodd" fill="#FFFFFF" d="M105.607,292.501c-2.592,5.065-4.993,9.753-7.393,14.442
		c-0.187-0.003-0.373-0.007-0.559-0.012c0.323-5.433,0.646-10.867,0.998-16.783C101.125,290.984,103.299,291.721,105.607,292.501z"
		/>
	<path fill-rule="evenodd" clip-rule="evenodd" fill="#FFFFFF" d="M179.356,294.759c0.688-0.036,1.38,0.007,2.032-0.132
		c0.627-0.133,1.213-0.453,1.984-0.756c0,3.997,0.025,7.816-0.022,11.635c-0.01,0.735-0.311,1.469-0.472,2.177
		c-3.274,0.366-3.52,0.165-3.522-2.851C179.354,301.552,179.356,298.271,179.356,294.759z"/>
	<path fill-rule="evenodd" clip-rule="evenodd" fill="#FFFFFF" d="M97.225,309.811c2.345,1.041,3.424,4.35,2.742,6.628
		c-0.615,2.054-3.082,3.842-5.224,3.786c-2.042-0.054-5.833-2.809-6.4-4.879c-0.715-2.612,0.896-4.215,3.192-5.428
		c-0.264,0.576-0.451,1.204-0.805,1.718c-1.699,2.468-1.649,3.201,0.48,5.242c1.783,1.709,4.58,2.304,5.996,1.274
		c1.596-1.16,2.103-3.937,1.103-6.227C97.992,311.201,97.588,310.515,97.225,309.811z"/>
	<path fill-rule="evenodd" clip-rule="evenodd" fill="#FFFFFF" d="M101.866,254.03c-0.313,1.988-0.901,3.812-0.814,5.603
		c0.138,2.838-1.24,3.694-3.7,3.702C95.953,258.592,98.469,253.211,101.866,254.03z"/>
	<path fill-rule="evenodd" clip-rule="evenodd" fill="#FFFFFF" d="M214.93,317.984c1.965,0,4.447,0.185,6.864-0.131
		c0.594-0.077,1.241-1.742,1.397-2.749c0.329-2.128-0.143-4.407-2.342-5.063c-1.67-0.499-3.674,0.121-5.529,0.244
		c1.712-2.275,5.13-2.57,7.418-0.641c2.198,1.853,2.302,7.26,0.177,9.195C220.506,321.035,216.956,320.424,214.93,317.984z"/>
	<path fill-rule="evenodd" clip-rule="evenodd" fill="#FFFFFF" d="M196.815,304.031c1.675,0.872,3.258,1.67,4.812,2.519
		c1.464,0.799,2.896,1.654,4.235,3.017c-3.535-0.199-7.069-0.398-11.022-0.62C195.576,307.116,196.19,305.587,196.815,304.031z"/>
	<path fill-rule="evenodd" clip-rule="evenodd" fill="#FFFFFF" d="M168.911,306.896c0.733,1.169,1.482,3.267,2.131,3.236
		c2.914-0.137,1.053-2.97,1.98-4.362c2.292,1.188,2.836,2.991,1.523,4.992c-1.362,2.079-3.634,2.6-5.462,1.253
		C167.273,310.68,167.276,308.71,168.911,306.896z"/>
	<path fill-rule="evenodd" clip-rule="evenodd" fill="#FFFFFF" d="M166.146,321.322c0.957-0.347,1.897-0.921,2.875-0.995
		c2.022-0.154,4.075-0.157,6.093,0.033c0.584,0.056,1.086,0.979,1.626,1.504c-0.577,0.448-1.168,1.295-1.73,1.277
		c-2.937-0.095-5.865-0.409-8.797-0.647C166.189,322.104,166.168,321.713,166.146,321.322z"/>
	<path fill-rule="evenodd" clip-rule="evenodd" fill="#FFFFFF" d="M176.745,308.807c-0.297,3.719-2.956,5.846-6.51,5.758
		c-2.572-0.062-4.363-2.233-4.438-5.382c-0.069-2.898,1.128-4.437,4.184-4.637c-3.282,1.481-3.538,4.01-2.789,6.396
		c0.354,1.129,2.028,2.306,3.301,2.592C173.854,314.291,175.103,311.5,176.745,308.807z"/>
	<path fill-rule="evenodd" clip-rule="evenodd" fill="#FFFFFF" d="M165.913,296.538c3.354-0.176,6.707-0.35,10.47-0.546
		c-1.258,1.8-7.191,2.178-10.398,1.188C165.961,296.967,165.937,296.752,165.913,296.538z"/>
	<path fill-rule="evenodd" clip-rule="evenodd" fill="#FFFFFF" d="M171.235,299.101c0.202,3.285,0.404,6.569,0.605,9.854
		c-0.316,0.026-0.634,0.055-0.95,0.081c-0.342-3.266-0.684-6.531-1.026-9.798C170.321,299.192,170.778,299.146,171.235,299.101z"/>
	<path fill-rule="evenodd" clip-rule="evenodd" fill="#FFFFFF" d="M183.325,287.1c0,1.278,0,2.349,0,4.014
		c-1.81-1.526-3.262-2.753-4.716-3.979c0.118-0.215,0.235-0.429,0.354-0.644C180.325,286.682,181.688,286.871,183.325,287.1z"/>
	<path fill-rule="evenodd" clip-rule="evenodd" fill="#FFFFFF" d="M264.772,38.096c-0.644,9.629-3.658,17.565-10.429,23.551
		c-5.444,4.815-11.511,5.204-18.148,2.038c-5.818-2.775-9.724-7.471-12.08-13.183c-1.243-3.016-1.289-6.647-1.333-10.008
		c-0.072-5.648,1.73-10.672,6.461-14.193c3.866-2.878,8.106-4.747,13.062-5.007c5.214-0.275,10.215-0.083,14.938,2.573
		c3.428,1.926,5.411,4.764,6.349,8.432C264.134,34.421,264.473,36.596,264.772,38.096z"/>
	<path fill-rule="evenodd" clip-rule="evenodd" d="M142.871,115.24c0.036-5.852,4.43-10.011,10.53-9.969
		c5.373,0.036,10.622,5.005,10.343,10.189c-0.357,6.626-3.479,10.794-9.859,10.807C148.899,126.277,142.616,121.502,142.871,115.24z
		 M159.884,115.597c0.482-3.838-2.812-6.116-5.558-6.138c-4.278-0.034-7.473,2.688-7.567,6.205c-0.079,2.938,4.04,6.489,7.574,6.527
		C157.88,122.229,159.88,119.853,159.884,115.597z"/>
	<path fill-rule="evenodd" clip-rule="evenodd" d="M136.149,167.682c0-0.766-0.195-1.604,0.056-2.276
		c0.24-0.64,0.945-1.104,1.446-1.646c0.441,0.593,1.243,1.173,1.263,1.78c0.138,4.13,1.491,7.716,4.227,10.825
		c6.18,7.027,20.588,8.67,27.906,0.839c0.58-0.621,1.213-1.194,1.795-1.813c0.888-0.943,1.712-2.021,3.138-0.754
		c1.305,1.16,0.61,2.27-0.023,3.415c-2.712,4.903-7.193,7.329-12.431,8.151c-8.453,1.327-16.119-0.693-22.381-6.759
		C137.877,176.277,136.05,172.347,136.149,167.682z"/>
	<path fill-rule="evenodd" clip-rule="evenodd" d="M165.91,128.059c0.598-5.357,1.774-9.855,6.826-11.832
		c1.606-0.63,3.885-0.989,5.333-0.327c5.201,2.378,9.745,7.381,8.397,14.672c-0.692,3.745-4.585,7.328-8.4,7.678
		c-4.66,0.429-9.492-2.11-10.903-5.811C166.57,130.886,166.239,129.234,165.91,128.059z M176.772,134.497
		c3.663,0.032,6.523-2.793,6.631-6.553c0.115-3.985-3.505-7.896-7.018-8.304c-3.554-0.413-6.766,4.214-6.834,7.969
		C169.482,131.526,172.661,134.461,176.772,134.497z"/>
	<path fill-rule="evenodd" clip-rule="evenodd" d="M195.897,178.675c-6.312,0.418-10.054-4.752-11.691-9.641
		c-2.397-7.16,0.658-14.193,5.864-17.339c5.299-3.2,13.276-4.735,18.152,0.117c4.065,4.046,4.348,9.057,3.235,14.291
		C209.99,173.015,202.399,179.099,195.897,178.675z M211.146,163.604c-0.189-6.013-1.038-10.069-5.225-12.258
		c-5.517-2.882-10.947-1.675-15.775,1.581c-5.311,3.582-6.5,9.085-5.226,15.047c1.376,6.435,5.9,10,11.718,9.843
		C203.982,177.616,211.513,169.424,211.146,163.604z"/>
	<path fill-rule="evenodd" clip-rule="evenodd" d="M112.932,110.857c0.017,2.443-0.952,3.479-3.294,3.52
		c-2.199,0.038-2.916-1.267-2.94-3.224c-0.029-2.357,1.153-3.825,3.089-3.8C111.659,107.377,112.918,108.78,112.932,110.857z"/>
	<path fill-rule="evenodd" clip-rule="evenodd" d="M122.949,113.64c-0.013,2.406-1.081,3.583-3.25,3.581
		c-1.554-0.001-3.125-1.919-2.901-3.818c0.21-1.787,0.921-3.223,3.177-3.132C122.258,110.363,122.963,111.081,122.949,113.64z"/>
	<path fill-rule="evenodd" clip-rule="evenodd" d="M98.313,209.131c2.98-0.012,5.97,2.644,6.053,5.375
		c0.09,2.967-3.295,6.016-6.685,6.021c-3.026,0.006-5.736-2.466-5.757-5.248C91.899,211.92,94.784,209.145,98.313,209.131z
		 M93.215,214.885c-0.049,2.648,1.849,4.567,4.559,4.607c2.674,0.039,5.502-2.314,5.486-4.565c-0.02-2.7-2.019-4.587-4.903-4.628
		C95.147,210.253,93.271,211.927,93.215,214.885z"/>
	<path fill-rule="evenodd" clip-rule="evenodd" fill="#FFFFFF" d="M159.884,115.597c-0.004,4.256-2.004,6.632-5.551,6.594
		c-3.534-0.038-7.653-3.588-7.574-6.527c0.095-3.517,3.289-6.238,7.567-6.205C157.071,109.481,160.366,111.759,159.884,115.597z
		 M151.847,110.983c-2.268,0.292-3.572,1.58-3.813,3.553c-0.244,1.99,0.807,3.065,2.547,3.45c1.386,0.306,4.415-2.177,3.983-3.382
		C154.076,113.247,152.787,112.177,151.847,110.983z"/>
	<path fill-rule="evenodd" clip-rule="evenodd" fill="#FFFFFF" d="M176.772,134.497c-4.111-0.036-7.29-2.971-7.221-6.888
		c0.068-3.755,3.28-8.381,6.834-7.969c3.513,0.408,7.133,4.319,7.018,8.304C183.296,131.703,180.436,134.529,176.772,134.497z
		 M173.604,129.26c2.028,0.04,3.553-1.227,3.656-3.042c0.098-1.688-1.248-3.097-2.945-3.09c-2.028,0.009-3.725,1.521-3.629,3.382
		C170.777,128.286,171.794,129.238,173.604,129.26z"/>
	<path fill-rule="evenodd" clip-rule="evenodd" fill="#FFFFFF" d="M211.146,163.604c0.366,5.82-7.164,14.013-14.508,14.213
		c-5.817,0.157-10.342-3.408-11.718-9.843c-1.274-5.962-0.085-11.465,5.226-15.047c4.828-3.256,10.259-4.463,15.775-1.581
		C210.108,153.534,210.957,157.591,211.146,163.604z"/>
	<path fill-rule="evenodd" clip-rule="evenodd" fill="#FFFFFF" d="M93.215,214.885c0.055-2.958,1.932-4.632,5.142-4.586
		c2.884,0.041,4.883,1.928,4.903,4.628c0.016,2.251-2.812,4.604-5.486,4.565C95.064,219.452,93.166,217.533,93.215,214.885z"/>
	<path fill-rule="evenodd" clip-rule="evenodd" d="M151.847,110.983c0.94,1.194,2.229,2.264,2.717,3.621
		c0.432,1.205-2.598,3.688-3.983,3.382c-1.74-0.384-2.791-1.459-2.547-3.45C148.274,112.563,149.579,111.275,151.847,110.983z"/>
	<path fill-rule="evenodd" clip-rule="evenodd" d="M173.604,129.26c-1.81-0.021-2.826-0.974-2.918-2.75
		c-0.096-1.861,1.601-3.373,3.629-3.382c1.697-0.007,3.043,1.402,2.945,3.09C177.156,128.033,175.632,129.3,173.604,129.26z"/>
</g>
</svg>
