<?xml version="1.0" encoding="utf-8"?>
<!-- Generator: Adobe Illustrator 16.0.0, SVG Export Plug-In . SVG Version: 6.00 Build 0)  -->
<!DOCTYPE svg PUBLIC "-//W3C//DTD SVG 1.1//EN" "http://www.w3.org/Graphics/SVG/1.1/DTD/svg11.dtd">
<svg version="1.1" id="Lager_1" xmlns="http://www.w3.org/2000/svg" xmlns:xlink="http://www.w3.org/1999/xlink" x="0px" y="0px"
	 width="300px" height="350px" viewBox="0 0 300 350" enable-background="new 0 0 300 350" xml:space="preserve">
<g>
	<path fill="#FFFFFF" d="M289.611,347c-92.892,0-185.783,0-278.674,0c0-117.76,0-235.522,0-353.284c92.892,0,185.782,0,278.674,0
		C289.611,111.478,289.611,229.24,289.611,347z M252.07,142.095c-0.298,0.027-0.596,0.054-0.894,0.081
		c0-12.838-0.047-25.678,0.019-38.517c0.039-7.573,0.303-15.145,0.331-22.719c0.003-0.934-0.7-2.571-1.286-2.673
		c-1.712-0.299-1.701,1.316-1.859,2.529c-0.23,1.767-0.447,3.537-0.628,4.979c-4.605,0.513-8.982,0.674-13.21,1.552
		c-5.791,1.202-11.456,3.006-17.212,4.401c-0.935,0.227-2.28-0.016-3.06-0.571c-4.684-3.339-9.115-7.048-13.903-10.223
		c-6.856-4.547-13.876-8.882-21.918-11.146c-15.962-4.494-32.259-5.294-48.692-4.227c-2.123,0.138-3.155-0.292-4.193-2.2
		c-4.544-8.349-10.813-14.685-20.605-16.589c-0.69-0.134-1.34-0.478-2.209-0.799c4.241-6.547,6.278-13.605,7.406-20.979
		c0.987-6.443-2.369-12.801-8.245-15.36C96.243,7.167,89.288,8.2,85.574,13.66c-0.311,0.456-0.848,0.754-1.265,1.141
		c-3.911,3.629-7.924,7.155-11.688,10.929c-2.409,2.415-4.448,5.197-6.837,8.034c-0.527-0.9-0.938-1.58-1.33-2.271
		c-1.37-2.425-3.188-4.363-5.771-5.543c-2.576-1.178-5.353-0.842-7.365,0.98c-1.787,1.617-2.538,4.633-1.183,7.042
		c1.141,2.029,2.76,3.873,4.473,5.472c1.529,1.427,3.476,2.408,5.36,3.667c-0.751,1.574-1.469,3.079-2.264,4.745
		c-1.027-0.707-1.706-1.345-2.508-1.696c-2.305-1.01-4.591-2.402-7.011-2.74c-5.08-0.709-8.538,3.686-7.061,8.528
		c0.281,0.923,0.752,1.787,1.108,2.615c-0.106,0.17-0.133,0.267-0.196,0.306c-0.695,0.432-1.388,0.868-2.096,1.278
		C30.233,61.763,23.799,69.53,23.239,81.26c-0.031,0.661-1.01,1.276-1.547,1.913c-0.331-0.146-0.661-0.294-0.992-0.44
		c0-4.346-0.008-8.692,0.004-13.038c0.004-1.598-0.52-2.859-2.302-2.861c-1.828-0.001-2.273,1.339-2.244,2.9
		c0.05,2.716,0.153,5.432,0.177,8.148c0.218,24.369,0.337,48.74,0.662,73.108c0.261,19.592,0.761,39.181,1.163,58.771
		c0.612,29.814-0.773,59.59-1.549,89.381c-0.295,11.342,0.332,22.709,0.541,34.062c0.031,1.656,0.853,2.746,2.524,2.736
		c1.89-0.014,2.177-1.412,2.075-2.963c-0.032-0.492-0.045-0.988-0.055-1.482c-0.201-9.873-0.405-19.75-0.589-29.625
		c-0.017-0.943,0.1-1.889,0.165-3.014c4.553,0.75,8.741,1.777,12.979,2.072c13.957,0.973,27.933,1.67,41.9,2.49
		c6.259,0.367,6.239,0.385,6.386,6.77c0.048,2.055,0.138,4.115,0.367,6.154c0.159,1.422,1.135,2.188,2.589,2.059
		c1.444-0.127,1.886-1.156,1.857-2.449c-0.018-0.822-0.145-1.643-0.149-2.463c-0.02-3.008-0.008-6.018-0.008-8.635
		c16.093,0.154,32.115,0.369,48.139,0.443c16.016,0.078,32.031,0.018,48.233,0.018c0,0.93-0.006,1.744,0.001,2.559
		c0.048,5.598,0.041,11.197,0.165,16.793c0.091,4.115,0.33,8.225,0.553,12.334c0.125,2.293,1.169,3.578,2.712,3.357
		c2.08-0.295,1.925-1.924,1.871-3.424c-0.059-1.645-0.237-3.289-0.242-4.934c-0.024-8.709-0.012-17.42-0.012-26.365
		c13.226-7.17,28.396-9.123,42.984-13.947c1.255,5.832,2.43,11.199,3.555,16.576c0.339,1.617,1.32,3.264-0.114,4.902
		c-0.21,0.24-0.089,1.203,0.161,1.348c2.512,1.457,2.063,4.135,2.564,6.324c1.74,7.619,3.225,15.297,4.986,22.912
		c0.219,0.945,1.733,2.438,2.26,2.291c1.059-0.295,1.991-1.449,2.695-2.447c0.349-0.494,0.183-1.447,0.064-2.16
		c-0.362-2.189-0.784-4.369-1.239-6.543c-1.367-6.521-2.788-13.029-4.11-19.561c-0.156-0.771-0.099-2.148,0.321-2.371
		c1.517-0.803,3.23-1.232,5.285-1.947c-0.15,2.6-0.302,4.557-0.368,6.516c-0.056,1.645,0.499,3.031,2.341,3.199
		c1.826,0.168,2.953-0.844,3.265-2.652c0.126-0.725,0.131-1.473,0.16-2.211c0.065-1.645,0.004-3.305,0.218-4.93
		c0.087-0.662,0.649-1.678,1.173-1.805c6.838-1.668,13.706-3.203,20.776-4.822c0.635,2.957,1.175,5.352,1.663,7.756
		c1.504,7.418,2.993,14.836,4.479,22.258c0.283,1.418,0.85,2.527,2.53,2.48c1.807-0.051,2.637-1.211,2.897-2.812
		c0.115-0.707-0.011-1.479-0.152-2.197c-1.13-5.732-2.283-11.459-3.44-17.186c-0.695-3.449-1.409-6.893-2.005-9.803
		c1.135-1.057,1.931-1.799,2.728-2.539c-1.049-0.523-2.098-1.047-3.638-1.814c-2.412-11.342-4.955-23.293-7.497-35.248
		c0.185,0.055,0.369,0.105,0.555,0.16c0.66-0.891,1.322-1.781,1.982-2.672c-0.977-0.334-1.953-0.668-3.21-1.098
		c-0.042-0.141-0.208-0.596-0.31-1.066c-2.739-12.623-5.488-25.24-8.164-37.875c-0.161-0.766,0.313-1.648,0.398-2.484
		c0.062-0.623,0.019-1.807-0.056-1.812c-1.818-0.154-1.605-1.66-1.846-2.76c-2.602-11.932-4.91-23.934-7.822-35.787
		c-2.381-9.696-2.983-19.48-2.932-29.368c0.004-0.856,0.482-1.75,0.885-2.554c0.541-1.088,1.763-2.147,1.687-3.141
		C254.251,143.809,252.872,142.974,252.07,142.095z"/>
	<path fill-rule="evenodd" clip-rule="evenodd" d="M252.07,142.095c0.802,0.879,2.181,1.714,2.253,2.649
		c0.076,0.994-1.146,2.053-1.687,3.141c-0.402,0.804-0.881,1.698-0.885,2.554c-0.052,9.887,0.551,19.671,2.932,29.368
		c2.912,11.854,5.221,23.855,7.822,35.787c0.24,1.1,0.027,2.605,1.846,2.76c0.074,0.006,0.118,1.189,0.056,1.812
		c-0.085,0.836-0.56,1.719-0.398,2.484c2.676,12.635,5.425,25.252,8.164,37.875c0.102,0.471,0.268,0.926,0.31,1.066
		c1.257,0.43,2.233,0.764,3.21,1.098c-0.66,0.891-1.322,1.781-1.982,2.672c-0.186-0.055-0.37-0.105-0.555-0.16
		c2.542,11.955,5.085,23.906,7.497,35.248c1.54,0.768,2.589,1.291,3.638,1.814c-0.797,0.74-1.593,1.482-2.728,2.539
		c0.596,2.91,1.31,6.354,2.005,9.803c1.157,5.727,2.311,11.453,3.44,17.186c0.142,0.719,0.268,1.49,0.152,2.197
		c-0.261,1.602-1.091,2.762-2.897,2.812c-1.681,0.047-2.247-1.062-2.53-2.48c-1.485-7.422-2.975-14.84-4.479-22.258
		c-0.488-2.404-1.028-4.799-1.663-7.756c-7.07,1.619-13.938,3.154-20.776,4.822c-0.523,0.127-1.086,1.143-1.173,1.805
		c-0.214,1.625-0.152,3.285-0.218,4.93c-0.029,0.738-0.034,1.486-0.16,2.211c-0.312,1.809-1.438,2.82-3.265,2.652
		c-1.842-0.168-2.396-1.555-2.341-3.199c0.066-1.959,0.218-3.916,0.368-6.516c-2.055,0.715-3.769,1.145-5.285,1.947
		c-0.42,0.223-0.478,1.6-0.321,2.371c1.322,6.531,2.743,13.039,4.11,19.561c0.455,2.174,0.877,4.354,1.239,6.543
		c0.118,0.713,0.284,1.666-0.064,2.16c-0.704,0.998-1.637,2.152-2.695,2.447c-0.526,0.146-2.041-1.346-2.26-2.291
		c-1.762-7.615-3.246-15.293-4.986-22.912c-0.501-2.189-0.053-4.867-2.564-6.324c-0.25-0.145-0.371-1.107-0.161-1.348
		c1.435-1.639,0.453-3.285,0.114-4.902c-1.125-5.377-2.3-10.744-3.555-16.576c-14.589,4.824-29.759,6.777-42.984,13.947
		c0,8.945-0.013,17.656,0.012,26.365c0.005,1.645,0.184,3.289,0.242,4.934c0.054,1.5,0.209,3.129-1.871,3.424
		c-1.543,0.221-2.587-1.064-2.712-3.357c-0.223-4.109-0.462-8.219-0.553-12.334c-0.124-5.596-0.117-11.195-0.165-16.793
		c-0.007-0.814-0.001-1.629-0.001-2.559c-16.202,0-32.218,0.061-48.233-0.018c-16.023-0.074-32.046-0.289-48.139-0.443
		c0,2.617-0.012,5.627,0.008,8.635c0.005,0.82,0.132,1.641,0.149,2.463c0.028,1.293-0.413,2.322-1.857,2.449
		c-1.454,0.129-2.43-0.637-2.589-2.059c-0.229-2.039-0.319-4.1-0.367-6.154c-0.147-6.385-0.127-6.402-6.386-6.77
		c-13.967-0.82-27.943-1.518-41.9-2.49c-4.239-0.295-8.427-1.322-12.979-2.072c-0.065,1.125-0.182,2.07-0.165,3.014
		c0.184,9.875,0.389,19.752,0.589,29.625c0.01,0.494,0.022,0.99,0.055,1.482c0.102,1.551-0.186,2.949-2.075,2.963
		c-1.672,0.01-2.494-1.08-2.524-2.736c-0.209-11.354-0.836-22.721-0.541-34.062c0.775-29.791,2.161-59.566,1.549-89.381
		c-0.402-19.59-0.902-39.179-1.163-58.771c-0.324-24.368-0.443-48.739-0.662-73.108c-0.024-2.717-0.127-5.433-0.177-8.148
		c-0.029-1.561,0.416-2.901,2.244-2.9c1.783,0.002,2.307,1.264,2.302,2.861c-0.012,4.345-0.004,8.691-0.004,13.038
		c0.331,0.146,0.662,0.294,0.992,0.44c0.538-0.636,1.516-1.252,1.547-1.913c0.561-11.729,6.995-19.497,16.703-25.112
		c0.708-0.41,1.401-0.846,2.096-1.278c0.062-0.039,0.089-0.136,0.196-0.306c-0.356-0.828-0.827-1.692-1.108-2.615
		c-1.478-4.842,1.981-9.237,7.061-8.528c2.42,0.338,4.706,1.73,7.011,2.74c0.803,0.352,1.481,0.989,2.508,1.696
		c0.794-1.666,1.512-3.17,2.264-4.745c-1.884-1.259-3.832-2.24-5.36-3.667c-1.713-1.599-3.333-3.443-4.473-5.472
		c-1.355-2.41-0.604-5.425,1.183-7.042c2.013-1.822,4.789-2.159,7.365-0.98c2.583,1.18,4.401,3.118,5.771,5.543
		c0.391,0.691,0.802,1.371,1.33,2.271c2.389-2.837,4.428-5.62,6.837-8.034c3.765-3.774,7.777-7.3,11.688-10.929
		c0.417-0.387,0.954-0.685,1.265-1.141c3.714-5.459,10.669-6.493,16.337-4.023c5.876,2.559,9.232,8.917,8.245,15.36
		c-1.128,7.374-3.165,14.431-7.406,20.979c0.869,0.321,1.519,0.665,2.209,0.799c9.792,1.904,16.062,8.24,20.605,16.589
		c1.038,1.908,2.07,2.338,4.193,2.2c16.434-1.067,32.73-0.267,48.692,4.227c8.042,2.263,15.062,6.598,21.918,11.146
		c4.788,3.175,9.22,6.884,13.903,10.223c0.779,0.555,2.125,0.797,3.06,0.571c5.756-1.395,11.421-3.2,17.212-4.401
		c4.228-0.878,8.604-1.039,13.21-1.552c0.181-1.442,0.397-3.212,0.628-4.979c0.158-1.213,0.147-2.828,1.859-2.529
		c0.586,0.102,1.289,1.74,1.286,2.673c-0.028,7.574-0.292,15.146-0.331,22.719c-0.065,12.839-0.019,25.678-0.019,38.517
		C251.475,142.148,251.772,142.122,252.07,142.095z M46.667,215.684l0.033-0.031c-2.357,2.348-4.757,4.654-7.047,7.066
		c-0.729,0.77-1.162,1.818-1.934,3.064c5.187-0.746,9.801-1.441,14.429-2.043c0.722-0.094,1.5,0.246,2.252,0.385
		c-0.232,0.74-0.275,1.637-0.73,2.199c-2.014,2.484-4.146,4.873-6.235,7.299c-1.025,1.189-2.048,2.381-3.072,3.572
		c0.118,0.156,0.235,0.314,0.353,0.473c0.846-0.223,1.719-0.371,2.532-0.68c2.075-0.787,4.093-1.729,6.187-2.457
		c3.625-1.262,5.375-0.371,6.517,3.307c0.775,2.496,1.402,5.037,2.034,7.34c1.201,0,2.624-0.393,3.011,0.074
		c1.087,1.312-0.57,1.852-1.203,2.701c-0.317,0.426-0.375,1.047-0.549,1.578c0.177,0.076,0.354,0.154,0.53,0.232
		c3.571-3.252,7.142-6.5,10.774-9.807c-0.866-1.969-1.671-3.936-2.589-5.85c-2.556-5.328-5.005-10.717-7.804-15.918
		c-1.607-2.986-4.432-4.828-7.723-5.783C52.7,211.326,48.295,212.834,46.667,215.684z M72.649,95.025
		c-6.257,6.635-12.417,13.264-16.403,21.508c-1.381,2.856-2.161,6.011-3.106,9.063c-0.136,0.441,0.34,1.072,0.532,1.615
		c0.428-0.435,0.916-0.828,1.265-1.32c0.225-0.316,0.23-0.782,0.368-1.169c0.977-2.746,3.433-4.573,6.116-4.561
		c2.557,0.012,4.873,1.778,5.787,4.595c0.401,1.234,0.525,2.558,0.839,4.17c6.273,0.416,12.624,0.834,18.832,1.245
		c0.303-0.621,0.433-0.831,0.512-1.058c1.252-3.59,3.484-5.47,6.468-5.437c2.771,0.031,4.908,1.761,5.947,5.352
		c0.479,1.65,1.491,1.49,2.612,1.477c6.665-0.075,13.33-0.197,19.996-0.255c4.669-0.042,9.34-0.008,13.996-0.008
		c0.228-0.856,0.329-1.241,0.431-1.625c0.987-3.703,3.262-5.736,6.442-5.756c2.988-0.02,5.235,1.984,6.067,5.757
		c0.307,1.385,0.953,1.634,2.181,1.695c9.944,0.496,19.885,1.052,29.827,1.578c0.863,0.045,1.731,0.006,2.764,0.006
		c0-2.7,0-5.049,0-7.398c-6.05-0.271-8.773-2.798-8.668-7.987c0.1-4.926,2.799-7.174,8.956-7.226c0-0.796,0.007-1.596-0.001-2.396
		c-0.039-4.445-0.053-8.889-0.141-13.333c-0.031-1.579,0.279-2.929,2.098-2.996c1.925-0.07,2.46,1.301,2.459,2.978
		c0,1.69,0,3.38,0,5.241c8.019-2.07,15.593-4.025,23.525-6.073c-6.933-6.319-14.771-10.68-22.691-15.407
		c1.509,5.586,0.521,8.245-3.407,9.775c-3.746,1.459-8.061-0.047-9.503-3.79c-0.685-1.775-0.898-4.202-0.225-5.895
		c0.667-1.681,2.72-2.811,4.479-4.48c-6.434-1.436-12.885-2.876-19.301-4.309c-1.804,6.227-3.547,8.287-6.825,7.931
		c-1.314-0.143-3.03-0.635-3.724-1.583c-1.481-2.024-2.417-4.45-3.956-7.453c-5.387,0.196-11.614,0.351-17.834,0.675
		c-3.892,0.202-3.886,0.316-4.624,4.042c-0.61,3.076-2.409,5.001-5.028,5.378c-2.87,0.413-5.42-1.033-6.78-3.857
		c-0.348-0.719-0.665-1.453-1.032-2.262c-10.07,2.834-19.201,7.245-27.526,13.297c-0.487,0.353-0.753,1.558-0.562,2.199
		c0.712,2.382,0.774,4.685-0.132,7.005c-1.396,3.57-5.56,4.928-8.773,2.831C74.167,96.322,73.51,95.71,72.649,95.025z
		 M184.078,135.115c-0.748-0.069-1.306-0.151-1.864-0.167c-4.936-0.149-9.877-0.17-14.805-0.45
		c-14.541-0.826-29.067-1.559-43.659-1.353c-16.279,0.232-32.595,0.122-48.851-0.714c-13.866-0.713-27.666-2.696-41.501-4.051
		c-3.969-0.389-7.961-0.542-11.786-0.793c-0.235,0.592-0.349,0.743-0.348,0.893c0.066,8.887,0.166,17.773,0.192,26.661
		c0.004,1.484,0.919,1.792,2.007,1.98c3.401,0.587,6.791,1.346,10.22,1.652c9.585,0.857,19.181,1.618,28.785,2.236
		c14.452,0.931,28.905,2.185,43.373,2.444c25.342,0.454,50.694,0.257,76.043,0.326c0.714,0.001,1.429-0.078,2.194-0.123
		C184.078,154.056,184.078,144.635,184.078,135.115z M184.221,272.99c-1.056,0-2.188,0.027-3.316-0.004
		c-10.771-0.287-21.543-0.477-32.308-0.904c-13.978-0.553-27.944-1.359-41.92-1.949c-17.674-0.75-35.348-1.492-53.028-2.043
		c-9.452-0.293-18.917-0.152-28.375-0.27c-2.179-0.027-3.16,0.584-3.187,3.049c-0.074,6.744-0.377,13.49-0.773,20.229
		c-0.113,1.936,0.596,2.699,2.327,2.945c4.794,0.686,9.566,1.693,14.384,2.016c8.864,0.592,17.77,0.582,26.633,1.178
		c24.958,1.684,49.891,3.609,74.954,3.008c13.406-0.322,26.83,0.107,40.246,0.158c4.443,0.016,3.846,0.529,3.994-3.963
		c0.133-4.029,0.29-8.061,0.356-12.092C184.268,280.668,184.221,276.984,184.221,272.99z M185.605,231.191
		c-0.353-21.133-0.696-41.781-1.041-62.523c-32.569,0-64.684,0-96.823,0c-0.452,3.031-0.444,2.988,2.644,3.544
		c2.345,0.424,4.654,1.055,7.006,1.422c0.878,0.137,2.023,0.07,2.722-0.393c4.519-3.01,9.091-2.745,13.486-0.068
		c4.877,2.971,8.387,7.186,8.083,13.209c-0.174,3.457-1.232,6.922-2.282,10.26c-0.48,1.527-0.527,2.736-0.062,4.215
		c1.872,5.953,3.668,11.934,5.391,17.934c0.375,1.307,0.82,1.801,2.31,1.814c7.477,0.066,14.979-0.02,22.421,0.572
		c10.349,0.824,20.594,2.457,30.107,7.021C181.393,229.076,183.199,229.998,185.605,231.191z M155.958,235.637
		c-1.502-1.334-2.799-2.488-4.246-3.773c-0.308,0.219-1.039,0.834-1.101,0.773c-2.186-2.178-3.471-0.199-4.859,1.125
		c-1.029-1.898-2.006-2.109-4.14-0.992c-1.35-1.916-2.33-2.158-3.911-1.295c-0.968-1.039-1.846-1.98-2.722-2.92
		c-0.65,0.57-1.02,0.893-1.657,1.451c0-1.107,0-1.799,0-2.982c-2.339,0.463-4.466,0.795-6.53,1.352
		c-0.497,0.135-0.791,1.016-1.269,1.678c-2.516-1.848-2.99,1.928-5.014,2.225c-0.154-4.197,2.654-6.682,5.604-9.631
		c-18.528,1.459-34.82,7.039-49.072,17.939c-8.633,6.605-16.158,14.334-22.555,23.873c2.834,0.203,5.028,0.377,7.225,0.496
		c0.369,0.02,0.875-0.1,1.106-0.352c1.898-2.059,3.746-4.166,5.609-6.258c0.098,0.215,0.196,0.432,0.294,0.646
		c1.428,0,2.857,0,4.424,0c-0.429,2.309,2.611,1.395,2.773,2.09c0.65,2.793,2.796-0.912,3.364,0.986
		c1.207-0.674,2.415-1.348,3.668-2.049c0.97,1.494,2.116,1.559,3.982-0.084c1.514,1.859,2.602,1.98,4.155,0.734
		c0.873,0.945,1.733,1.877,2.976,3.223c0.46-1.1,0.72-1.723,0.979-2.346c0.18,0.164,0.357,0.326,0.536,0.488
		c0.035,0.611,0.068,1.223,0.129,2.295c2.36-0.637,4.531-1.105,6.597-1.863c0.494-0.182,0.64-1.318,0.941-2.006
		c2.785,1.568,2.808-2.264,4.789-2.822c0.275,3.451-1.393,6.062-3.456,9.084c5.687,0,10.753,0,15.778,0
		c-0.118-1.023-0.246-2.133-0.373-3.242c1.16,0.656,2.858-0.348,3.291,1.738c0.144,0.695,2.312,0.99,3.578,1.393
		c0.099,0.031,0.417-0.521,0.577-0.832c0.127-0.248,0.083-0.68,0.262-0.791c1.673-1.043,1.683-1.029,0.818-2.912
		c2.604,0.031,0.954-2.465,2.177-3.738c1.231-1.281,3.207-1.164,3.718-2.803c2.682,1.408,5.697,2.113,7.041,5.303
		c-1.229,0.244-2.282,0.451-3.121,0.617c0.784,1.143,1.487,2.166,2.19,3.191c-0.157,0.191-0.312,0.385-0.469,0.578
		c-1.269,0-2.536,0-3.805,0c-0.018,0.248-0.036,0.496-0.056,0.744c0.946,0.172,1.893,0.344,2.892,0.527c0,0.496,0,1.004,0,1.551
		c0.526,0.07,0.93,0.154,1.336,0.174c14.143,0.652,28.285,1.283,42.426,1.965c1.413,0.068,1.916-0.449,1.938-1.807
		c0.067-4.361,0.243-8.725,0.259-13.086c0.002-0.879-0.326-2.346-0.838-2.512c-0.929-0.303-2.109,0.166-3.398,0.344
		c-1.121-1.637-2.162-1.861-3.953-0.57c-0.7-2.633-1.973-3.502-4.203-2.879c-0.497-1.574-0.646-1.629-1.648-0.709
		c-0.272,0.248-0.627,0.453-0.979,0.559c-1.011,0.301-2.04,0.541-3.365,0.883c-0.677-1.021-1.962-1.455-3.234-0.514
		c-2.244-2.822-5.236-5.229-4.445-9.758c1.353,0.818,2.468,1.492,3.38,2.043c0.783-0.947,1.498-1.812,2.357-2.854
		c2.221,5.238,3.384,5.521,7.03,1.705c2.197-2.297,4.705-3.705,8.137-3.914c-0.692-1.039-1.206-1.811-1.821-2.732
		c0.988-0.18,1.752-0.316,2.499-0.451c0,0.848-0.196,1.682,0.06,2.338c0.221,0.568,0.955,0.934,1.464,1.391
		c0.134-0.609,0.259-1.221,0.408-1.826c0.035-0.139,0.159-0.252,0.318-0.492c0.536,0.244,1.09,0.498,1.782,0.811
		c-0.417,0.969-1.738,2.234,0.531,2.381c0.864-4.691,0.756-5.012-3.209-6.977c-2.504-1.24-5.04-2.439-7.636-3.469
		c-6.383-2.527-13.056-3.744-20.113-4.078c0.78,1.635,1.498,3.775,2.832,4.277c1.18,0.441,3.045-0.945,4.903-1.633
		c0.257,0.766,0.631,1.883,0.979,2.926c1.165-0.125,2.382-0.254,3.814-0.406c-0.71,4.625-4.343,5.676-6.763,7.109
		C158.195,236.002,156.853,235.783,155.958,235.637z M246.785,142.814c0.184-0.006,0.366-0.013,0.55-0.02
		c0-17.863,0-35.728,0-53.725c-5.158-0.6-10.068,0.341-14.924,1.617c-6.123,1.611-12.206,3.372-18.327,4.985
		c-7.71,2.033-15.439,3.988-23.164,5.963c-1.322,0.338-2.043,0.868-2.044,2.506c-0.01,18.109-0.122,36.218-0.19,54.327
		c-0.004,1.197,0.115,2.394,0.201,4.021c4.926-1.892,9.489-3.645,14.131-5.426c-0.159-1.067-0.13-2.012-0.454-2.813
		c-0.86-2.131,0.241-5.085-2.666-6.409c-0.204-0.093-0.07-1.04-0.011-1.581c0.146-1.31,0.598-2.642,0.458-3.914
		c-0.27-2.447-0.948-4.845-1.306-7.287c-0.978-6.671-1.914-13.349-2.774-20.036c-0.17-1.327-0.4-3.077,1.591-3.317
		c1.953-0.235,2.097,1.382,2.341,2.799c0.756,4.377,1.504,8.757,2.325,13.123c1.001,5.318,2.074,10.624,3.143,16.063
		c11.882-1.908,22.94-5.712,34.039-9.64c-1.251-6.426-2.47-12.551-3.626-18.688c-0.533-2.829-1.095-5.669-1.317-8.529
		c-0.066-0.852,0.768-2.251,1.544-2.59c1.438-0.627,1.923,0.699,2.189,1.898c0.071,0.321,0.15,0.641,0.223,0.963
		c1.636,7.218,3.241,14.445,4.932,21.65c0.343,1.457,0.051,3.25,2.167,4.02c0.351,0.127-0.463,2.813-0.309,4.271
		C245.713,138.993,246.34,140.895,246.785,142.814z M73.342,197.426c-1.274-2.457-2.59-4.557-3.475-6.824
		c-0.873-2.23-0.154-4.656,1.292-5.33c1.999-0.93,3.526,0.201,4.833,1.496c1.136,1.125,2.066,2.457,3.027,3.625
		c5.614-4.824,11.115-9.553,16.628-14.291c-0.167-0.119-0.285-0.258-0.428-0.293c-0.639-0.158-1.281-0.305-1.929-0.424
		c-12.063-2.201-23.963-0.822-35.748,1.881c-8.245,1.893-16.015,4.979-22.769,10.281c-6.854,5.381-10.818,12.275-10.266,21.086
		c1.122,17.877,7.191,34.029,17.97,48.34c2.557,3.396,5.979,5.803,9.699,6.945c3.298-4.123,6.455-7.988,9.479-11.951
		c0.405-0.531,0.143-1.572,0.19-2.375c-0.238-0.061-0.476-0.123-0.715-0.184c-0.647,0.449-1.531,0.77-1.877,1.389
		c-0.344,0.617-0.148,1.535-0.19,2.322c-0.179,0.021-0.359,0.047-0.539,0.07c-0.358-0.521-0.716-1.043-0.987-1.439
		c-0.855,0.332-1.583,0.615-2.311,0.896c-0.093-0.164-0.186-0.328-0.28-0.492c0.357-0.578,0.714-1.156,1.113-1.803
		c-0.332-0.186-0.658-0.295-0.877-0.512c-0.251-0.25-0.406-0.596-0.647-0.969c5.268-0.801,7.422-2.361,5.166-4.994
		c-2.607-0.541-4.051,1.209-5.406,3.143c-0.138-0.16-0.277-0.32-0.416-0.48c0.109-0.729,0.219-1.457,0.33-2.201
		c-0.861,0-1.597,0-1.904,0c0-1.414,0-2.547,0-3.631c4.862,0.91,4.862,0.91,6.794-0.141c-0.567-4.455-2.138-5.512-6.194-4.137
		c-2.18,0.738-4.312,1.666-6.539,2.203c-1.34,0.322-2.821,0.059-4.359,0.059c0-1.574,0-2.848,0-4.287
		c0.699,0.074,1.287,0.133,1.966,0.207c-0.107-0.762-0.192-1.369-0.298-2.123c0.931,0,1.691,0,2.505,0c0-0.836,0-1.609,0-2.549
		c0.849,0.148,1.518,0.266,2.37,0.416c0-0.891,0-1.588,0-2.514c2.581,1.09,2.872-0.914,3.801-2.062
		c-0.157-0.168-0.313-0.336-0.47-0.502c-0.512,0.605-1.025,1.211-1.574,1.861c-0.552-0.377-1.107-0.76-1.752-1.199
		c-0.355,0.814-0.632,1.449-0.789,1.807c-1.394-0.559-2.649-1.062-3.904-1.564c-0.066,0.182-0.133,0.363-0.2,0.543
		c0.442,0.469,0.884,0.938,1.327,1.406c-0.129,0.123-0.258,0.244-0.387,0.365c-0.594-0.488-1.188-0.977-1.881-1.545
		c-0.417,0.734-0.767,1.348-1.15,2.021c-0.61-0.508-1.131-0.941-1.692-1.408c-0.402,0.754-0.726,1.359-1.043,1.953
		c-1.101-0.922-2.067-1.732-3.193-2.676c3.109-5.992,7.297-11.062,12.989-14.805c1.002-0.66,2.319-1.391,3.404-1.275
		c3.719,0.393,6.369-1.201,8.641-3.854c0.067-0.078,0.307-0.01,0.722-0.01c0,2.021,0,4.023,0,6.02
		c1.099-0.312,2.178-0.848,3.274-0.881c1.862-0.059,1.798-1.553,2.019-2.604c0.124-0.592-0.489-1.535-1.033-2.029
		c-1.878-1.703-4.045-3.119-5.768-4.957c-1.39-1.484-2.029-3.545-0.602-5.422c1.348-1.773,3.37-2.064,5.369-1.367
		c1.452,0.506,2.805,1.344,4.13,2.15c0.897,0.545,1.67,1.295,2.664,2.086C72.201,198.918,72.878,198.031,73.342,197.426z
		 M88.809,78.258c-0.614-0.287-1.522-0.528-2.176-1.072c-0.604-0.502-0.936-1.331-1.387-2.015c0.783-0.157,1.642-0.603,2.336-0.42
		c2.996,0.791,5.835,0.774,8.586-0.84c5.694-3.339,7.785-9.225,5.508-15.497c-0.238-0.658-0.187-1.421-0.271-2.136
		c0.302-0.019,0.604-0.039,0.906-0.058c3.902,5.176,2.519,10.477-0.38,15.94c3.271-1.12,6.105-2.218,9.019-3.041
		c1.6-0.452,2.03-1.251,1.938-2.801c-0.489-8.246-4.784-14.082-11.157-18.43c-1.177,0.537-2.071,0.946-3.391,1.548
		c0.485-2.067,0.404-4.238,1.202-4.633c2.195-1.087,2.646-3.078,3.398-4.881c1.338-3.199,2.406-6.509,3.588-9.773
		c-5.231,2.641-9.627,1.669-13.821-1.41c-3.94-2.893-6.818-6.533-7.753-11.735c-6.76,5.656-12.796,11.491-17.443,18.527
		c-1.068,1.619-1.728,3.457-3.241,4.877c-0.714,0.67-0.453,2.359-1.157,3.062c-2.173,2.168-3.666,4.464-3.226,7.694
		c0.048,0.345-0.44,0.825-0.771,1.15c-1.775,1.747-2.381,4.775-1.378,7.027c-0.493,0.612-1.354,1.191-1.398,1.828
		c-0.127,1.836,0.056,3.697,0.15,5.546c0.078,1.538,0.442,3.104,0.247,4.601c-0.25,1.928,0.018,3.529,1.27,5.045
		c2.342,2.834,3.817,6.082,4.748,9.661c0.42,1.619,1.576,3.046,2.397,4.561c0.215-0.085,0.431-0.172,0.647-0.258
		c0.235-2.117,0.471-4.233,0.732-6.59c-4.603-4.241-6.022-8.743-3.804-12.687c1.866-3.317,6.48-5.172,10.256-4.123
		c4.223,1.174,6.933,5.757,6.627,11.21c-0.248,4.429-2.458,6.228-8.673,7.276c0.167,2.491,0.332,4.942,0.465,6.942
		C76.979,87.84,82.882,83.059,88.809,78.258z M204.077,162.231c-3.905,1.538-7.455,2.993-11.049,4.332
		c-3.228,1.202-4.92,3.162-4.039,6.814c0.265,1.096,0.104,2.295,0.124,3.447c0.332,18.191,0.709,36.381,0.931,54.574
		c0.024,2.045,0.699,3.08,2.369,4.066c4.904,2.896,10.04,5.873,12.962,10.805c2.579,4.35,5.84,5.58,10.403,5.248
		c2.315-0.166,4.654-0.029,7.161-0.029c-0.996-4.654-1.938-9.047-2.801-13.068c-1.225-0.289-2.006-0.473-2.786-0.658
		c0.309-0.83,0.696-1.645,0.907-2.5c0.251-1.02,0.669-2.143,0.467-3.107c-2.442-11.678-5.018-23.328-7.469-35.006
		c-0.344-1.637-0.655-2.82-2.718-2.553c-0.441,0.059-1.401-0.652-1.38-0.955c0.044-0.602,0.508-1.268,0.982-1.711
		c0.441-0.412,1.123-0.57,1.796-0.885C208,181.512,206.088,172.115,204.077,162.231z M107.648,212.414
		c0.262-0.004,0.525-0.008,0.789-0.014c1.428,1.906,1.309,4.25,0.588,6.303c-0.71,2.021-2.182,3.775-3.286,5.59
		c2.04-0.518,4.239-1.188,6.484-1.605c1.448-0.27,1.847-1.027,1.933-2.346c0.259-4.021-1.251-7.391-3.684-10.443
		c-0.25-0.311-0.597-0.777-0.898-0.777c-1.376,0.002-2.266-0.328-1.956-1.967c0.246-1.299,0.241-2.777,2.303-2.311
		c0.303,0.068,0.769-0.264,1.06-0.521c3.097-2.756,5.526-5.971,7.05-10.344c-5.718,2.486-10.075,0.441-13.889-3.285
		c-3.719-3.635-5.888-7.99-5.574-13.6c-5.022,3.986-9.8,8.076-14.474,12.281c-1.804,1.621-4.273,2.93-3.657,6.029
		c-2.807-0.109-2.743-0.111-2.584,2.816c0.024,0.426-0.827,1.02-1.388,1.33c-0.588,0.324-1.628,0.189-1.916,0.625
		c-0.711,1.074-1.105,2.357-1.798,3.953c-1.188,0.471-2.762,1.174-1.079,3.408c0.161,0.211-0.544,1.562-0.859,1.566
		c-1.643,0.023-1.81,1.23-2.076,2.311c-0.373,1.514-0.594,3.064-0.922,4.588c-0.38,1.773-0.145,2.854,2.045,3.268
		c2.833,0.539,3.211,2.178,1.305,4.359c-0.422,0.48-0.952,0.869-1.469,1.332c0.687,2.77,2.76,1.584,4.413,1.777
		c0.196-0.824,0.327-1.551,0.545-2.252c0.728-2.346,1.879-4.369,4.226-5.482c5.161-2.447,10.77,1.422,11.057,7.656
		c0.054,1.168,0.008,2.342,0.008,3.58c4.335-1.744,8.346-3.355,12.626-5.08c-1.479-0.393-2.655-0.539-3.656-1.037
		c-0.587-0.293-0.897-1.145-1.332-1.744c0.663-0.27,1.308-0.666,1.996-0.77c0.531-0.078,1.113,0.24,1.681,0.332
		c2.896,0.467,5.265-1.055,5.889-3.932c0.258-1.188,0.159-2.449,0.253-3.676C107.448,213.691,107.562,213.055,107.648,212.414z
		 M243.323,151.665c-11.582,3.131-22.796,6.163-34.2,9.246c2.034,9.684,3.997,19.006,5.947,28.332
		c0.314,1.502,1.431,1.127,2.341,0.963c9.468-1.703,18.92-3.486,28.396-5.139c1.822-0.318,2.149-1.199,2.151-2.852
		c0.006-6.02-0.398-11.968-1.886-17.838C245.026,160.249,244.26,156.051,243.323,151.665z M248.296,187.527
		c-11.138,2.111-21.587,4.09-32.267,6.113c2.777,12.807,5.521,25.457,8.255,38.059c7.541-1.93,14.765-3.814,22.011-5.609
		c1.63-0.402,2.244-1.143,2.194-2.885c-0.16-5.672-0.163-11.35-0.187-17.027C248.277,200.02,248.296,193.863,248.296,187.527z
		 M230.406,286.135c-1.734-8.016-3.477-16.064-5.258-24.295c-1.482,0.352-2.606,0.557-3.69,0.887
		c-10.223,3.107-20.432,6.262-30.666,9.332c-1.436,0.43-1.649,1.336-1.687,2.576c-0.21,6.986-0.457,13.973-0.676,20.959
		c-0.038,1.189-0.006,2.379-0.006,3.27C202.434,294.615,216.236,290.432,230.406,286.135z M56.907,104.834
		c-0.579-2.29-1.487-3.292-3.435-3.125c-0.701,0.06-1.467-0.228-2.155-0.485c-4.153-1.552-8.249-1.548-12.567-0.373
		c-5.483,1.493-8.826-1.593-8.346-7.279c0.469-5.557,1.86-10.874,4.591-15.76c0.695-1.244,0.524-2.104,0.036-3.377
		c-0.77-2.006-1.311-4.21-1.341-6.339c-0.014-0.954,1.283-2.399,2.288-2.747c0.837-0.29,2.338,0.45,3.146,1.178
		c1.128,1.015,1.884,2.444,2.669,3.517c2.398-0.293,4.645-0.568,6.993-0.856c0.967-2.416,1.608-5.256,5.148-5.47
		c0.1-1.258,0.188-2.371,0.271-3.411c-2.338-0.696-4.687-0.934-6.496-2.047c-2.457-1.511-4.244-0.884-6.481,0.334
		c-12.077,6.58-16.972,15.765-15.291,29.05c1.698,13.421,7.003,25.46,14.102,36.806c0.364,0.583,0.975,1.315,1.558,1.402
		c2.904,0.436,5.837,0.678,8.36,0.945c1.99-5.291,3.852-10.242,5.719-15.207c-0.759-0.042-1.667,0.024-2.521-0.162
		c-1.602-0.35-3.106-1.056-3.064-2.98c0.041-1.888,1.525-2.237,3.104-2.493C54.432,105.755,55.616,105.237,56.907,104.834z
		 M82.624,171.295c0.713-3.199,0.547-3.406-2.531-3.611c-6.487-0.433-12.986-0.757-19.454-1.38
		c-11.868-1.143-23.717-2.468-35.573-3.723c-1.025-0.108-2.046-0.261-3.43-0.44c0.317,12.538,0.627,24.755,0.938,37.075
		c0.392-0.139,0.505-0.143,0.539-0.197c0.125-0.205,0.248-0.418,0.329-0.643c2.566-7.035,7.37-12.139,13.679-15.984
		c9.553-5.822,20.154-8.365,31.061-9.84C72.965,171.906,77.808,171.703,82.624,171.295z M254.309,306.043
		c6.824-1.443,13.693-2.898,20.81-4.404c-2.437-11.6-4.859-23.135-7.321-34.859c-4.01,1.27-7.667,2.5-11.373,3.564
		c-1.533,0.441-2.047,1.205-2.037,2.789c0.041,6.906-0.048,13.814-0.076,20.723C254.296,297.867,254.309,301.879,254.309,306.043z
		 M38.016,77.076c0.008,0.093,0.017,0.185,0.025,0.278c-0.751,0.791-1.723,1.465-2.214,2.394c-2.301,4.352-3.409,9.058-3.794,13.948
		c-0.318,4.037,1.542,6.019,5.608,5.826c1.137-0.053,2.316-0.257,3.38-0.652c3.177-1.181,6.182-0.98,9.351,0.263
		c5.465,2.144,8.86,0.334,10.474-5.333c1.725-6.059,0.145-11.394-3.889-16.046c-0.813-0.938-2.066-1.494-3.116-2.227
		c-0.835-2.388-2.829-3.473-4.99-2.506c-1.061-0.721-1.825-1.656-2.66-1.726c-2.015-0.167-3.983,0.184-3.973,2.62
		c-0.895,0-1.887-0.285-2.204,0.056C39.19,74.858,38.662,76.022,38.016,77.076z M248.807,227.857
		c-7.949,2.375-15.16,4.537-22.377,6.682c-1.427,0.426-1.323,1.387-1.062,2.533c0.973,4.242,1.976,8.477,2.8,12.748
		c0.311,1.611,0.996,2.184,2.604,2.193c4.6,0.029,9.199,0.23,13.8,0.262c1.032,0.008,2.131-0.26,3.075-0.682
		c0.521-0.232,1.106-1.041,1.111-1.598C248.832,242.865,248.807,235.729,248.807,227.857z M267.171,263.902
		c-2.81-13.271-5.587-26.389-8.41-39.727c-1.09,0.459-1.804,0.867-2.571,1.064c-2.201,0.562-2.759,1.834-2.683,4.123
		c0.398,11.9,0.569,23.807,0.832,35.709c0.021,0.938,0.133,1.873,0.222,3.068C258.906,266.68,262.92,265.332,267.171,263.902z
		 M27.032,233.457c-3.998,0.369-4.038,0.451-4.105,4.137c-0.15,8.129-0.348,16.256-0.513,24.383
		c-0.013,0.629,0.083,1.262,0.123,1.814c7.626,0,15.067,0,22.989,0C35.667,255.473,31.717,244.215,27.032,233.457z M195.828,242.664
		c0.679,0.396,1.449,0.848,2.363,1.381c-1.097,0.641-1.949,1.139-2.845,1.66c5.836,7.301,7.15,12.338,5.341,15.668
		c-1.209-1.477-0.811-4.51-3.929-3.914c0.474-1.992-0.205-3.01-1.997-3.229c-0.318-0.039-0.87-0.092-0.904-0.236
		c-0.471-1.984-1.956-1.762-3.917-1.824c0,5.586,0,10.994,0,16.98c7.024-2.184,13.938-4.33,20.845-6.475
		c-2.089-12.848-9.784-20.574-20.354-26.143c-0.909,4.172,0.062,6.885,2.28,6.404c0.122-0.637,0.248-1.299,0.426-2.229
		c0.708,0.59,1.177,0.98,1.46,1.215c-0.283,1.004-0.521,1.785-0.697,2.578c-0.015,0.066,0.563,0.342,0.575,0.326
		C194.931,244.146,195.354,243.443,195.828,242.664z M240.427,137.518c-11.421,3.276-22.592,6.481-34.066,9.772
		c0.558,2.614,1.144,5.363,1.789,8.389c11.569-3.182,22.776-6.263,34.066-9.368C241.543,143.004,240.977,140.221,240.427,137.518z
		 M23.344,85.824c-2.089-0.149-2.321,0.897-2.312,2.326c0.078,11.187,0.111,22.374,0.17,33.561c0.003,0.634,0.119,1.268,0.208,2.15
		c5.304,0.59,10.504,1.168,16.306,1.813C30.09,113.056,24.859,100.14,23.344,85.824z M233.966,276.299
		c4.854-1.98,9.335-3.779,13.782-5.658c0.497-0.211,1.13-0.881,1.139-1.348c0.084-4.658,0.051-9.318,0.051-14.029
		c-6.275,1.898-12.196,3.688-18.326,5.543C231.719,265.916,232.807,270.945,233.966,276.299z M100.557,28.823
		c4.733-0.053,8.229-4.466,7.069-9.17c-1.086-4.404-4.185-6.932-8.438-8.109c-4.209-1.165-7.833,0.314-10.875,3.045
		c-0.794,0.712-1.004,2.604-0.781,3.826C88.441,23.408,95.458,28.88,100.557,28.823z M79.062,77.25
		c0.009-5.62-3.69-9.945-8.461-9.894c-4.52,0.048-8.275,3.427-8.262,7.435c0.015,4.926,4.792,9.833,9.542,9.803
		C76.223,84.566,79.056,81.67,79.062,77.25z M119.667,186.471c0.033-6.77-7.447-13.547-14.227-12.814
		c-0.723,0.078-1.6,0.504-2.042,1.059c-1.545,1.943-2.322,4.238-1.751,6.699c1.274,5.484,4.592,9.23,10.071,10.748
		C115.783,193.289,119.647,190.41,119.667,186.471z M122.45,228.443c0.131,0.152,0.261,0.305,0.392,0.457
		c0.639-0.352,1.262-0.738,1.919-1.051c4.019-1.924,7.653-2.807,11.939,0.311c2.563,1.863,6.619,2.805,9.792,2.418
		c3.987-0.482,6.85,0.055,9.664,2.873c1.743,1.746,3.281,1.391,5.006-0.258c0.134-0.127,0.377-0.199,0.569-0.199
		c2.062-0.002,2.342-0.217,2.984-2.479c-1.363,0.484-2.634,0.936-4.097,1.455c-0.066-0.908-0.116-1.58-0.167-2.273
		c-3.667,1.428-5.001,0.818-6.377-2.842c-0.116-0.309-0.283-0.602-0.364-0.918c-0.438-1.719-1.422-2.58-3.303-2.641
		c-6.081-0.203-12.17-0.375-18.232-0.855C127.223,222.047,124.925,225.277,122.45,228.443z M248.902,286.377
		c-4.218,1.439-7.975,2.725-11.842,4.047c1.443,6.668,2.842,13.131,4.298,19.859c2.013-0.666,3.76-1.109,5.374-1.842
		c0.641-0.291,1.379-1.205,1.412-1.871C248.47,300.021,248.657,293.467,248.902,286.377z M164.039,245.205
		c-1.557-1.324-2.678-2.275-4.036-3.432c0.381,3.426,0.955,4.148,2.229,3.936c0.709,0.953,1.094,1.83,1.765,2.301
		c1.565,1.096,3.282,0.891,4.905,0.021c2.412-1.297,4.46-1.275,6.735,0.674c2.599,2.225,5.853,3.096,9.705,2.703
		c0-3.537,0.02-6.885-0.026-10.236c-0.005-0.424-0.251-0.98-0.573-1.244c-2.772-2.271-7.984-2.096-10.828,0.357
		c-0.931,0.803-1.759,1.725-2.647,2.578c-3.344,3.205-4.202,3.092-6.618-0.848c-0.045-0.074-0.271-0.037-0.61-0.072
		C164.039,242.812,164.039,243.656,164.039,245.205z M89.369,228.553c0.058-5.789-3.088-9.615-7.374-9.584
		c-3.674,0.025-6.947,3.51-7.03,7.482c-0.07,3.354,4.095,8.365,6.958,7.723c2.375-0.533,4.562-2.143,6.657-3.541
		C89.21,230.213,89.247,228.908,89.369,228.553z M106.338,261.756c-0.117-0.092-0.235-0.184-0.352-0.275
		c-1.088,0.719-2.127,1.525-3.271,2.139c-3.087,1.654-6.067,2.295-9.55,0.477c-4.444-2.32-9.207-2.812-14.031-0.584
		c-0.868,0.402-2.234,0.162-3.208-0.211c-1.12-0.428-1.971-1.576-3.094-1.965c-1.403-0.488-2.96-0.668-4.457-0.703
		c-1.073-0.023-1.309,0.758-0.735,1.693c0.022,0.037-0.191,0.217-0.378,0.424c-0.343-0.264-0.688-0.527-1.206-0.924
		c-0.652,0.996-1.267,1.936-1.882,2.875c0.143,0.15,0.286,0.301,0.43,0.451c1.139-0.525,2.277-1.049,3.511-1.613
		c0.15,0.701,0.273,1.279,0.397,1.857c0.089-0.193,0.179-0.387,0.269-0.582c1.759,0.256,3.518,0.514,5.278,0.768
		c0.488,0.068,0.976,0.164,1.467,0.178c8.63,0.242,17.26,0.52,25.892,0.641c0.965,0.014,2.146-0.66,2.86-1.379
		C105.165,264.133,105.669,262.861,106.338,261.756z M54.354,58.458c0.805-2.741,1.424-4.688,1.921-6.666
		c0.121-0.479,0.029-1.263-0.289-1.563c-2.43-2.297-5.105-4.229-8.65-4.162c-3.54,0.068-5.187,2.864-3.513,5.96
		c0.491,0.909,1.199,1.897,2.068,2.367C48.518,55.816,51.272,57.001,54.354,58.458z M182.208,75.162
		c-3.17-0.091-5.188,1.65-5.27,4.545c-0.102,3.591,2.829,6.612,6.476,6.674c3.072,0.052,6.07-2.333,6.166-4.904
		C189.689,78.516,185.898,75.268,182.208,75.162z M111.83,207.1c3.394,4.162,5.236,8.865,4.932,14.547
		c2.085-0.27,3.902-0.504,6.312-0.816c-2.039-6.537-3.986-12.781-6.039-19.365C115.14,203.518,113.604,205.18,111.83,207.1z
		 M235.959,284.961c4.063-1.324,7.732-2.492,11.374-3.736c0.561-0.191,1.403-0.707,1.43-1.113c0.141-2.229,0.066-4.471,0.066-7.332
		c-4.776,2.145-9.033,4.031-13.255,6c-0.369,0.172-0.738,0.92-0.675,1.338C235.129,281.641,235.542,283.135,235.959,284.961z
		 M61.371,41.062c0.92-1.914,2.203-3.462,2.332-5.101c0.218-2.777-3.769-7.077-6.661-7.855c-1.695-0.456-3.339-0.376-4.52,1.057
		c-1.226,1.488-0.772,3.121,0.119,4.591C54.623,37.026,57.669,39.051,61.371,41.062z M109.395,51.111
		c3.906,4.826,5.893,10.323,5.964,16.677c3.089-0.615,5.85-1.163,8.859-1.762C120.85,59.213,116.526,53.825,109.395,51.111z
		 M184.321,117.015c0.037,0,0.073,0,0.11,0c0-1.395-0.102-2.8,0.024-4.183c0.171-1.866-0.942-2.259-2.391-2.299
		c-3.201-0.089-5.624,2.642-5.558,6.211c0.07,3.778,2.506,6.542,5.684,6.455c1.306-0.036,2.229-0.416,2.146-2
		C184.264,119.807,184.321,118.409,184.321,117.015z M253.452,223.531c0.99-0.359,1.653-0.639,2.338-0.842
		c1.917-0.572,2.488-1.605,1.881-3.662c-0.812-2.744-1.191-5.617-1.796-8.426c-0.85-3.949-1.734-7.889-2.604-11.834
		c-0.182,0.021-0.361,0.045-0.541,0.066C252.967,206.973,253.206,215.109,253.452,223.531z M212.589,261.762
		c3.654-1.064,7.048-1.992,10.388-3.084c0.534-0.176,1.248-1.178,1.141-1.617c-0.17-0.693-0.945-1.738-1.497-1.76
		c-3.903-0.152-7.814-0.08-11.88-0.08C211.303,257.207,211.913,259.369,212.589,261.762z M159.86,68.706
		c-2.971-0.27-5.815-0.527-8.659-0.79c-1.003-0.092-1.775,0-1.761,1.342c0.036,3.239,2.832,6.109,5.919,5.994
		C158.385,75.139,160.196,72.645,159.86,68.706z M139.77,259.844c-1.919-1.893-3.656-2.879-5.872-2.301
		c-2.008,0.525-2.711,2.258-3.226,4.041c-0.561,1.941-1.062,3.896-1.604,5.9c0.851,0.084,2.001,0.145,3.131,0.324
		c1.406,0.223,1.974-0.377,2.501-1.678c0.484-1.197,1.592-2.143,2.487-3.275c-0.475-0.33-1.35-0.934-2.225-1.537
		c0.048-0.186,0.098-0.373,0.146-0.561C136.504,260.484,137.9,260.211,139.77,259.844z M56.088,127.567
		c3.498,0.374,6.855,0.732,10.204,1.089c0.489-3.873-1.321-6.75-4.256-7.161C58.876,121.052,56.516,123.3,56.088,127.567z
		 M113.258,70.938c1.25,4.261,3.87,6.12,6.859,5.269c2.818-0.803,4.161-3.689,3.25-7.369
		C120.061,69.526,116.744,70.214,113.258,70.938z M73.636,93.875c2.526,2.841,5.52,3.342,7.674,1.593
		c2.116-1.718,2.501-6.067,0.595-8.984C79.163,88.935,76.457,91.354,73.636,93.875z M200.049,257.502
		c-0.347-5.016-4.896-11.416-9.926-14.211c0,2.508,0,4.904,0,7.385C194.46,251.32,197.363,253.996,200.049,257.502z M148.219,129.88
		c-0.137-3.485-2.084-5.689-4.891-5.773c-2.286-0.069-5.756,2.393-5.174,5.773C141.428,129.88,144.741,129.88,148.219,129.88z
		 M58.104,101.748c-0.265-0.051-0.53-0.102-0.795-0.154c0.793,1.357,1.586,2.714,2.562,4.382c2.527-3.015,4.8-5.726,6.642-7.923
		c-0.913-1.124-1.668-2-2.357-2.925c-0.324-0.435-0.521-0.963-0.776-1.45c-0.361,0.374-0.804,0.697-1.071,1.129
		C60.882,97.105,59.501,99.432,58.104,101.748z M88.539,130.186c3.48,0,6.79,0,10.105,0c-0.173-2.979-2.067-5.073-4.703-5.198
		C91.247,124.863,89.225,126.648,88.539,130.186z M70.162,201.943c-1.954-2.027-4.132-3.719-7.103-3.9
		c-0.652-0.041-1.628,0.23-1.919,0.693c-0.271,0.432-0.021,1.445,0.341,1.967c0.691,0.996,1.539,1.93,2.472,2.705
		C67.673,206.5,68.04,206.396,70.162,201.943z M67.712,85.018c-0.731,3.78-1.403,7.25-2.095,10.829
		c2.275,0.406,3.195-1.161,3.861-2.687C70.719,90.319,70.811,88.299,67.712,85.018z M74.179,229.219
		c-0.215,0.68-0.759,1.74-0.826,2.832c-0.043,0.727,0.402,1.719,0.966,2.197c1.143,0.977,2.514,1.684,3.791,2.502
		c-0.049,0.258-0.099,0.514-0.148,0.771c1.076-0.727,2.152-1.451,2.859-1.928C78.477,233.344,76.299,231.256,74.179,229.219z
		 M36.506,74.725c4-3.452,4.138-5.176,1.223-7.07c-1.385-0.899-2.636-0.479-2.555,1.121C35.268,70.624,35.964,72.441,36.506,74.725z
		 M77.707,192.242c-1.316-1.453-2.391-2.783-3.632-3.934c-0.436-0.404-1.278-0.369-1.935-0.535
		c-0.071,0.607-0.386,1.328-0.168,1.805c0.849,1.861,1.867,3.645,3.026,5.844C76.124,194.102,76.793,193.314,77.707,192.242z
		 M54.842,72.957c0.17-1.88,0.568-3.269,0.319-4.532c-0.184-0.936-1.207-1.707-1.856-2.552c-0.725,0.673-1.591,1.249-2.147,2.041
		c-1.006,1.434-0.978,2.695,0.991,3.402C52.892,71.583,53.53,72.143,54.842,72.957z M51.071,108.173
		c0.029,0.282,0.059,0.563,0.088,0.844c1.322,0.395,2.62,0.953,3.97,1.141c1.524,0.212,2.778-0.616,3.265-2.036
		c0.22-0.642-0.306-1.539-0.487-2.292c-1.581,0.616-2.626,1.065-3.7,1.43C53.177,107.609,52.118,107.872,51.071,108.173z
		 M25.965,230.264c-0.946-3.469-1.782-6.537-2.617-9.604c-0.087,0.037-0.175,0.072-0.262,0.107c0,3.328,0,6.658,0,10.328
		C24.173,230.781,24.984,230.547,25.965,230.264z M66.468,213.77c-0.147-0.197-0.295-0.395-0.443-0.592
		c-1.033,0.252-2.065,0.504-3.575,0.875c1.044,1.1,1.737,1.83,2.687,2.83C65.675,215.623,66.072,214.697,66.468,213.77z
		 M71.398,221.203c-1.663-0.463-2.729-0.76-4.356-1.211c0.894,1.584,1.433,2.539,2.176,3.857
		C69.964,222.943,70.48,222.316,71.398,221.203z"/>
	<path fill-rule="evenodd" clip-rule="evenodd" fill="#FFFFFF" d="M72.649,95.025c0.861,0.685,1.517,1.297,2.257,1.78
		c3.213,2.097,7.378,0.739,8.773-2.831c0.906-2.32,0.844-4.623,0.132-7.005c-0.191-0.641,0.074-1.846,0.562-2.199
		c8.325-6.053,17.456-10.463,27.526-13.297c0.367,0.809,0.685,1.542,1.032,2.262c1.36,2.825,3.91,4.271,6.78,3.857
		c2.619-0.377,4.418-2.302,5.028-5.378c0.738-3.726,0.732-3.84,4.624-4.042c6.22-0.324,12.447-0.479,17.834-0.675
		c1.539,3.003,2.475,5.429,3.956,7.453c0.693,0.948,2.409,1.44,3.724,1.583c3.278,0.356,5.021-1.704,6.825-7.931
		c6.416,1.433,12.867,2.873,19.301,4.309c-1.759,1.67-3.812,2.8-4.479,4.48c-0.674,1.693-0.46,4.12,0.225,5.895
		c1.442,3.743,5.757,5.249,9.503,3.79c3.929-1.531,4.916-4.189,3.407-9.775c7.92,4.727,15.759,9.088,22.691,15.407
		c-7.933,2.047-15.507,4.003-23.525,6.073c0-1.86,0-3.551,0-5.241c0.001-1.676-0.534-3.047-2.459-2.978
		c-1.818,0.066-2.129,1.417-2.098,2.996c0.088,4.444,0.102,8.888,0.141,13.333c0.008,0.8,0.001,1.6,0.001,2.396
		c-6.157,0.052-8.856,2.3-8.956,7.226c-0.105,5.189,2.618,7.716,8.668,7.987c0,2.349,0,4.698,0,7.398
		c-1.032,0-1.9,0.039-2.764-0.006c-9.942-0.526-19.883-1.082-29.827-1.578c-1.228-0.061-1.874-0.31-2.181-1.695
		c-0.832-3.772-3.079-5.777-6.067-5.757c-3.181,0.021-5.455,2.053-6.442,5.756c-0.102,0.384-0.203,0.768-0.431,1.625
		c-4.656,0-9.327-0.033-13.996,0.008c-6.666,0.059-13.331,0.18-19.996,0.255c-1.121,0.013-2.134,0.173-2.612-1.477
		c-1.039-3.591-3.176-5.321-5.947-5.352c-2.983-0.033-5.216,1.847-6.468,5.437c-0.079,0.228-0.209,0.438-0.512,1.058
		c-6.208-0.411-12.559-0.83-18.832-1.245c-0.314-1.612-0.438-2.936-0.839-4.17c-0.915-2.817-3.23-4.583-5.787-4.595
		c-2.684-0.012-5.139,1.815-6.116,4.561c-0.138,0.387-0.143,0.853-0.368,1.169c-0.349,0.492-0.836,0.885-1.265,1.32
		c-0.192-0.543-0.668-1.174-0.532-1.615c0.945-3.052,1.725-6.207,3.106-9.063C60.233,108.29,66.393,101.66,72.649,95.025z
		 M107.461,98.428c3.584-0.011,6.087-2.625,6.086-6.357c-0.003-4.654-3.228-7.985-7.661-7.913c-3.391,0.055-7.67,3.725-7.612,6.529
		C98.353,94.487,103.044,98.441,107.461,98.428z M156.089,109.499c0.043,2.939,0.853,5.547,3.374,7.312
		c2.383,1.667,4.923,1.761,7.442,0.346c2.351-1.32,3.175-3.522,2.92-6.071c-0.285-2.857-1.765-5.128-4.12-6.729
		c-2.016-1.368-4.217-1.833-6.517-0.601C156.894,104.987,156.079,107.026,156.089,109.499z M68.226,112.149
		c0.665,1.721,1.056,3.623,2.05,5.126c2.119,3.202,6.982,3.418,9.398,0.638c2.732-3.143,2.288-9.157-0.878-11.874
		c-1.903-1.633-4.758-1.853-6.868-0.502C69.574,107.044,68.566,109.255,68.226,112.149z M110.816,113.989
		c0.395,3.269,1.907,5.736,4.354,6.659c2.079,0.785,4.336,0.109,5.956-1.782c2.168-2.531,1.89-7.033-0.604-9.76
		c-2.231-2.442-6.045-2.339-7.892,0.416C111.756,110.829,111.405,112.489,110.816,113.989z M126.943,93.563
		c0.02,3.866,2.812,6.923,6.25,6.845c3.087-0.071,5.319-2.836,5.267-6.526c-0.053-3.687-2.687-6.606-5.947-6.591
		C129.325,87.307,126.925,90.009,126.943,93.563z"/>
	<path fill-rule="evenodd" clip-rule="evenodd" fill="#FFFFFF" d="M184.078,135.115c0,9.52,0,18.941,0,28.541
		c-0.766,0.044-1.48,0.124-2.194,0.123c-25.349-0.069-50.701,0.127-76.043-0.326c-14.468-0.259-28.921-1.513-43.373-2.444
		c-9.604-0.618-19.2-1.379-28.785-2.236c-3.429-0.306-6.818-1.065-10.22-1.652c-1.088-0.188-2.003-0.496-2.007-1.98
		c-0.026-8.888-0.126-17.774-0.192-26.661c-0.001-0.15,0.112-0.301,0.348-0.893c3.825,0.25,7.817,0.404,11.786,0.793
		c13.836,1.354,27.635,3.337,41.501,4.051c16.256,0.836,32.571,0.946,48.851,0.714c14.592-0.207,29.118,0.526,43.659,1.353
		c4.928,0.28,9.869,0.301,14.805,0.45C182.772,134.964,183.33,135.046,184.078,135.115z"/>
	<path fill-rule="evenodd" clip-rule="evenodd" fill="#FFFFFF" d="M184.221,272.99c0,3.994,0.047,7.678-0.013,11.357
		c-0.066,4.031-0.224,8.062-0.356,12.092c-0.148,4.492,0.449,3.979-3.994,3.963c-13.416-0.051-26.84-0.48-40.246-0.158
		c-25.062,0.602-49.995-1.324-74.954-3.008c-8.864-0.596-17.769-0.586-26.633-1.178c-4.818-0.322-9.59-1.33-14.384-2.016
		c-1.731-0.246-2.44-1.01-2.327-2.945c0.396-6.738,0.699-13.484,0.773-20.229c0.027-2.465,1.007-3.076,3.187-3.049
		c9.458,0.117,18.923-0.023,28.375,0.27c17.68,0.551,35.354,1.293,53.028,2.043c13.976,0.59,27.942,1.396,41.92,1.949
		c10.765,0.428,21.537,0.617,32.308,0.904C182.033,273.018,183.165,272.99,184.221,272.99z"/>
	<path fill-rule="evenodd" clip-rule="evenodd" fill="#FFFFFF" d="M185.605,231.191c-2.406-1.193-4.213-2.115-6.04-2.992
		c-9.514-4.564-19.759-6.197-30.107-7.021c-7.442-0.592-14.944-0.506-22.421-0.572c-1.489-0.014-1.935-0.508-2.31-1.814
		c-1.723-6-3.519-11.98-5.391-17.934c-0.465-1.479-0.418-2.688,0.062-4.215c1.05-3.338,2.108-6.803,2.282-10.26
		c0.304-6.023-3.206-10.238-8.083-13.209c-4.396-2.677-8.968-2.941-13.486,0.068c-0.698,0.463-1.844,0.529-2.722,0.393
		c-2.352-0.367-4.661-0.998-7.006-1.422c-3.088-0.557-3.096-0.514-2.644-3.544c32.14,0,64.254,0,96.823,0
		C184.909,189.41,185.253,210.059,185.605,231.191z"/>
	<path fill-rule="evenodd" clip-rule="evenodd" fill="#FFFFFF" d="M155.958,235.637c0.895,0.146,2.237,0.365,3.969,0.648
		c2.42-1.434,6.053-2.484,6.763-7.109c-1.433,0.152-2.649,0.281-3.814,0.406c-0.349-1.043-0.723-2.16-0.979-2.926
		c-1.858,0.688-3.724,2.074-4.903,1.633c-1.334-0.502-2.052-2.643-2.832-4.277c7.058,0.334,13.73,1.551,20.113,4.078
		c2.596,1.029,5.132,2.229,7.636,3.469c3.965,1.965,4.073,2.285,3.209,6.977c-2.27-0.146-0.948-1.412-0.531-2.381
		c-0.692-0.312-1.246-0.566-1.782-0.811c-0.159,0.24-0.283,0.354-0.318,0.492c-0.149,0.605-0.274,1.217-0.408,1.826
		c-0.509-0.457-1.243-0.822-1.464-1.391c-0.256-0.656-0.06-1.49-0.06-2.338c-0.747,0.135-1.511,0.271-2.499,0.451
		c0.615,0.922,1.129,1.693,1.821,2.732c-3.432,0.209-5.939,1.617-8.137,3.914c-3.646,3.816-4.81,3.533-7.03-1.705
		c-0.859,1.041-1.574,1.906-2.357,2.854c-0.912-0.551-2.027-1.225-3.38-2.043c-0.791,4.529,2.201,6.936,4.445,9.758
		c1.272-0.941,2.558-0.508,3.234,0.514c1.325-0.342,2.354-0.582,3.365-0.883c0.353-0.105,0.707-0.311,0.979-0.559
		c1.003-0.92,1.151-0.865,1.648,0.709c2.23-0.623,3.503,0.246,4.203,2.879c1.791-1.291,2.832-1.066,3.953,0.57
		c1.289-0.178,2.47-0.646,3.398-0.344c0.512,0.166,0.84,1.633,0.838,2.512c-0.016,4.361-0.191,8.725-0.259,13.086
		c-0.021,1.357-0.524,1.875-1.938,1.807c-14.141-0.682-28.283-1.312-42.426-1.965c-0.406-0.02-0.81-0.104-1.336-0.174
		c0-0.547,0-1.055,0-1.551c-0.999-0.184-1.945-0.355-2.892-0.527c0.02-0.248,0.038-0.496,0.056-0.744c1.269,0,2.536,0,3.805,0
		c0.156-0.193,0.312-0.387,0.469-0.578c-0.703-1.025-1.406-2.049-2.19-3.191c0.839-0.166,1.892-0.373,3.121-0.617
		c-1.344-3.189-4.359-3.895-7.041-5.303c-0.511,1.639-2.486,1.521-3.718,2.803c-1.223,1.273,0.428,3.77-2.177,3.738
		c0.864,1.883,0.854,1.869-0.818,2.912c-0.179,0.111-0.135,0.543-0.262,0.791c-0.16,0.311-0.479,0.863-0.577,0.832
		c-1.267-0.402-3.435-0.697-3.578-1.393c-0.433-2.086-2.131-1.082-3.291-1.738c0.127,1.109,0.255,2.219,0.373,3.242
		c-5.025,0-10.092,0-15.778,0c2.063-3.021,3.731-5.633,3.456-9.084c-1.981,0.559-2.004,4.391-4.789,2.822
		c-0.302,0.688-0.447,1.824-0.941,2.006c-2.065,0.758-4.236,1.227-6.597,1.863c-0.061-1.072-0.094-1.684-0.129-2.295
		c-0.179-0.162-0.356-0.324-0.536-0.488c-0.26,0.623-0.52,1.246-0.979,2.346c-1.242-1.346-2.103-2.277-2.976-3.223
		c-1.554,1.246-2.642,1.125-4.155-0.734c-1.866,1.643-3.012,1.578-3.982,0.084c-1.254,0.701-2.461,1.375-3.668,2.049
		c-0.568-1.898-2.714,1.807-3.364-0.986c-0.162-0.695-3.203,0.219-2.773-2.09c-1.566,0-2.996,0-4.424,0
		c-0.098-0.215-0.196-0.432-0.294-0.646c-1.863,2.092-3.711,4.199-5.609,6.258c-0.231,0.252-0.738,0.371-1.106,0.352
		c-2.197-0.119-4.391-0.293-7.225-0.496c6.397-9.539,13.921-17.268,22.555-23.873c14.251-10.9,30.543-16.48,49.072-17.939
		c-2.95,2.949-5.759,5.434-5.604,9.631c2.023-0.297,2.498-4.072,5.014-2.225c0.478-0.662,0.771-1.543,1.269-1.678
		c2.064-0.557,4.191-0.889,6.53-1.352c0,1.184,0,1.875,0,2.982c0.638-0.559,1.007-0.881,1.657-1.451
		c0.876,0.939,1.754,1.881,2.722,2.92c1.581-0.863,2.562-0.621,3.911,1.295c2.134-1.117,3.11-0.906,4.14,0.992
		c1.389-1.324,2.674-3.303,4.859-1.125c0.062,0.061,0.793-0.555,1.101-0.773C153.159,233.148,154.456,234.303,155.958,235.637z
		 M86.521,239.543c-1.427,1.496-2.593,2.719-3.871,4.059c-0.541-0.752-1.051-1.457-1.643-2.277c-0.551,0.414-1.091,0.82-1.55,1.164
		c1.172,1.119,2.237,2.135,3.301,3.15c-0.189,0.229-0.379,0.457-0.569,0.684c-0.885-0.441-1.771-0.881-2.791-1.391
		c-0.229,0.732-0.431,1.377-0.64,2.045c1.118,0.141,2.006,0.25,2.894,0.363c-0.006,0.271-0.012,0.541-0.018,0.812
		c-1.301,0-2.602,0-3.902,0c-0.141,0.205-0.282,0.41-0.422,0.617c0.738,1.035,1.476,2.068,2.259,3.168
		c-0.999,0.182-2.059,0.371-3.119,0.562c-0.104,0.266-0.21,0.531-0.315,0.799c2.355,1.604,4.71,3.207,7.023,4.783
		c0.525-0.49,0.868-1.043,1.345-1.211c2.095-0.74,3.458-1.975,3.528-4.35c0.009-0.324,0.454-0.615,0.597-0.961
		c0.156-0.377,0.339-0.836,0.258-1.201c-0.2-0.887,1.727-3.908,2.339-3.52c1.115,0.705,3.174,0.578,3.338,1.27
		c0.485,2.037,2.132,1.258,3.374,2.271c-0.331-5.783-3.835-8.494-8.149-10.561c-0.663-0.658,1.274-2.471-1.047-2.443
		c-0.103,0.85-0.195,1.621-0.288,2.393c-0.195,0.039-0.389,0.078-0.583,0.117c-0.199-0.598-0.284-1.275-0.632-1.768
		c-0.283-0.4-0.881-0.58-1.339-0.857c-0.078,0.141-0.156,0.283-0.233,0.422C85.963,238.334,86.263,238.98,86.521,239.543z
		 M167.189,255.115c-0.979,0.17-1.785,0.309-2.625,0.455c-0.273,1.047-3.004,3.088-3.888,2.68c-0.489-0.229-0.694-1.48-1.062-1.498
		c-2.598-0.117-1.19-1.59-1.167-2.506c-1.173-3.041-2.55-5.898-5.978-6.807c-1.101,0.572-2.399,1.092-3.513,1.875
		c-1.169,0.822-2.159,1.898-3.685,3.273c1.672,0.35,2.695,0.566,3.558,0.748c-0.712,1.182-1.346,2.234-2.239,3.717
		c2.038,0,3.307,0,4.576,0c0.01,0.266,0.02,0.531,0.031,0.797c-0.956,0.172-1.91,0.344-3.022,0.545
		c0.295,0.68,0.54,1.244,0.775,1.789c0.976-0.441,1.856-0.838,2.738-1.234c0.177,0.264,0.354,0.525,0.53,0.789
		c-1.066,0.965-2.134,1.93-3.307,2.988c0.567,0.373,1.125,0.74,1.655,1.088c0.61-0.855,1.111-1.559,1.283-1.797
		c1.473,1.246,2.826,2.393,4.222,3.576c-0.264,0.672-0.535,1.367-0.808,2.061c0.211,0.119,0.423,0.24,0.635,0.357
		c0.588-0.871,1.178-1.74,2.038-3.014c0.197,1.346,0.305,2.088,0.413,2.828c0.249,0.021,0.499,0.045,0.748,0.066
		c0.12-0.842,0.241-1.686,0.37-2.578C164.781,262.557,167.132,259.527,167.189,255.115z M123.202,238.35
		c-4.078-0.666-5.727,2.324-7.821,4.375c-0.126,0.881-0.272,1.902-0.46,3.217c-0.759-0.635-1.098-0.918-1.542-1.291
		c-0.131,0.691-0.227,1.201-0.341,1.801c-0.529-0.158-1.081-0.154-1.272-0.414c-0.613-0.834-0.799-2.086-2.262-1.967
		c-0.103,0.008-0.382-0.43-0.337-0.6c0.577-2.207-1.568-1.727-2.345-2.791c-1.145,3.754,0.165,7.844,3.396,10.902
		c0.98,0.93,2.177,1.662,0.811,3.182c-0.079,0.088,0.467,0.74,0.817,1.279c0.57-1.111,0.919-1.789,1.242-2.42
		c1.478,0.76-0.738,2.98,1.827,2.961c-0.061-0.807-0.113-1.504-0.158-2.092c1.608-0.906,3.08-1.736,4.738-2.672
		c0.331,0.895,0.654,1.77,1.02,2.758c0.612-0.238,1.166-0.453,1.644-0.641c-0.781-1.428-1.48-2.703-2.18-3.982
		c0.232-0.143,0.464-0.285,0.695-0.432c0.745,0.674,1.49,1.346,2.302,2.08c0.437-0.549,0.814-1.023,1.217-1.529
		c-1.019-0.545-1.869-1.002-2.719-1.459c0.118-0.295,0.236-0.592,0.355-0.889c1.236,0.385,2.472,0.768,4.309,1.342
		c-0.58-1.607-1.021-2.824-1.46-4.037c0.956,0.086,2.032,0.182,3.108,0.277c0.163-0.229,0.326-0.459,0.489-0.686
		C126.462,242.381,124.649,240.139,123.202,238.35z"/>
	<path fill-rule="evenodd" clip-rule="evenodd" fill="#FFFFFF" d="M246.785,142.814c-0.445-1.92-1.072-3.821-1.279-5.767
		c-0.154-1.458,0.659-4.144,0.309-4.271c-2.116-0.77-1.824-2.563-2.167-4.02c-1.69-7.205-3.296-14.432-4.932-21.65
		c-0.072-0.322-0.151-0.642-0.223-0.963c-0.267-1.2-0.752-2.526-2.189-1.898c-0.776,0.339-1.61,1.738-1.544,2.59
		c0.223,2.86,0.784,5.701,1.317,8.529c1.156,6.137,2.375,12.262,3.626,18.688c-11.099,3.928-22.157,7.732-34.039,9.64
		c-1.068-5.44-2.142-10.746-3.143-16.063c-0.821-4.365-1.569-8.745-2.325-13.123c-0.244-1.417-0.388-3.034-2.341-2.799
		c-1.991,0.24-1.761,1.99-1.591,3.317c0.86,6.687,1.797,13.365,2.774,20.036c0.357,2.441,1.036,4.84,1.306,7.287
		c0.14,1.272-0.312,2.604-0.458,3.914c-0.06,0.541-0.193,1.487,0.011,1.581c2.907,1.323,1.806,4.278,2.666,6.409
		c0.324,0.801,0.295,1.746,0.454,2.813c-4.642,1.781-9.205,3.535-14.131,5.426c-0.086-1.628-0.205-2.825-0.201-4.021
		c0.068-18.109,0.181-36.218,0.19-54.327c0.001-1.638,0.722-2.168,2.044-2.506c7.725-1.975,15.454-3.93,23.164-5.963
		c6.121-1.614,12.204-3.375,18.327-4.985c4.855-1.276,9.766-2.217,14.924-1.617c0,17.997,0,35.861,0,53.725
		C247.151,142.801,246.969,142.809,246.785,142.814z"/>
	<path fill-rule="evenodd" clip-rule="evenodd" fill="#FFFFFF" d="M73.342,197.426c-0.464,0.605-1.142,1.492-1.888,2.469
		c-0.994-0.791-1.767-1.541-2.664-2.086c-1.325-0.807-2.678-1.645-4.13-2.15c-2-0.697-4.021-0.406-5.369,1.367
		c-1.427,1.877-0.788,3.938,0.602,5.422c1.723,1.838,3.89,3.254,5.768,4.957c0.544,0.494,1.156,1.438,1.033,2.029
		c-0.22,1.051-0.156,2.545-2.019,2.604c-1.096,0.033-2.175,0.568-3.274,0.881c0-1.996,0-3.998,0-6.02
		c-0.415,0-0.655-0.068-0.722,0.01c-2.271,2.652-4.921,4.246-8.641,3.854c-1.085-0.115-2.402,0.615-3.404,1.275
		c-5.692,3.742-9.88,8.812-12.989,14.805c1.126,0.943,2.092,1.754,3.193,2.676c0.318-0.594,0.641-1.199,1.043-1.953
		c0.561,0.467,1.083,0.9,1.692,1.408c0.384-0.674,0.733-1.287,1.15-2.021c0.693,0.568,1.287,1.057,1.881,1.545
		c0.129-0.121,0.258-0.242,0.387-0.365c-0.442-0.469-0.884-0.938-1.327-1.406c0.067-0.18,0.134-0.361,0.2-0.543
		c1.255,0.502,2.51,1.006,3.904,1.564c0.156-0.357,0.433-0.992,0.789-1.807c0.645,0.439,1.2,0.822,1.752,1.199
		c0.549-0.65,1.062-1.256,1.574-1.861c0.156,0.166,0.313,0.334,0.47,0.502c-0.929,1.148-1.22,3.152-3.801,2.062
		c0,0.926,0,1.623,0,2.514c-0.852-0.15-1.521-0.268-2.37-0.416c0,0.939,0,1.713,0,2.549c-0.813,0-1.574,0-2.505,0
		c0.106,0.754,0.191,1.361,0.298,2.123c-0.679-0.074-1.268-0.133-1.966-0.207c0,1.439,0,2.713,0,4.287
		c1.538,0,3.02,0.264,4.359-0.059c2.227-0.537,4.359-1.465,6.539-2.203c4.056-1.375,5.627-0.318,6.194,4.137
		c-1.932,1.051-1.932,1.051-6.794,0.141c0,1.084,0,2.217,0,3.631c0.308,0,1.043,0,1.904,0c-0.111,0.744-0.221,1.473-0.33,2.201
		c0.139,0.16,0.277,0.32,0.416,0.48c1.355-1.934,2.799-3.684,5.406-3.143c2.256,2.633,0.102,4.193-5.166,4.994
		c0.241,0.373,0.396,0.719,0.647,0.969c0.219,0.217,0.546,0.326,0.877,0.512c-0.398,0.646-0.756,1.225-1.113,1.803
		c0.094,0.164,0.187,0.328,0.28,0.492c0.728-0.281,1.456-0.564,2.311-0.896c0.271,0.396,0.629,0.918,0.987,1.439
		c0.179-0.023,0.359-0.049,0.539-0.07c0.042-0.787-0.154-1.705,0.19-2.322c0.346-0.619,1.229-0.939,1.877-1.389
		c0.239,0.061,0.477,0.123,0.715,0.184c-0.047,0.803,0.215,1.844-0.19,2.375c-3.025,3.963-6.181,7.828-9.479,11.951
		c-3.72-1.143-7.142-3.549-9.699-6.945c-10.779-14.311-16.849-30.463-17.97-48.34c-0.552-8.811,3.412-15.705,10.266-21.086
		c6.754-5.303,14.524-8.389,22.769-10.281c11.785-2.703,23.684-4.082,35.748-1.881c0.647,0.119,1.29,0.266,1.929,0.424
		c0.143,0.035,0.261,0.174,0.428,0.293c-5.514,4.738-11.015,9.467-16.628,14.291c-0.961-1.168-1.892-2.5-3.027-3.625
		c-1.307-1.295-2.835-2.426-4.833-1.496c-1.446,0.674-2.165,3.1-1.292,5.33C70.752,192.869,72.068,194.969,73.342,197.426z"/>
	<path fill-rule="evenodd" clip-rule="evenodd" fill="#FFFFFF" d="M88.809,78.258c-5.927,4.801-11.829,9.582-17.404,14.098
		c-0.134-2-0.298-4.452-0.465-6.942c6.214-1.048,8.425-2.847,8.673-7.276c0.306-5.454-2.404-10.037-6.627-11.21
		c-3.775-1.049-8.39,0.806-10.256,4.123c-2.219,3.944-0.799,8.445,3.804,12.687c-0.262,2.357-0.497,4.474-0.732,6.59
		c-0.216,0.086-0.432,0.172-0.647,0.258c-0.821-1.514-1.977-2.942-2.397-4.561c-0.931-3.579-2.406-6.826-4.748-9.661
		c-1.252-1.516-1.521-3.117-1.27-5.045c0.196-1.497-0.168-3.063-0.247-4.601c-0.094-1.849-0.278-3.71-0.15-5.546
		c0.044-0.637,0.905-1.216,1.398-1.828c-1.003-2.251-0.397-5.28,1.378-7.027c0.331-0.326,0.818-0.805,0.771-1.15
		c-0.439-3.229,1.053-5.525,3.226-7.694c0.705-0.702,0.443-2.391,1.157-3.062c1.513-1.421,2.173-3.259,3.241-4.877
		c4.646-7.037,10.683-12.871,17.443-18.527c0.935,5.203,3.812,8.842,7.753,11.735c4.194,3.079,8.59,4.051,13.821,1.41
		c-1.182,3.264-2.25,6.575-3.588,9.773c-0.753,1.803-1.203,3.793-3.398,4.881c-0.798,0.395-0.717,2.565-1.202,4.633
		c1.319-0.602,2.214-1.011,3.391-1.548c6.373,4.348,10.668,10.184,11.157,18.43c0.092,1.55-0.339,2.35-1.938,2.801
		c-2.913,0.823-5.748,1.92-9.019,3.041c2.898-5.464,4.282-10.764,0.38-15.94c-0.302,0.019-0.604,0.039-0.906,0.058
		c0.084,0.715,0.032,1.478,0.271,2.136c2.277,6.271,0.187,12.158-5.508,15.497c-2.751,1.614-5.59,1.63-8.586,0.84
		c-0.694-0.183-1.553,0.263-2.336,0.42c0.451,0.685,0.783,1.513,1.387,2.015C87.286,77.73,88.194,77.971,88.809,78.258z
		 M64.899,48.514c0.171,0.767,0.277,1.937,0.694,2.983c0.909,2.281,2.541,3.897,5.096,4.043c2.517,0.143,4.393-1.103,5.596-3.312
		c1.539-2.83,1.121-5.585-0.616-8.116c-1.547-2.258-3.614-4.065-6.576-3.336c-2.902,0.715-3.596,3.297-4.013,5.893
		C65.002,47.152,64.982,47.646,64.899,48.514z M85.155,33.893c0.021-3.888-2.335-6.697-5.677-6.767
		c-3.493-0.074-6.267,2.953-6.27,6.84c-0.002,3.82,2.869,7.26,6.023,7.215C82.437,41.136,85.135,37.817,85.155,33.893z"/>
	<path fill-rule="evenodd" clip-rule="evenodd" fill="#FFFFFF" d="M204.077,162.231c2.011,9.884,3.923,19.281,5.861,28.814
		c-0.673,0.314-1.354,0.473-1.796,0.885c-0.475,0.443-0.938,1.109-0.982,1.711c-0.021,0.303,0.938,1.014,1.38,0.955
		c2.062-0.268,2.374,0.916,2.718,2.553c2.451,11.678,5.026,23.328,7.469,35.006c0.202,0.965-0.216,2.088-0.467,3.107
		c-0.211,0.855-0.599,1.67-0.907,2.5c0.78,0.186,1.562,0.369,2.786,0.658c0.863,4.021,1.805,8.414,2.801,13.068
		c-2.507,0-4.846-0.137-7.161,0.029c-4.563,0.332-7.824-0.898-10.403-5.248c-2.922-4.932-8.058-7.908-12.962-10.805
		c-1.67-0.986-2.345-2.021-2.369-4.066c-0.222-18.193-0.599-36.383-0.931-54.574c-0.021-1.152,0.141-2.352-0.124-3.447
		c-0.881-3.652,0.812-5.612,4.039-6.814C196.622,165.224,200.172,163.769,204.077,162.231z"/>
	<path fill-rule="evenodd" clip-rule="evenodd" fill="#FFFFFF" d="M107.648,212.414c-0.086,0.641-0.2,1.277-0.249,1.92
		c-0.094,1.227,0.005,2.488-0.253,3.676c-0.624,2.877-2.993,4.398-5.889,3.932c-0.567-0.092-1.149-0.41-1.681-0.332
		c-0.688,0.104-1.333,0.5-1.996,0.77c0.435,0.6,0.745,1.451,1.332,1.744c1.001,0.498,2.177,0.645,3.656,1.037
		c-4.28,1.725-8.291,3.336-12.626,5.08c0-1.238,0.046-2.412-0.008-3.58c-0.287-6.234-5.896-10.104-11.057-7.656
		c-2.346,1.113-3.498,3.137-4.226,5.482c-0.218,0.701-0.349,1.428-0.545,2.252c-1.653-0.193-3.727,0.992-4.413-1.777
		c0.517-0.463,1.047-0.852,1.469-1.332c1.907-2.182,1.528-3.82-1.305-4.359c-2.19-0.414-2.425-1.494-2.045-3.268
		c0.329-1.523,0.549-3.074,0.922-4.588c0.266-1.08,0.434-2.287,2.076-2.311c0.315-0.004,1.02-1.355,0.859-1.566
		c-1.683-2.234-0.109-2.938,1.079-3.408c0.693-1.596,1.087-2.879,1.798-3.953c0.288-0.436,1.328-0.301,1.916-0.625
		c0.561-0.311,1.412-0.904,1.388-1.33c-0.159-2.928-0.222-2.926,2.584-2.816c-0.616-3.1,1.853-4.408,3.657-6.029
		c4.674-4.205,9.451-8.295,14.474-12.281c-0.313,5.609,1.855,9.965,5.574,13.6c3.813,3.727,8.171,5.771,13.889,3.285
		c-1.523,4.373-3.953,7.588-7.05,10.344c-0.291,0.258-0.757,0.59-1.06,0.521c-2.062-0.467-2.057,1.012-2.303,2.311
		c-0.31,1.639,0.58,1.969,1.956,1.967c0.302,0,0.648,0.467,0.898,0.777c2.433,3.053,3.942,6.422,3.684,10.443
		c-0.086,1.318-0.484,2.076-1.933,2.346c-2.245,0.418-4.444,1.088-6.484,1.605c1.104-1.814,2.576-3.568,3.286-5.59
		c0.721-2.053,0.84-4.396-0.588-6.303C108.174,212.406,107.91,212.41,107.648,212.414z M84.014,192.975
		c-0.159,3.557,2.388,6.494,5.806,6.693c3.223,0.188,5.615-1.932,5.732-5.078c0.125-3.32-2.65-6.229-6.153-6.451
		C86.444,187.951,84.147,190.014,84.014,192.975z M88.134,206.818c0.033-3.291-3.183-6.758-6.273-6.76
		c-2.634-0.004-5.138,2.904-5.118,5.941c0.021,3.059,2.77,5.652,5.992,5.654C85.868,211.658,88.104,209.654,88.134,206.818z"/>
	<path fill-rule="evenodd" clip-rule="evenodd" fill="#FFFFFF" d="M243.323,151.665c0.937,4.386,1.703,8.584,2.749,12.712
		c1.487,5.87,1.892,11.818,1.886,17.838c-0.002,1.652-0.329,2.533-2.151,2.852c-9.476,1.652-18.928,3.436-28.396,5.139
		c-0.91,0.164-2.026,0.539-2.341-0.963c-1.95-9.326-3.913-18.648-5.947-28.332C220.527,157.827,231.741,154.795,243.323,151.665z"/>
	<path fill-rule="evenodd" clip-rule="evenodd" fill="#FFFFFF" d="M248.296,187.527c0,6.336-0.019,12.492,0.007,18.65
		c0.023,5.678,0.026,11.355,0.187,17.027c0.05,1.742-0.564,2.482-2.194,2.885c-7.246,1.795-14.47,3.68-22.011,5.609
		c-2.733-12.602-5.478-25.252-8.255-38.059C226.709,191.617,237.158,189.639,248.296,187.527z"/>
	<path fill-rule="evenodd" clip-rule="evenodd" fill="#FFFFFF" d="M230.406,286.135c-14.17,4.297-27.973,8.48-41.982,12.729
		c0-0.891-0.032-2.08,0.006-3.27c0.219-6.986,0.466-13.973,0.676-20.959c0.037-1.24,0.251-2.146,1.687-2.576
		c10.234-3.07,20.443-6.225,30.666-9.332c1.084-0.33,2.208-0.535,3.69-0.887C226.93,270.07,228.672,278.119,230.406,286.135z"/>
	<path fill-rule="evenodd" clip-rule="evenodd" fill="#FFFFFF" d="M56.907,104.834c-1.291,0.402-2.475,0.92-3.712,1.121
		c-1.579,0.255-3.064,0.605-3.104,2.493c-0.042,1.924,1.463,2.63,3.064,2.98c0.853,0.187,1.761,0.121,2.521,0.162
		c-1.867,4.965-3.729,9.916-5.719,15.207c-2.523-0.268-5.456-0.51-8.36-0.945c-0.583-0.087-1.194-0.82-1.558-1.402
		c-7.099-11.346-12.404-23.385-14.102-36.806c-1.681-13.285,3.214-22.47,15.291-29.05c2.237-1.219,4.024-1.845,6.481-0.334
		c1.81,1.113,4.158,1.351,6.496,2.047c-0.082,1.041-0.17,2.153-0.271,3.411c-3.54,0.213-4.181,3.054-5.148,5.47
		c-2.348,0.288-4.595,0.562-6.993,0.856c-0.785-1.073-1.541-2.501-2.669-3.517c-0.808-0.728-2.309-1.468-3.146-1.178
		c-1.005,0.348-2.301,1.793-2.288,2.747c0.03,2.129,0.572,4.333,1.341,6.339c0.488,1.273,0.659,2.133-0.036,3.377
		c-2.731,4.887-4.122,10.203-4.591,15.76c-0.48,5.687,2.863,8.772,8.346,7.279c4.318-1.176,8.414-1.18,12.567,0.373
		c0.688,0.257,1.454,0.545,2.155,0.485C55.42,101.542,56.328,102.545,56.907,104.834z"/>
	<path fill-rule="evenodd" clip-rule="evenodd" fill="#FFFFFF" d="M82.624,171.295c-4.815,0.408-9.659,0.611-14.442,1.258
		c-10.907,1.475-21.508,4.018-31.061,9.84c-6.309,3.846-11.113,8.949-13.679,15.984c-0.082,0.225-0.204,0.438-0.329,0.643
		c-0.033,0.055-0.147,0.059-0.539,0.197c-0.312-12.32-0.621-24.537-0.938-37.075c1.384,0.179,2.405,0.332,3.43,0.44
		c11.856,1.255,23.706,2.58,35.573,3.723c6.468,0.623,12.967,0.947,19.454,1.38C83.17,167.889,83.337,168.096,82.624,171.295z"/>
	<path fill-rule="evenodd" clip-rule="evenodd" fill="#FFFFFF" d="M254.309,306.043c0-4.164-0.013-8.176,0.002-12.188
		c0.028-6.908,0.117-13.816,0.076-20.723c-0.01-1.584,0.504-2.348,2.037-2.789c3.706-1.064,7.363-2.295,11.373-3.564
		c2.462,11.725,4.885,23.26,7.321,34.859C268.002,303.145,261.133,304.6,254.309,306.043z"/>
	<path fill-rule="evenodd" clip-rule="evenodd" fill="#FFFFFF" d="M46.667,215.684c1.628-2.85,6.033-4.357,9.766-3.277
		c3.292,0.955,6.116,2.797,7.723,5.783c2.798,5.201,5.248,10.59,7.804,15.918c0.918,1.914,1.723,3.881,2.589,5.85
		c-3.633,3.307-7.204,6.555-10.774,9.807c-0.176-0.078-0.354-0.156-0.53-0.232c0.175-0.531,0.232-1.152,0.549-1.578
		c0.633-0.85,2.291-1.389,1.203-2.701c-0.387-0.467-1.81-0.074-3.011-0.074c-0.632-2.303-1.259-4.844-2.034-7.34
		c-1.142-3.678-2.892-4.568-6.517-3.307c-2.094,0.729-4.112,1.67-6.187,2.457c-0.813,0.309-1.687,0.457-2.532,0.68
		c-0.118-0.158-0.235-0.316-0.353-0.473c1.024-1.191,2.047-2.383,3.072-3.572c2.089-2.426,4.221-4.814,6.235-7.299
		c0.455-0.562,0.498-1.459,0.73-2.199c-0.752-0.139-1.531-0.479-2.252-0.385c-4.627,0.602-9.242,1.297-14.429,2.043
		c0.771-1.246,1.205-2.295,1.934-3.064c2.29-2.412,4.689-4.719,7.047-7.066c-0.297,0.57-0.918,1.199-0.826,1.697
		c0.189,1.018,0.547,2.543,1.23,2.797c0.883,0.33,2.563-0.037,3.142-0.734c0.575-0.693,0.629-2.393,0.166-3.244
		C49.595,214.668,48.099,214.473,46.667,215.684z M52.38,216.547c0.209,1.555,0.646,2.947,2.577,2.982
		c1.783,0.035,3.481-1.783,3.356-3.527c-0.112-1.576-1.8-3.129-3.297-3.029C53.515,213.072,52.322,214.689,52.38,216.547z"/>
	<path fill-rule="evenodd" clip-rule="evenodd" fill="#FFFFFF" d="M38.016,77.076c0.646-1.054,1.174-2.218,1.998-3.106
		c0.317-0.341,1.309-0.056,2.204-0.056c-0.01-2.437,1.958-2.787,3.973-2.62c0.835,0.069,1.599,1.004,2.66,1.726
		c2.161-0.967,4.154,0.119,4.99,2.506c1.05,0.732,2.303,1.289,3.116,2.227c4.034,4.652,5.614,9.988,3.889,16.046
		c-1.613,5.668-5.008,7.478-10.474,5.333c-3.169-1.243-6.173-1.444-9.351-0.263c-1.063,0.395-2.243,0.599-3.38,0.652
		c-4.066,0.193-5.927-1.789-5.608-5.826c0.385-4.89,1.493-9.597,3.794-13.948c0.491-0.929,1.463-1.603,2.214-2.394
		C38.033,77.261,38.024,77.169,38.016,77.076z M43.433,84.371c0.054-2.612-1.437-4.645-3.394-4.627
		c-1.923,0.017-3.818,2.125-3.909,4.35c-0.093,2.282,1.448,3.959,3.694,4.022C41.97,88.175,43.385,86.707,43.433,84.371z
		 M53.457,86.358c1.102,2.632,3.111,4.436,1.374,7.021c-1.806,2.686-4.116,0.988-6.49,0.625c0.677,2.385,2.149,2.665,3.768,2.563
		c2.077-0.129,4.154-2.073,4.611-4.196C57.221,90.047,56.25,87.991,53.457,86.358z M51.143,78.97c0.042-2.074-1.45-4.06-3.084-4.106
		c-1.514-0.043-3.29,1.864-3.389,3.641c-0.111,2.001,1.625,3.812,3.653,3.808C49.972,82.309,51.102,80.969,51.143,78.97z
		 M38.832,94.531c-1.358-1.1-2.17-2.254-3.033-2.293c-0.656-0.03-2.017,1.457-1.918,2.091c0.148,0.948,1.166,2.041,2.09,2.458
		C36.379,96.972,37.467,95.649,38.832,94.531z"/>
	<path fill-rule="evenodd" clip-rule="evenodd" fill="#FFFFFF" d="M248.807,227.857c0,7.871,0.025,15.008-0.049,22.139
		c-0.005,0.557-0.591,1.365-1.111,1.598c-0.944,0.422-2.043,0.689-3.075,0.682c-4.601-0.031-9.2-0.232-13.8-0.262
		c-1.607-0.01-2.293-0.582-2.604-2.193c-0.824-4.271-1.827-8.506-2.8-12.748c-0.262-1.146-0.365-2.107,1.062-2.533
		C233.646,232.395,240.857,230.232,248.807,227.857z"/>
	<path fill-rule="evenodd" clip-rule="evenodd" fill="#FFFFFF" d="M267.171,263.902c-4.251,1.43-8.265,2.777-12.61,4.238
		c-0.089-1.195-0.201-2.131-0.222-3.068c-0.263-11.902-0.434-23.809-0.832-35.709c-0.076-2.289,0.481-3.561,2.683-4.123
		c0.768-0.197,1.481-0.605,2.571-1.064C261.584,237.514,264.361,250.631,267.171,263.902z"/>
	<path fill-rule="evenodd" clip-rule="evenodd" fill="#FFFFFF" d="M27.032,233.457c4.685,10.758,8.634,22.016,18.494,30.334
		c-7.922,0-15.363,0-22.989,0c-0.04-0.553-0.136-1.186-0.123-1.814c0.165-8.127,0.362-16.254,0.513-24.383
		C22.995,233.908,23.034,233.826,27.032,233.457z"/>
	<path fill-rule="evenodd" clip-rule="evenodd" fill="#FFFFFF" d="M195.828,242.664c-0.475,0.779-0.897,1.482-1.354,2.164
		c-0.012,0.016-0.59-0.26-0.575-0.326c0.177-0.793,0.414-1.574,0.697-2.578c-0.283-0.234-0.752-0.625-1.46-1.215
		c-0.178,0.93-0.304,1.592-0.426,2.229c-2.219,0.48-3.189-2.232-2.28-6.404c10.57,5.568,18.266,13.295,20.354,26.143
		c-6.907,2.145-13.82,4.291-20.845,6.475c0-5.986,0-11.395,0-16.98c1.961,0.062,3.446-0.16,3.917,1.824
		c0.034,0.145,0.586,0.197,0.904,0.236c1.792,0.219,2.471,1.236,1.997,3.229c3.118-0.596,2.72,2.438,3.929,3.914
		c1.81-3.33,0.495-8.367-5.341-15.668c0.896-0.521,1.748-1.02,2.845-1.66C197.277,243.512,196.507,243.061,195.828,242.664z"/>
	<path fill-rule="evenodd" clip-rule="evenodd" fill="#FFFFFF" d="M240.427,137.518c0.55,2.703,1.116,5.487,1.789,8.794
		c-11.29,3.104-22.497,6.186-34.066,9.368c-0.646-3.026-1.231-5.775-1.789-8.389C217.835,143.999,229.006,140.794,240.427,137.518z"
		/>
	<path fill-rule="evenodd" clip-rule="evenodd" fill="#FFFFFF" d="M23.344,85.824c1.516,14.316,6.747,27.231,14.373,39.851
		c-5.802-0.646-11.001-1.223-16.306-1.813c-0.089-0.883-0.205-1.516-0.208-2.15c-0.06-11.187-0.093-22.374-0.17-33.561
		C21.022,86.721,21.254,85.675,23.344,85.824z"/>
	<path fill-rule="evenodd" clip-rule="evenodd" fill="#FFFFFF" d="M233.966,276.299c-1.159-5.354-2.247-10.383-3.354-15.492
		c6.13-1.855,12.051-3.645,18.326-5.543c0,4.711,0.033,9.371-0.051,14.029c-0.009,0.467-0.642,1.137-1.139,1.348
		C243.301,272.52,238.82,274.318,233.966,276.299z"/>
	<path fill-rule="evenodd" clip-rule="evenodd" fill="#FFFFFF" d="M100.557,28.823c-5.099,0.057-12.115-5.415-13.024-10.408
		c-0.223-1.223-0.013-3.114,0.781-3.826c3.042-2.731,6.666-4.21,10.875-3.045c4.253,1.177,7.352,3.705,8.438,8.109
		C108.786,24.357,105.29,28.771,100.557,28.823z M100.492,14.6c-0.301-0.01-0.603-0.021-0.903-0.032
		c-0.499,0.723-1.528,1.588-1.381,2.138c0.269,1,1.236,1.811,1.911,2.701c0.645-0.616,1.857-1.281,1.809-1.838
		C101.842,16.546,101.012,15.586,100.492,14.6z M96.068,19.352c-0.333,0-0.665-0.001-0.997-0.002
		c-0.416,0.74-1.072,1.444-1.194,2.23c-0.209,1.345,0.421,2.601,1.892,2.554c0.62-0.02,1.728-1.234,1.688-1.845
		C97.39,21.283,96.57,20.328,96.068,19.352z"/>
	<path fill-rule="evenodd" clip-rule="evenodd" fill="#FFFFFF" d="M79.062,77.25c-0.006,4.42-2.838,7.316-7.181,7.344
		c-4.751,0.03-9.527-4.876-9.542-9.803c-0.013-4.008,3.742-7.386,8.262-7.435C75.371,67.306,79.07,71.631,79.062,77.25z"/>
	<path fill-rule="evenodd" clip-rule="evenodd" fill="#FFFFFF" d="M119.667,186.471c-0.02,3.939-3.884,6.818-7.948,5.691
		c-5.479-1.518-8.797-5.264-10.071-10.748c-0.571-2.461,0.206-4.756,1.751-6.699c0.442-0.555,1.319-0.98,2.042-1.059
		C112.22,172.924,119.7,179.701,119.667,186.471z M111.167,185.127c-1.369-1.209-2.119-2.086-3.072-2.549
		c-0.221-0.109-1.682,1.281-1.598,1.834c0.141,0.93,0.905,2.025,1.725,2.482C108.613,187.113,109.732,186.027,111.167,185.127z
		 M113.512,177.822c-0.307-0.012-0.614-0.021-0.922-0.031c-0.482,0.713-1.242,1.375-1.385,2.15c-0.238,1.293,0.27,2.617,1.814,2.545
		c0.659-0.029,1.813-1.121,1.785-1.684C114.754,179.791,113.982,178.814,113.512,177.822z"/>
	<path fill-rule="evenodd" clip-rule="evenodd" fill="#FFFFFF" d="M122.45,228.443c2.475-3.166,4.772-6.396,9.726-6.002
		c6.062,0.48,12.151,0.652,18.232,0.855c1.881,0.061,2.865,0.922,3.303,2.641c0.081,0.316,0.248,0.609,0.364,0.918
		c1.376,3.66,2.71,4.27,6.377,2.842c0.051,0.693,0.101,1.365,0.167,2.273c1.463-0.52,2.733-0.971,4.097-1.455
		c-0.643,2.262-0.922,2.477-2.984,2.479c-0.192,0-0.436,0.072-0.569,0.199c-1.725,1.648-3.263,2.004-5.006,0.258
		c-2.814-2.818-5.677-3.355-9.664-2.873c-3.173,0.387-7.229-0.555-9.792-2.418c-4.286-3.117-7.921-2.234-11.939-0.311
		c-0.657,0.312-1.28,0.699-1.919,1.051C122.711,228.748,122.581,228.596,122.45,228.443z"/>
	<path fill-rule="evenodd" clip-rule="evenodd" fill="#FFFFFF" d="M248.902,286.377c-0.245,7.09-0.433,13.645-0.758,20.193
		c-0.033,0.666-0.771,1.58-1.412,1.871c-1.614,0.732-3.361,1.176-5.374,1.842c-1.456-6.729-2.854-13.191-4.298-19.859
		C240.928,289.102,244.685,287.816,248.902,286.377z"/>
	<path fill-rule="evenodd" clip-rule="evenodd" fill="#FFFFFF" d="M164.039,245.205c0-1.549,0-2.393,0-3.262
		c0.339,0.035,0.565-0.002,0.61,0.072c2.416,3.939,3.274,4.053,6.618,0.848c0.889-0.854,1.717-1.775,2.647-2.578
		c2.844-2.453,8.056-2.629,10.828-0.357c0.322,0.264,0.568,0.82,0.573,1.244c0.046,3.352,0.026,6.699,0.026,10.236
		c-3.853,0.393-7.106-0.479-9.705-2.703c-2.275-1.949-4.323-1.971-6.735-0.674c-1.623,0.869-3.34,1.074-4.905-0.021
		c-0.671-0.471-1.056-1.348-1.765-2.301c-1.274,0.213-1.849-0.51-2.229-3.936C161.361,242.93,162.482,243.881,164.039,245.205z"/>
	<path fill-rule="evenodd" clip-rule="evenodd" fill="#FFFFFF" d="M89.369,228.553c-0.122,0.355-0.159,1.66-0.788,2.08
		c-2.095,1.398-4.282,3.008-6.657,3.541c-2.864,0.643-7.028-4.369-6.958-7.723c0.083-3.973,3.356-7.457,7.03-7.482
		C86.281,218.938,89.427,222.764,89.369,228.553z"/>
	<path fill-rule="evenodd" clip-rule="evenodd" fill="#FFFFFF" d="M106.338,261.756c-0.669,1.105-1.173,2.377-2.059,3.266
		c-0.714,0.719-1.896,1.393-2.86,1.379c-8.632-0.121-17.262-0.398-25.892-0.641c-0.491-0.014-0.979-0.109-1.467-0.178
		c-1.76-0.254-3.519-0.512-5.278-0.768c-0.09,0.195-0.18,0.389-0.269,0.582c-0.124-0.578-0.247-1.156-0.397-1.857
		c-1.234,0.564-2.372,1.088-3.511,1.613c-0.144-0.15-0.287-0.301-0.43-0.451c0.615-0.939,1.23-1.879,1.882-2.875
		c0.519,0.396,0.863,0.66,1.206,0.924c0.188-0.207,0.401-0.387,0.378-0.424c-0.574-0.936-0.338-1.717,0.735-1.693
		c1.497,0.035,3.054,0.215,4.457,0.703c1.124,0.389,1.975,1.537,3.094,1.965c0.973,0.373,2.339,0.613,3.208,0.211
		c4.824-2.229,9.587-1.736,14.031,0.584c3.482,1.818,6.463,1.178,9.55-0.477c1.144-0.613,2.183-1.42,3.271-2.139
		C106.103,261.572,106.221,261.664,106.338,261.756z"/>
	<path fill-rule="evenodd" clip-rule="evenodd" fill="#FFFFFF" d="M54.354,58.458c-3.082-1.456-5.836-2.642-8.463-4.064
		c-0.869-0.47-1.577-1.458-2.068-2.367c-1.674-3.096-0.027-5.892,3.513-5.96c3.545-0.067,6.221,1.865,8.65,4.162
		c0.318,0.301,0.409,1.084,0.289,1.563C55.778,53.77,55.159,55.716,54.354,58.458z"/>
	<path fill-rule="evenodd" clip-rule="evenodd" fill="#FFFFFF" d="M182.208,75.162c3.69,0.105,7.481,3.354,7.372,6.315
		c-0.096,2.571-3.094,4.956-6.166,4.904c-3.646-0.062-6.577-3.083-6.476-6.674C177.02,76.812,179.038,75.071,182.208,75.162z"/>
	<path fill-rule="evenodd" clip-rule="evenodd" fill="#FFFFFF" d="M111.83,207.1c1.774-1.92,3.31-3.582,5.205-5.635
		c2.053,6.584,4,12.828,6.039,19.365c-2.41,0.312-4.228,0.547-6.312,0.816C117.066,215.965,115.224,211.262,111.83,207.1z"/>
	<path fill-rule="evenodd" clip-rule="evenodd" fill="#FFFFFF" d="M235.959,284.961c-0.417-1.826-0.83-3.32-1.06-4.844
		c-0.063-0.418,0.306-1.166,0.675-1.338c4.222-1.969,8.479-3.855,13.255-6c0,2.861,0.074,5.104-0.066,7.332
		c-0.026,0.406-0.869,0.922-1.43,1.113C243.691,282.469,240.022,283.637,235.959,284.961z"/>
	<path fill-rule="evenodd" clip-rule="evenodd" fill="#FFFFFF" d="M61.371,41.062c-3.701-2.011-6.748-4.035-8.73-7.307
		c-0.891-1.471-1.345-3.103-0.119-4.591c1.18-1.433,2.825-1.513,4.52-1.057c2.892,0.778,6.879,5.078,6.661,7.855
		C63.574,37.6,62.291,39.147,61.371,41.062z"/>
	<path fill-rule="evenodd" clip-rule="evenodd" fill="#FFFFFF" d="M109.395,51.111c7.132,2.714,11.455,8.103,14.823,14.916
		c-3.01,0.599-5.771,1.147-8.859,1.762C115.287,61.434,113.301,55.937,109.395,51.111z"/>
	<path fill-rule="evenodd" clip-rule="evenodd" fill="#FFFFFF" d="M184.321,117.015c0,1.395-0.058,2.792,0.016,4.184
		c0.083,1.584-0.84,1.964-2.146,2c-3.178,0.087-5.613-2.677-5.684-6.455c-0.066-3.569,2.356-6.3,5.558-6.211
		c1.448,0.04,2.562,0.434,2.391,2.299c-0.126,1.383-0.024,2.788-0.024,4.183C184.395,117.015,184.358,117.015,184.321,117.015z"/>
	<path fill-rule="evenodd" clip-rule="evenodd" fill="#FFFFFF" d="M253.452,223.531c-0.246-8.422-0.485-16.559-0.722-24.697
		c0.18-0.021,0.359-0.045,0.541-0.066c0.869,3.945,1.754,7.885,2.604,11.834c0.604,2.809,0.983,5.682,1.796,8.426
		c0.607,2.057,0.036,3.09-1.881,3.662C255.105,222.893,254.442,223.172,253.452,223.531z"/>
	<path fill-rule="evenodd" clip-rule="evenodd" fill="#FFFFFF" d="M212.589,261.762c-0.676-2.393-1.286-4.555-1.849-6.541
		c4.065,0,7.977-0.072,11.88,0.08c0.552,0.021,1.327,1.066,1.497,1.76c0.107,0.439-0.606,1.441-1.141,1.617
		C219.637,259.77,216.243,260.697,212.589,261.762z"/>
	<path fill-rule="evenodd" clip-rule="evenodd" fill="#FFFFFF" d="M159.86,68.706c0.336,3.939-1.476,6.433-4.501,6.546
		c-3.087,0.116-5.883-2.755-5.919-5.994c-0.015-1.342,0.758-1.435,1.761-1.342C154.045,68.179,156.89,68.436,159.86,68.706z"/>
	<path fill-rule="evenodd" clip-rule="evenodd" fill="#FFFFFF" d="M139.77,259.844c-1.869,0.367-3.266,0.641-4.662,0.914
		c-0.048,0.188-0.098,0.375-0.146,0.561c0.875,0.604,1.75,1.207,2.225,1.537c-0.896,1.133-2.003,2.078-2.487,3.275
		c-0.527,1.301-1.095,1.9-2.501,1.678c-1.13-0.18-2.28-0.24-3.131-0.324c0.542-2.004,1.044-3.959,1.604-5.9
		c0.515-1.783,1.218-3.516,3.226-4.041C136.113,256.965,137.851,257.951,139.77,259.844z"/>
	<path fill-rule="evenodd" clip-rule="evenodd" fill="#FFFFFF" d="M56.088,127.567c0.428-4.267,2.788-6.516,5.948-6.072
		c2.935,0.412,4.745,3.289,4.256,7.161C62.943,128.3,59.586,127.941,56.088,127.567z"/>
	<path fill-rule="evenodd" clip-rule="evenodd" fill="#FFFFFF" d="M113.258,70.938c3.486-0.724,6.803-1.413,10.109-2.1
		c0.911,3.68-0.432,6.566-3.25,7.369C117.128,77.059,114.508,75.199,113.258,70.938z"/>
	<path fill-rule="evenodd" clip-rule="evenodd" fill="#FFFFFF" d="M73.636,93.875c2.821-2.521,5.527-4.94,8.269-7.391
		c1.906,2.917,1.521,7.266-0.595,8.984C79.156,97.217,76.162,96.716,73.636,93.875z"/>
	<path fill-rule="evenodd" clip-rule="evenodd" fill="#FFFFFF" d="M200.049,257.502c-2.686-3.506-5.589-6.182-9.926-6.826
		c0-2.48,0-4.877,0-7.385C195.153,246.086,199.702,252.486,200.049,257.502z"/>
	<path fill-rule="evenodd" clip-rule="evenodd" fill="#FFFFFF" d="M148.219,129.88c-3.478,0-6.791,0-10.064,0
		c-0.582-3.381,2.888-5.842,5.174-5.773C146.135,124.19,148.082,126.395,148.219,129.88z"/>
	<path fill-rule="evenodd" clip-rule="evenodd" fill="#FFFFFF" d="M58.104,101.748c1.397-2.316,2.778-4.643,4.204-6.941
		c0.267-0.432,0.709-0.755,1.071-1.129c0.255,0.487,0.453,1.016,0.776,1.45c0.689,0.925,1.444,1.801,2.357,2.925
		c-1.842,2.197-4.115,4.908-6.642,7.923c-0.976-1.667-1.769-3.025-2.562-4.382C57.574,101.646,57.839,101.697,58.104,101.748z"/>
	<path fill-rule="evenodd" clip-rule="evenodd" fill="#FFFFFF" d="M88.539,130.186c0.686-3.538,2.708-5.323,5.402-5.198
		c2.636,0.125,4.53,2.218,4.703,5.198C95.329,130.186,92.02,130.186,88.539,130.186z"/>
	<path fill-rule="evenodd" clip-rule="evenodd" fill="#FFFFFF" d="M70.162,201.943c-2.122,4.453-2.488,4.557-6.208,1.465
		c-0.934-0.775-1.781-1.709-2.472-2.705c-0.362-0.521-0.612-1.535-0.341-1.967c0.291-0.463,1.267-0.734,1.919-0.693
		C66.029,198.225,68.208,199.916,70.162,201.943z"/>
	<path fill-rule="evenodd" clip-rule="evenodd" fill="#FFFFFF" d="M67.712,85.018c3.099,3.281,3.007,5.301,1.766,8.142
		c-0.666,1.525-1.586,3.092-3.861,2.687C66.31,92.269,66.981,88.798,67.712,85.018z"/>
	<path fill-rule="evenodd" clip-rule="evenodd" fill="#FFFFFF" d="M74.179,229.219c2.121,2.037,4.298,4.125,6.642,6.375
		c-0.707,0.477-1.783,1.201-2.859,1.928c0.049-0.258,0.099-0.514,0.148-0.771c-1.277-0.818-2.647-1.525-3.791-2.502
		c-0.563-0.479-1.009-1.471-0.966-2.197C73.419,230.959,73.963,229.898,74.179,229.219z"/>
	<path fill-rule="evenodd" clip-rule="evenodd" fill="#FFFFFF" d="M36.506,74.725c-0.542-2.284-1.238-4.102-1.332-5.949
		c-0.081-1.6,1.17-2.02,2.555-1.121C40.644,69.549,40.505,71.273,36.506,74.725z"/>
	<path fill-rule="evenodd" clip-rule="evenodd" fill="#FFFFFF" d="M77.707,192.242c-0.913,1.072-1.583,1.859-2.708,3.18
		c-1.159-2.199-2.177-3.982-3.026-5.844c-0.218-0.477,0.098-1.197,0.168-1.805c0.657,0.166,1.499,0.131,1.935,0.535
		C75.315,189.459,76.39,190.789,77.707,192.242z"/>
	<path fill-rule="evenodd" clip-rule="evenodd" fill="#FFFFFF" d="M54.842,72.957c-1.312-0.814-1.95-1.374-2.693-1.641
		c-1.969-0.708-1.997-1.968-0.991-3.402c0.556-0.792,1.422-1.368,2.147-2.041c0.649,0.845,1.672,1.617,1.856,2.552
		C55.41,69.688,55.012,71.077,54.842,72.957z"/>
	<path fill-rule="evenodd" clip-rule="evenodd" fill="#FFFFFF" d="M51.071,108.173c1.046-0.301,2.105-0.564,3.136-0.914
		c1.074-0.365,2.119-0.813,3.7-1.43c0.181,0.753,0.707,1.651,0.487,2.292c-0.486,1.42-1.741,2.248-3.265,2.036
		c-1.35-0.188-2.648-0.746-3.97-1.141C51.13,108.736,51.101,108.455,51.071,108.173z"/>
	<path fill-rule="evenodd" clip-rule="evenodd" fill="#FFFFFF" d="M25.965,230.264c-0.981,0.283-1.792,0.518-2.879,0.832
		c0-3.67,0-7,0-10.328c0.087-0.035,0.175-0.07,0.262-0.107C24.184,223.727,25.02,226.795,25.965,230.264z"/>
	<path fill-rule="evenodd" clip-rule="evenodd" d="M46.667,215.684c1.432-1.211,2.928-1.016,3.744,0.484
		c0.464,0.852,0.41,2.551-0.166,3.244c-0.579,0.697-2.258,1.064-3.142,0.734c-0.683-0.254-1.041-1.779-1.23-2.797
		c-0.092-0.498,0.529-1.127,0.826-1.697L46.667,215.684z M50.633,217.875c-0.963-0.885-1.706-1.9-2.013-1.781
		c-0.757,0.291-1.525,1.008-1.852,1.748c-0.144,0.324,0.883,1.658,1.19,1.596C48.77,219.275,49.479,218.6,50.633,217.875z"/>
	<path fill-rule="evenodd" clip-rule="evenodd" fill="#FFFFFF" d="M66.468,213.77c-0.396,0.928-0.792,1.854-1.331,3.113
		c-0.95-1-1.643-1.73-2.687-2.83c1.51-0.371,2.542-0.623,3.575-0.875C66.172,213.375,66.32,213.572,66.468,213.77z"/>
	<path fill-rule="evenodd" clip-rule="evenodd" fill="#FFFFFF" d="M71.398,221.203c-0.918,1.113-1.434,1.74-2.18,2.646
		c-0.743-1.318-1.282-2.273-2.176-3.857C68.669,220.443,69.735,220.74,71.398,221.203z"/>
	<path fill-rule="evenodd" clip-rule="evenodd" d="M107.461,98.428c-4.417,0.013-9.108-3.94-9.188-7.741
		c-0.058-2.804,4.222-6.474,7.612-6.529c4.434-0.072,7.658,3.259,7.661,7.913C113.548,95.802,111.045,98.417,107.461,98.428z
		 M112.396,92.207c0.029-3.949-2.515-6.654-6.33-6.733c-2.74-0.056-6.729,3.057-6.682,5.217c0.064,3.022,4.271,6.354,8.03,6.358
		C110.522,97.052,112.372,95.255,112.396,92.207z"/>
	<path fill-rule="evenodd" clip-rule="evenodd" d="M156.087,109.502c-0.008-2.476,0.807-4.515,3.102-5.746
		c2.3-1.232,4.501-0.767,6.517,0.601c2.355,1.6,3.835,3.872,4.12,6.729c0.255,2.549-0.569,4.751-2.92,6.071
		c-2.52,1.415-5.06,1.32-7.442-0.346C156.941,115.046,156.132,112.438,156.087,109.502z M168.715,111.91
		c-0.015-3.18-2.668-6.654-5.479-7.418c-2.583-0.701-5.426,0.839-5.904,3.413c-0.503,2.696-0.004,5.243,2.027,7.282
		c1.644,1.649,4.328,2.045,6.641,1.011C167.955,115.324,168.79,113.764,168.715,111.91z"/>
	<path fill-rule="evenodd" clip-rule="evenodd" d="M68.226,112.149c0.341-2.895,1.349-5.105,3.702-6.612
		c2.11-1.351,4.965-1.13,6.868,0.502c3.166,2.716,3.61,8.731,0.878,11.874c-2.416,2.78-7.279,2.564-9.398-0.638
		C69.282,115.772,68.89,113.871,68.226,112.149z M69.653,112.025c-0.002,2.829,1.484,5.356,3.677,6.188
		c1.731,0.656,3.466,0.622,4.89-0.617c1.981-1.724,2.369-4.08,1.971-6.538c-0.555-3.432-2.778-5.399-5.561-5.1
		C71.719,106.273,69.656,108.787,69.653,112.025z"/>
	<path fill-rule="evenodd" clip-rule="evenodd" d="M110.816,113.989c0.589-1.5,0.939-3.16,1.815-4.468
		c1.847-2.755,5.66-2.858,7.892-0.416c2.493,2.727,2.771,7.229,0.604,9.76c-1.62,1.892-3.877,2.567-5.956,1.782
		C112.724,119.725,111.211,117.258,110.816,113.989z M121.425,114.42c-0.02-3.136-2.048-5.683-4.564-5.729
		c-2.728-0.05-4.615,2.116-4.584,5.258c0.035,3.418,2.047,5.833,4.779,5.734C119.655,119.59,121.443,117.436,121.425,114.42z"/>
	<path fill-rule="evenodd" clip-rule="evenodd" d="M126.943,93.563c-0.019-3.554,2.382-6.257,5.569-6.272
		c3.261-0.016,5.895,2.904,5.947,6.591c0.053,3.689-2.18,6.455-5.267,6.526C129.755,100.487,126.963,97.43,126.943,93.563z
		 M137.323,94.035c0.002-3.062-2.09-5.464-4.778-5.487c-2.638-0.022-4.524,2.103-4.49,5.058c0.035,3.015,2.393,5.575,5.1,5.539
		C135.58,99.112,137.32,96.978,137.323,94.035z"/>
	<path fill-rule="evenodd" clip-rule="evenodd" d="M86.521,239.543c-0.259-0.562-0.559-1.209-0.856-1.859
		c0.077-0.139,0.155-0.281,0.233-0.422c0.458,0.277,1.056,0.457,1.339,0.857c0.348,0.492,0.433,1.17,0.632,1.768
		c0.194-0.039,0.388-0.078,0.583-0.117c0.093-0.771,0.186-1.543,0.288-2.393c2.321-0.027,0.384,1.785,1.047,2.443
		c4.314,2.066,7.818,4.777,8.149,10.561c-1.242-1.014-2.889-0.234-3.374-2.271c-0.164-0.691-2.223-0.564-3.338-1.27
		c-0.612-0.389-2.539,2.633-2.339,3.52c0.081,0.365-0.102,0.824-0.258,1.201c-0.143,0.346-0.588,0.637-0.597,0.961
		c-0.07,2.375-1.434,3.609-3.528,4.35c-0.478,0.168-0.82,0.721-1.345,1.211c-2.313-1.576-4.667-3.18-7.023-4.783
		c0.105-0.268,0.211-0.533,0.315-0.799c1.06-0.191,2.12-0.381,3.119-0.562c-0.783-1.1-1.521-2.133-2.259-3.168
		c0.14-0.207,0.281-0.412,0.422-0.617c1.301,0,2.602,0,3.902,0c0.006-0.271,0.012-0.541,0.018-0.812
		c-0.888-0.113-1.775-0.223-2.894-0.363c0.209-0.668,0.411-1.312,0.64-2.045c1.02,0.51,1.906,0.949,2.791,1.391
		c0.19-0.227,0.38-0.455,0.569-0.684c-1.064-1.016-2.128-2.031-3.301-3.15c0.459-0.344,0.999-0.75,1.55-1.164
		c0.592,0.82,1.103,1.525,1.643,2.277C83.929,242.262,85.095,241.039,86.521,239.543z M78.362,253.639
		c1.601,1.742,3.249,2.73,5.377,2.293c2.155-0.441,2.903-2.229,3.42-4.105c0.149-0.541,0.163-1.121,0.208-1.686
		c0.298-3.785,3.585-5.592,6.908-3.787c0.645,0.352,1.259,0.752,2.263,1.355c-1.37-2.932-3.124-4.656-5.693-5.873
		c-2.821-1.334-4.87-0.646-6.316,2.16c-0.375,0.727-0.761,1.484-0.93,2.271c-0.412,1.918-1.28,3.414-3.448,3.969
		c1.089,0.709,1.941,1.262,3.372,2.193C81.437,252.918,80.009,253.252,78.362,253.639z"/>
	<path fill-rule="evenodd" clip-rule="evenodd" d="M167.189,255.115c-0.058,4.412-2.408,7.441-7.72,10.199
		c-0.129,0.893-0.25,1.736-0.37,2.578c-0.249-0.021-0.499-0.045-0.748-0.066c-0.108-0.74-0.216-1.482-0.413-2.828
		c-0.86,1.273-1.45,2.143-2.038,3.014c-0.212-0.117-0.424-0.238-0.635-0.357c0.272-0.693,0.544-1.389,0.808-2.061
		c-1.396-1.184-2.749-2.33-4.222-3.576c-0.172,0.238-0.673,0.941-1.283,1.797c-0.53-0.348-1.088-0.715-1.655-1.088
		c1.173-1.059,2.24-2.023,3.307-2.988c-0.177-0.264-0.354-0.525-0.53-0.789c-0.882,0.396-1.763,0.793-2.738,1.234
		c-0.235-0.545-0.48-1.109-0.775-1.789c1.112-0.201,2.066-0.373,3.022-0.545c-0.012-0.266-0.021-0.531-0.031-0.797
		c-1.27,0-2.538,0-4.576,0c0.894-1.482,1.527-2.535,2.239-3.717c-0.862-0.182-1.886-0.398-3.558-0.748
		c1.525-1.375,2.516-2.451,3.685-3.273c1.113-0.783,2.412-1.303,3.513-1.875c3.428,0.908,4.805,3.766,5.978,6.807
		c-0.023,0.916-1.431,2.389,1.167,2.506c0.368,0.018,0.573,1.27,1.062,1.498c0.884,0.408,3.614-1.633,3.888-2.68
		C165.404,255.424,166.211,255.285,167.189,255.115z M166.063,257.4c-1.325,0.73-2.121,1.283-2.999,1.631
		c-2.612,1.041-5.392-0.281-6.057-2.863c-0.182-0.707-0.117-1.471-0.257-2.189c-0.412-2.115-1.306-4.023-3.478-4.713
		c-2.252-0.715-3.87,0.643-5.602,2.396c1.71,0.346,3.152,0.637,4.595,0.93c0.039,0.193,0.078,0.389,0.116,0.582
		c-0.942,0.621-1.884,1.242-2.333,1.537c0.97,1.162,1.945,2.096,2.622,3.213c0.627,1.035,0.827,2.32,1.402,3.398
		c1.268,2.377,3.028,3.076,5.556,2.195C162.448,262.531,164.639,260.785,166.063,257.4z"/>
	<path fill-rule="evenodd" clip-rule="evenodd" d="M123.202,238.35c1.447,1.789,3.26,4.031,5.074,6.273
		c-0.163,0.227-0.326,0.457-0.489,0.686c-1.076-0.096-2.152-0.191-3.108-0.277c0.439,1.213,0.88,2.43,1.46,4.037
		c-1.837-0.574-3.072-0.957-4.309-1.342c-0.119,0.297-0.237,0.594-0.355,0.889c0.85,0.457,1.7,0.914,2.719,1.459
		c-0.402,0.506-0.78,0.98-1.217,1.529c-0.812-0.734-1.557-1.406-2.302-2.08c-0.231,0.146-0.463,0.289-0.695,0.432
		c0.699,1.279,1.398,2.555,2.18,3.982c-0.478,0.188-1.031,0.402-1.644,0.641c-0.365-0.988-0.688-1.863-1.02-2.758
		c-1.658,0.936-3.13,1.766-4.738,2.672c0.045,0.588,0.098,1.285,0.158,2.092c-2.565,0.02-0.35-2.201-1.827-2.961
		c-0.323,0.631-0.672,1.309-1.242,2.42c-0.351-0.539-0.896-1.191-0.817-1.279c1.366-1.52,0.17-2.252-0.811-3.182
		c-3.231-3.059-4.541-7.148-3.396-10.902c0.776,1.064,2.922,0.584,2.345,2.791c-0.045,0.17,0.234,0.607,0.337,0.6
		c1.463-0.119,1.648,1.133,2.262,1.967c0.191,0.26,0.743,0.256,1.272,0.414c0.114-0.6,0.21-1.109,0.341-1.801
		c0.444,0.373,0.783,0.656,1.542,1.291c0.188-1.314,0.334-2.336,0.46-3.217C117.476,240.674,119.124,237.684,123.202,238.35z
		 M126.327,243.9c-2.462-4.867-6.152-5.498-8.628-1.795c-0.406,0.607-0.688,1.307-0.96,1.99c-1.335,3.332-4.729,4.098-7.293,1.611
		c-0.658-0.639-1.246-1.35-2.186-2.379c0.331,3.094,1.705,5.102,3.349,6.949c2.99,3.363,6.244,3.033,8.578-0.812
		c1.016-1.674,1.725-3.811,4.824-2.705c-1.112-1.33-1.812-2.168-2.511-3.004c0.967-0.436,1.653-0.398,2.332-0.305
		C124.548,243.551,125.255,243.705,126.327,243.9z"/>
	<path fill-rule="evenodd" clip-rule="evenodd" d="M64.899,48.514c0.083-0.867,0.103-1.361,0.182-1.845
		c0.417-2.595,1.11-5.178,4.013-5.893c2.962-0.729,5.029,1.078,6.576,3.336c1.736,2.531,2.154,5.287,0.616,8.116
		c-1.203,2.209-3.079,3.456-5.596,3.312c-2.555-0.146-4.187-1.763-5.096-4.043C65.176,50.451,65.07,49.281,64.899,48.514z
		 M66.91,48.04c-0.027,2.911,1.8,5.194,4.16,5.201c2.026,0.005,3.905-2.175,3.965-4.6c0.065-2.67-2.158-5.159-4.622-5.173
		C68.418,43.458,66.934,45.395,66.91,48.04z"/>
	<path fill-rule="evenodd" clip-rule="evenodd" d="M85.155,33.893c-0.021,3.924-2.718,7.243-5.923,7.289
		c-3.155,0.045-6.026-3.395-6.023-7.215c0.003-3.888,2.777-6.914,6.27-6.84C82.82,27.196,85.177,30.005,85.155,33.893z
		 M75.906,35.914l-0.025-0.048c1.33,2.65,2.643,3.366,4.44,2.42c2.04-1.072,3.172-4.176,2.252-6.178
		c-0.886-1.927-2.933-2.605-4.996-1.654C75.285,31.512,74.726,33.338,75.906,35.914z"/>
	<path fill-rule="evenodd" clip-rule="evenodd" d="M84.014,192.975c0.134-2.961,2.431-5.023,5.385-4.836
		c3.503,0.223,6.278,3.131,6.153,6.451c-0.117,3.146-2.51,5.266-5.732,5.078C86.401,199.469,83.854,196.531,84.014,192.975z
		 M91.036,197.045c0.955-0.113,2.42-0.83,2.234-2.344c-0.165-1.34-1.104-3.012-2.216-3.688c-0.993-0.604-2.819-0.355-4.021,0.141
		c-0.552,0.227-0.486,1.949-0.631,2.646c1.462-0.205,2.984-0.816,3.376-0.389C90.514,194.213,90.597,195.615,91.036,197.045z"/>
	<path fill-rule="evenodd" clip-rule="evenodd" d="M88.134,206.818c-0.029,2.836-2.266,4.84-5.399,4.836
		c-3.222-0.002-5.972-2.596-5.992-5.654c-0.02-3.037,2.484-5.945,5.118-5.941C84.951,200.061,88.167,203.527,88.134,206.818z
		 M82.768,208.953c1.111-0.186,2.977,0.131,3.279-2.129c0.198-1.479-2.037-4.406-3.38-4.416c-1.861-0.014-2.594,1.387-3.266,2.338
		c1.298,0.25,2.869,0.121,3.237,0.727C83.152,206.316,82.768,207.707,82.768,208.953z"/>
	<path fill-rule="evenodd" clip-rule="evenodd" d="M52.381,216.545c-0.059-1.855,1.133-3.473,2.636-3.572
		c1.497-0.1,3.185,1.453,3.297,3.029c0.125,1.744-1.573,3.562-3.356,3.527C53.026,219.494,52.589,218.102,52.381,216.545z
		 M55.634,213.688c-0.301,0-0.602,0-0.903,0.002c-0.524,0.887-1.434,1.768-1.449,2.666c-0.013,0.719,1.059,1.457,1.65,2.189
		c0.777-0.74,2.032-1.389,2.188-2.24C57.257,215.547,56.176,214.568,55.634,213.688z"/>
	<path fill-rule="evenodd" clip-rule="evenodd" d="M43.433,84.371c-0.048,2.336-1.463,3.804-3.608,3.745
		c-2.247-0.062-3.788-1.74-3.694-4.022c0.091-2.226,1.986-4.333,3.909-4.35C41.997,79.727,43.487,81.759,43.433,84.371z
		 M37.116,84.551c0.152,1.199,0.992,2.267,2.636,2.229c1.87-0.043,2.465-1.361,2.41-3.048c-0.045-1.398-0.365-2.694-2.027-2.896
		C38.738,80.666,37.091,82.551,37.116,84.551z"/>
	<path fill-rule="evenodd" clip-rule="evenodd" d="M53.457,86.358c2.793,1.632,3.764,3.689,3.262,6.013
		c-0.458,2.123-2.535,4.066-4.611,4.196c-1.618,0.101-3.09-0.179-3.768-2.563c2.374,0.363,4.685,2.061,6.49-0.625
		C56.568,90.794,54.559,88.99,53.457,86.358z"/>
	<path fill-rule="evenodd" clip-rule="evenodd" d="M51.143,78.97c-0.041,1.999-1.171,3.338-2.819,3.342
		c-2.028,0.005-3.765-1.807-3.653-3.808c0.099-1.777,1.875-3.685,3.389-3.641C49.693,74.911,51.184,76.896,51.143,78.97z
		 M50.663,78.489c-1.204-1.028-1.965-1.678-2.726-2.328c-0.689,0.872-1.821,1.696-1.916,2.627c-0.067,0.656,1.24,1.98,2.001,2.034
		C48.708,80.87,49.486,79.594,50.663,78.489z"/>
	<path fill-rule="evenodd" clip-rule="evenodd" d="M38.832,94.531c-1.364,1.118-2.453,2.44-2.861,2.256
		c-0.925-0.417-1.942-1.51-2.09-2.458c-0.099-0.634,1.263-2.121,1.918-2.091C36.661,92.277,37.473,93.432,38.832,94.531z"/>
	<path fill-rule="evenodd" clip-rule="evenodd" d="M100.492,14.6c0.52,0.986,1.35,1.946,1.436,2.969
		c0.049,0.557-1.164,1.222-1.809,1.838c-0.675-0.89-1.643-1.701-1.911-2.701c-0.147-0.549,0.882-1.415,1.381-2.138
		C99.89,14.579,100.191,14.589,100.492,14.6z"/>
	<path fill-rule="evenodd" clip-rule="evenodd" d="M96.068,19.352c0.502,0.976,1.321,1.932,1.388,2.937
		c0.04,0.611-1.067,1.825-1.688,1.845c-1.471,0.046-2.101-1.209-1.892-2.554c0.122-0.786,0.778-1.49,1.194-2.23
		C95.403,19.35,95.735,19.351,96.068,19.352z"/>
	<path fill-rule="evenodd" clip-rule="evenodd" d="M111.167,185.127c-1.435,0.9-2.554,1.986-2.945,1.768
		c-0.819-0.457-1.584-1.553-1.725-2.482c-0.084-0.553,1.377-1.943,1.598-1.834C109.048,183.041,109.798,183.918,111.167,185.127z"/>
	<path fill-rule="evenodd" clip-rule="evenodd" d="M113.512,177.822c0.471,0.992,1.242,1.969,1.293,2.98
		c0.028,0.562-1.126,1.654-1.785,1.684c-1.545,0.072-2.053-1.252-1.814-2.545c0.143-0.775,0.902-1.438,1.385-2.15
		C112.897,177.801,113.205,177.811,113.512,177.822z"/>
	<path fill-rule="evenodd" clip-rule="evenodd" fill="#FFFFFF" d="M50.633,217.875c-1.154,0.725-1.863,1.4-2.675,1.562
		c-0.307,0.062-1.334-1.271-1.19-1.596c0.327-0.74,1.095-1.457,1.852-1.748C48.927,215.975,49.669,216.99,50.633,217.875z"/>
	<path fill-rule="evenodd" clip-rule="evenodd" fill="#FFFFFF" d="M112.396,92.207c-0.023,3.048-1.873,4.846-4.981,4.842
		c-3.759-0.004-7.966-3.336-8.03-6.358c-0.047-2.16,3.941-5.272,6.682-5.217C109.881,85.552,112.425,88.258,112.396,92.207z"/>
	<path fill-rule="evenodd" clip-rule="evenodd" fill="#FFFFFF" d="M168.715,111.91c0.075,1.854-0.76,3.414-2.715,4.288
		c-2.312,1.035-4.997,0.639-6.641-1.011c-2.031-2.039-2.53-4.586-2.027-7.282c0.479-2.574,3.321-4.114,5.904-3.413
		C166.047,105.256,168.7,108.73,168.715,111.91z"/>
	<path fill-rule="evenodd" clip-rule="evenodd" fill="#FFFFFF" d="M69.653,112.025c0.003-3.238,2.065-5.752,4.977-6.066
		c2.783-0.299,5.006,1.668,5.561,5.1c0.398,2.458,0.011,4.813-1.971,6.538c-1.424,1.238-3.159,1.273-4.89,0.617
		C71.137,117.382,69.651,114.854,69.653,112.025z"/>
	<path fill-rule="evenodd" clip-rule="evenodd" fill="#FFFFFF" d="M121.425,114.42c0.019,3.016-1.77,5.17-4.369,5.263
		c-2.732,0.098-4.744-2.316-4.779-5.734c-0.031-3.143,1.856-5.308,4.584-5.258C119.377,108.738,121.405,111.284,121.425,114.42z"/>
	<path fill-rule="evenodd" clip-rule="evenodd" fill="#FFFFFF" d="M137.323,94.035c-0.003,2.943-1.743,5.077-4.169,5.109
		c-2.707,0.036-5.064-2.524-5.1-5.539c-0.034-2.955,1.853-5.08,4.49-5.058C135.233,88.57,137.325,90.973,137.323,94.035z"/>
	<path fill-rule="evenodd" clip-rule="evenodd" fill="#FFFFFF" d="M78.362,253.639c1.646-0.387,3.074-0.721,5.16-1.209
		c-1.431-0.932-2.282-1.484-3.372-2.193c2.168-0.555,3.036-2.051,3.448-3.969c0.169-0.787,0.555-1.545,0.93-2.271
		c1.446-2.807,3.495-3.494,6.316-2.16c2.569,1.217,4.323,2.941,5.693,5.873c-1.004-0.604-1.618-1.004-2.263-1.355
		c-3.323-1.805-6.61,0.002-6.908,3.787c-0.045,0.564-0.059,1.145-0.208,1.686c-0.517,1.877-1.265,3.664-3.42,4.105
		C81.611,256.369,79.963,255.381,78.362,253.639z"/>
	<path fill-rule="evenodd" clip-rule="evenodd" fill="#FFFFFF" d="M166.063,257.4c-1.425,3.385-3.615,5.131-6.434,6.117
		c-2.527,0.881-4.288,0.182-5.556-2.195c-0.575-1.078-0.775-2.363-1.402-3.398c-0.677-1.117-1.652-2.051-2.622-3.213
		c0.449-0.295,1.391-0.916,2.333-1.537c-0.038-0.193-0.077-0.389-0.116-0.582c-1.442-0.293-2.885-0.584-4.595-0.93
		c1.731-1.754,3.35-3.111,5.602-2.396c2.172,0.689,3.065,2.598,3.478,4.713c0.14,0.719,0.075,1.482,0.257,2.189
		c0.665,2.582,3.444,3.904,6.057,2.863C163.942,258.684,164.738,258.131,166.063,257.4z"/>
	<path fill-rule="evenodd" clip-rule="evenodd" fill="#FFFFFF" d="M126.327,243.9c-1.072-0.195-1.779-0.35-2.494-0.449
		c-0.679-0.094-1.365-0.131-2.332,0.305c0.699,0.836,1.398,1.674,2.511,3.004c-3.1-1.105-3.809,1.031-4.824,2.705
		c-2.334,3.846-5.588,4.176-8.578,0.812c-1.644-1.848-3.018-3.855-3.349-6.949c0.939,1.029,1.527,1.74,2.186,2.379
		c2.563,2.486,5.958,1.721,7.293-1.611c0.272-0.684,0.554-1.383,0.96-1.99C120.175,238.402,123.865,239.033,126.327,243.9z"/>
	<path fill-rule="evenodd" clip-rule="evenodd" fill="#FFFFFF" d="M66.91,48.04c0.024-2.645,1.508-4.583,3.504-4.572
		c2.464,0.014,4.687,2.503,4.622,5.173c-0.06,2.425-1.939,4.605-3.965,4.6C68.71,53.234,66.883,50.951,66.91,48.04z M70.1,52.674
		c0.951-1.235,1.985-2,1.904-2.615c-0.111-0.829-1.083-1.542-1.684-2.305c-0.713,0.641-1.901,1.214-2.005,1.943
		C68.211,50.413,69.209,51.286,70.1,52.674z"/>
	<path fill-rule="evenodd" clip-rule="evenodd" fill="#FFFFFF" d="M75.906,35.914c-1.18-2.576-0.621-4.402,1.671-5.46
		c2.062-0.951,4.11-0.273,4.996,1.654c0.92,2.001-0.212,5.105-2.252,6.178c-1.797,0.945-3.111,0.23-4.44-2.42
		c0.39,0.414,0.734,1.109,1.181,1.184c0.907,0.151,1.871-0.033,2.812-0.079c-0.119-0.967-0.238-1.935-0.357-2.902
		c-0.931,0.146-1.906,0.173-2.771,0.496C76.351,34.711,76.178,35.446,75.906,35.914z"/>
	<path fill-rule="evenodd" clip-rule="evenodd" fill="#FFFFFF" d="M91.036,197.045c-0.439-1.43-0.522-2.832-1.258-3.633
		c-0.392-0.428-1.914,0.184-3.376,0.389c0.145-0.697,0.079-2.42,0.631-2.646c1.202-0.496,3.028-0.744,4.021-0.141
		c1.112,0.676,2.051,2.348,2.216,3.688C93.456,196.215,91.991,196.932,91.036,197.045z"/>
	<path fill-rule="evenodd" clip-rule="evenodd" fill="#FFFFFF" d="M82.768,208.953c0-1.246,0.384-2.637-0.13-3.48
		c-0.368-0.605-1.938-0.477-3.237-0.727c0.672-0.951,1.405-2.352,3.266-2.338c1.343,0.01,3.578,2.938,3.38,4.416
		C85.745,209.084,83.879,208.768,82.768,208.953z"/>
	<path fill-rule="evenodd" clip-rule="evenodd" fill="#FFFFFF" d="M55.634,213.688c0.542,0.881,1.623,1.859,1.485,2.617
		c-0.155,0.852-1.411,1.5-2.188,2.24c-0.591-0.732-1.663-1.471-1.65-2.189c0.015-0.898,0.925-1.779,1.449-2.666
		C55.032,213.688,55.333,213.688,55.634,213.688z"/>
	<path fill-rule="evenodd" clip-rule="evenodd" fill="#FFFFFF" d="M37.116,84.551c-0.025-2,1.622-3.885,3.019-3.715
		c1.663,0.202,1.982,1.499,2.027,2.896c0.055,1.687-0.541,3.004-2.41,3.048C38.108,86.817,37.268,85.75,37.116,84.551z"/>
	<path fill-rule="evenodd" clip-rule="evenodd" fill="#FFFFFF" d="M50.663,78.489c-1.177,1.105-1.955,2.381-2.641,2.333
		c-0.762-0.054-2.068-1.378-2.001-2.034c0.095-0.931,1.227-1.756,1.916-2.627C48.698,76.811,49.458,77.461,50.663,78.489z"/>
	<path fill-rule="evenodd" clip-rule="evenodd" d="M70.1,52.674c-0.89-1.388-1.889-2.262-1.786-2.976
		c0.104-0.729,1.292-1.302,2.005-1.943c0.602,0.762,1.573,1.476,1.684,2.305C72.085,50.675,71.05,51.439,70.1,52.674z"/>
	<path fill-rule="evenodd" clip-rule="evenodd" d="M75.906,35.914c0.272-0.468,0.445-1.203,0.838-1.35
		c0.865-0.323,1.841-0.349,2.771-0.496c0.119,0.967,0.238,1.935,0.357,2.902c-0.94,0.046-1.904,0.23-2.812,0.079
		c-0.447-0.074-0.792-0.77-1.181-1.184L75.906,35.914z"/>
</g>
</svg>
