<?xml version="1.0" encoding="utf-8"?>
<!-- Generator: Adobe Illustrator 16.0.0, SVG Export Plug-In . SVG Version: 6.00 Build 0)  -->
<!DOCTYPE svg PUBLIC "-//W3C//DTD SVG 1.1//EN" "http://www.w3.org/Graphics/SVG/1.1/DTD/svg11.dtd">
<svg version="1.1" id="Lager_1" xmlns="http://www.w3.org/2000/svg" xmlns:xlink="http://www.w3.org/1999/xlink" x="0px" y="0px"
	 width="300px" height="350px" viewBox="0 0 300 350" enable-background="new 0 0 300 350" xml:space="preserve">
<g>
	<path fill="#FFFFFF" d="M13.016-7.357c86.23,0,172.458,0,258.689,0c0,121.966,0,243.932,0,365.898c-86.23,0-172.458,0-258.689,0
		C13.016,236.574,13.016,114.608,13.016-7.357z M55.159,11.632c-0.826,0.423-1.618,0.936-2.484,1.251
		c-2.213,0.805-3.03,2.772-3.793,4.672c-0.208,0.515,0.527,2.031,0.845,2.036c2.177,0.03,4.194-0.796,5.354-2.66
		c1.167-1.876,2.313-3.94,1.278-6.742c-0.582,0.694-0.926,1.105-1.27,1.516L55.159,11.632z M240.383,325.868l-0.07,0.072
		c1.879-1.271,3.576-2.75,6.242-1.671c1.375,0.556,3.646-1.448,4.234-3.358c-0.811-0.047-1.57-0.091-2.328-0.134
		c-1.428-0.081-2.232-0.358-1.299-2.1c0.484-0.898,0.725-2.334,0.342-3.207c-0.812-1.853-2.105-3.494-3.201-5.224l0.07,0.076
		c-0.551-0.9-0.416-2.766-2.359-1.719c-4.227,2.277-5.455,7.854-3.07,10.887c1.615,2.053,1.387,2.624-1.023,3.901
		c-2.59,1.374-5.281,2.562-7.938,3.836c0.613,1.586,3.998,3.38,5.365,2.521C237.135,328.628,238.713,327.177,240.383,325.868z
		 M35.894,102.698c-0.469,0.669-0.939,1.338-1.486,2.117c3.296,0.848,3.123,0.728,4.172-1.539c1.65-3.561,1.888-7.292,1.845-11.115
		c-0.04-3.536-0.281-7.116,0.176-10.597c0.425-3.233,0.366-6.309-0.462-9.42c-0.162-0.609-0.502-1.394-0.272-1.85
		c2.146-4.24,0.44-8.203-0.84-12.158c-0.263-0.811-1.177-1.79-1.957-1.97c-1.388-0.32-2.903-0.089-4.364-0.089
		c3.133,2.285,4.562,5.144,4.111,9.158c-0.513-0.322-0.878-0.505-1.191-0.754c-3.925-3.116-6.638-2.69-9.397,1.489
		c-1.645,2.492-1.309,4.162,1.135,5.875c2.146,1.503,4.572,1.607,7.061,1.553c0.662-0.015,1.719,0.037,1.932,0.422
		c1.405,2.549,2.801,5.149,2.578,8.184c-1.952-1.565-3.629-3.473-5.737-4.487c-5.217-2.511-7.035-1.809-9.553,2.118
		c-0.233,0.364-0.483,0.719-0.72,1.082c-1.483,2.261-1.509,4.036,0.199,6.129c2.443,2.997,5.253,5.375,9.543,4.847
		c1.541-0.189,3.106-0.19,5.042-0.297c-0.635,3.902-1.243,7.634-1.852,11.366L35.894,102.698z M36.532,229.125
		c0.048,0.63-0.001,1.284,0.161,1.882c1.138,4.248,2.333,8.481,3.483,12.725c2.14,7.9,1.214,15.187-3.28,22.288
		c-2.375,3.753-3.765,8.255-4.954,12.595c-1.152,4.205,0.986,9.763,3.893,11.855c-0.746-1.494-1.539-2.779-2.055-4.167
		c-2.57-6.903-0.213-12.738,3.719-18.443c1.704-2.472,2.803-5.479,3.647-8.397c1.189-4.106,1.104-8.313,0.664-12.638
		c-0.641-6.304-3.068-11.926-5.322-17.665c-0.219-1.202-0.358-2.425-0.673-3.601c-1.45-5.413-3.285-10.745-4.351-16.229
		c-1.749-9-3.229-18.054-1.126-27.284c1.043-4.582,2.331-9.017,4.377-13.22c2.357,0.786,2.78,1.281,2.958,3.316
		c0.114,1.294,0.174,2.596,0.348,3.883c1.267,9.412,4.625,17.994,10.323,25.618c1.052,1.408,1.261,2.668,0.453,4.356
		c-1.887,3.943-2.367,8.112-1.577,12.466c1.24,6.832,4.657,12.689,8.117,18.522c4.173,7.034,5.977,14.336,3.004,22.315
		c-0.116,0.312,0.029,0.72,0.055,1.137c0.322-0.102,0.497-0.102,0.571-0.188c0.183-0.215,0.389-0.448,0.465-0.71
		c1.797-6.111,2.482-12.192-0.713-18.1c-1.956-3.613-4.058-7.15-5.941-10.8c-2.732-5.292-5.048-10.743-4.813-16.889
		c0.122-3.197,0.623-6.295,2.905-8.919c1.074,0.913,1.984,1.859,3.057,2.556c1.138,0.737,2.403,1.301,3.658,1.83
		c2.713,1.146,6.99,0.392,8.782-1.522c1.901-2.034,1.312-4.446,0.837-6.755c-0.497-2.424-1.801-3.369-4.285-3.429
		c-3.455-0.084-6.5,0.902-9.193,3.168c-2.82,2.374-3.009,2.372-5.071-0.729c-2.034-3.06-4.057-6.178-5.607-9.494
		c-2.831-6.055-4.567-12.434-4.305-19.567c3.193,1.599,7.15,1.493,8.227,5.836c0.223,0.899,1.042,1.744,1.772,2.41
		c3.016,2.748,6.01,5.535,9.187,8.092c5.195,4.179,11.303,7.322,14.795,13.393c0.227,0.396,0.839,0.569,1.335,0.887
		c0.13-0.396,0.231-0.538,0.203-0.649c-0.067-0.271-0.127-0.596-0.308-0.784c-2.693-2.795-5.197-5.822-8.162-8.294
		c-4.705-3.923-9.848-7.321-14.542-11.254c-1.816-1.521-3.59-3.501-4.045-6.823c2.939,0.498,5.519,0.923,8.093,1.372
		c1.698,0.297,3.384,0.67,5.086,0.932c1.48,0.228,3,0.23,4.463,0.531c12.437,2.562,24.857,5.203,37.301,7.729
		c2.495,0.506,5.069,0.62,8.164,0.979c-1.49,1.134-2.506,1.915-3.529,2.685c-2.643,1.99-5.538,3.722-7.881,6.017
		c-4.951,4.849-8.743,10.582-11.166,17.105c-2.999,8.071-4.086,16.323-0.669,24.514c1.472,3.526,0.875,6.602-0.555,9.763
		c-0.562,1.243-1.297,2.424-2.074,3.549c-0.874,1.266-0.911,2.458,0.191,3.497c1.827,1.721,3.607,3.547,5.665,4.952
		c2.112,1.44,5.162,1.924,6.646,3.762c1.5,1.857,1.504,4.883,2.306,7.353c1.312,4.038,2.738,8.037,4.209,12.327
		c-2.941-0.003-4.394,1.635-5.148,4.019c-0.341,1.079-0.933,1.175-1.972,1.002c-2.206-0.365-4.439-0.665-6.669-0.751
		c-11.803-0.449-22.672,1.84-30.664,11.45c-4.118,4.952-5.665,10.801-4.598,17.214c0.43,2.594,1.078,5.149,1.6,7.604
		c-2.761,0.773-5.543,1.496-8.28,2.364c-0.637,0.2-1.548,0.873-1.57,1.363c-0.032,0.708,0.443,1.741,1.033,2.12
		c1.439,0.919,2.996,1.844,4.632,2.238c12.915,3.127,25.969,3.849,39.157,2.044c11.583-1.586,22.753-4.629,33.542-9.13
		c0.602-0.248,1.562-0.171,2.144,0.146c5.807,3.176,11.479,6.606,17.358,9.641c17.213,8.878,35.573,13.019,54.918,12.474
		c3.387-0.097,6.791-1.081,10.098-1.979c2.441-0.664,2.438-1.238,0.537-2.796c-0.158-0.129-0.252-0.336-0.477-0.646
		c1.092-1.301,2.193-2.611,3.295-3.921c6.121-7.301,6.639-13.175,2.135-21.472c-1.943-3.585-4.957-6.021-8.217-8.144
		c-10.521-6.847-22.164-9.113-34.561-8.048c-0.9,0.077-1.812,0.011-2.854,0.011c0-0.568-0.006-0.916,0.002-1.263
		c0.113-5.225-1.572-7.694-6.514-9.388c-1.223-0.418-2.533-0.578-3.766-0.974c-0.639-0.204-1.482-0.519-1.742-1.033
		c-3.723-7.336-7.388-14.701-10.959-22.112c-0.215-0.444,0.288-1.655,0.786-1.948c1.703-1.002,3.554-1.753,5.357-2.605
		c3.229,5.025,7.338,9.101,12.84,11.522c7.24,3.186,14.875,4.539,22.775,4.571c8.383,0.034,16.77,0.032,25.15,0.238
		c9.525,0.231,18.588,2.268,26.662,7.655c2.062,1.885,4.123,3.771,6.619,6.057c-1.299-3.009-4.316-5.539-6.682-5.993
		c-0.121-0.283-0.16-0.707-0.373-0.825c-2.75-1.558-5.441-3.257-8.311-4.562c-8.342-3.794-17.242-3.792-26.166-3.621
		c-6.932,0.134-13.914,0.612-20.785-0.023c-5.377-0.499-10.986-1.7-15.816-4.005c-4.705-2.247-9.826-4.469-12.902-9.444
		c-1.656-2.678-2.086-2.574-0.078-4.696c2.715-2.866,2.75-2.89,0.424-6.149c-2.158-3.023-4.531-5.949-2.668-10.032
		c0.082-0.182,0.023-0.429,0.029-0.646c0.268-8.808-2.742-16.6-7.346-23.92c-0.949-1.51-2.267-3.074-2.457-4.724
		c-0.549-4.734,0.592-9.197,3.643-12.995c0.458-0.569,1.229-1.092,1.934-1.227c9.301-1.786,18.622-3.488,28.165-2.682
		c0.889,0.075,1.932,0.259,2.588,0.784c2.178,1.743,4.213,3.668,6.303,5.524c-1.459,1.751-2.781,2.96-2.945,4.309
		c-0.391,3.218-2.768,4.677-4.801,6.518c-0.48,0.436-1.049,0.816-1.402,1.338c-1.449,2.13-3.412,2.354-5.738,1.861
		c-1.895-0.401-3.838-0.655-5.771-0.781c-2.023-0.13-3.199,1.029-3.686,2.952c-0.158,0.624-0.377,1.233-0.572,1.846
		c-1.293,4.043,2.35,10.391,6.496,11.307c3.752,0.83,7.287,0.067,10.775-1.356c2.865-1.168,4.748,0.123,4.666,3.209
		c-0.076,2.814-0.496,5.621-0.551,8.434c-0.068,3.526-0.146,7.079,0.205,10.578c0.307,3.069,2.5,4.722,5.461,5.389
		c2.93,0.662,5.156-0.497,6.725-2.819c0.951-1.407,1.666-3.041,2.17-4.673c0.766-2.472,1.254-5.027,1.898-7.703
		c0.842,2.108,1.467,4.083,2.398,5.902c0.975,1.898,2.27,3.633,3.377,5.467c2.482,4.107,7.537,6.337,12.041,5.277
		c1.961-0.461,3.256-2.238,3.367-4.354c0.053-1.022,0.066-2.378,0.686-2.979c1.951-1.896,2.463-4.121,1.844-6.543
		c-0.584-2.276-1.449-4.506-2.426-6.648c-2.082-4.561-4.557-8.831-4.293-14.271c0.141-2.896-1.461-5.919-2.453-8.823
		c-1.199-3.506-3.695-6.466-3.975-10.423c-0.107-1.53-1.154-3.553-2.404-4.32c-2.211-1.357-3.547-3.129-4.83-5.261
		c-4.465-7.413-11.676-10.629-19.783-11.812c-5.656-0.826-11.438-0.808-17.178-1.167c6.426-2.644,11.506-7.461,16.242-12.292
		c3.217,2.407,6.008,4.968,9.213,6.801c7.801,4.461,16.225,6.708,25.318,6.151c7.428-0.457,14.518-1.88,20.982-5.847
		c4.082-2.503,7.648-5.517,10.891-9.023c8.369-9.051,13.48-19.576,14.119-31.942c0.447-8.657-1.658-16.892-5.475-24.691
		c-4.434-9.068-10.773-16.217-20.246-20.198c-2.158-0.907-4.443-1.517-6.744-2.288c0.375-1.419,0.707-2.741,1.07-4.053
		c2.58-9.296,2.631-18.679,0.658-28.052c-1.281-6.09-3.617-11.725-7.178-16.983c-3.662-5.409-8.148-9.85-13.338-13.604
		c-6.566-4.748-14.027-7.323-22.092-8.084c-11.949-1.126-23.045,0.893-32.49,8.917c-1.041,0.882-2.127,1.709-3.195,2.565
		c-0.469-0.72-0.75-1.454-1.275-1.905c-2.417-2.087-3.972-4.473-3.392-7.866c0.099-0.582-0.256-1.261-0.467-1.873
		c-1.438-4.176-4.864-6.347-8.511-8.193c-3.171-1.606-6.604-1.675-10.321-1.411c0.939-0.588,1.879-1.177,2.82-1.765
		c-0.176-0.273-0.352-0.545-0.527-0.818c-0.814-0.143-1.663-0.507-2.438-0.386c-2.196,0.342-4.354,0.929-6.543,1.327
		c-1.029,0.187-2.194,0.475-3.132,0.184c-15.217-4.719-29.176-1.315-42.052,7.055c-6.725,4.372-12.213,10.193-16.54,17.179
		c-7.269,11.736-8.75,24.224-6.2,37.492c1.301,6.773,4.471,12.775,7.693,18.739c0.982,1.816,1.22,3.267,0.233,5.187
		c-1.71,3.331-3.163,6.8-4.599,10.264c-1.984,4.784-3.81,9.634-5.822,14.406c-0.255,0.602-1.179,1.145-1.883,1.299
		c-4.431,0.973-8.913,1.72-13.328,2.756c-3.387,0.795-5.217,3.42-5.887,6.58c-0.416,1.964,0.099,4.116,0.098,6.184
		c0,0.872,0.067,2.135-0.443,2.554c-3.36,2.753-3.209,6.121-2.168,9.804c0.203,0.718,0.128,1.736-0.244,2.361
		c-2.518,4.22-3.052,8.62-0.78,12.979c1.38,2.645,3.303,5.043,5.214,7.359c1.142,1.383,1.506,2.494,0.856,4.262
		c-3.626,9.877-6.051,20.111-4.254,30.578c1.506,8.775,4.325,17.327,6.615,25.963C35.554,227.882,36.137,228.479,36.532,229.125z
		 M75.065,201.805c-0.26,0.1-0.521,0.201-0.78,0.301c0.109,0.54,0.099,1.143,0.344,1.612c3.765,7.191,4.815,14.701,2.669,22.577
		c-2.46,9.029-5.198,17.992-7.359,27.092c-1.393,5.862-2.368,11.971,0.471,17.771c0.757,1.549,2.189,2.77,3.311,4.141
		c0.177-0.133,0.356-0.267,0.533-0.4c-3.342-3.373-5.262-7.479-4.776-12.137c0.543-5.214,1.5-10.434,2.841-15.502
		c1.563-5.912,3.862-11.624,5.614-17.491c2.352-7.884,2.712-15.787-0.646-23.538C76.632,204.72,75.811,203.278,75.065,201.805z
		 M221.209,210.438c0.543,2.209,2.822,4.542,4.232,4.188c1.812-0.451,3.639-0.969,5.328-1.746c2.955-1.358,3.732-2.799,3.238-6.032
		c-0.346-2.271-1.047-4.485-1.555-6.733c-0.836-3.684,0.035-5.663,3.807-5.979c4.439-0.37,6.193-2.747,7.041-6.55
		c0.125-0.557,0.391-1.084,0.598-1.623c0.713-1.871,1.432-3.743,2.188-5.72c-2.441,0.208-4.639,0.395-6.758,0.575
		c-0.219,2.164-0.348,4.184-0.643,6.177c-0.428,2.896-1.787,4.975-5.006,5.335c-1.068,0.119-2.125,0.421-3.16,0.729
		c-3.658,1.09-5.471,5.311-3.713,8.675c0.568,1.085,1.273,2.098,1.893,3.155c1.314,2.244,1.174,2.887-1.316,3.816
		C225.385,209.451,223.27,209.873,221.209,210.438z M62.041,276.722c-0.93-0.626-1.758-1.379-2.731-1.783
		c-0.87-0.36-2.002-0.669-2.833-0.408c-1.627,0.508-3.172,1.345-4.659,2.207c-0.856,0.496-1.532,1.304-2.561,2.211
		c1.855,1.276,3.276,2.376,4.823,3.252c0.592,0.338,1.617,0.465,2.194,0.179C58.757,281.152,60.898,279.488,62.041,276.722z
		 M27.879,49.023c1.687-0.32,3.46-0.427,5.021-1.059c0.695-0.281,1.438-1.702,1.311-2.461c-0.208-1.226-0.854-2.691-1.805-3.389
		c-0.932-0.683-2.469-0.58-3.751-0.738c-2.363-0.293-4.135,1.831-4.269,5.053C24.312,48.24,25.169,48.84,27.879,49.023z
		 M243.939,24.523c-4.793-3.709-8.445-4.901-11.268-0.496c2.367,1.843,4.713,3.713,7.109,5.518c1.277,0.963,2.115-0.058,2.607-0.971
		C243.061,27.328,243.424,25.916,243.939,24.523z M28.759,16.95c-2.434-0.059-5.622,1.806-5.731,3.353
		c-0.144,2.019,3.071,5.801,4.878,5.739c1.718-0.059,4.125-3.421,4.136-5.779C32.054,18.021,31.047,17.005,28.759,16.95z
		 M235.916,251.886c-2.812,2.51-5.537,4.941-8.377,7.475c1.184,0.882,1.174,3.372,3.254,2.081c1.938-1.204,3.779-2.669,5.373-4.3
		C238.85,254.396,238.674,253.727,235.916,251.886z M212.584,291.638c2.525,1.163,4.055,3.32,6.471,2.234
		c1.984-0.892,3.83-2.087,5.76-3.162c-0.846-0.923-1.361-1.767-2.113-2.231c-1.041-0.646-2.598-1.716-3.336-1.36
		C217.09,288.214,215.096,289.898,212.584,291.638z M235.08,44.62c1.055-2.205,2.064-4.312,2.977-6.22
		c-1.537,0.337-3.869,5.071-3.412,7.706c1.123-0.234,2.238-0.616,3.367-0.67c2.404-0.117,3.41-1.602,3.842-3.665
		c0.217-1.047,0.357-2.148,0.275-3.205c-0.037-0.476-0.701-0.902-1.08-1.352c-0.15,0.136-0.301,0.271-0.451,0.406
		C242.299,42.525,240.205,45.396,235.08,44.62z M29.522,110.792c1.443,0.376,2.229-0.26,2.328-1.832
		c0.182-2.904-1.457-5.3-3.791-5.53c-1.446-0.143-2.745,1.676-2.925,4.098C24.966,109.785,25.967,110.548,29.522,110.792z
		 M227.52,352.303c2.334,0.939,2.912,0.417,2.693-2.111c-0.049-0.54-0.582-1.412-0.969-1.456c-0.498-0.057-1.459,0.499-1.527,0.907
		c-0.104,0.614,0.314,1.377,0.682,1.973c0.15,0.243,0.746,0.212,1.139,0.307c-0.02,0.127-0.039,0.254-0.059,0.381
		C228.961,352.303,228.445,352.303,227.52,352.303z M239.568,352.389c2.533,0.746,3.174,0.039,2.791-2.497
		c-0.07-0.465-0.736-1.232-1.025-1.189c-0.568,0.088-1.564,0.809-1.51,0.979c0.297,0.906,0.865,1.723,1.361,2.607
		C241.166,352.291,240.645,352.323,239.568,352.389z M233.195,352.459c0.844-0.424,1.75-0.637,2.291-1.201
		c1.352-1.406-0.182-2.921-2.291-2.2C233.195,350.174,233.195,351.313,233.195,352.459z M216.281,350.194
		c-0.977-0.754-1.67-1.634-2.068-1.516c-0.615,0.182-1.297,0.993-1.426,1.642c-0.074,0.365,0.883,1.284,1.418,1.32
		C214.732,351.677,215.314,350.912,216.281,350.194z M218.82,347.867c-0.652,1.106-1.379,1.792-1.266,2.285
		c0.141,0.608,0.98,1.055,1.52,1.57c0.443-0.55,1.215-1.091,1.232-1.655C220.324,349.511,219.58,348.929,218.82,347.867z
		 M255.979,348.343c-0.264,0.01-0.527,0.019-0.793,0.028c-0.299,0.68-0.895,1.396-0.807,2.021c0.07,0.505,0.961,0.894,1.49,1.333
		c0.414-0.559,1.131-1.104,1.158-1.681C257.053,349.493,256.357,348.91,255.979,348.343z M239.492,352.061
		c-0.77-1.656,0.41-3.557-2.045-3.447c-0.264,0.012-0.516,0.319-0.941,0.603c0.752,0.046,1.25,0.077,1.719,0.105
		c-0.689,0.666-1.232,1.194-1.775,1.719C237.268,351.314,238.086,351.589,239.492,352.061z M203.957,350.174
		c0.08-0.205,0.158-0.409,0.238-0.613c-0.674-0.301-1.35-0.601-2.025-0.901c-0.258,0.795-0.514,1.591-0.773,2.385
		c0.775,0.209,1.549,0.415,2.324,0.624c0.035-0.193,0.07-0.384,0.107-0.576c-0.635-0.052-1.27-0.102-1.904-0.154
		c0.004-0.177,0.01-0.355,0.016-0.532C202.613,350.327,203.285,350.251,203.957,350.174z M193.318,349.237
		c-0.688,0.766-1.25,1.392-1.812,2.018c0.812,0.152,1.627,0.305,3.051,0.569c-0.91-1.422,0.393-3.095-1.754-3.233
		c-0.318-0.021-0.662,0.292-1.404,0.646C192.367,349.237,192.854,349.237,193.318,349.237z M197.922,351.855
		c-0.488-1.451-0.703-2.383-1.15-3.184c-0.098-0.177-1.025,0.109-1.57,0.184c0.018,0.116,0.035,0.231,0.053,0.348
		c0.486,0.04,0.975,0.081,1.229,0.102c-0.586,0.717-1.088,1.331-1.59,1.945C195.713,351.412,196.531,351.575,197.922,351.855z
		 M245.879,350.191c0.072-0.259,0.143-0.52,0.215-0.778c-0.732-0.232-1.465-0.462-2.197-0.693c-0.227,0.753-0.82,1.683-0.568,2.207
		c0.232,0.485,1.371,0.535,2.111,0.775c0.061-0.184,0.123-0.368,0.186-0.552c-0.615-0.088-1.23-0.175-1.844-0.265
		c0.014-0.164,0.029-0.329,0.045-0.494C244.51,350.325,245.195,350.258,245.879,350.191z M248.949,351.466
		c0.061-0.247,0.121-0.492,0.184-0.739c-0.57-0.433-1.139-0.864-1.91-1.447c0.596,0,0.947,0,1.299,0
		c-0.023-0.197-0.045-0.395-0.068-0.592c-0.586,0.132-1.17,0.264-1.754,0.396c0.447,0.662,0.893,1.322,1.324,1.964
		c-0.344,0-0.875,0-1.406,0c0.012,0.174,0.025,0.347,0.035,0.521C247.42,351.532,248.184,351.5,248.949,351.466z"/>
	<path fill-rule="evenodd" clip-rule="evenodd" d="M239.479,282.248c-8.064-5.397-17.127-7.434-26.652-7.665
		c-8.381-0.206-16.768-0.204-25.15-0.238c-7.9-0.032-15.535-1.386-22.775-4.571c-5.502-2.422-9.611-6.497-12.84-11.522
		c-1.803,0.853-3.654,1.604-5.357,2.605c-0.498,0.293-1.001,1.504-0.786,1.948c3.571,7.411,7.237,14.776,10.959,22.112
		c0.26,0.515,1.104,0.829,1.742,1.033c1.232,0.396,2.543,0.556,3.766,0.974c4.941,1.693,6.627,4.163,6.514,9.388
		c-0.008,0.347-0.002,0.694-0.002,1.263c1.041,0,1.953,0.066,2.854-0.011c12.396-1.065,24.039,1.201,34.561,8.048
		c3.26,2.122,6.273,4.559,8.217,8.144c4.504,8.297,3.986,14.171-2.135,21.472c-1.102,1.31-2.203,2.62-3.295,3.921
		c0.225,0.311,0.318,0.518,0.477,0.646c1.9,1.558,1.904,2.132-0.537,2.796c-3.307,0.898-6.711,1.883-10.098,1.979
		c-19.346,0.545-37.705-3.596-54.918-12.474c-5.88-3.034-11.552-6.465-17.358-9.641c-0.581-0.317-1.542-0.395-2.144-0.146
		c-10.789,4.501-21.959,7.544-33.542,9.13c-13.188,1.805-26.242,1.083-39.157-2.044c-1.636-0.395-3.193-1.319-4.632-2.238
		c-0.59-0.379-1.065-1.412-1.033-2.12c0.022-0.49,0.933-1.163,1.57-1.363c2.737-0.868,5.52-1.591,8.28-2.364
		c-0.522-2.454-1.17-5.01-1.6-7.604c-1.067-6.413,0.48-12.262,4.598-17.214c7.992-9.61,18.86-11.899,30.664-11.45
		c2.23,0.086,4.464,0.386,6.669,0.751c1.039,0.173,1.63,0.077,1.972-1.002c0.754-2.384,2.207-4.021,5.148-4.019
		c-1.471-4.29-2.897-8.289-4.209-12.327c-0.802-2.47-0.806-5.495-2.306-7.353c-1.483-1.838-4.533-2.321-6.646-3.762
		c-2.057-1.405-3.838-3.231-5.665-4.952c-1.102-1.039-1.065-2.231-0.191-3.497c0.777-1.125,1.512-2.306,2.074-3.549
		c1.431-3.161,2.027-6.236,0.555-9.763c-3.417-8.19-2.33-16.442,0.669-24.514c2.423-6.523,6.215-12.257,11.166-17.105
		c2.343-2.295,5.238-4.026,7.881-6.017c1.023-0.77,2.039-1.551,3.529-2.685c-3.094-0.359-5.668-0.474-8.164-0.979
		c-12.444-2.526-24.864-5.168-37.301-7.729c-1.462-0.301-2.983-0.304-4.463-0.531c-1.703-0.262-3.389-0.635-5.086-0.932
		c-2.575-0.449-5.154-0.875-8.093-1.372c0.455,3.322,2.229,5.303,4.045,6.823c4.694,3.933,9.837,7.331,14.542,11.254
		c2.965,2.472,5.469,5.499,8.162,8.294c0.181,0.188,0.24,0.513,0.308,0.784c0.028,0.111-0.073,0.254-0.203,0.649
		c-0.496-0.317-1.108-0.49-1.335-0.887c-3.492-6.07-9.6-9.214-14.795-13.393c-3.176-2.557-6.17-5.344-9.187-8.092
		c-0.73-0.666-1.55-1.511-1.772-2.41c-1.077-4.344-5.034-4.238-8.227-5.836c-0.262,7.133,1.474,13.512,4.305,19.567
		c1.55,3.316,3.573,6.435,5.607,9.494c2.062,3.101,2.25,3.103,5.071,0.729c2.693-2.266,5.738-3.252,9.193-3.168
		c2.484,0.06,3.788,1.005,4.285,3.429c0.475,2.309,1.063,4.721-0.837,6.755c-1.792,1.914-6.069,2.668-8.782,1.522
		c-1.254-0.529-2.52-1.093-3.658-1.83c-1.073-0.696-1.983-1.643-3.057-2.556c-2.282,2.624-2.783,5.722-2.905,8.919
		c-0.235,6.146,2.081,11.597,4.813,16.889c1.883,3.649,3.986,7.187,5.941,10.8c3.195,5.907,2.51,11.988,0.713,18.1
		c-0.076,0.262-0.283,0.495-0.465,0.71c-0.075,0.087-0.249,0.087-0.571,0.188c-0.026-0.417-0.171-0.825-0.055-1.137
		c2.973-7.979,1.169-15.281-3.004-22.315c-3.46-5.833-6.877-11.69-8.117-18.522c-0.79-4.354-0.31-8.522,1.577-12.466
		c0.808-1.688,0.599-2.948-0.453-4.356c-5.698-7.624-9.056-16.206-10.323-25.618c-0.174-1.287-0.234-2.588-0.348-3.883
		c-0.178-2.035-0.601-2.53-2.958-3.316c-2.047,4.203-3.334,8.638-4.377,13.22c-2.103,9.23-0.623,18.284,1.126,27.284
		c1.066,5.483,2.901,10.815,4.351,16.229c0.314,1.176,0.454,2.398,0.673,3.601l0.046-0.036c-0.398-0.645-0.982-1.241-1.167-1.943
		c-2.29-8.636-5.109-17.188-6.615-25.963c-1.797-10.467,0.628-20.7,4.254-30.578c0.649-1.768,0.286-2.879-0.856-4.262
		c-1.912-2.315-3.834-4.714-5.214-7.359c-2.272-4.358-1.738-8.759,0.78-12.979c0.372-0.625,0.447-1.643,0.244-2.361
		c-1.041-3.683-1.192-7.051,2.168-9.804c0.51-0.418,0.443-1.682,0.443-2.554c0.001-2.068-0.514-4.22-0.098-6.184
		c0.67-3.16,2.5-5.785,5.887-6.58c4.415-1.036,8.897-1.783,13.328-2.756c0.705-0.154,1.628-0.697,1.883-1.299
		c2.013-4.772,3.838-9.623,5.822-14.406c1.436-3.464,2.889-6.933,4.599-10.264c0.986-1.92,0.749-3.371-0.233-5.187
		c-3.223-5.964-6.393-11.966-7.693-18.739c-2.55-13.269-1.069-25.756,6.2-37.492c4.327-6.986,9.814-12.808,16.54-17.179
		c12.875-8.37,26.834-11.774,42.052-7.055c0.938,0.291,2.103,0.003,3.132-0.184c2.189-0.397,4.347-0.984,6.543-1.327
		c0.774-0.121,1.623,0.243,2.438,0.386c0.176,0.272,0.352,0.545,0.527,0.818c-0.941,0.587-1.881,1.176-2.82,1.765
		c3.717-0.265,7.15-0.196,10.321,1.411c3.646,1.846,7.073,4.018,8.511,8.193c0.211,0.612,0.565,1.291,0.467,1.873
		c-0.58,3.393,0.976,5.779,3.392,7.866c0.525,0.452,0.807,1.185,1.275,1.905c1.068-0.856,2.154-1.683,3.195-2.565
		c9.445-8.024,20.541-10.043,32.49-8.917c8.064,0.761,15.525,3.336,22.092,8.084c5.189,3.754,9.676,8.195,13.338,13.604
		c3.561,5.259,5.896,10.893,7.178,16.983c1.973,9.374,1.922,18.756-0.658,28.052c-0.363,1.312-0.695,2.634-1.07,4.053
		c2.301,0.771,4.586,1.381,6.744,2.288c9.473,3.981,15.812,11.13,20.246,20.198c3.816,7.799,5.922,16.034,5.475,24.691
		c-0.639,12.366-5.75,22.891-14.119,31.942c-3.242,3.506-6.809,6.52-10.891,9.023c-6.465,3.967-13.555,5.39-20.982,5.847
		c-9.094,0.558-17.518-1.689-25.318-6.151c-3.205-1.833-5.996-4.394-9.213-6.801c-4.736,4.831-9.816,9.648-16.242,12.292
		c5.74,0.359,11.521,0.341,17.178,1.167c8.107,1.184,15.318,4.399,19.783,11.812c1.283,2.132,2.619,3.903,4.83,5.261
		c1.25,0.768,2.297,2.79,2.404,4.32c0.279,3.957,2.775,6.917,3.975,10.423c0.992,2.904,2.594,5.927,2.453,8.823
		c-0.264,5.439,2.211,9.71,4.293,14.271c0.977,2.143,1.842,4.372,2.426,6.648c0.619,2.422,0.107,4.646-1.844,6.543
		c-0.619,0.601-0.633,1.956-0.686,2.979c-0.111,2.116-1.406,3.894-3.367,4.354c-4.504,1.06-9.559-1.17-12.041-5.277
		c-1.107-1.834-2.402-3.568-3.377-5.467c-0.932-1.819-1.557-3.794-2.398-5.902c-0.645,2.676-1.133,5.231-1.898,7.703
		c-0.504,1.632-1.219,3.266-2.17,4.673c-1.568,2.322-3.795,3.481-6.725,2.819c-2.961-0.667-5.154-2.319-5.461-5.389
		c-0.352-3.499-0.273-7.052-0.205-10.578c0.055-2.812,0.475-5.619,0.551-8.434c0.082-3.086-1.801-4.377-4.666-3.209
		c-3.488,1.424-7.023,2.187-10.775,1.356c-4.146-0.916-7.789-7.264-6.496-11.307c0.195-0.612,0.414-1.222,0.572-1.846
		c0.486-1.923,1.662-3.082,3.686-2.952c1.934,0.126,3.877,0.38,5.771,0.781c2.326,0.493,4.289,0.269,5.738-1.861
		c0.354-0.521,0.922-0.902,1.402-1.338c2.033-1.841,4.41-3.3,4.801-6.518c0.164-1.349,1.486-2.558,2.945-4.309
		c-2.09-1.856-4.125-3.781-6.303-5.524c-0.656-0.525-1.699-0.709-2.588-0.784c-9.543-0.807-18.863,0.896-28.165,2.682
		c-0.704,0.135-1.476,0.657-1.934,1.227c-3.051,3.798-4.191,8.261-3.643,12.995c0.19,1.649,1.508,3.214,2.457,4.724
		c4.604,7.32,7.614,15.112,7.346,23.92c-0.006,0.218,0.053,0.465-0.029,0.646c-1.863,4.083,0.51,7.009,2.668,10.032
		c2.326,3.26,2.291,3.283-0.424,6.149c-2.008,2.122-1.578,2.019,0.078,4.696c3.076,4.976,8.197,7.197,12.902,9.444
		c4.83,2.305,10.439,3.506,15.816,4.005c6.871,0.636,13.854,0.157,20.785,0.023c8.924-0.171,17.824-0.173,26.166,3.621
		c2.869,1.306,5.561,3.005,8.311,4.562c0.213,0.118,0.252,0.542,0.373,0.825L239.479,282.248z M118.097,5.087
		c-0.198-0.097-0.43-0.262-0.687-0.33c-14.145-3.711-26.942-0.355-38.849,7.489c-4.341,2.86-8.18,6.29-11.542,10.295
		c-4.012,4.779-7.798,9.719-9.874,15.642c-5.562,15.875-2.454,30.824,5.257,45.194c0.298,0.555,0.742,1.031,1.17,1.616
		c1.28-1.818,1.623-3.291,0.018-5.116c-1.785-2.031-2.221-4.674-1.857-7.355c0.346-2.547,1.737-3.514,4.226-3.169
		c0.782,0.108,1.587,0.036,2.377,0.087c2.101,0.136,3.518,2.439,2.635,4.183c-0.805,1.592-1.479,3.251-2.309,4.828
		c-0.619,1.174-1.296,2.342-2.122,3.374c-1.292,1.615-1.989,4.775-1.041,6.022c3.436,4.519,7.521,8.477,12.333,11.376
		c6.08,3.663,12.757,6.033,19.882,6.966c5.851,0.767,11.672,0.999,17.398-0.714c0.642-0.191,1.508-0.955,1.573-1.531
		c0.57-5.084,0.97-10.187,1.442-15.282c0.813-8.759,1.641-17.516,2.465-26.272c0.382-4.074,0.769-8.146,1.175-12.457
		c-5.328,0.378-9.584-1.229-12.682-5.468c-0.171,0.158-0.342,0.317-0.514,0.475c1.251,1.809,2.502,3.617,3.888,5.622
		c-0.553,0.028-1.185,0.212-1.726,0.065c-4.643-1.266-8.208-3.765-9.694-8.617c-1.347-4.394-1.758-8.762,0.07-13.139
		c0.372-0.89,0.607-1.837,0.946-2.881c-1.704,0.56-3.145,1.033-4.939,1.622c0.595-6.602,4.8-9.83,9.803-12.732
		c-1.012-0.331-1.643-0.537-2.358-0.771c1.869-2.714,3.931-4.323,7.224-2.911c0.363,0.156,1.103,0.038,1.348-0.238
		C114.788,9.102,116.355,7.169,118.097,5.087z M185.562,115.123c0.1,0.257,0.197,0.514,0.295,0.771
		c2.76-0.363,5.58-0.473,8.268-1.13c14.988-3.672,25.32-13.071,31.969-26.699c3.275-6.715,4.41-13.934,4.41-21.422
		c-0.002-10.347-2.068-20.103-8.35-28.44c-3.129-4.154-6.916-7.968-10.963-11.245c-9.082-7.353-19.568-10.945-31.385-9.978
		c-9.949,0.815-18.553,4.787-26.27,11.098c0.295,0.663,0.492,1.114,0.697,1.563c0.236,0.524,0.521,1.033,0.713,1.574
		c4.385,12.44,5.047,24.94,0.666,37.549c-1.783,5.133-1.062,7.559,2.932,10.721c8.191-9.464,23.576-8.388,32.186-0.855
		c5.07,4.438,8.178,10.574,7.5,17.551C197.422,104.515,193.15,111.006,185.562,115.123z M149.875,148.106
		c0.837-0.901,1.359-1.476,1.894-2.038c2.541-2.658,5.383-5.09,7.553-8.022c2.889-3.906,6.316-7.887,7.643-12.386
		c3.35-11.369-0.221-16.652-10.541-18.508c-6.336-1.139-12.143,0.711-17.518,4.074c-0.473,0.295-0.96,0.566-1.587,0.934
		c0.369-1.388,0.639-2.405,1.074-4.044c-4.897,1.754-9.146,3.142-13.292,4.79c-8.621,3.429-13.419,10.091-15.606,18.887
		c-0.458,1.846,0.397,2.632,2.176,3.041c0.714-1.746,1.462-3.374,2.052-5.056c1.289-3.679,3.957-6.303,6.708-8.846
		c0.597-0.551,1.52-0.859,2.345-1.038c1.953-0.424,3.004,0.269,3.009,2.286c0.006,1.763-0.115,3.704-0.843,5.257
		c-1.95,4.165-4.143,8.228-6.477,12.192c-0.85,1.444-0.915,2.472-0.191,3.929c0.927,1.864,1.528,3.892,2.27,5.848
		c-0.255,0.12-0.512,0.238-0.769,0.357c-1.765-2.838-3.508-5.69-5.303-8.51c-1.868-2.935-4.057-5.523-6.831-6.499
		c-2.127,2.192-3.596,4.646-5.746,5.663c-2.196,1.04-5.06,0.67-7.904,0.943c0,3.075-0.346,6.619,0.083,10.066
		c0.607,4.891,3.769,8.668,6.54,12.543c3.906,5.463,9.098,9.344,15.494,11.193c13.933,4.026,28.784-1.192,38.054-14.506
		c0.252-0.361,0.256-0.896,0.473-1.717c-1.615,0-2.963,0-4.312,0c4.389-2.207,6.309-1.357,8.6,1.062
		c1.002,1.059,1.074,2.604,0.354,4.397c-0.975-1.575-1.691-2.733-2.41-3.892c-0.238,0.028-0.48,0.055-0.721,0.082
		c-1.123,3.707-2.303,7.399-3.354,11.127c-1.154,4.097-2.332,8.156-4.95,11.635c-4.942,6.57-13.944,5.848-17.282-1.604
		c-1.287-2.873-2.667-4.451-6.042-3.77c-1.42,0.287-3-0.192-4.503-0.362c-1.019-0.115-2.031-0.299-3.045-0.451
		c2.389,3.142,5.641,4.382,9.476,5.328c-0.477-1.143-0.804-1.928-1.133-2.714c0.243-0.128,0.486-0.255,0.727-0.383
		c1.07,1.959,2.054,3.972,3.237,5.858c0.929,1.479,1.841,3.222,3.231,4.103c2.545,1.613,5.542,1.926,8.574,1.388
		c5.57-0.989,9.28-4.637,12.825-8.667c1.312-1.494,3.152-2.524,4.752-3.766c0.145,0.2,0.289,0.4,0.434,0.602
		c-1.076,0.95-2.148,1.899-3.223,2.85c0.182,0.263,0.363,0.527,0.543,0.79c2.719-1.64,5.635-3.026,8.109-4.974
		c4.221-3.318,6.645-7.946,8.793-12.829c2.885-6.559-0.93-15.053-7.938-17.357c-3.299-1.085-6.871-1.692-10.428-0.305
		C153.516,147.646,151.893,147.72,149.875,148.106z M189.072,134.713c1.154-3.951,4.008-6.508,6.982-8.916
		c5.043-4.082,10.771-5.651,17.025-3.574c7.152,2.375,12.027,7.109,14.141,14.577c2.111,7.454,1.115,14.543-2.068,21.404
		c-1.662,3.585-4.268,6.464-7.223,9.151c-5.928,5.389-16.705,6.416-23.309,1.877c-3.539-2.432-6.41-5.472-8.289-9.617
		c-0.957,1.503-1.746,2.783-2.574,4.036c-0.896,1.354-0.791,2.581,0.418,3.663c3.383,3.025,6.762,6.036,11.15,7.614
		c17.316,6.231,33.371,4.582,47.938-7.344c5.205-4.262,9.105-9.496,11.99-15.438c8.955-18.444,4.648-40.887-8.297-54.187
		c-5.104-5.244-11.158-8.795-18.271-10.711c-0.324,0.64-0.578,1.149-0.838,1.654c-0.266,0.513-0.539,1.021-0.807,1.533
		c-5.473,10.458-13.406,18.382-24.168,23.344c-6.906,3.183-14.182,3.833-21.844,2.825
		C184.666,122.247,187.721,128.033,189.072,134.713z M153.102,304.927c-4.705,1.186-9.192,1.192-12.838-3.248
		c-3.452,6.785-5.403,13.454-3.651,20.721c0.307,1.271,1.251,2.562,2.247,3.46c5.872,5.284,13.163,8.068,20.446,10.479
		c6.611,2.187,13.584,3.277,20.389,4.885c5.42,1.279,10.865,1.422,16.354,0.537c5.994-0.97,11.279-3.165,15.502-7.813
		c5.732-6.31,5.994-14.532,0.383-20.956c-4.779-5.474-10.869-8.998-17.668-11.096c-4.582-1.415-9.398-2.286-14.174-2.799
		c-4.723-0.507-9.664-1.525-14.404,1.765c1.119-3.266,3.725-6.098,1.031-9.304c-2.139-2.547-4.807-4.17-8.469-4.638
		c0.398,1.35,0.697,2.367,1.049,3.552c0.512-0.354,0.857-0.595,1.203-0.833c0.219,0.109,0.439,0.218,0.662,0.327
		c-0.453,1.237-0.635,2.687-1.408,3.676c-2.719,3.489-7.41,4.907-11.492,3.201c-2.103-0.88-5.258-1.276-4.834-4.906
		c0.037-0.312-0.257-0.663-0.404-1.012c-3.498,3.306-3.323,6.721-1.354,9.974C144.292,305.235,148.986,304.333,153.102,304.927z
		 M102.545,293.167c-2.258-0.401-3.162-2.046-4.15-3.701c-0.449-0.753-1.283-1.581-2.084-1.771
		c-11.122-2.624-21.607-1.163-30.877,5.755c-5.994,4.473-9.833,10.461-9.604,18.256c0.124,4.195,0.71,8.726,4.165,11.458
		c2.973,2.352,6.663,4.039,10.291,5.272c7.283,2.474,14.817,1.923,22.271,0.642c10.477-1.801,20.667-4.714,30.624-8.403
		c2.203-0.816,4.41-1.972,6.188-3.475c1.321-1.116,2.556-2.966,2.78-4.631c0.709-5.213-0.912-10.087-2.816-14.479
		c-3.505,0.679-6.709,1.645-9.96,1.847c-4.864,0.299-7.653-0.715-9.367-2.671c0.839,0.117,1.547,0.287,2.258,0.304
		c3.813,0.091,7.635,0.311,11.439,0.147c2.458-0.104,4.44-1.454,5.082-4.017c0.907-3.619-3.98-9.42-8.065-9.452
		c0.675,1.336,1.229,2.645,1.965,3.842c1.148,1.873,0.396,2.855-1.373,3.615c-4.079,1.753-10.842,0.633-14.074-2.432
		c-0.395-0.376-0.731-0.884-0.912-1.393c-0.518-1.462-0.803-3.018-1.436-4.421c-0.81-1.79-1.852-1.915-3.431-0.663
		c-2.335,1.853-2.806,4.776-1.128,7.348C101.012,291.188,101.804,292.16,102.545,293.167z M155.432,251.078
		c-2.773-4.055-5.336-7.803-7.897-11.551c0.186-0.171,0.37-0.345,0.556-0.518c0.811,0.617,1.622,1.236,2.818,2.147
		c-0.205-3.213-0.137-6.003-0.6-8.701c-1.355-7.883-4.746-14.946-9.285-21.468c-0.619-0.889-1.584-1.674-2.562-2.154
		c-8.742-4.29-17.978-6.642-27.737-6.749c-5.81-0.063-11.571,0.384-16.944,2.835c-1.075,0.49-2.153,1.494-2.701,2.538
		c-3.758,7.17-4.773,14.806-3.125,22.705c0.863,4.13,2.155,8.171,3.206,12.074c-0.466-0.521-1.089-1.219-1.728-1.933
		c-0.989,3.108-1.909,6.007-2.672,8.402c2.983,0.655,6.121,0.945,8.94,2.047c5.636,2.199,11.096,4.854,16.64,7.291
		c0.778,0.343,1.627,0.52,2.445,0.775c0.128-0.231,0.256-0.463,0.383-0.693c-4.044-2.888-8.813-4.922-11.598-9.337
		c5.659,4.198,11.541,7.895,19.185,9.246c-1.059-1.653-1.79-2.795-2.521-3.938c0.167-0.134,0.336-0.268,0.504-0.399
		c2.12,2.313,4.408,4.502,6.288,6.998c0.927,1.229,1.422,1.33,2.723,0.72c5.15-2.422,10.318-4.814,15.575-6.987
		C148.433,253.145,151.719,252.291,155.432,251.078z M174.197,109.982c-13.023-21.837-26.155-43.854-39.048-65.472
		c-3.432,0.424-7.006,0.867-11.236,1.39c-2.162,22.52-4.386,45.683-6.604,68.784C135.954,104.812,154.742,102.399,174.197,109.982z
		 M196.65,227.12c0.221-0.029,0.441-0.057,0.662-0.086c0.197,0.717,0.506,1.422,0.574,2.149c0.564,5.849,2.736,11.167,5.318,16.355
		c1.816,3.65,4.693,6.338,8.002,8.568c1.875,1.26,4.1,1.345,5.951,0.198c0.76-0.472,0.967-2.098,1.092-3.234
		c0.076-0.696-0.414-1.496-0.766-2.19c-2.117-4.187-4.316-8.331-6.371-12.547c-0.615-1.263-0.852-2.707-1.26-4.068
		c0.146-0.041,0.291-0.082,0.438-0.124c2.764,5.097,5.525,10.194,8.303,15.32c2.551-1.606,3.312-3.468,2.396-5.857
		c-1.26-3.288-2.816-6.461-4.125-9.731c-1.033-2.587-2.484-5.197-2.701-7.884c-0.559-6.914-2.984-13.032-6.635-18.777
		c-0.295-0.464-0.744-0.897-1.225-1.16c-5.604-3.068-11.51-2.472-16.932-0.154c-3.824,1.635-7.047,4.741-10.42,7.341
		c-1.777,1.369-3.303,3.062-4.48,4.172c-0.637-0.345-1.057-0.728-1.525-0.803c-2.199-0.352-4.416-0.585-6.615-0.93
		c-1.412-0.223-2.348,0.292-3.029,1.517c-2.729,4.888-0.025,10.695,5.434,11.895c2.617,0.575,4.982,0.025,7.404-0.819
		c1.777-0.619,3.625-1.034,5.666-1.604c0.129-2.197-1.422-4.768-0.391-7.402c0.445,0.587,0.752,1.182,0.814,1.805
		c0.639,6.236,1.395,12.466,1.781,18.718c0.195,3.15-0.396,6.339-0.457,9.515c-0.059,3.099,1.574,5.361,4.205,6.051
		c2.736,0.721,3.783-1.535,5.143-3.122c0.604-0.701,1.035-1.567,1.447-2.408c1.92-3.921,2.266-8.146,2.297-12.421
		C196.666,232.64,196.65,229.88,196.65,227.12z M106.457,13.193c1.508,0.563,2.767,0.88,3.865,1.486
		c1.069,0.589,1.975,1.474,2.951,2.229c-0.085,0.245-0.172,0.491-0.259,0.736c-3.614-3.084-6.444-0.88-9.208,1.123
		c-2.338,1.696-4.047,3.931-5.043,6.622c0.166,0.232,0.332,0.463,0.498,0.694c2.278-1.126,4.556-2.253,6.987-3.455
		c-1.374,2.786-2.772,5.268-3.851,7.88c-2.252,5.453-1.361,10.634,2.073,15.292c0.972,1.318,2.656,2.11,4.013,3.144
		c-1.555-4.886-1.59-7.433,0.317-9.432c0.37,0.985,0.677,1.926,1.07,2.829c1.905,4.375,5.858,6.868,9.901,6.087
		c1.018-0.196,2.426-0.722,2.775-1.495c0.631-1.391,0.665-2.989-0.802-4.324c-0.973-0.888-1.526-2.236-2.267-3.378
		c2.104,1.353,3.766,3.002,5.689,4.253c2.033,1.321,4.317,1.782,6.729,0.197c-6.602-1.889-11.011-10.15-7.739-14.695
		c-0.342,3.765,0.359,7.046,2.565,9.939c2.502,3.279,7.271,5.692,11.103,0.993c0.419-0.513,0.874-0.995,1.312-1.49
		c0.175,0.139,0.35,0.277,0.525,0.415c-1.036,1.359-2.072,2.717-3.144,4.121c0.207,0.351,0.488,0.857,0.8,1.344
		c0.351,0.547,0.758,1.058,1.09,1.615c1.207,2.028,1.776,2.21,3.226,0.257c3.318-4.474,5.065-9.394,3.176-15.012
		c-0.461-1.372-1.027-2.708-1.724-4.526c3.485,2.636,3.726,6.181,4.683,9.521c0.419-1.743,0.713-3.476,0.562-5.17
		c-0.66-7.396-5.215-11.966-11.517-15.247c3.782,0.486,6.574,2.573,9.425,5.071c0.06-1.932,0.063-3.831-0.655-5.397
		c-2.051-4.465-5.915-6.752-10.604-7.52c-2.647-0.434-5.381-0.348-8.489-0.519c0.751-0.985,1.513-1.986,2.321-3.048
		c-5.632-0.68-12.318,3.158-14.645,8.373c0.631,0.453,1.303,0.935,1.974,1.417C112.811,14.161,110.269,10.525,106.457,13.193z
		 M55.911,139.733c-0.173,0.162-0.346,0.324-0.52,0.486c-1.688-0.843-3.375-1.687-5.063-2.531c0.218,1.38,0.687,2.494,1.389,3.435
		c1.428,1.913,2.057,4.035,1.555,6.319c-0.361,1.642,0.333,2.22,1.627,2.917c3.627,1.957,7.063,4.171,9.079,8.018
		c1.214,2.318,1.215,5.676-0.019,6.678c-0.188-1.225-0.08-2.706-0.651-3.845c-2.121-4.224-4.812-8.003-9.275-10.142
		c-1.614-0.773-4.673,0.703-4.76,2.483c-0.138,2.856-1.446,4.891-3.879,6.34c-0.506,0.302-1.105,1.084-1.053,1.582
		c0.303,2.861,0.694,5.724,1.29,8.535c0.134,0.631,1.13,1.36,1.854,1.54c5.541,1.375,10.627,0.15,15.319-3.01
		c0.146,0.173,0.292,0.348,0.438,0.521c-1.873,1.607-3.746,3.215-5.678,4.874c5.619,1.363,11.307-1.332,13.707-6.374
		c1.894-3.977,1.398-8.561-1.132-10.476c-0.618,0.756-1.236,1.515-1.855,2.271c-0.144-0.11-0.289-0.22-0.433-0.33
		c0.768-2.004,1.75-3.956,2.242-6.025c0.485-2.041,1.012-4.324,0.563-6.281c-0.731-3.195-2.203-6.229-3.432-9.302
		c-1.117-2.796-1.791-5.529-0.931-8.614c0.769-2.757,1.137-5.649,1.411-8.508c0.098-1.011-0.605-2.099-0.944-3.153
		c-0.303-0.055-0.606-0.11-0.909-0.165c-3.507,3.513-7.067,6.974-10.5,10.558c-2.297,2.399-2.57,5.573-1.066,8.533
		C54.888,137.257,55.372,138.509,55.911,139.733z M103.493,172.16c0.23-0.358,0.46-0.717,0.689-1.074
		c-1.165-0.939-2.45-1.763-3.472-2.837c-7.508-7.883-11.02-16.972-8.357-27.938c0.23-0.951-0.17-2.09-0.404-3.112
		c-0.542-2.365-1.158-4.715-1.75-7.069c-0.164-0.652-0.355-1.299-0.507-1.855c-7.635,1.102-14.974,2.16-22.907,3.303
		c0.908,2.263,1.552,4.129,2.392,5.906c2.359,4.999,3.916,10.08,2.54,15.704c-0.209,0.857,0.237,1.92,0.521,2.844
		c0.61,1.975,1.529,3.881,1.894,5.894c0.21,1.165,0.479,1.815,1.593,2.157c6.064,1.863,12.104,3.808,18.184,5.614
		C97.069,170.634,100.297,171.345,103.493,172.16z M67.354,130.402c7.677-1.081,14.746-2.057,21.803-3.115
		c0.432-0.065,0.892-0.725,1.123-1.211c0.86-1.816,1.379-3.847,2.492-5.48c1.813-2.665,4.272-4.464,7.829-3.874
		c3.366,0.56,5.722,2.26,6.537,5.694c0.264,1.113,0.44,2.268,0.478,3.41c0.074,2.214,0.021,4.433,0.021,6.707
		c0.177-0.092,0.286-0.113,0.298-0.16c0.129-0.479,0.272-0.957,0.354-1.445c0.694-4.102,2.579-7.62,5.217-10.782
		c1.376-1.649,3.512-3.021,2.234-5.726c-0.075-0.161,0.082-0.421,0.084-0.636c0.007-2.141,0.004-4.283,0.004-6.482
		c-1.285,0.27-2.662,0.657-4.066,0.84c-8.543,1.109-16.802-0.148-24.897-2.957c-0.838-0.291-2.101-0.093-2.895,0.357
		c-2.697,1.528-5.266,3.283-7.895,4.931c-2.674,1.675-5.364,3.328-8.277,5.133c2.23,2.294,1.585,4.69,0.917,7.21
		C68.083,125.2,67.826,127.685,67.354,130.402z M134.522,311.568c1.201-2.976,2.498-5.918,3.554-8.945
		c0.421-1.204,0.268-2.599,0.44-3.9c0.25-1.895-0.083-4.329,0.969-5.567c2.456-2.892,2.118-5.225,0.581-8.396
		c-2.687-5.547-4.672-11.429-7.165-17.075c-1.69-3.83-1.854-3.758-6.005-3.103c-0.124,0.019-0.264-0.063-0.453-0.115
		c-0.391-1.046-0.533-2.36-1.254-3.137c-0.885-0.954-2.187-1.642-3.433-2.108c-1.072-0.399-2.326-0.297-3.491-0.475
		c-0.733-0.113-1.45-0.337-2.175-0.51c-0.304-0.088-0.607-0.177-0.911-0.266c3.053,4.219-0.93,3.885-2.671,5.529
		c1.922,5.192,3.883,10.442,5.805,15.708c0.697,1.909,1.762,3.141,3.837,3.939c5.474,2.105,8.24,6.58,8.105,12.216
		c-0.012,0.482,0.042,1.045,0.282,1.438C133.294,301.33,134.218,306.312,134.522,311.568z M55.604,117.978
		c3.089-2.474,6.516-3.824,10.611-2.736c0.491,0.129,1.218-0.358,1.75-0.695c4.327-2.749,8.644-5.513,12.938-8.311
		c0.936-0.61,1.768-1.376,2.446-1.912c-3.629-2.412-7.288-4.463-10.49-7.075c-3.2-2.611-5.943-5.783-9.056-8.876
		c-0.385,0.881-0.665,1.519-0.942,2.157c-3.014,6.945-5.984,13.909-9.058,20.828c-1.769,3.98-1.845,3.948,1.342,6.43
		C55.246,117.866,55.387,117.89,55.604,117.978z M152.6,71.292c7.201-16.155,4.105-37.396-5.526-48.641
		c0.493,1.311,0.854,2.145,1.119,3.009c0.989,3.229,2.081,6.514,0.821,9.866c-0.824,2.197-2.186,4.188-3.099,6.358
		c-1.208,2.873-2.496,5.629-5.752,7.382C144.29,56.575,148.316,63.705,152.6,71.292z M42.18,131.931
		c0.856-0.331,1.503-0.594,2.159-0.833c3.737-1.366,7.396-2.799,9.576-6.514c1.149-1.958,1.209-3.831,0-5.679
		c-1.133-1.731-2.843-2.319-4.87-2.022c-1.282,0.188-2.578,0.307-3.844,0.569c-4.117,0.855-8.097,2.023-11.392,4.855
		c-2.485,2.136-3.343,7.375-1.857,9.563c2.495,0,4.721-0.281,6.837,0.078c2.191,0.373,4.276,1.368,6.582,2.149
		C45.872,131.258,43.459,132.783,42.18,131.931z M32.439,155.638c0.139-0.165,0.279-0.33,0.418-0.495
		c1.354,0.951,2.65,1.998,4.073,2.83c2.344,1.37,4.856,1.82,7.467,0.764c3.658-1.478,4.668-5.738,1.833-8.456
		c-1.357-1.301-3.071-2.572-4.837-3.027c-3.032-0.782-6.222-1.108-9.362-1.259c-2.75-0.13-4.128,1.294-4.754,4.059
		c-1.337,5.916,1.582,10.334,5.25,14.366c1.537,1.691,2.17,1.41,3.248-0.729c0.421-0.836,0.749-1.721,1.199-2.54
		c0.567-1.031,0.31-1.612-0.675-2.281C34.918,157.931,33.717,156.728,32.439,155.638z M37.43,133.645
		c-5.847-0.032-8.904,2.351-8.854,6.003c0.063,4.553,0.351,4.934,4.854,4.814c5.771-0.154,10.856,1.175,14.681,5.869
		c0.277,0.34,1.33,0.421,1.786,0.178c2.201-1.169,2.922-4.314,1.461-7.127C48.206,137.31,42.907,134.414,37.43,133.645z
		 M150.16,175.455c-4.46-0.049-7.176,2.765-10.105,5.296c0.595-0.983,1.189-1.969,1.783-2.953c-0.112-0.177-0.225-0.354-0.337-0.531
		c-1.729,0.359-3.506,0.576-5.179,1.115c-1.943,0.626-3.509,2.335-3.216,4.13c0.206,1.261,2.095,2.694,3.535,3.229
		C142.695,187.986,149.792,182.668,150.16,175.455z M51.468,204.064c2.466,1.604,4.476,3.239,6.752,4.312
		c2.795,1.317,5.812,0.276,7.708-2.152c1.958-2.515,0.227-6.982-2.889-7.446C58.388,198.088,55.069,200.416,51.468,204.064z
		 M208.316,203.092c-0.986-4.184-4.131-6.716-8.334-6.952c-4.91-0.276-9.244,1.553-13.248,4.018
		c-1.881,1.155-3.904,2.797-3.621,6.264C190.928,199.509,199.367,199.774,208.316,203.092z M120.688,133.746
		c2.141-2.958,4.126-6.256,4.058-10.354c-0.012-0.722-0.265-1.76-0.761-2.057c-0.432-0.258-1.458,0.181-2.064,0.561
		c-5.264,3.305-7.296,8.687-8.996,14.255c-0.062,0.201,0.283,0.527,0.614,1.097c0.546-1.1,0.844-1.999,1.382-2.719
		c0.987-1.322,1.714-3.282,3.828-2.831C119.495,131.857,120.03,133.015,120.688,133.746z M96.012,258.407
		c-0.813-7.48-3.127-8.81-11.035-7.78C87.889,254.349,91.084,257.344,96.012,258.407z M42.733,160.759
		c-2.774-0.355-3.786,1.111-4.195,5.796c-0.202,2.311,1.684,3.71,5.42,3.899C43.553,167.247,43.151,164.067,42.733,160.759z
		 M144.601,259.872c4.842-0.856,8.159-3.766,11.032-7.501c-4.002,1.37-8.002,2.743-12.101,4.149
		C143.945,257.817,144.265,258.82,144.601,259.872z M64.773,117.034c-0.016-0.239-0.034-0.479-0.05-0.719
		c-2.016,0.19-4.059,0.24-6.042,0.612c-1.941,0.364-2.896,1.695-2.692,3.756c0.133,1.333,0.195,2.672,0.279,3.886
		C59.022,122.13,61.898,119.583,64.773,117.034z M66.359,80.575c1.721-3.349-0.828-5.885-1.746-8.668
		c0.177-0.062,0.354-0.124,0.53-0.186c0.768,1.391,1.538,2.782,2.382,4.312c-0.402-3.793-0.963-4.918-2.875-5.904
		C62.429,72.891,63.208,78.144,66.359,80.575z M101.808,129.682c2.123-1.241,2.735-5.803,1.033-7.523
		c-0.873-0.881-1.455-0.6-2.029,0.337C99.351,124.88,99.637,127.053,101.808,129.682z M51.82,130.128
		c-0.18-0.115-0.361-0.23-0.541-0.343c-1.139,0.515-2.318,0.962-3.388,1.594c-0.278,0.165-0.458,1.111-0.263,1.343
		c0.541,0.639,1.305,1.09,2.28,1.849C50.669,132.802,51.245,131.465,51.82,130.128z M68.775,75.442
		c0.984-1.761,1.786-3.197,0.372-4.617c-0.471-0.473-1.387-0.506-2.385-0.833C67.533,72.08,68.074,73.547,68.775,75.442z
		 M37.106,167.59c0.399-1.986,0.773-3.85,1.198-5.959C35.639,164.433,35.161,166.71,37.106,167.59z"/>
	<path fill-rule="evenodd" clip-rule="evenodd" d="M35.855,102.76c0.608-3.731,1.216-7.463,1.852-11.366
		c-1.936,0.107-3.501,0.108-5.042,0.297c-4.291,0.528-7.1-1.85-9.543-4.847c-1.708-2.094-1.682-3.868-0.199-6.129
		c0.237-0.363,0.487-0.717,0.72-1.082c2.518-3.926,4.336-4.628,9.553-2.118c2.108,1.015,3.786,2.922,5.737,4.487
		c0.223-3.034-1.172-5.635-2.578-8.184c-0.213-0.386-1.27-0.437-1.932-0.422c-2.489,0.055-4.914-0.049-7.061-1.553
		c-2.443-1.712-2.779-3.383-1.135-5.875c2.759-4.179,5.472-4.605,9.397-1.489c0.313,0.249,0.678,0.432,1.191,0.754
		c0.451-4.015-0.979-6.874-4.111-9.158c1.461,0,2.977-0.231,4.364,0.089c0.78,0.18,1.694,1.159,1.957,1.97
		c1.28,3.955,2.986,7.918,0.84,12.158c-0.23,0.456,0.11,1.241,0.272,1.85c0.828,3.112,0.887,6.187,0.462,9.42
		c-0.457,3.481-0.216,7.061-0.176,10.597c0.043,3.823-0.195,7.555-1.845,11.115c-1.05,2.266-0.876,2.387-4.172,1.539
		c0.547-0.779,1.017-1.448,1.491-2.123c-0.066,0.477-0.135,0.959-0.206,1.454c1.646,0.754,2.108-0.367,2.4-1.526
		c0.597-2.37,1.233-4.741,1.598-7.151c0.298-1.972,0.224-4.002,0.329-6.316c-2.532,1.253-1.926,3.188-2.012,4.777
		C37.841,97.024,37.935,100.145,35.855,102.76z M39.367,83.544c-2.412,3.068-5.194,5.487-8.825,4.348
		c-3.818-1.197-5.305-4.695-5.479-8.716c-3.228,2.804-3.244,5.089-0.389,8.176c2.923,3.164,6.506,3.934,10.638,3.022
		C38.871,89.59,40.164,87.712,39.367,83.544z M25.909,80.799c0.678,1.438,1.128,2.806,1.905,3.953
		c1.759,2.596,4.268,3.147,6.774,1.746c1.007-0.562,1.293-1.136,0.686-2.245C33.567,81.14,30.026,79.646,25.909,80.799z
		 M28.125,64.913c0.731,0,1.266,0.04,1.792-0.007c2.003-0.179,3.614,0.563,4.502,2.327c1.413,2.805,2.667,5.691,3.933,8.567
		c0.478,1.085,0.802,2.237,1.196,3.359c0.471-5.705-1.028-10.653-5.146-14.598C32.664,62.899,30.194,62.973,28.125,64.913z
		 M37.624,84.729c0.097-0.585,0.451-1.286,0.25-1.737c-1.202-2.704-5.885-6.135-9.503-5.584c-0.794,0.121-1.508,0.763-2.257,1.165
		c0.046,0.247,0.093,0.494,0.14,0.741C31.038,78.833,34.511,80.846,37.624,84.729z M35.175,57.078
		c2.653,3.879,2.887,4.728,3.046,9.374c0.03,0.894,0.437,1.774,0.802,3.167C41.505,64.772,38.98,57.25,35.175,57.078z
		 M27.594,66.785c-1.461,1.948-1.667,3.117-0.288,3.735c2.11,0.943,4.444,1.42,6.722,1.906c0.407,0.086,1.01-0.745,1.522-1.153
		c-0.592-0.171-1.219-0.56-1.77-0.474c-2.441,0.384-4.13-0.352-5.355-2.518C28.156,67.805,27.893,67.325,27.594,66.785z
		 M34.226,69.216c-0.967-3.208-2.949-4.208-5.586-2.937C29.891,69.392,31.493,70.266,34.226,69.216z"/>
	<path fill-rule="evenodd" clip-rule="evenodd" d="M75.065,201.805c0.745,1.474,1.567,2.915,2.222,4.426
		c3.358,7.751,2.998,15.654,0.646,23.538c-1.751,5.867-4.05,11.579-5.614,17.491c-1.341,5.068-2.298,10.288-2.841,15.502
		c-0.486,4.657,1.434,8.764,4.776,12.137c-0.177,0.134-0.356,0.268-0.533,0.4c-1.121-1.371-2.553-2.592-3.311-4.141
		c-2.839-5.801-1.864-11.909-0.471-17.771c2.161-9.1,4.898-18.062,7.359-27.092c2.146-7.876,1.095-15.386-2.669-22.577
		c-0.246-0.47-0.235-1.072-0.344-1.612C74.545,202.006,74.806,201.904,75.065,201.805z"/>
	<path fill-rule="evenodd" clip-rule="evenodd" d="M244.303,310.247c1.096,1.729,2.389,3.371,3.201,5.224
		c0.383,0.873,0.143,2.309-0.342,3.207c-0.934,1.741-0.129,2.019,1.299,2.1c0.758,0.043,1.518,0.087,2.328,0.134
		c-0.588,1.91-2.859,3.914-4.234,3.358c-2.666-1.079-4.363,0.399-6.242,1.669c0.455-1.027,0.91-2.054,1.479-3.34
		c-3.645,1.919-6.822,3.594-10.012,5.272c1.34,1.46,3.178,1.102,4.982,0.211c1.264-0.624,2.418-1.468,3.621-2.214
		c-1.67,1.309-3.248,2.76-5.035,3.881c-1.367,0.859-4.752-0.935-5.365-2.521c2.656-1.274,5.348-2.462,7.938-3.836
		c2.41-1.277,2.639-1.849,1.023-3.901c-2.385-3.033-1.156-8.609,3.07-10.887c1.943-1.047,1.809,0.818,2.359,1.72
		c-0.68-0.318-1.359-0.64-2.119-0.996c-2.584,1.758-4.207,4.504-3.57,7.324c0.666,2.938,2.754,5.595,6.023,6.604
		c1.869,0.578,3.682,0.549,4.717-1.222c-2.439-0.966-5.123-1.518-7.154-2.976c-1.955-1.406-1.729-4.923-0.248-7.481
		c3.73,5.126,3.73,5.126,2.555,6.851c-0.49-3.964-0.521-4.026-2.398-4.85c-0.713,3.122,0.469,5.395,3.123,6.124
		c1.975-2.655,1.732-5.19-0.336-7.681C244.584,311.563,244.516,310.846,244.303,310.247z"/>
	<path fill-rule="evenodd" clip-rule="evenodd" d="M221.209,210.438c2.061-0.564,4.176-0.986,6.174-1.732
		c2.49-0.93,2.631-1.572,1.316-3.816c-0.619-1.058-1.324-2.07-1.893-3.155c-1.758-3.364,0.055-7.585,3.713-8.675
		c1.035-0.308,2.092-0.609,3.16-0.729c3.219-0.36,4.578-2.438,5.006-5.335c0.295-1.993,0.424-4.013,0.643-6.177
		c2.119-0.181,4.316-0.367,6.758-0.575c-0.756,1.977-1.475,3.849-2.188,5.72c-0.207,0.539-0.473,1.066-0.598,1.623
		c-0.848,3.803-2.602,6.18-7.041,6.55c-3.771,0.315-4.643,2.295-3.807,5.979c0.508,2.248,1.209,4.463,1.555,6.733
		c0.494,3.233-0.283,4.674-3.238,6.032c-1.689,0.777-3.516,1.295-5.328,1.746C224.031,214.979,221.752,212.646,221.209,210.438z
		 M239.865,181.527c-0.102,1.773-0.164,3.49-0.305,5.2c-0.309,3.781-1.373,5.029-5.014,5.982c-0.418,0.108-0.834,0.234-1.258,0.313
		c-6.039,1.143-8.553,4.811-4.232,10.593c2.363,3.165,1.531,5.211-2.297,6.352c-1.484,0.444-3.023,0.707-4.607,1.066
		c2.062,3.063,2.277,3.12,6.289,1.815c4.328-1.41,5.301-3.079,4.367-7.553c-0.426-2.044-0.965-4.069-1.305-6.128
		c-0.441-2.685,0.445-4.292,2.99-5.282c1.533-0.598,3.195-0.845,4.768-1.354c0.617-0.2,1.451-0.562,1.652-1.066
		c1.359-3.394,2.572-6.847,3.93-10.545C243.102,181.134,241.562,181.321,239.865,181.527z"/>
	<path fill-rule="evenodd" clip-rule="evenodd" d="M36.489,229.159c2.254,5.739,4.681,11.361,5.322,17.665
		c0.44,4.324,0.525,8.531-0.664,12.638c-0.845,2.918-1.943,5.926-3.647,8.397c-3.932,5.705-6.29,11.54-3.719,18.443
		c0.516,1.388,1.309,2.673,2.055,4.167c-2.906-2.093-5.045-7.65-3.893-11.855c1.188-4.34,2.579-8.842,4.954-12.595
		c4.495-7.102,5.42-14.388,3.28-22.288c-1.15-4.243-2.346-8.477-3.483-12.725c-0.162-0.598-0.112-1.252-0.16-1.884
		C36.536,229.123,36.489,229.159,36.489,229.159z"/>
	<path fill-rule="evenodd" clip-rule="evenodd" d="M62.041,276.722c-1.143,2.767-3.284,4.431-5.768,5.657
		c-0.577,0.286-1.602,0.159-2.194-0.179c-1.547-0.876-2.968-1.976-4.823-3.252c1.029-0.907,1.705-1.715,2.561-2.211
		c1.486-0.862,3.032-1.699,4.659-2.207c0.832-0.261,1.964,0.048,2.833,0.408C60.283,275.343,61.111,276.096,62.041,276.722z
		 M60.405,276.935c-1.064-1.533-2.231-2.513-4.001-1.406c-1.731,1.08-3.385,2.288-5.077,3.442
		C55.039,283.048,56.246,282.787,60.405,276.935z"/>
	<path fill-rule="evenodd" clip-rule="evenodd" d="M27.879,49.023c-2.71-0.183-3.567-0.783-3.492-2.595
		c0.134-3.222,1.906-5.346,4.269-5.053c1.282,0.158,2.819,0.055,3.751,0.738c0.951,0.697,1.597,2.163,1.805,3.389
		c0.127,0.76-0.616,2.18-1.311,2.461C31.339,48.596,29.566,48.703,27.879,49.023z M29.557,42.919
		c-2.883-0.126-4.088,0.881-3.908,3.387c0.034,0.464,0.516,1.292,0.763,1.281c2.069-0.09,4.14-0.279,6.187-0.595
		c0.333-0.051,0.722-0.841,0.79-1.331C33.673,43.601,32.886,43.064,29.557,42.919z"/>
	<path fill-rule="evenodd" clip-rule="evenodd" d="M243.939,24.523c-0.516,1.393-0.879,2.805-1.551,4.051
		c-0.492,0.913-1.33,1.934-2.607,0.971c-2.396-1.805-4.742-3.675-7.107-5.521C235.494,19.622,239.146,20.814,243.939,24.523z
		 M233.9,23.717c2.436,1.715,4.701,3.312,7.412,5.22c0.363-1.61,1.242-3.136,0.807-3.997
		C240.727,22.189,236.619,21.675,233.9,23.717z"/>
	<path fill-rule="evenodd" clip-rule="evenodd" d="M28.759,16.95c2.288,0.056,3.295,1.072,3.283,3.313
		c-0.011,2.358-2.418,5.72-4.136,5.779c-1.807,0.062-5.022-3.72-4.878-5.739C23.137,18.755,26.325,16.891,28.759,16.95z
		 M27.878,17.125c-1.606,1.364-3.231,2.118-3.731,3.333c-0.565,1.375,2.328,4.593,3.401,4.002c1.382-0.762,2.703-2.329,3.141-3.817
		C30.906,19.906,29.092,18.57,27.878,17.125z"/>
	<path fill-rule="evenodd" clip-rule="evenodd" d="M55.088,11.705c0.344-0.411,0.688-0.822,1.27-1.516
		c1.035,2.802-0.11,4.865-1.278,6.742c-1.16,1.864-3.177,2.69-5.354,2.66c-0.317-0.004-1.052-1.521-0.845-2.036
		c0.763-1.899,1.58-3.867,3.793-4.672c0.866-0.315,1.658-0.828,2.484-1.249c-0.496,0.504-0.903,1.194-1.501,1.477
		c-2.208,1.04-3.217,2.804-3.646,5.157c3.782-0.529,5.216-1.801,5.755-5.146C55.835,12.698,55.329,12.18,55.088,11.705z"/>
	<path fill-rule="evenodd" clip-rule="evenodd" d="M235.916,251.886c2.758,1.841,2.934,2.511,0.25,5.256
		c-1.594,1.631-3.436,3.096-5.373,4.3c-2.08,1.291-2.07-1.199-3.254-2.081C230.379,256.827,233.104,254.396,235.916,251.886z
		 M237.885,254.464c-1.07-0.896-1.701-1.426-2.354-1.971c-1.146,1.068-2.176,1.967-3.137,2.937
		c-1.062,1.071-2.135,2.152-3.041,3.352c-0.254,0.336-0.135,1.295,0.178,1.619c0.26,0.271,1.24,0.257,1.576-0.022
		C233.316,258.555,235.438,256.623,237.885,254.464z"/>
	<path fill-rule="evenodd" clip-rule="evenodd" d="M212.584,291.638c2.512-1.739,4.506-3.424,6.781-4.52
		c0.738-0.355,2.295,0.715,3.336,1.36c0.752,0.465,1.268,1.309,2.113,2.231c-1.93,1.075-3.775,2.271-5.76,3.162
		C216.639,294.958,215.109,292.801,212.584,291.638z M214.281,291.35c0.598,0.452,1.016,0.828,1.486,1.12
		c2.326,1.44,4.729,1.028,6.4-1.163c0.27-0.354,0.42-1.104,0.23-1.456c-1.043-1.947-3.012-2.324-4.789-1.011
		C216.576,289.604,215.557,290.387,214.281,291.35z"/>
	<path fill-rule="evenodd" clip-rule="evenodd" fill="#FFFFFF" d="M240.383,325.868c-1.203,0.746-2.357,1.59-3.621,2.214
		c-1.805,0.891-3.643,1.249-4.982-0.211c3.189-1.679,6.367-3.354,10.012-5.272c-0.568,1.286-1.023,2.312-1.479,3.34
		C240.312,325.94,240.383,325.868,240.383,325.868z"/>
	<path fill-rule="evenodd" clip-rule="evenodd" d="M235.08,44.62c5.125,0.777,7.219-2.095,5.518-7
		c0.15-0.135,0.301-0.27,0.451-0.406c0.379,0.45,1.043,0.876,1.08,1.352c0.082,1.056-0.059,2.157-0.275,3.205
		c-0.432,2.063-1.438,3.548-3.842,3.665c-1.129,0.054-2.244,0.437-3.367,0.67c-0.457-2.635,1.875-7.369,3.412-7.706
		C237.145,40.308,236.135,42.415,235.08,44.62z"/>
	<path fill-rule="evenodd" clip-rule="evenodd" d="M29.522,110.792c-3.556-0.244-4.557-1.007-4.388-3.264
		c0.18-2.421,1.479-4.24,2.925-4.098c2.333,0.229,3.973,2.626,3.791,5.53C31.751,110.532,30.966,111.168,29.522,110.792z
		 M30.895,109.447c-0.14-3.159-1.708-5.596-3.23-5.188c-1.982,0.53-1.805,2.406-1.477,3.741
		C26.892,110.863,29.166,109.06,30.895,109.447z"/>
	<path fill-rule="evenodd" clip-rule="evenodd" d="M227.717,349.643c0.068-0.408,1.029-0.964,1.527-0.907
		c0.387,0.044,0.92,0.916,0.969,1.456c0.219,2.528-0.359,3.051-2.693,2.111c0.926,0,1.441,0,1.959,0
		c0.02-0.127,0.039-0.254,0.059-0.381"/>
	<path fill-rule="evenodd" clip-rule="evenodd" d="M239.568,352.389c1.076-0.065,1.598-0.098,1.617-0.1
		c-0.496-0.885-1.064-1.701-1.361-2.607c-0.055-0.171,0.941-0.892,1.51-0.979c0.289-0.043,0.955,0.725,1.025,1.189
		C242.742,352.428,242.102,353.135,239.568,352.389z"/>
	<path fill-rule="evenodd" clip-rule="evenodd" d="M233.195,352.459c0-1.146,0-2.285,0-3.401c2.109-0.721,3.643,0.794,2.291,2.2
		C234.945,351.822,234.039,352.035,233.195,352.459z"/>
	<path fill-rule="evenodd" clip-rule="evenodd" d="M216.281,350.194c-0.967,0.718-1.549,1.482-2.076,1.446
		c-0.535-0.036-1.492-0.955-1.418-1.32c0.129-0.648,0.811-1.46,1.426-1.642C214.611,348.561,215.305,349.44,216.281,350.194z"/>
	<path fill-rule="evenodd" clip-rule="evenodd" d="M218.82,347.867c0.76,1.062,1.504,1.644,1.486,2.2
		c-0.018,0.564-0.789,1.105-1.232,1.655c-0.539-0.516-1.379-0.962-1.52-1.57C217.441,349.659,218.168,348.974,218.82,347.867z"/>
	<path fill-rule="evenodd" clip-rule="evenodd" d="M255.979,348.343c0.379,0.567,1.074,1.15,1.049,1.701
		c-0.027,0.576-0.744,1.122-1.158,1.681c-0.529-0.439-1.42-0.828-1.49-1.333c-0.088-0.624,0.508-1.341,0.807-2.021
		C255.451,348.361,255.715,348.353,255.979,348.343z"/>
	<path fill-rule="evenodd" clip-rule="evenodd" d="M239.426,282.302c2.365,0.454,5.383,2.984,6.682,5.993
		c-2.496-2.285-4.557-4.172-6.623-6.052C239.479,282.248,239.426,282.302,239.426,282.302z"/>
	<path fill-rule="evenodd" clip-rule="evenodd" d="M239.492,352.061c-1.406-0.472-2.225-0.746-3.043-1.021
		c0.543-0.524,1.086-1.053,1.775-1.719c-0.469-0.028-0.967-0.06-1.719-0.105c0.426-0.283,0.678-0.591,0.941-0.603
		C239.902,348.504,238.723,350.404,239.492,352.061z"/>
	<path fill-rule="evenodd" clip-rule="evenodd" d="M203.957,350.174c-0.672,0.077-1.344,0.153-2.018,0.231
		c-0.006,0.177-0.012,0.355-0.016,0.532c0.635,0.053,1.27,0.103,1.904,0.154c-0.037,0.192-0.072,0.383-0.107,0.576
		c-0.775-0.209-1.549-0.415-2.324-0.624c0.26-0.794,0.516-1.59,0.773-2.385c0.676,0.301,1.352,0.601,2.025,0.901
		C204.115,349.765,204.037,349.969,203.957,350.174z"/>
	<path fill-rule="evenodd" clip-rule="evenodd" d="M193.318,349.237c-0.465,0-0.951,0-1.92,0c0.742-0.354,1.086-0.667,1.404-0.646
		c2.146,0.139,0.844,1.812,1.754,3.233c-1.424-0.265-2.238-0.417-3.051-0.569C192.068,350.629,192.631,350.003,193.318,349.237z"/>
	<path fill-rule="evenodd" clip-rule="evenodd" d="M197.922,351.855c-1.391-0.28-2.209-0.443-3.029-0.605
		c0.502-0.614,1.004-1.229,1.59-1.945c-0.254-0.021-0.742-0.062-1.229-0.102c-0.018-0.116-0.035-0.231-0.053-0.348
		c0.545-0.074,1.473-0.36,1.57-0.184C197.219,349.473,197.434,350.404,197.922,351.855z"/>
	<path fill-rule="evenodd" clip-rule="evenodd" d="M245.879,350.191c-0.684,0.066-1.369,0.134-2.053,0.2
		c-0.016,0.165-0.031,0.33-0.045,0.494c0.613,0.09,1.229,0.177,1.844,0.265c-0.062,0.184-0.125,0.368-0.186,0.552
		c-0.74-0.24-1.879-0.29-2.111-0.775c-0.252-0.524,0.342-1.454,0.568-2.207c0.732,0.231,1.465,0.461,2.197,0.693
		C246.021,349.672,245.951,349.933,245.879,350.191z"/>
	<path fill-rule="evenodd" clip-rule="evenodd" d="M248.949,351.466c-0.766,0.034-1.529,0.066-2.297,0.102
		c-0.01-0.174-0.023-0.347-0.035-0.521c0.531,0,1.062,0,1.406,0c-0.432-0.642-0.877-1.302-1.324-1.964
		c0.584-0.132,1.168-0.264,1.754-0.396c0.023,0.197,0.045,0.395,0.068,0.592c-0.352,0-0.703,0-1.299,0
		c0.771,0.583,1.34,1.015,1.91,1.447C249.07,350.974,249.01,351.219,248.949,351.466z"/>
	<path fill-rule="evenodd" clip-rule="evenodd" fill="#FFFFFF" d="M118.097,5.087c-1.742,2.082-3.309,4.015-4.962,5.871
		c-0.245,0.276-0.985,0.395-1.348,0.238c-3.293-1.412-5.355,0.197-7.224,2.911c0.716,0.234,1.346,0.44,2.358,0.771
		c-5.002,2.902-9.208,6.13-9.803,12.732c1.794-0.589,3.235-1.062,4.939-1.622c-0.338,1.044-0.574,1.992-0.946,2.881
		c-1.829,4.377-1.417,8.745-0.07,13.139c1.486,4.853,5.051,7.351,9.694,8.617c0.541,0.147,1.172-0.037,1.726-0.065
		c-1.386-2.004-2.636-3.813-3.888-5.622c0.172-0.158,0.342-0.316,0.514-0.475c3.097,4.238,7.354,5.846,12.682,5.468
		c-0.406,4.311-0.793,8.383-1.175,12.457c-0.824,8.757-1.652,17.514-2.465,26.272c-0.473,5.095-0.872,10.197-1.442,15.282
		c-0.065,0.576-0.932,1.34-1.573,1.531c-5.726,1.713-11.547,1.481-17.398,0.714c-7.125-0.933-13.802-3.303-19.882-6.966
		c-4.812-2.899-8.897-6.857-12.333-11.376c-0.948-1.247-0.251-4.407,1.041-6.022c0.826-1.032,1.503-2.2,2.122-3.374
		c0.83-1.577,1.504-3.236,2.309-4.828c0.883-1.744-0.534-4.046-2.635-4.183c-0.791-0.052-1.595,0.021-2.377-0.087
		c-2.489-0.345-3.88,0.623-4.226,3.169c-0.364,2.681,0.072,5.324,1.857,7.355c1.605,1.826,1.262,3.298-0.018,5.116
		c-0.429-0.584-0.873-1.061-1.17-1.616c-7.711-14.37-10.819-29.319-5.257-45.194c2.076-5.923,5.862-10.863,9.874-15.642
		c3.362-4.005,7.2-7.435,11.542-10.295c11.906-7.844,24.704-11.2,38.849-7.489C117.667,4.825,117.898,4.99,118.097,5.087z"/>
	<path fill-rule="evenodd" clip-rule="evenodd" fill="#FFFFFF" d="M185.562,115.123c7.588-4.117,11.859-10.608,12.668-18.942
		c0.678-6.977-2.43-13.113-7.5-17.551c-8.609-7.533-23.994-8.609-32.186,0.855c-3.994-3.162-4.715-5.587-2.932-10.721
		c4.381-12.609,3.719-25.108-0.666-37.549c-0.191-0.542-0.477-1.05-0.713-1.574c-0.205-0.45-0.402-0.901-0.697-1.563
		c7.717-6.312,16.32-10.283,26.27-11.098c11.816-0.967,22.303,2.625,31.385,9.978c4.047,3.277,7.834,7.091,10.963,11.245
		c6.281,8.337,8.348,18.093,8.35,28.44c0,7.489-1.135,14.707-4.41,21.422c-6.648,13.628-16.98,23.026-31.969,26.699
		c-2.688,0.658-5.508,0.768-8.268,1.13C185.76,115.637,185.662,115.38,185.562,115.123z"/>
	<path fill-rule="evenodd" clip-rule="evenodd" fill="#FFFFFF" d="M149.875,148.106c2.017-0.386,3.64-0.46,5.074-1.018
		c3.557-1.387,7.129-0.78,10.428,0.305c7.008,2.304,10.822,10.798,7.938,17.357c-2.148,4.883-4.572,9.511-8.793,12.829
		c-2.475,1.947-5.391,3.334-8.109,4.974c-0.18-0.263-0.361-0.527-0.543-0.79c1.074-0.95,2.146-1.899,3.223-2.85
		c-0.145-0.201-0.289-0.401-0.434-0.602c-1.6,1.241-3.439,2.271-4.752,3.766c-3.545,4.03-7.254,7.678-12.825,8.667
		c-3.032,0.538-6.029,0.226-8.574-1.388c-1.391-0.881-2.303-2.623-3.231-4.103c-1.184-1.887-2.167-3.899-3.237-5.858
		c-0.24,0.128-0.483,0.255-0.727,0.383c0.329,0.786,0.656,1.571,1.133,2.714c-3.835-0.946-7.087-2.187-9.476-5.328
		c1.015,0.152,2.026,0.336,3.045,0.451c1.503,0.17,3.083,0.649,4.503,0.362c3.375-0.682,4.755,0.896,6.042,3.77
		c3.338,7.451,12.34,8.174,17.282,1.604c2.618-3.479,3.795-7.538,4.95-11.635c1.051-3.728,2.23-7.42,3.354-11.127
		c0.24-0.027,0.482-0.053,0.721-0.082c0.719,1.159,1.436,2.316,2.41,3.892c0.721-1.793,0.648-3.338-0.354-4.397
		c-2.291-2.419-4.211-3.268-8.6-1.062c1.35,0,2.697,0,4.312,0c-0.217,0.821-0.221,1.356-0.473,1.717
		c-9.27,13.314-24.121,18.533-38.054,14.506c-6.396-1.85-11.588-5.73-15.494-11.193c-2.771-3.875-5.933-7.652-6.54-12.543
		c-0.429-3.447-0.083-6.991-0.083-10.066c2.844-0.273,5.708,0.096,7.904-0.943c2.15-1.017,3.619-3.471,5.746-5.663
		c2.773,0.976,4.963,3.564,6.831,6.499c1.794,2.82,3.538,5.672,5.303,8.51c0.257-0.119,0.514-0.238,0.769-0.357
		c-0.742-1.957-1.343-3.984-2.27-5.848c-0.724-1.457-0.659-2.484,0.191-3.929c2.334-3.964,4.526-8.027,6.477-12.192
		c0.728-1.553,0.849-3.494,0.843-5.257c-0.005-2.017-1.056-2.709-3.009-2.286c-0.825,0.178-1.748,0.486-2.345,1.038
		c-2.751,2.543-5.419,5.167-6.708,8.846c-0.59,1.682-1.338,3.31-2.052,5.056c-1.778-0.409-2.634-1.195-2.176-3.041
		c2.187-8.796,6.985-15.458,15.606-18.887c4.146-1.647,8.395-3.035,13.292-4.79c-0.436,1.64-0.705,2.657-1.074,4.044
		c0.627-0.368,1.114-0.639,1.587-0.934c5.375-3.363,11.182-5.213,17.518-4.074c10.32,1.855,13.891,7.139,10.541,18.508
		c-1.326,4.499-4.754,8.48-7.643,12.386c-2.17,2.932-5.012,5.364-7.553,8.022C151.234,146.63,150.713,147.205,149.875,148.106z
		 M143.599,127.696c-0.097-0.025-0.193-0.05-0.289-0.075c-0.035-0.649-0.035-1.303-0.109-1.948
		c-0.394-3.398-3.097-4.821-6.014-3.057c-1.407,0.851-2.787,1.852-3.921,3.035c-4.822,5.028-7.368,11.15-8.104,18.016
		c-0.114,1.067,0.337,2.268,0.787,3.294c0.269,0.614,1.149,1.506,1.57,1.414c2.059-0.445,4.444-0.685,5.996-1.908
		c4.022-3.171,6.697-7.506,8.453-12.312C142.728,132.081,143.069,129.854,143.599,127.696z"/>
	<path fill-rule="evenodd" clip-rule="evenodd" fill="#FFFFFF" d="M189.072,134.713c-1.352-6.681-4.406-12.466-8.043-18.108
		c7.662,1.008,14.938,0.358,21.844-2.825c10.762-4.962,18.695-12.887,24.168-23.344c0.268-0.512,0.541-1.021,0.807-1.533
		c0.26-0.505,0.514-1.015,0.838-1.654c7.113,1.917,13.168,5.467,18.271,10.711c12.945,13.3,17.252,35.743,8.297,54.187
		c-2.885,5.943-6.785,11.177-11.99,15.438c-14.566,11.926-30.621,13.576-47.938,7.344c-4.389-1.579-7.768-4.589-11.15-7.614
		c-1.209-1.083-1.314-2.309-0.418-3.663c0.828-1.253,1.617-2.532,2.574-4.036c1.879,4.146,4.75,7.186,8.289,9.617
		c6.604,4.538,17.381,3.512,23.309-1.877c2.955-2.687,5.561-5.566,7.223-9.151c3.184-6.861,4.18-13.951,2.068-21.404
		c-2.113-7.467-6.988-12.202-14.141-14.577c-6.254-2.077-11.982-0.508-17.025,3.574C193.08,128.205,190.227,130.762,189.072,134.713
		z"/>
	<path fill-rule="evenodd" clip-rule="evenodd" fill="#FFFFFF" d="M153.102,304.927c-4.116-0.594-8.809,0.309-11.432-4.029
		c-1.969-3.253-2.144-6.668,1.354-9.974c0.147,0.349,0.441,0.7,0.404,1.012c-0.424,3.63,2.731,4.026,4.834,4.906
		c4.082,1.706,8.773,0.288,11.492-3.201c0.773-0.989,0.955-2.438,1.408-3.676c-0.223-0.109-0.443-0.218-0.662-0.327
		c-0.346,0.238-0.691,0.479-1.203,0.833c-0.352-1.185-0.65-2.202-1.049-3.552c3.662,0.468,6.33,2.091,8.469,4.638
		c2.693,3.206,0.088,6.038-1.031,9.304c4.74-3.29,9.682-2.271,14.404-1.765c4.775,0.513,9.592,1.384,14.174,2.799
		c6.799,2.098,12.889,5.622,17.668,11.096c5.611,6.424,5.35,14.646-0.383,20.956c-4.223,4.648-9.508,6.844-15.502,7.813
		c-5.488,0.885-10.934,0.742-16.354-0.537c-6.805-1.607-13.777-2.698-20.389-4.885c-7.283-2.41-14.574-5.194-20.446-10.479
		c-0.996-0.897-1.94-2.188-2.247-3.46c-1.752-7.267,0.199-13.936,3.651-20.721C143.91,306.119,148.397,306.112,153.102,304.927z
		 M180.305,301.425c-6.754-0.691-21.996,7.341-25.488,12.359C162.637,308.183,170.822,303.346,180.305,301.425z M171.152,307.059
		c-6.791,3.233-13.189,6.981-17.598,13.3C158.516,314.738,164.885,310.966,171.152,307.059z"/>
	<path fill-rule="evenodd" clip-rule="evenodd" fill="#FFFFFF" d="M102.545,293.167c-0.741-1.007-1.533-1.979-2.214-3.023
		c-1.678-2.571-1.207-5.495,1.128-7.348c1.579-1.252,2.621-1.127,3.431,0.663c0.633,1.403,0.917,2.959,1.436,4.421
		c0.18,0.509,0.517,1.017,0.912,1.393c3.232,3.064,9.995,4.185,14.074,2.432c1.77-0.76,2.521-1.742,1.373-3.615
		c-0.735-1.197-1.29-2.506-1.965-3.842c4.085,0.032,8.973,5.833,8.065,9.452c-0.642,2.562-2.624,3.912-5.082,4.017
		c-3.804,0.163-7.626-0.057-11.439-0.147c-0.711-0.017-1.419-0.187-2.258-0.304c1.714,1.956,4.502,2.97,9.367,2.671
		c3.251-0.202,6.455-1.168,9.96-1.847c1.904,4.393,3.525,9.267,2.816,14.479c-0.225,1.665-1.459,3.515-2.78,4.631
		c-1.778,1.503-3.985,2.658-6.188,3.475c-9.957,3.689-20.147,6.603-30.624,8.403c-7.454,1.281-14.988,1.832-22.271-0.642
		c-3.627-1.233-7.318-2.921-10.291-5.272c-3.454-2.732-4.041-7.263-4.165-11.458c-0.229-7.795,3.611-13.783,9.604-18.256
		c9.27-6.918,19.756-8.379,30.877-5.755c0.801,0.19,1.635,1.019,2.084,1.771C99.383,291.121,100.287,292.766,102.545,293.167z
		 M109.536,303.797c-3.875-5.645-9.962-8.83-16.023-11.594C98.793,296.023,104.29,300.001,109.536,303.797z M78.763,289.303
		c-0.042,0.238-0.083,0.478-0.123,0.716c6.827,0.64,12.435,4.353,18.434,7.121c-4.753-2.732-9.64-5.162-14.609-7.406
		C81.384,289.248,80.003,289.43,78.763,289.303z"/>
	<path fill-rule="evenodd" clip-rule="evenodd" fill="#FFFFFF" d="M155.432,251.078c-3.713,1.213-6.999,2.066-10.106,3.352
		c-5.257,2.173-10.425,4.565-15.575,6.987c-1.301,0.61-1.796,0.51-2.723-0.72c-1.88-2.496-4.168-4.685-6.288-6.998
		c-0.168,0.132-0.337,0.266-0.504,0.399c0.731,1.143,1.462,2.284,2.521,3.938c-7.644-1.352-13.526-5.048-19.185-9.246
		c2.785,4.415,7.554,6.449,11.598,9.337c-0.127,0.23-0.255,0.462-0.383,0.693c-0.817-0.256-1.667-0.433-2.445-0.775
		c-5.544-2.438-11.004-5.092-16.64-7.291c-2.82-1.102-5.957-1.392-8.94-2.047c0.763-2.396,1.683-5.294,2.672-8.402
		c0.638,0.714,1.262,1.412,1.728,1.933c-1.051-3.903-2.343-7.944-3.206-12.074c-1.647-7.899-0.633-15.535,3.125-22.705
		c0.548-1.044,1.626-2.048,2.701-2.538c5.373-2.451,11.134-2.898,16.944-2.835c9.759,0.107,18.995,2.459,27.737,6.749
		c0.979,0.48,1.943,1.266,2.562,2.154c4.539,6.521,7.93,13.585,9.285,21.468c0.463,2.698,0.395,5.488,0.6,8.701
		c-1.196-0.911-2.007-1.53-2.818-2.147c-0.186,0.173-0.37,0.347-0.556,0.518C150.096,243.275,152.658,247.023,155.432,251.078z
		 M109.617,218.494c0.232,1.141,0.381,3.354,1.152,5.325c1.758,4.496,7.177,5.175,10.071,1.355
		c3.485-4.601,3.664-9.751,2.065-15.034c-1.438-4.756-4.912-4.887-8.504-2.715C110.631,209.705,109.831,213.439,109.617,218.494z
		 M104.132,216.709c-0.399-2.161-0.641-3.714-0.979-5.247c-0.485-2.197-1.985-3.952-4.086-3.728
		c-1.963,0.209-4.491,1.181-5.545,2.68c-2.652,3.765-3.326,8.216-2.057,12.786c0.775,2.788,2.275,4.278,4.373,4.458
		c2.417,0.21,5.088-1.216,6.04-3.64C102.863,221.511,103.484,218.861,104.132,216.709z"/>
	<path fill-rule="evenodd" clip-rule="evenodd" fill="#FFFFFF" d="M174.197,109.982c-19.455-7.583-38.244-5.17-56.888,4.701
		c2.218-23.101,4.441-46.264,6.604-68.784c4.23-0.523,7.805-0.965,11.236-1.39C148.042,66.128,161.174,88.145,174.197,109.982z"/>
	<path fill-rule="evenodd" clip-rule="evenodd" fill="#FFFFFF" d="M196.65,227.12c0,2.76,0.016,5.52-0.004,8.279
		c-0.031,4.274-0.377,8.5-2.297,12.421c-0.412,0.841-0.844,1.707-1.447,2.408c-1.359,1.587-2.406,3.843-5.143,3.122
		c-2.631-0.689-4.264-2.952-4.205-6.051c0.061-3.176,0.652-6.364,0.457-9.515c-0.387-6.252-1.143-12.481-1.781-18.718
		c-0.062-0.623-0.369-1.218-0.814-1.805c-1.031,2.635,0.52,5.205,0.391,7.402c-2.041,0.57-3.889,0.985-5.666,1.604
		c-2.422,0.845-4.787,1.395-7.404,0.819c-5.459-1.199-8.162-7.007-5.434-11.895c0.682-1.225,1.617-1.739,3.029-1.517
		c2.199,0.345,4.416,0.578,6.615,0.93c0.469,0.075,0.889,0.458,1.525,0.803c1.178-1.109,2.703-2.803,4.48-4.172
		c3.373-2.6,6.596-5.706,10.42-7.341c5.422-2.317,11.328-2.914,16.932,0.154c0.48,0.263,0.93,0.696,1.225,1.16
		c3.65,5.745,6.076,11.863,6.635,18.777c0.217,2.687,1.668,5.297,2.701,7.884c1.309,3.271,2.865,6.443,4.125,9.731
		c0.916,2.39,0.154,4.251-2.396,5.857c-2.777-5.126-5.539-10.224-8.303-15.32c-0.146,0.042-0.291,0.083-0.438,0.124
		c0.408,1.361,0.645,2.806,1.26,4.068c2.055,4.216,4.254,8.36,6.371,12.547c0.352,0.694,0.842,1.494,0.766,2.19
		c-0.125,1.137-0.332,2.763-1.092,3.234c-1.852,1.146-4.076,1.062-5.951-0.198c-3.309-2.23-6.186-4.918-8.002-8.568
		c-2.582-5.188-4.754-10.507-5.318-16.355c-0.068-0.728-0.377-1.433-0.574-2.149C197.092,227.063,196.871,227.091,196.65,227.12z
		 M200.098,205.966c0,3.999,0,7.519,0,11.36C202.182,214.562,202.238,208.901,200.098,205.966z M206.74,217.081
		c1.303-3.018-0.072-8.031-2.508-10.187C205.045,210.19,205.84,213.422,206.74,217.081z M194.938,215.059
		c1.58-3.669,2.057-7.418,1.227-9.121C194.758,209.544,194.162,213.489,194.938,215.059z"/>
	<path fill-rule="evenodd" clip-rule="evenodd" fill="#FFFFFF" d="M106.457,13.193c3.812-2.668,6.354,0.967,9.684,0.93
		c-0.671-0.482-1.343-0.964-1.974-1.417c2.327-5.214,9.013-9.053,14.645-8.373c-0.809,1.062-1.57,2.063-2.321,3.048
		c3.108,0.171,5.842,0.085,8.489,0.519c4.688,0.768,8.553,3.055,10.604,7.52c0.719,1.566,0.715,3.465,0.655,5.397
		c-2.851-2.498-5.643-4.584-9.425-5.071c6.302,3.281,10.856,7.852,11.517,15.247c0.15,1.694-0.144,3.427-0.562,5.17
		c-0.957-3.341-1.197-6.885-4.683-9.521c0.696,1.817,1.263,3.154,1.724,4.526c1.89,5.618,0.143,10.538-3.176,15.012
		c-1.449,1.954-2.019,1.771-3.226-0.257c-0.332-0.557-0.739-1.068-1.09-1.615c-0.312-0.486-0.593-0.993-0.8-1.344
		c1.071-1.404,2.107-2.762,3.144-4.121c-0.176-0.138-0.351-0.276-0.525-0.415c-0.438,0.496-0.893,0.978-1.312,1.49
		c-3.831,4.699-8.601,2.286-11.103-0.993c-2.206-2.893-2.907-6.174-2.565-9.939c-3.271,4.545,1.138,12.806,7.739,14.695
		c-2.412,1.585-4.696,1.125-6.729-0.197c-1.923-1.251-3.585-2.9-5.689-4.253c0.741,1.142,1.294,2.49,2.267,3.378
		c1.467,1.335,1.433,2.933,0.802,4.324c-0.349,0.773-1.757,1.299-2.775,1.495c-4.042,0.781-7.996-1.711-9.901-6.087
		c-0.393-0.903-0.701-1.844-1.07-2.829c-1.907,1.999-1.872,4.546-0.317,9.432c-1.357-1.034-3.041-1.826-4.013-3.144
		c-3.434-4.657-4.325-9.839-2.073-15.292c1.079-2.613,2.477-5.094,3.851-7.88c-2.431,1.202-4.708,2.328-6.987,3.455
		c-0.166-0.231-0.332-0.462-0.498-0.694c0.997-2.691,2.705-4.926,5.043-6.622c2.763-2.003,5.593-4.207,9.208-1.123
		c0.086-0.245,0.173-0.491,0.259-0.736c-0.977-0.755-1.882-1.64-2.951-2.229C109.223,14.073,107.965,13.756,106.457,13.193z"/>
	<path fill-rule="evenodd" clip-rule="evenodd" fill="#FFFFFF" d="M55.911,139.733c-0.539-1.224-1.023-2.476-1.627-3.666
		c-1.504-2.96-1.231-6.134,1.066-8.533c3.432-3.584,6.993-7.045,10.5-10.558c0.303,0.055,0.606,0.11,0.909,0.165
		c0.339,1.054,1.042,2.143,0.944,3.153c-0.274,2.858-0.643,5.75-1.411,8.508c-0.86,3.084-0.187,5.818,0.931,8.614
		c1.229,3.073,2.701,6.107,3.432,9.302c0.449,1.957-0.078,4.24-0.563,6.281c-0.492,2.069-1.474,4.021-2.242,6.025
		c0.144,0.11,0.289,0.22,0.433,0.33c0.619-0.756,1.237-1.515,1.855-2.271c2.53,1.915,3.026,6.499,1.132,10.476
		c-2.4,5.042-8.088,7.737-13.707,6.374c1.932-1.659,3.805-3.267,5.678-4.874c-0.146-0.173-0.292-0.347-0.438-0.521
		c-4.691,3.16-9.778,4.385-15.319,3.01c-0.724-0.18-1.72-0.909-1.854-1.54c-0.595-2.812-0.986-5.674-1.29-8.535
		c-0.053-0.498,0.547-1.28,1.053-1.582c2.433-1.45,3.741-3.484,3.879-6.34c0.087-1.78,3.146-3.256,4.76-2.483
		c4.464,2.139,7.154,5.918,9.275,10.142c0.572,1.139,0.463,2.62,0.651,3.845c1.234-1.002,1.233-4.36,0.019-6.678
		c-2.015-3.846-5.452-6.061-9.079-8.018c-1.293-0.697-1.988-1.275-1.627-2.917c0.502-2.284-0.127-4.406-1.555-6.319
		c-0.702-0.941-1.171-2.055-1.389-3.435c1.689,0.844,3.375,1.688,5.063,2.531C55.564,140.057,55.737,139.895,55.911,139.733z"/>
	<path fill-rule="evenodd" clip-rule="evenodd" fill="#FFFFFF" d="M103.493,172.16c-3.196-0.814-6.424-1.525-9.583-2.465
		c-6.081-1.806-12.12-3.75-18.184-5.614c-1.115-0.342-1.383-0.993-1.593-2.157c-0.364-2.013-1.284-3.919-1.894-5.894
		c-0.285-0.924-0.731-1.986-0.521-2.844c1.375-5.624-0.181-10.705-2.54-15.704c-0.84-1.776-1.484-3.643-2.392-5.906
		c7.933-1.143,15.271-2.201,22.907-3.303c0.152,0.556,0.343,1.203,0.507,1.855c0.593,2.354,1.209,4.704,1.75,7.069
		c0.234,1.022,0.634,2.161,0.404,3.112c-2.662,10.966,0.849,20.055,8.357,27.938c1.022,1.074,2.308,1.897,3.472,2.837
		C103.953,171.443,103.723,171.801,103.493,172.16z"/>
	<path fill-rule="evenodd" clip-rule="evenodd" fill="#FFFFFF" d="M67.354,130.402c0.471-2.718,0.729-5.202,1.362-7.586
		c0.668-2.52,1.314-4.916-0.917-7.21c2.913-1.805,5.603-3.458,8.277-5.133c2.629-1.648,5.198-3.403,7.895-4.931
		c0.794-0.45,2.057-0.647,2.895-0.357c8.095,2.809,16.354,4.066,24.897,2.957c1.404-0.183,2.781-0.57,4.066-0.84
		c0,2.2,0.002,4.341-0.004,6.482c-0.002,0.215-0.159,0.475-0.084,0.636c1.278,2.705-0.858,4.076-2.234,5.726
		c-2.639,3.163-4.523,6.681-5.217,10.782c-0.083,0.488-0.226,0.966-0.354,1.445c-0.013,0.047-0.122,0.068-0.298,0.16
		c0-2.273,0.052-4.492-0.021-6.707c-0.038-1.142-0.213-2.296-0.478-3.41c-0.815-3.435-3.171-5.134-6.537-5.694
		c-3.557-0.591-6.016,1.209-7.829,3.874c-1.113,1.633-1.632,3.664-2.492,5.48c-0.231,0.486-0.69,1.146-1.123,1.211
		C82.1,128.346,75.031,129.322,67.354,130.402z"/>
	<path fill-rule="evenodd" clip-rule="evenodd" fill="#FFFFFF" d="M134.522,311.568c-0.304-5.256-1.228-10.238-3.983-14.767
		c-0.24-0.393-0.294-0.955-0.282-1.438c0.135-5.636-2.632-10.11-8.105-12.216c-2.075-0.799-3.14-2.03-3.837-3.939
		c-1.922-5.266-3.883-10.516-5.805-15.708c1.741-1.645,5.725-1.311,2.671-5.529c0.304,0.089,0.607,0.178,0.911,0.266
		c0.725,0.173,1.441,0.396,2.175,0.51c1.165,0.178,2.418,0.075,3.491,0.475c1.246,0.467,2.548,1.154,3.433,2.108
		c0.721,0.776,0.863,2.091,1.254,3.137c0.189,0.052,0.329,0.134,0.453,0.115c4.151-0.655,4.314-0.728,6.005,3.103
		c2.493,5.646,4.479,11.528,7.165,17.075c1.537,3.171,1.875,5.504-0.581,8.396c-1.052,1.238-0.719,3.673-0.969,5.567
		c-0.173,1.302-0.02,2.696-0.44,3.9C137.02,305.65,135.723,308.593,134.522,311.568z"/>
	<path fill-rule="evenodd" clip-rule="evenodd" fill="#FFFFFF" d="M55.604,117.978c-0.218-0.088-0.358-0.112-0.458-0.19
		c-3.187-2.482-3.111-2.45-1.342-6.43c3.074-6.918,6.044-13.883,9.058-20.828c0.278-0.638,0.557-1.276,0.942-2.157
		c3.112,3.094,5.855,6.265,9.056,8.876c3.202,2.612,6.86,4.664,10.49,7.075c-0.678,0.535-1.511,1.302-2.446,1.912
		c-4.294,2.798-8.611,5.562-12.938,8.311c-0.532,0.337-1.259,0.824-1.75,0.695C62.121,114.154,58.694,115.504,55.604,117.978z"/>
	<path fill-rule="evenodd" clip-rule="evenodd" fill="#FFFFFF" d="M152.6,71.292c-4.284-7.587-8.31-14.717-12.436-22.025
		c3.256-1.752,4.544-4.509,5.752-7.382c0.913-2.17,2.274-4.161,3.099-6.358c1.259-3.352,0.168-6.637-0.821-9.866
		c-0.265-0.864-0.626-1.698-1.119-3.009C156.705,33.896,159.801,55.137,152.6,71.292z"/>
	<path fill-rule="evenodd" clip-rule="evenodd" fill="#FFFFFF" d="M42.18,131.931c1.279,0.852,3.692-0.672,3.19,2.167
		c-2.305-0.781-4.39-1.777-6.582-2.149c-2.116-0.359-4.342-0.078-6.837-0.078c-1.486-2.189-0.628-7.428,1.857-9.563
		c3.295-2.832,7.275-4,11.392-4.855c1.266-0.262,2.562-0.381,3.844-0.569c2.027-0.296,3.737,0.292,4.87,2.022
		c1.209,1.848,1.149,3.721,0,5.679c-2.18,3.714-5.838,5.147-9.576,6.514C43.683,131.337,43.036,131.6,42.18,131.931z"/>
	<path fill-rule="evenodd" clip-rule="evenodd" fill="#FFFFFF" d="M32.439,155.638c1.278,1.09,2.479,2.293,3.86,3.231
		c0.984,0.669,1.242,1.25,0.675,2.281c-0.45,0.819-0.778,1.704-1.199,2.54c-1.078,2.139-1.711,2.42-3.248,0.729
		c-3.668-4.032-6.586-8.45-5.25-14.366c0.625-2.765,2.004-4.189,4.754-4.059c3.141,0.15,6.331,0.477,9.362,1.259
		c1.766,0.455,3.48,1.726,4.837,3.027c2.834,2.718,1.824,6.978-1.833,8.456c-2.611,1.056-5.124,0.606-7.467-0.764
		c-1.423-0.833-2.719-1.879-4.073-2.83C32.718,155.309,32.578,155.474,32.439,155.638z"/>
	<path fill-rule="evenodd" clip-rule="evenodd" fill="#FFFFFF" d="M37.43,133.645c5.477,0.769,10.776,3.665,13.928,9.737
		c1.46,2.812,0.74,5.958-1.461,7.127c-0.456,0.244-1.509,0.162-1.786-0.178c-3.824-4.694-8.91-6.023-14.681-5.869
		c-4.503,0.12-4.791-0.261-4.854-4.814C28.526,135.996,31.583,133.613,37.43,133.645z"/>
	<path fill-rule="evenodd" clip-rule="evenodd" fill="#FFFFFF" d="M150.16,175.455c-0.369,7.213-7.465,12.531-13.518,10.286
		c-1.44-0.535-3.329-1.969-3.535-3.229c-0.293-1.795,1.272-3.504,3.216-4.13c1.673-0.539,3.449-0.756,5.179-1.115
		c0.112,0.178,0.225,0.354,0.337,0.531c-0.594,0.984-1.188,1.97-1.783,2.953C142.984,178.22,145.7,175.406,150.16,175.455z"/>
	<path fill-rule="evenodd" clip-rule="evenodd" fill="#FFFFFF" d="M51.468,204.064c3.601-3.648,6.92-5.977,11.571-5.287
		c3.116,0.464,4.847,4.932,2.889,7.446c-1.896,2.429-4.913,3.47-7.708,2.152C55.944,207.304,53.934,205.668,51.468,204.064z"/>
	<path fill-rule="evenodd" clip-rule="evenodd" fill="#FFFFFF" d="M208.316,203.092c-8.949-3.317-17.389-3.583-25.203,3.329
		c-0.283-3.467,1.74-5.108,3.621-6.264c4.004-2.465,8.338-4.294,13.248-4.018C204.186,196.376,207.33,198.908,208.316,203.092z"/>
	<path fill-rule="evenodd" clip-rule="evenodd" fill="#FFFFFF" d="M120.688,133.746c-0.658-0.731-1.193-1.889-1.939-2.048
		c-2.114-0.451-2.841,1.508-3.828,2.831c-0.539,0.72-0.836,1.619-1.382,2.719c-0.331-0.569-0.676-0.896-0.614-1.097
		c1.7-5.568,3.732-10.95,8.996-14.255c0.606-0.38,1.633-0.819,2.064-0.561c0.496,0.297,0.749,1.335,0.761,2.057
		C124.814,127.49,122.829,130.788,120.688,133.746z"/>
	<path fill-rule="evenodd" clip-rule="evenodd" fill="#FFFFFF" d="M96.012,258.407c-4.928-1.063-8.123-4.059-11.035-7.78
		C92.885,249.598,95.199,250.927,96.012,258.407z"/>
	<path fill-rule="evenodd" clip-rule="evenodd" fill="#FFFFFF" d="M42.733,160.759c0.418,3.309,0.82,6.488,1.226,9.695
		c-3.737-0.189-5.623-1.588-5.42-3.899C38.947,161.87,39.958,160.404,42.733,160.759z"/>
	<path fill-rule="evenodd" clip-rule="evenodd" fill="#FFFFFF" d="M144.601,259.872c-0.336-1.052-0.656-2.055-1.069-3.352
		c4.099-1.406,8.099-2.779,12.101-4.149C152.76,256.106,149.443,259.016,144.601,259.872z"/>
	<path fill-rule="evenodd" clip-rule="evenodd" fill="#FFFFFF" d="M64.773,117.034c-2.875,2.549-5.751,5.096-8.504,7.535
		c-0.084-1.213-0.146-2.552-0.279-3.886c-0.204-2.061,0.75-3.392,2.692-3.756c1.983-0.372,4.026-0.422,6.042-0.612
		C64.74,116.555,64.758,116.794,64.773,117.034z"/>
	<path fill-rule="evenodd" clip-rule="evenodd" fill="#FFFFFF" d="M66.359,80.575c-3.151-2.431-3.93-7.684-1.708-10.446
		c1.912,0.985,2.473,2.11,2.875,5.904c-0.845-1.53-1.614-2.921-2.382-4.312c-0.177,0.062-0.354,0.124-0.53,0.186
		C65.531,74.689,68.08,77.226,66.359,80.575z"/>
	<path fill-rule="evenodd" clip-rule="evenodd" fill="#FFFFFF" d="M101.808,129.682c-2.171-2.628-2.457-4.802-0.997-7.187
		c0.575-0.937,1.156-1.218,2.029-0.337C104.543,123.878,103.931,128.441,101.808,129.682z"/>
	<path fill-rule="evenodd" clip-rule="evenodd" fill="#FFFFFF" d="M51.82,130.128c-0.575,1.337-1.151,2.674-1.912,4.443
		c-0.975-0.759-1.739-1.21-2.28-1.849c-0.195-0.232-0.015-1.179,0.263-1.343c1.07-0.632,2.25-1.08,3.388-1.594
		C51.459,129.898,51.64,130.013,51.82,130.128z"/>
	<path fill-rule="evenodd" clip-rule="evenodd" fill="#FFFFFF" d="M68.775,75.442c-0.701-1.895-1.242-3.362-2.013-5.45
		c0.998,0.327,1.914,0.359,2.385,0.833C70.561,72.246,69.759,73.681,68.775,75.442z"/>
	<path fill-rule="evenodd" clip-rule="evenodd" fill="#FFFFFF" d="M37.106,167.59c-1.945-0.88-1.467-3.158,1.198-5.959
		C37.879,163.741,37.505,165.604,37.106,167.59z"/>
	<path fill-rule="evenodd" clip-rule="evenodd" fill="#FFFFFF" d="M39.367,83.544c0.797,4.168-0.496,6.045-4.055,6.831
		c-4.132,0.912-7.714,0.142-10.638-3.022c-2.855-3.087-2.839-5.372,0.389-8.176c0.173,4.021,1.661,7.519,5.479,8.716
		C34.172,89.031,36.955,86.612,39.367,83.544z"/>
	<path fill-rule="evenodd" clip-rule="evenodd" fill="#FFFFFF" d="M25.909,80.799c4.117-1.153,7.658,0.34,9.365,3.454
		c0.607,1.109,0.321,1.682-0.686,2.245c-2.507,1.401-5.016,0.85-6.774-1.746C27.037,83.605,26.587,82.237,25.909,80.799z"/>
	<path fill-rule="evenodd" clip-rule="evenodd" fill="#FFFFFF" d="M28.125,64.913c2.069-1.94,4.539-2.014,6.277-0.351
		c4.118,3.944,5.617,8.893,5.146,14.598c-0.394-1.122-0.718-2.274-1.196-3.359c-1.266-2.875-2.52-5.762-3.933-8.567
		c-0.889-1.764-2.5-2.506-4.502-2.327C29.39,64.953,28.856,64.913,28.125,64.913z"/>
	<path fill-rule="evenodd" clip-rule="evenodd" fill="#FFFFFF" d="M37.624,84.729c-3.113-3.883-6.586-5.896-11.371-5.416
		c-0.046-0.247-0.093-0.494-0.14-0.741c0.75-0.402,1.463-1.043,2.257-1.165c3.618-0.551,8.301,2.88,9.503,5.584
		C38.075,83.444,37.721,84.144,37.624,84.729z"/>
	<path fill-rule="evenodd" clip-rule="evenodd" fill="#FFFFFF" d="M35.855,102.76c2.079-2.615,1.985-5.735,2.151-8.83
		c0.086-1.588-0.52-3.523,2.012-4.777c-0.104,2.313-0.031,4.344-0.329,6.316c-0.364,2.41-1,4.781-1.598,7.151
		c-0.292,1.16-0.755,2.28-2.4,1.526c0.071-0.495,0.14-0.977,0.206-1.454C35.894,102.698,35.855,102.76,35.855,102.76z"/>
	<path fill-rule="evenodd" clip-rule="evenodd" fill="#FFFFFF" d="M35.175,57.078c3.805,0.172,6.331,7.694,3.848,12.542
		c-0.365-1.393-0.772-2.273-0.802-3.167C38.062,61.806,37.828,60.957,35.175,57.078z"/>
	<path fill-rule="evenodd" clip-rule="evenodd" fill="#FFFFFF" d="M27.594,66.785c0.299,0.54,0.562,1.02,0.832,1.497
		c1.225,2.166,2.914,2.902,5.355,2.518c0.551-0.086,1.178,0.303,1.77,0.474c-0.512,0.408-1.115,1.239-1.522,1.153
		c-2.278-0.486-4.612-0.963-6.722-1.906C25.926,69.902,26.132,68.733,27.594,66.785z"/>
	<path fill-rule="evenodd" clip-rule="evenodd" fill="#FFFFFF" d="M34.226,69.216c-2.733,1.05-4.335,0.176-5.586-2.937
		C31.277,65.008,33.259,66.008,34.226,69.216z"/>
	<path fill-rule="evenodd" clip-rule="evenodd" fill="#FFFFFF" d="M244.303,310.247c0.213,0.599,0.281,1.316,0.662,1.774
		c2.068,2.49,2.311,5.025,0.336,7.681c-2.654-0.729-3.836-3.002-3.123-6.124c1.877,0.823,1.908,0.886,2.398,4.85
		c1.176-1.725,1.176-1.725-2.555-6.851c-1.48,2.559-1.707,6.075,0.248,7.481c2.031,1.458,4.715,2.01,7.154,2.976
		c-1.035,1.771-2.848,1.8-4.717,1.222c-3.27-1.009-5.357-3.666-6.023-6.604c-0.637-2.82,0.986-5.566,3.57-7.324
		c0.76,0.356,1.439,0.678,2.119,0.996C244.373,310.323,244.303,310.247,244.303,310.247z"/>
	<path fill-rule="evenodd" clip-rule="evenodd" fill="#FFFFFF" d="M239.865,181.527c1.697-0.206,3.236-0.394,4.979-0.606
		c-1.357,3.698-2.57,7.151-3.93,10.545c-0.201,0.504-1.035,0.866-1.652,1.066c-1.572,0.51-3.234,0.757-4.768,1.354
		c-2.545,0.99-3.432,2.598-2.99,5.282c0.34,2.059,0.879,4.084,1.305,6.128c0.934,4.474-0.039,6.143-4.367,7.553
		c-4.012,1.305-4.227,1.248-6.289-1.815c1.584-0.359,3.123-0.622,4.607-1.066c3.828-1.141,4.66-3.187,2.297-6.352
		c-4.32-5.782-1.807-9.45,4.232-10.593c0.424-0.079,0.84-0.205,1.258-0.313c3.641-0.953,4.705-2.201,5.014-5.982
		C239.701,185.018,239.764,183.301,239.865,181.527z"/>
	<path fill-rule="evenodd" clip-rule="evenodd" fill="#FFFFFF" d="M60.405,276.935c-4.159,5.853-5.366,6.113-9.078,2.036
		c1.692-1.154,3.346-2.362,5.077-3.442C58.173,274.422,59.34,275.401,60.405,276.935z"/>
	<path fill-rule="evenodd" clip-rule="evenodd" fill="#FFFFFF" d="M29.557,42.919c3.329,0.145,4.116,0.682,3.832,2.742
		c-0.067,0.49-0.456,1.28-0.79,1.331c-2.047,0.315-4.118,0.505-6.187,0.595c-0.247,0.011-0.729-0.817-0.763-1.281
		C25.468,43.8,26.673,42.793,29.557,42.919z"/>
	<path fill-rule="evenodd" clip-rule="evenodd" fill="#FFFFFF" d="M233.9,23.717c2.719-2.042,6.826-1.527,8.219,1.224
		c0.436,0.86-0.443,2.386-0.807,3.997C238.602,27.028,236.336,25.432,233.9,23.717z"/>
	<path fill-rule="evenodd" clip-rule="evenodd" fill="#FFFFFF" d="M27.878,17.125c1.213,1.444,3.028,2.781,2.81,3.518
		c-0.438,1.489-1.759,3.056-3.141,3.817c-1.073,0.591-3.966-2.626-3.401-4.002C24.647,19.243,26.272,18.489,27.878,17.125z"/>
	<path fill-rule="evenodd" clip-rule="evenodd" fill="#FFFFFF" d="M55.088,11.705c0.241,0.475,0.747,0.993,0.678,1.417
		c-0.54,3.345-1.973,4.617-5.755,5.146c0.429-2.354,1.438-4.117,3.646-5.157c0.598-0.283,1.006-0.972,1.501-1.477
		C55.159,11.632,55.088,11.705,55.088,11.705z"/>
	<path fill-rule="evenodd" clip-rule="evenodd" fill="#FFFFFF" d="M237.885,254.464c-2.447,2.159-4.568,4.091-6.777,5.914
		c-0.336,0.279-1.316,0.293-1.576,0.022c-0.312-0.324-0.432-1.283-0.178-1.619c0.906-1.199,1.979-2.28,3.041-3.352
		c0.961-0.97,1.99-1.868,3.137-2.937C236.184,253.038,236.814,253.568,237.885,254.464z"/>
	<path fill-rule="evenodd" clip-rule="evenodd" fill="#FFFFFF" d="M214.281,291.35c1.275-0.963,2.295-1.746,3.328-2.51
		c1.777-1.313,3.746-0.937,4.789,1.011c0.189,0.353,0.039,1.103-0.23,1.456c-1.672,2.191-4.074,2.604-6.4,1.163
		C215.297,292.178,214.879,291.802,214.281,291.35z"/>
	<path fill-rule="evenodd" clip-rule="evenodd" fill="#FFFFFF" d="M30.895,109.447c-1.729-0.387-4.002,1.417-4.707-1.447
		c-0.329-1.335-0.506-3.211,1.477-3.741C29.187,103.851,30.755,106.288,30.895,109.447z"/>
	<path fill-rule="evenodd" clip-rule="evenodd" d="M143.599,127.696c-0.53,2.158-0.871,4.385-1.63,6.459
		c-1.756,4.806-4.431,9.14-8.453,12.312c-1.552,1.224-3.938,1.463-5.996,1.908c-0.421,0.092-1.302-0.8-1.57-1.414
		c-0.45-1.026-0.901-2.227-0.787-3.294c0.735-6.866,3.281-12.988,8.104-18.016c1.134-1.183,2.514-2.184,3.921-3.035
		c2.917-1.764,5.62-0.341,6.014,3.057c0.074,0.645,0.074,1.298,0.109,1.948C143.406,127.646,143.502,127.671,143.599,127.696z
		 M126.28,144.126c0.44-1.047,0.571-1.609,0.878-2.048c1.423-2.037,2.609-4.36,4.421-5.972c2.146-1.907,4.304-0.787,4.508,2.052
		c0.102,1.419-0.108,2.861-0.192,4.589c4.344-4.591,6.395-9.833,6.606-15.661c0.051-1.391-1.278-3.179-2.479-4.171
		c-1.241-1.025-2.516,0.249-3.48,1.261c-1.628,1.706-3.326,3.354-4.844,5.154C128.25,133.422,126.71,138.261,126.28,144.126z"/>
	<path fill-rule="evenodd" clip-rule="evenodd" d="M180.305,301.425c-9.482,1.921-17.668,6.758-25.488,12.359
		C158.309,308.766,173.551,300.733,180.305,301.425z"/>
	<path fill-rule="evenodd" clip-rule="evenodd" d="M171.152,307.059c-6.268,3.907-12.637,7.68-17.598,13.3
		C157.963,314.04,164.361,310.292,171.152,307.059z"/>
	<path fill-rule="evenodd" clip-rule="evenodd" d="M109.536,303.797c-5.246-3.796-10.743-7.773-16.023-11.594
		C99.574,294.967,105.661,298.152,109.536,303.797z"/>
	<path fill-rule="evenodd" clip-rule="evenodd" d="M78.763,289.303c1.241,0.127,2.622-0.055,3.701,0.431
		c4.97,2.244,9.856,4.674,14.609,7.406c-5.999-2.769-11.607-6.481-18.434-7.121C78.68,289.78,78.721,289.541,78.763,289.303z"/>
	<path fill-rule="evenodd" clip-rule="evenodd" d="M109.617,218.494c0.214-5.055,1.014-8.789,4.784-11.068
		c3.592-2.172,7.066-2.041,8.504,2.715c1.599,5.283,1.42,10.434-2.065,15.034c-2.894,3.819-8.313,3.141-10.071-1.355
		C109.998,221.849,109.85,219.635,109.617,218.494z M110.655,217.151c-0.363,3.139,0.27,5.821,2.296,8.035
		c2.051,2.238,4.663,2.113,6.417-0.311c3.09-4.262,3.551-9.094,2.5-14.042c-0.765-3.59-4.447-4.703-7.227-2.36
		C111.914,210.771,110.317,213.646,110.655,217.151z"/>
	<path fill-rule="evenodd" clip-rule="evenodd" d="M104.132,216.709c-0.648,2.152-1.27,4.802-2.255,7.31
		c-0.952,2.424-3.623,3.85-6.04,3.64c-2.098-0.18-3.598-1.67-4.373-4.458c-1.269-4.57-0.596-9.021,2.057-12.786
		c1.055-1.499,3.582-2.471,5.545-2.68c2.101-0.225,3.601,1.53,4.086,3.728C103.492,212.995,103.733,214.548,104.132,216.709z
		 M91.783,219.312c0.131,1.209,0.135,2.091,0.334,2.926c0.503,2.115,1.415,4.243,3.685,4.644c2.189,0.384,3.72-1.299,4.829-3.069
		c2.509-4.005,2.736-8.296,1.185-12.663c-0.963-2.712-3.549-3.406-5.938-1.732C92.291,211.934,92.291,215.897,91.783,219.312z"/>
	<path fill-rule="evenodd" clip-rule="evenodd" d="M200.098,205.966c2.141,2.936,2.084,8.597,0,11.36
		C200.098,213.484,200.098,209.965,200.098,205.966z"/>
	<path fill-rule="evenodd" clip-rule="evenodd" d="M206.74,217.081c-0.9-3.659-1.695-6.891-2.508-10.187
		C206.668,209.05,208.043,214.063,206.74,217.081z"/>
	<path fill-rule="evenodd" clip-rule="evenodd" d="M194.938,215.059c-0.775-1.569-0.18-5.515,1.227-9.121
		C196.994,207.641,196.518,211.39,194.938,215.059z"/>
	<path fill-rule="evenodd" clip-rule="evenodd" fill="#FFFFFF" d="M126.28,144.126c0.431-5.865,1.971-10.705,5.418-14.795
		c1.518-1.8,3.216-3.448,4.844-5.154c0.965-1.012,2.239-2.286,3.48-1.261c1.2,0.992,2.529,2.78,2.479,4.171
		c-0.212,5.828-2.263,11.07-6.606,15.661c0.084-1.728,0.294-3.169,0.192-4.589c-0.204-2.839-2.361-3.959-4.508-2.052
		c-1.812,1.611-2.998,3.935-4.421,5.972C126.851,142.518,126.72,143.079,126.28,144.126z"/>
	<path fill-rule="evenodd" clip-rule="evenodd" fill="#FFFFFF" d="M110.655,217.151c-0.338-3.505,1.259-6.381,3.987-8.678
		c2.779-2.343,6.462-1.229,7.227,2.36c1.052,4.948,0.591,9.78-2.5,14.042c-1.754,2.424-4.367,2.549-6.417,0.311
		C110.925,222.973,110.292,220.29,110.655,217.151z"/>
	<path fill-rule="evenodd" clip-rule="evenodd" fill="#FFFFFF" d="M91.783,219.312c0.508-3.415,0.508-7.379,4.096-9.896
		c2.389-1.674,4.974-0.979,5.938,1.732c1.551,4.367,1.324,8.658-1.185,12.663c-1.109,1.771-2.64,3.453-4.829,3.069
		c-2.27-0.4-3.182-2.528-3.685-4.644C91.918,221.403,91.914,220.521,91.783,219.312z"/>
</g>
</svg>
