<?xml version="1.0" encoding="utf-8"?>
<!-- Generator: Adobe Illustrator 15.1.0, SVG Export Plug-In . SVG Version: 6.00 Build 0)  -->
<!DOCTYPE svg PUBLIC "-//W3C//DTD SVG 1.1//EN" "http://www.w3.org/Graphics/SVG/1.1/DTD/svg11.dtd">
<svg version="1.1" id="Lager_1" xmlns="http://www.w3.org/2000/svg" xmlns:xlink="http://www.w3.org/1999/xlink" x="0px" y="0px"
	 width="300px" height="350px" viewBox="0 0 300 350" enable-background="new 0 0 300 350" xml:space="preserve">
<g id="XMLID_1_">
	<g>
		<path d="M290.21,231.41c0,1.21,0,2.43,0,3.64c-0.931,5.25-1.09,14.49-2.521,23c-1.08,6.421-1.671,16.33-6.171,18.79
			c-1.869,1.021-4.608,0.51-6.449,1.12c-0.551,3.47-1.221,6.81-3.359,8.69c-9.53,1.35-19.71,1.318-30.57,0.56
			c-17.89-1.25-36.489,0.34-54.97,0c-9.55-0.17-19.22,0.28-28.88,0.28c-9.37,0-18.8-0.61-28.04-0.561
			c-6.92,0.039-14.11,0.84-21.311,0.84c-7.26,0-14.39,0.189-21.6,0c-6.82-0.17-13.92-0.49-20.75-0.279
			c-6.89,0.22-13.88,1.14-20.19,0.84c-3.85-0.17-11.75-0.49-13.46-1.96c-2.06-1.771-1.029-4.36-1.68-8.13
			c-12.98,1.33-12.9-11.41-15.71-21.59c-2.35-8.551-3.19-16.98-4.76-23c0-1.4,0-2.801,0-4.211c1.51-3.619,5.62-4.649,8.41-7.01
			c-3.57-0.021-6.7-3.221-4.21-6.729c-3.631-2.33-0.24-7.41,3.09-7.851c1.29-0.261,1.149,0.899,1.68,1.399
			c0.61-1.95,3.64-1.53,5.33-1.681c-1.1-8.149,3.03-15.311,12.06-15.141c2.07-5.3,10.57-6.64,16.261-3.648
			c2.26-4.32,4.359-8.131,3.93-13.74c-0.3-3.88-1.74-6.15-1.41-10.09c0.53-6.31,5.24-7.91,9.26-12.9c1.75-2.18,3.12-5.13,4.771-7.58
			c1.649-2.46,3.39-4.49,5.04-6.73c-6.16-1.74-15.05-8.66-10.65-16.54c10.54-2.01,17.79,3.1,16.54,12.9
			c3.48-0.85,7.45-0.57,10.38,0.56c-0.39-4.21-0.45-7.02,1.12-9.25c4.11-5.84,15.42-1.03,15.14,5.32
			c-0.239,5.54-6.67,5.72-10.369,8.42c2.649,4.12,5.17,9.37,7.569,14.86c1.67,3.83,3.99,7.53,5.33,11.22
			c1.4,3.89-0.72,7.94-0.28,12.339c0.29,2.939,1.931,6.199,2.801,9.529c2.34,8.98,2.489,19.592,2.239,31.131
			c2.631-1.511,1.58-4.42,1.971-8.141c0.189-1.88,1.18-3.85,1.12-5.04c-0.11-2.18-1.681-3.771-1.681-5.89
			c-0.01-3.08,2.221-9.7,3.36-12.061c1.24-2.57,4.17-3.541,5.89-6.171c1.271-1.948,1.86-4.51,2.24-6.729
			c1.09-6.25-1.39-12.04-1.12-18.51c0.3-7.06,4.71-9.16,8.42-12.62c1.53-1.43,3.07-3.73,4.48-5.33c1.149-1.3,4.77-4.48,4.77-5.04
			c-0.02-0.39-2.29-1.97-2.81-2.53c-4.391-4.76-2.16-10.16-0.561-15.98c0.78-2.82,0.851-6.45,3.65-6.73
			c5.95,4.26,9.021,16.59,4.49,24.12c3.21-0.23,5.779,0.19,7.569,1.4c-0.479-11.51,4.33-17.73,13.46-19.63
			c1.279,5.11,1.33,11.81-0.84,15.7c-2.021,3.62-6.101,4.56-8.979,6.73c1.67,2.29,2.22,5.31,3.93,7.85
			c1.99,2.97,5.58,4.83,7.852,7.86c1.909,2.54,2.59,5.34,2.81,8.41c0.49,6.89-2.43,15.24-1.13,22.43c1.29,7.1,8.74,10.979,8.7,18.79
			c-0.03,4.659-1.511,7.31-4.771,8.409c0.721,0.779,1.83-1.549,2.801-0.561c0.869,0.07-0.431,2.311,0.851,1.971
			c2.319,1.5,4.81-0.08,7.569,0.279c1.979,0.25,3,1.45,4.479,2.521c1.8-1.312,1.54-3.91,1.97-6.45c0.602-3.58,2.32-7.25,2.24-9.25
			c-8.34,1.11-8.22-8.58-9.53-15.431c0.771-0.879,1.472-3.649,3.921-4.199c1.079-0.24,2.551,0.52,3.931,0.279
			c2.39-0.42,3.31-2.069,5.05-1.971c2.24,0.131,3.189,2.311,3.92,1.971c-0.78-4.621-0.22-9.549-0.56-14.021
			c-0.211-2.78-1.28-5.26-1.4-7.58c-0.54-9.8,10.25-13.04,14.86-18.5c1.489-3.56,4.01-6.09,6.729-8.42
			c-3.609-2.81-9.18-9.81-5.33-15.7c3.07-4.69,12.24,0.5,13.46,4.21c1,3.021-0.34,5.73,0,9.53c1.41,0,2.812,0,4.21,0
			c0.49-7.61,3.352-15.9,11.78-14.58c1.51,0.23,3.021,1.43,3.641,2.8c2.931,6.4-2.569,14.98-9.529,14.58
			c3.21,3.04,3.479,7.81,5.33,12.62c1.46,3.81,5.21,7.39,5.329,11.78c4.5,2.55,6.381,6.61,5.601,12.9c-0.45,3.7-3.44,6.5-3.36,9.541
			c0.03,1.391,1.48,3.551,2.24,6.17c0.67,2.279,0.92,5.431,1.69,7.01c0.56,1.16,1.84,1.66,2.238,2.801
			c0.36,1.01,0.021,2.43,0.28,3.65c0.83,3.908,3.05,7.209,1.96,10.648c-0.38,1.2-2.05,1.95-2.8,3.37c-0.29,2.75,0.13,6.17,1.96,5.89
			c1.29-1.89,1.08-5.279,4.21-5.33c0.46-4.31,2.62-6.908,4.76-9.539c0.63,0.5,0.57,1.689,1.13,2.25
			c1.82-1.271,3.262-2.91,6.45-2.811c-1.68,3.79,3.391,3.99,2.8,8.98c4.222,0.539,4.58,4.948,6.171,8.129
			c-0.971,0.99-3.511,0.42-3.931,1.961c2.37-0.271,0.9,1.64,0.28,2.25C287.89,224.2,289.55,227.3,290.21,231.41z M281.8,275.721
			c5.271-12.711,7.45-31.08,6.729-47.961c-1.229-1.898-4.199-4.41-6.17-1.68c0.67,0.17,2.04-0.35,2.25,0.279
			c-23.989,1.359-48.399-2.521-72.92-1.399c-5.489,0.25-10.801-0.04-16.261,0c-25.779,0.2-52.86-0.79-78.8,0
			c1.63,3.46,6.12,0.8,9.25,2.521c-1.87,0-3.74,0-5.61,0c-0.069,1.91,4.07,3.351,3.09,6.17c-2.21,0.341-2.62-1.119-4.21-1.399
			c-1.199,3.38-3.17,5.979-7.01,6.729c-0.79-0.521-1.51-1.101-1.4-2.521c-2.63,1.33-5.29,4-9.529,2.8
			c-0.75-1.979,0.2-4.898-0.29-5.89c-3.87,2.67-12.931,0.25-7.29-4.21c-1.36-1.021-2.03-3.09-2.521-4.2
			c-3.199,0.729-5.819,2.03-8.41,3.36c-3.64-1.04-7.579-1.771-9.26-4.762c-18.85,0.352-36.779,1.28-55.24,1.682
			c-0.21-1.19,2.4-1.44,0.841-2.24c-2.57,2.189-6.301,3.23-8.13,6.16c1.569,17.12,4.92,32.47,10.369,45.71
			c2.28,1.66,5.11,2.06,8.141,2.25c7.74,0.479,17.2,0,25.51,0.28c4.26,0.14,7.97-0.221,10.66-0.562c7.05-0.89,14.31,0.562,21.59,0
			c0.82-0.46-0.44-1.45,0.28-1.688c0.89,0.238,0.01,2.238,1.689,1.688c1.561,0.44,0.11-2.14,1.4-1.97c0,0.66,0,1.311,0,1.97
			c43.46-0.6,85.76,1.16,126.75,0.28c0.16-0.5-0.34-1.65,0.28-1.689c0.619,0.039,0.119,1.189,0.279,1.689
			c18.08-0.021,36.199,0.71,52.439,0c0.561-0.2-0.069-1.57,0.561-1.689c0.561,0.199-0.17,1.68,0.851,1.409
			C274.96,277.26,278.99,276.609,281.8,275.721z M282.64,220.75c1.021-1.04,1.99-2.12,4.21-1.96c-0.369-2.25-2.33-2.899-2.239-5.61
			c-1.869-1.31-4.841-1.52-7.58-1.96c1.301-0.108,2.609-0.2,3.649-0.56c0.03-3.21-1.229-5.131-3.93-5.61
			c0.3-0.83,1.42-0.83,1.13-2.25c-3.08,0.29-4.28,2.46-7.021,3.091c0.239-0.33,0.37-0.75,0.279-1.399
			c-2.25,1.67-3.148,4.688-4.199,7.569c1.811,0.521,3.359,1.311,4.479,2.521c1.6-1.021,2.75,0.81,3.93,1.12
			c1.29-0.67,3.721-1.69,5.61-0.84c-2.4,0.13-4.431,0.619-5.891,1.68c0.511,0.811,2.061,0.561,1.681,2.25
			c1.239-0.03,2.029,0.41,2.529,1.12c0.271,1.399-0.58,1.67-0.84,2.521c1.67,1.279,4.439,1.311,5.601-0.561
			C283.13,221.95,282.69,221.54,282.64,220.75z M281.52,225.8c-0.71-3.239-5.148-1.659-6.17-3.37c1.46-0.41,3.45-0.279,3.37-2.238
			c-0.64-1.041-3.35-0.021-3.09-1.961c-4.09-0.539-4.18,4.09-4.21,6.729c-1.181-0.69-1.13-2.61-3.08-2.53
			c-0.26,0.94,1.01,1.771,0.28,2.25c-1.48-1.42-6.841-2.619-7.011,0.84C268.53,225.55,275.74,226.16,281.52,225.8z M274.51,217.391
			c-0.04-2.07-2.29-3.121-3.93-1.971c-0.21-3.37-7.73-3.08-6.73,1.12c3.15-0.74,6.881-0.07,7.86,2.25
			C272.78,218.46,273.48,217.76,274.51,217.391z M271.42,285.811c1.359-1.92,2.28-4.271,2.53-7.291
			c-9.682-0.85-19.812,0.371-29.45-0.278c-0.13,2.579,0.42,5.84-1.12,7.01c0.57-1.86,0.16-4.71,0.28-7.01
			c-1.36,0.12-0.03,2.5-1.12,2.239c-0.33-0.689,0.13-2.181-0.84-2.239c-11.82-0.79-24.892,0.55-37.301,0
			c-4.051-0.181-8.279-0.562-12.341-0.562c-8.119,0-16.47,1.17-24.67,0.84c-24.77-1-49.81-0.459-75.438-0.56
			c-1.2-0.01-2.971-0.61-3.931,0.56c-0.24-0.408-0.42-0.89-1.12-0.84c-7.449,0.762-14.85-0.31-22.71,0.562
			c-0.05,1.27,1,2.909,0.28,3.93c-1.26-0.62,0.1-3.84-1.96-3.649c-1.02,0.41,0.73,1.83-0.28,2.239c-0.97-0.34-0.18-2.438-1.41-2.52
			c-9.5,0.31-19.75-0.33-29.439,0.278c-0.04,1.592,0.31,5.07,0.84,7.012c11.24,3.14,24.91,0.529,37.86,1.119
			c18.47,0.841,40.88,0.069,59.17-0.561c0.17-0.85-0.36-2.41,0.279-2.8c0.61,0.51-0.05,2.29,0.561,2.8
			c18.95,0.641,36.46,0.65,55.24,0.28c0.18-0.851-0.36-2.41,0.279-2.8c0.891,0.42-0.159,2.779,1.409,2.52
			c1.73,0.521,0.852-1.58,1.682-1.96c-0.062,0.899,0.489,1.181,0.279,2.24C215.87,285.609,244.56,287.7,271.42,285.811z M270.86,223
			c-0.29-1.891,0.561-2.63,0.561-4.21c-7.32-4.81-13.271,3.33-17.939,6.45c2.721-0.2,4.569,0.47,7.289,0.279
			c0.33-0.881,0.48-1.949,1.12-2.521c1.761-0.649,4.17-0.78,5.61,0.28c0.16-0.5-0.34-1.65,0.279-1.69
			C269.58,221.29,269.56,222.8,270.86,223z M257.96,211.5c4.85-0.82,5.04-8.04,2.529-12.62c-0.659,1.511,0.061,4.53-0.279,5.61
			c-2.45-3.141,1.17-9.36-1.4-12.061c-3.688-2.029-6.449,0.5-8.699,2.239c0.301-1.38,1.521-1.84,2.25-2.8
			c-1.779-0.88-3.069-3.63-5.051-3.93c-4.09-0.621-3.35,3.318-2.25,6.449c-1.1,3.351-1.909,7.439,0,10.379
			C246.24,206.57,255.35,211.939,257.96,211.5z M258.53,220.189c0.45-1.229,2.33-1.029,2.521-2.521c-0.87-1.229-2.5-2.739-4.49-1.97
			c-0.979-3.23-8.14-2.33-7.85,1.41c0.229,0.979,1.71,0.709,1.68,1.959c-1.75,0.301-3.3,0.811-3.64,2.521
			c2.81,0.181,3.5,2.49,5.609,3.37c1.859-1.41,3.771-2.77,5.319-4.49c-0.5-1.18-2.22-1.14-2.52-2.52
			c0.409-0.16,1.449,0.318,1.398-0.28c-0.31-1.09-1.819-0.989-2.239-1.97c0.779,0.25,1.71,0.35,2.239,0.84
			C256.72,218.25,257.39,219.46,258.53,220.189z M259.09,215.141c0.26-0.529,0.09-2.58-0.28-3.359c-3.34,1.46-5.64-0.74-8.14-2.25
			c-2.5-1.512-5.24-2.59-6.45-4.48c-2.479-3.91-0.39-5.949-0.279-10.38c0.051-1.851-1.199-3.21-0.841-5.05
			c1.17-5.939,9.15-0.15,10.381,1.97c1.199-0.39,1.539-1.64,1.96-2.81c0.79,0.75-0.421,2.039,0.561,2.25
			c0.689-0.04,1.35-0.051,1.68,0.279c-0.25-4.49-4.148-9.569-3.92-14.021c0.12-2.38,2.24-4.43,2.8-6.74
			c1.921-7.89-2.09-14.55-8.13-15.98c1.33-0.12,2.021,0.41,3.08,0.56c-4.05-7.82-6.01-17.72-11.49-24.12
			c-0.85-0.17-2.42,0.36-2.81-0.28c4.42-0.75,9.88-1.07,12.06-4.48c2.551-4,2.32-11.86-2.8-11.78c-7,0.11-9.26,8.55-10.1,14.86
			c-1.521-0.54-3.94-0.17-5.891-0.28c-0.2-3.57,0.471-6.27,0.279-9.81c-1.35-2.6-8.39-8.51-11.49-4.77
			c-1.528,1.84-1.21,6.18-0.278,8.69c1.239,3.38,4.97,5.19,6.438,7.85c-4.5,1.15-5.34,5.29-8.41,8.42
			c-4.909,5.01-11.949,8.16-13.739,14.3c-0.891,3.07,0.461,5.86,0.841,8.97c0.68,5.54-0.312,12.03,0.279,18.79
			c0.311,3.59,0.489,9.898-1.399,12.619c0.229-4.92,2.859-15.949-3.08-16.539c-2.16-0.221-2.61,1.1-4.49,1.68
			c-0.438,1.48,0.84,2.689,0.28,3.359c-1.181-0.311-0.891-2.101-1.4-3.08c-9.449-2.471-5.14,11.841-3.09,16.541
			c5.84,2.13,14.37,1.34,15.71-4.2c-0.05,4.899-4.76,6.33-8.979,6.17c-1.12,4.3-2.79,8.04-2.801,13.46
			c2.619-0.73,4.721,0.92,7.011,1.4c0.83-3.94,3.81-5.721,6.17-8.131c-1.29-1.521-0.61-6.181,0.56-7.851
			c0.53-0.771,1.17-0.26,2.24-1.13c1.67-1.35,2.8-3.74,4.49-5.04c3-2.319,4.12-1.101,7.85-0.851
			c3.681,0.261,7.84-0.801,11.221,0.851c1.079,6.021,4.729,9.47,6.17,15.14c-1.079,1.25-2.779,1.9-3.649,3.36
			c0.189,2.729-0.33,5.229,0,7.29c-0.38,1.109-1.93,1.061-2.521,1.97c4.939-0.18,9.051,0.48,14.021,0.28
			c-1.72-2.88,1-6.439,4.771-6.17C255.83,212.79,257.13,215.4,259.09,215.141z M238.33,224.4c4.359-0.24,8.58,1.14,12.62,0.279
			C248.43,221.35,241.29,221.66,238.33,224.4z M246.75,219.63c-3.75,0.17-8.03-0.55-10.94-0.28c-0.34,0.062-0.17,0.312,0,0.562
			C238.22,220.68,244.79,221.141,246.75,219.63z M240.58,222.15c-1.87-0.711-3.86,0.75-5.051,0.56
			c0.091-0.99,0.771-0.69,0.279-1.681c-0.909-0.489-2.979,0.181-3.358-0.84c1.39-0.109,1.84-1.149,1.68-2.801
			c0.86-0.35,2.2-0.229,2.24-1.408c-1.312-1.61-5.11-0.61-7.011-0.28c0.471-1.021,1.841-1.15,1.96-2.521
			c-2.069-0.529-4.29,1.09-5.04,2.801c1.431,1.75,3.921,4.8,2.239,7.858C233.07,224.43,238.24,224.96,240.58,222.15z M236.93,208.13
			c1.24-0.72,2.562-1.37,3.09-2.8c-1.75-5.189-5.199-8.801-6.17-14.021c-2.21-0.52-6.14-1.619-8.14-0.56
			c-2.25-0.601-4.66-0.89-8.13-0.851c-2.062,2.24-4.66,3.939-6.17,6.729c-0.65-0.09-1.07,0.05-1.4,0.29
			c-0.92,1.87-2.569,5.58-0.84,7.57c2.109-1.26,3.34-3.391,6.17-3.932c0.2-3.068,0.57-5.97,2.24-7.568
			c-0.511,2.38-1.65,4.14-1.4,7.289c2.641-0.271,5.931-0.891,8.13,0.279c-1.46,2.65-3.85,4.381-4.76,7.57
			c2.601,1.04,3.54,3.75,5.601,5.33c2.881-3.109,0.939-11.02,5.33-12.62c-3.08,2-2.881,8-1.12,11.22
			c0.761,0.172,2.229-0.358,2.521,0.28c0.17,0.91-0.189,1.3-0.28,1.96c1.771-0.52,3.551,0.271,4.771,0
			c0.398-3.39-0.812-6.67,0-9.529C236.95,205.5,236.97,206.79,236.93,208.13z M228.8,212.62c-0.35-0.86-0.3-2.13-1.12-2.53
			c-0.34,1.811-3.01,3.65-1.97,5.051C226.45,214.01,227.55,213.24,228.8,212.62z M227.68,223.84c1.57-3.811-1.359-5.279-3.09-8.42
			c-3.29-5.979-10.01-11.84-13.74-2.52c0.69,1.09,2.301,2.75,2.25,3.64c-3.529-5.84-8.68,2.36-5.89,7.86
			C214.52,224.33,220.55,223.45,227.68,223.84z M223.19,200.561c-10.801-0.461-16.62,6.199-20.471,12.619
			c0.761,1.391,2.351,1.95,3.36,3.08c1.438-0.81,1.949-2.539,3.93-2.8c0.42-4.38,3.83-7.16,8.979-5.89
			C219.5,204.35,221.78,202.891,223.19,200.561z M197.39,224.4c2.9,0,5.801,0,8.69,0c-0.051-2.211-1.08-4.551-0.28-6.73
			c-2.45-3.12-8.93-7.439-13.18-3.65C195.34,216.35,193.4,223.34,197.39,224.4z M193.75,224.12c0.35-4.79-0.62-10.11-3.931-11.5
			c-8.079-3.399-12.67,8.87-19.909,9.81c-2.75,0.36-5.181-1.289-7.57,0c0.62,2.34,3.78,1.41,5.61,1.41
			C176.45,223.84,186.37,223.68,193.75,224.12z M182.25,211.779c-1.41-0.459-3.12-0.329-4.21,0.279c0.04-0.988,0.8-1.26,0.84-2.25
			c-1.41,0.19-1.391,1.791-2.8,1.971c-0.23-0.709,0.54-2.42-0.562-2.25c-1.659,2.551-1.949,6.471-2.239,10.381
			C176.48,217.42,179.81,215.04,182.25,211.779z M180.01,205.05c2.79-9.38-7.17-15.521-8.42-22.72
			c-1.771-10.23,4.67-22.21-1.399-30.56c-1.489-2.06-3.979-3.08-5.609-4.77c-3.37-3.5-4.511-8.3-6.73-11.78
			c8.61-1.7,13.45-12.35,10.102-21.31c-7.511,3.07-12.41,9.56-11.221,20.47c-2.41-1.51-6.229-1.63-9.529-2.24
			c3.89-7.44,1.92-20-4.49-23.56c-1.38,4.95-5.79,11.98-3.65,17.95c0.95,2.63,4,3.72,5.05,6.45c-2.239,2.61-4.369,5.04-6.729,7.85
			c-2.29,2.72-5.63,4.41-7.85,7.01c-4.931,5.77-1.091,13.88-1.4,22.15c-0.18,4.57-1.5,8.18-3.09,12.06
			c-6.521,3.63-11.45,16.642-6.17,24.4c1.699,0.399,4.279,0.96,6.17,0.28c1.08-1.83,0-3.371-0.561-5.051
			c1.271,0.771,2.601,1.409,4.49,0.84c4.45-6.569-2.67-12.771-3.93-17.101c3.17,3.67,9.33,11.87,4.21,17.66
			c-0.74,0.271-2.4,0.55-3.09,0c1.92,6.22-5.851,5.12-8.69,3.93c-0.27,2.351-0.79,4.45-0.56,7.29c2.83-2.71,11.279-2.29,14.58,0.561
			c0.319-1.551,1.09-2.649,2.81-2.801c1.07,1.36,1.78,0.521,3.64,0.842c0.7,0.229-0.319,2.188,0.841,1.959
			c2.42-0.289,4.109-0.971,5.329,0.841c1.261-1.591,4.061-2.5,5.61-0.841c1.53-0.811,2.271-2.399,3.08-3.92
			c1.79-1.399,3.69,0.891,5.05,0.561c-0.77-3.689,0.23-7.49,2.812-8.7c0.438,0.22,0.42,0.892,1.12,0.851
			c0.119-1.279,1.46-1.34,2.52-1.689c0.78,1.68,3.271,0.05,4.21,1.689c0.28,1.399-0.87,1.369-0.84,2.521
			c1.24,0.16,2.17,0.62,2.8,1.399c-0.319,2.149,2.3,2.149,3.09,3.931c-0.229-1.16,0.432-1.44,0.28-2.53
			c-1.33-1.529-3.45-3.26-2.81-5.89c-4.381-1.97-5.19-11.59,0.84-12.33c0.2-1.021,0.109-2.33,0.56-3.09
			c0.88,0.43,0.471,2.149,0.57,3.37c-5.28,0.5-5.601,8.58-1.69,10.93c2.24,0.38,2.841-0.9,4.21-1.4
			c-0.479,1.58-2.05,2.062-3.648,2.521c0.56,3,1.42,5.689,5.609,5.05C178.21,207.38,179.61,206.391,180.01,205.05z M172.43,220.75
			c-0.39-2.18,0.812-4.23,0-5.891c-0.68,0.631-0.17,2.449-1.12,2.811c-0.479-0.92-0.27-2.54-1.119-3.09
			c-0.58,0.449-0.351,1.71-0.841,2.25c-0.358-1.141-0.909-2.09-2.239-2.25c-0.409,1.34,1.17,0.699,0.841,1.96
			c-1.771,0.01-3.25,0.31-3.932,1.41c1.312,0,2.62,0,3.932,0c0.6,1.26,1.67,2.06,1.96,3.64
			C170.82,221.38,171.65,221.08,172.43,220.75z M171.59,215.141c3.13-2.091,0.391-5.649-2.521-5.33
			c0.149-0.681,1.08-0.59,0.841-1.681c-0.471-1.3-2.86-0.688-3.65-1.68c0.561-0.851,1.229-1.58,1.69-2.521
			c-1.87-1.271-3.312,1.399-4.49,0.84c0.14-0.511,1.95-1.729,0.56-1.971c-1.818,0.42-2.028,2.46-3.358,3.37
			c-0.23-0.97,0.409-1.08,0.279-1.96c-1.66-0.1-3.66,4.37-2.25,6.45c3.04-3.41,10.239-0.92,10.939,3.08
			C171.02,213.471,170.74,214.87,171.59,215.141z M162.06,223.561c-2.84-4.619,4.562-1.41,7.011-1.971
			c-0.189-3.3-3.771-3.01-6.17-2.8c0.159-1.899,1.21-2.91,3.359-2.81c0.71-0.48-0.71-1.98,0.57-2.24
			c1.09-0.061,1.449,0.6,2.239,0.84c-2.239-7.551-13.359-4.59-12.899,3.09c1.01,0.24,1.87-1.1,2.521-0.279
			c0.561,0.909-0.699,1.979-1.12,2.801c1.149-0.03,2.211,0.039,2.239,1.119c0.37,1.489-1.369,0.869-1.119,2.25
			C159.27,223.93,161.51,224.09,162.06,223.561z M157.29,223c0.25-0.971,1.859-0.57,1.68-1.971c-1.55-0.579-2.75,1.091-3.08,0
			c0.4-1.18,1.67-1.51,1.96-2.799c-1.569,0.02-1.89,1.278-3.08,1.68c-0.648-1.25-2.52-1.71-3.93-1.4
			c-0.07-0.859-0.61-1.26-0.84-1.97c-0.9-0.16-0.87,0.53-1.4,0c0.19-0.86,0.19-0.53,0-1.399c-2.12-0.82-3.729,0.83-5.05,1.689
			c-0.39-0.92-0.9-1.721-2.24-1.689c-1.729,1.359-3.28,2.899-4.21,5.051c-2.21-0.03-4,1.438-3.08,3.648
			c5.01-0.119,9.38,0.04,14.86,0c0.32-1.369-0.53-3.01,0-3.648c0.3,0.729,0.68,1.379,0.56,2.52c1.45-0.24,2.05-2.8,3.92-1.68
			c-1.189,0.76-2.949,0.979-3.081,2.81c2.621,0,5.23,0,7.851,0C158.57,222.84,157.18,223.67,157.29,223z M155.61,218.51
			c-0.391-2.91,0.729-4.318,1.399-6.17c-1.22-1.97-5.779-1-3.649,1.68c-3.279,0.041-3.68,1.78-1.96,3.65
			C153.58,217.18,154.17,219.109,155.61,218.51z M139.34,215.7c-1.311-0.431-1.59,0.899-2.24,0.28c0.021-0.91,0.8-1.07,0.561-2.24
			c-1.41-0.2-2.051,0.38-3.08,0.56c0-0.47,0-0.93,0-1.399c-1.561,0.131-2,1.369-2.53,2.521c1.02,1.32,2.31,2.37,2.81,4.21
			C137.86,219.83,137.24,216.41,139.34,215.7z M133.45,223.561c-1.57-1.181,0.479-2.899,0.85-3.931
			c-3.47-9.149-22.11-8.01-19.91,4.49C120.55,223.41,126.91,224.939,133.45,223.561z M118.87,231.13c1.58,0.47,2.29,1.83,4.21,1.96
			c-1.42-6.29-12.32-5.64-9.261-14.02c-0.72-0.58-2.67,0.06-3.079-0.84c0.09-0.66,0.97-0.521,0.84-1.4c-3,0.08-4.15,2.02-6.17,3.08
			c-0.5-0.37,0.619-1.78-0.841-1.68c-0.47,1.209-0.939,2.42-1.399,3.64c1.24,0.438,1.99,1.37,2.24,2.81
			c-3.181,2.74-8.58-2.029-13.181,0.28c-0.42,2.84,2.12,2.61,3.09,3.36c-1.01,1.35-3.069,2.77-2.529,4.77
			c3.75,0.83,7.109-0.34,9.819-1.398c-0.699,1.828-1.79,4.959-0.56,7.01c4.27,0.16,5.87-2.352,8.69-3.65
			c0.649,0.66,0.39,2.23,1.119,2.811C115.84,237.26,117.13,233.96,118.87,231.13z M112.7,218.23
			c0.079-7.791,0.579-16.25-0.841-24.961c-1.01-6.189-4.39-12.279-4.21-17.67c0.11-3.16,1.551-5.95,0.851-8.97
			c-0.51-2.15-2.29-4.54-3.37-6.73c-2.44-4.93-4.07-9.3-6.45-14.3c-0.41-0.87-3.9-6.45-3.93-6.45c0.21-1.66,6.1-3.01,7.859-4.21
			c1.381-0.95,3.44-3.2,3.08-5.61c-0.39-2.65-5.439-6.14-9.25-5.61c-2.949,0.41-4.01,2.76-5.33,4.771c-0.08,2.36,0.11,5.82,0,7.29
			c-3.489-1.14-8.29-1.47-12.34-0.56c1.76-10.85-5.96-14.74-15.42-13.18c-2.06,9.44,6.68,12.7,12.62,15.98
			c-5.81,3.65-7.21,10.95-12.06,15.71c-2.42,2.37-6.19,4.8-7.29,8.13c-1.311,3.96,0.489,8.28,0.84,12.62
			c0.47,5.89-1.91,10.09-3.931,14.86c11.811-2.41,12.761,8.33,22.721,8.7c1.35-1.54,4.72-2,5.319,0.56
			c1.311-0.279,3.641,0.25,5.33-0.279c0.351,0.681,0.24,1.82,1.12,1.961c5.92,0.31,10.92-1.79,14.87-2.521
			c-4.57,3.4-14.01,4.07-21.03,2.521c-0.64-0.86-0.989-2-1.97-2.521c-4.67-0.34-4.51,5.24-3.36,8.41c1.2-0.12,2.301-1.8,3.641-0.84
			c-3.07,0.84-5.521,3.52-4.76,7.29c-1.021,1.14-1.74,4.05-1.69,5.33c0.95-2.142,1.68-4.49,3.93-5.33
			c0.971-0.229,1.08,0.42,1.96,0.28c3.94-2.7,8.021-5.262,14.58-5.33c1.03,0.47,1.261,1.729,1.971,2.52
			c2.55-2.029,6.29-4.359,10.369-3.92c0.131,1.15-1,1.051-1.119,1.96c1.93-0.26,5.05-0.489,5.609,1.399
			c-0.39,0.791-1.45,0.91-2.24,0.561c0.36,0.852,1.181,1.26,1.4,2.25c-1.88,0.08-0.92,3-2.81,3.08c-0.95-0.26-1.73-0.689-1.681-1.96
			c-0.93,0-0.96,0.91-1.96,0.84c-0.17,2.32,1.011,3.29,2.521,3.931c1.54-1.08,2.779-2.461,5.609-2.25
			C113.09,216.41,111.42,218.07,112.7,218.23z M106.53,209.25c1.091,0.02,3.11,1.2,3.65,0c-2.18-1.45-6.29,0.32-8.13,0
			c0.4-1.141,4.02-1.87,2.8-2.8c-2.81,1.62-7.83,2.409-8.13,5.608c1.55-0.408,3.29-0.64,5.05-0.84c1.07,0.33,0.891,1.91,1.96,2.24
			c0.561-0.561,0.82-1.42,1.681-1.68c0.609,0.88,0.76,2.229,1.68,2.8c1.45-0.562,0.46-1.86,0.28-3.08
			c0.83-0.08,0.87,0.63,1.689,0.56C108.9,210.439,106.69,210.87,106.53,209.25z M91.67,220.75c7.26-1.05,5.95,4.6,12.62,3.93
			c-0.061-1.619-1.29-2.08-2.24-2.81c1.229-3.021,1.62-6.94-0.28-9.53c-2.12-0.148-3.58,0.352-5.05,0.84
			c-0.83,0.67-0.08,2.91-1.12,3.36c-1.45-1.04-4.34-2.47-6.17-1.399c-0.3-6.109-6.28,0.101-6.45,1.689
			c-1.56-1.16-2.6-2.83-4.77-3.37c-3.97,2.08-4.55,8.24-2.521,12.06c2.271-0.64,4.511,2.03,7.29,1.682
			c2.79-0.352,4.29-4.29,5.891-5.33C89.57,221.41,90.35,220.939,91.67,220.75z M90.27,214.02c2.3-0.34,4.05,1.36,5.33,1.121
			c-0.04-2.66,0.08-5.449-2.25-7.011c-5.04,1.13-9.64,2.7-12.899,5.61c0.869,0.439,1.47,1.148,2.25,1.68
			C83.48,212.75,89.29,209.141,90.27,214.02z M98.12,223.279c-2.96-2.829-10.23-1.971-11.221,1.961
			C89.77,223.71,94.15,223.7,98.12,223.279z M86.9,200.279c0.28-1.779-3.279-1.189-4.199-0.84
			C83.93,199.88,85.25,200.25,86.9,200.279z M74.84,208.689c0.28-0.939,1.13-1.301,1.41-2.239c-2.101-1.521-1.33-5.47-0.561-7.851
			c-2.569,0.601-2.479-0.511-4.489-0.841c0.02,1.24-0.41,2.021-1.12,2.521c1.09,1.811,1.93,3.871,3.359,5.33
			c-0.39-0.891-0.42-2.51,0.28-3.09c0.26,1.061,0.68,3.42,0.28,4.211C73.02,204.63,73.98,208.471,74.84,208.689z M72.32,219.91
			c1.04,0.199,1.24-0.439,1.12-1.4C72.65,218.561,72.25,219,72.32,219.91z M70.92,219.63c6.53-6.909,0.93-18.21-5.891-20.75
			c1.57,0.3,2.761,0.97,3.931,1.681c-1.25-8.34-10.58-13.311-18.79-8.971c0.27-1.13,1.56-1.24,2.24-1.97
			c-4.74-1.851-10.95-2.261-14.021,1.409c-0.47,0.701-0.81,1.541-0.84,1.961c-7.9,0.229-12.92,4.84-12.34,12.619
			c0.31-1.101,1.569-2.721,2.24-2.529c-4.46,4.08-6.091,16.62-0.841,21.04c13.271-0.49,29.381-1.479,43.75-0.841
			c0.69-2.789-0.899-4.869-1.399-7.299C70.06,216.75,70.63,218.05,70.92,219.63z M69.8,199.721c1.3-1.33-0.6-3.49-1.41-3.371
			C69.12,197.221,69.22,198.71,69.8,199.721z M20.72,222.15c1.94,0.84,3.1,4.068,5.33,1.97c-1.73-0.979-2.42-3.011-3.36-4.771
			c-1.81-0.399-4.72-0.369-5.89-0.561c1.56-0.87,4.38,0.08,5.89-0.28c-1.199-2.938,0.16-6.77,0.561-9.819
			c-2.33-1.051-3.62,1.211-5.05,1.971c-0.2-0.641-0.25-1.439-0.561-1.971c-2.54,0.641-4.1,2.271-4.49,5.051
			c0.87,0.439,1.84,0.779,2.24,1.68c-0.83,0.939-1.06,2.49-1.4,3.93C14.62,221.6,18.34,221.13,20.72,222.15z"/>
		<path fill="#FFFFFF" d="M288.53,227.76c0.721,16.881-1.46,35.25-6.729,47.961c-2.811,0.891-6.84,1.539-10.09,1.119
			c-1.021,0.271-0.29-1.21-0.851-1.41c-0.63,0.12,0,1.49-0.561,1.69c-16.24,0.71-34.359-0.021-52.439,0
			c-0.159-0.5,0.341-1.649-0.279-1.69c-0.62,0.041-0.12,1.19-0.28,1.69c-40.99,0.88-83.29-0.88-126.75-0.28c0-0.66,0-1.311,0-1.97
			c-1.29-0.17,0.16,2.409-1.4,1.97c-1.68,0.551-0.8-1.449-1.689-1.689c-0.721,0.24,0.54,1.229-0.28,1.689
			c-7.28,0.561-14.54-0.89-21.59,0c-2.69,0.34-6.4,0.7-10.66,0.561c-8.31-0.279-17.77,0.199-25.51-0.279
			c-3.03-0.189-5.86-0.59-8.141-2.25c-5.449-13.24-8.8-28.59-10.369-45.71c1.829-2.931,5.56-3.97,8.13-6.16
			c1.56,0.8-1.051,1.05-0.84,2.24c18.46-0.4,36.39-1.33,55.239-1.681c1.681,2.989,5.62,3.721,9.261,4.76
			c2.59-1.329,5.21-2.629,8.409-3.359c0.49,1.109,1.16,3.18,2.521,4.2c-5.641,4.46,3.42,6.88,7.29,4.21
			c0.49,0.99-0.46,3.91,0.29,5.891c4.24,1.199,6.899-1.471,9.529-2.801c-0.109,1.42,0.61,2,1.4,2.521
			c3.84-0.75,5.811-3.352,7.01-6.73c1.59,0.28,2,1.74,4.21,1.4c0.98-2.82-3.159-4.262-3.09-6.17c1.87,0,3.74,0,5.61,0
			c-3.13-1.721-7.62,0.938-9.25-2.521c25.939-0.79,53.021,0.2,78.8,0c5.46-0.04,10.771,0.25,16.261,0
			c24.521-1.12,48.931,2.76,72.92,1.4c-0.21-0.631-1.58-0.11-2.25-0.28C284.33,223.35,287.3,225.859,288.53,227.76z M287.41,230.01
			c0.09-1.029-0.431-1.439-1.12-1.689C286.44,229.1,286.26,230.221,287.41,230.01z M285.73,242.34
			c0.229-0.439,1.061-1.71,0.279-2.24C286.09,240.859,284.84,241.7,285.73,242.34z M285.45,229.721
			c0.079-0.729-0.392-0.921-1.12-0.841C284.24,229.62,284.71,229.8,285.45,229.721z M278.72,275.15
			c-0.06-0.621-0.81-1.961-1.41-1.121C277.97,274.221,278.06,274.96,278.72,275.15z M272.27,228.88
			c0.61,0.07,1.511,1.271,1.961,0.562C273.73,229.26,272.84,228.061,272.27,228.88z M272.27,241.5c-0.47,0-0.938,0-1.409,0
			c-0.069,0.74,0.109,1.21,0.851,1.12C271.5,241.859,272.26,242.061,272.27,241.5z M269.74,272.91c1.399,0.92,3.271-0.68,2.25-2.24
			C270.48,270.66,269.74,271.41,269.74,272.91z M269.18,228.6c0.04,0.99,1.261,0.801,1.96,1.121
			C271,228.85,270.1,228.71,269.18,228.6z M256,229.16c0.029-0.86-0.851-0.83-1.681-0.84c0,0.279,0,0.56,0,0.84
			C254.97,229.08,255.48,228.62,256,229.16z M234.69,228.04c6.181-0.511,11.779,1.239,17.391,0.84
			c-7.471-1.83-16.11-0.938-25.24-1.399C229.16,229.15,232.31,228.24,234.69,228.04z M215.9,227.48
			c-1.92-0.15-4.721-0.48-5.891,0.84C211.25,228.43,214.2,227.84,215.9,227.48z M207.21,228.88c0.09-0.87-1.3-1.489-1.41-0.56
			C206.34,228.439,206.31,229.12,207.21,228.88z M203.56,229.16c0.102-1.21-0.77-1.471-1.68-1.68
			C201.78,228.71,202.95,228.66,203.56,229.16z M201.32,228.88c-2.109-2.01-8.141-1.271-12.619-1.12
			C192.57,228.48,197.64,227.98,201.32,228.88z M192.62,260.29c0.29-0.931-0.381-0.92-1.12-0.84
			C191.42,260.189,191.89,260.37,192.62,260.29z M191.22,259.17c0.21-0.96-1.069-1.09-1.12-0.279
			C190.67,259.05,190.65,259.73,191.22,259.17z M189.26,235.33c0.74,1.07,2.561,1.46,3.08,0c-0.76-0.721-1.39-1.59-2.521-1.96
			C189.87,234.26,189.08,234.311,189.26,235.33z M178.04,226.641c0.02,0.819,0.1,1.58,1.12,1.399
			C179.01,227.359,178.92,226.6,178.04,226.641z M173.84,228.88c0.91-0.09,1.26-1.68,0.84-2.239
			C173.63,226.62,173.87,227.891,173.84,228.88z M172.43,226.641c-3.87,0.42-7.92-1.029-10.93,0.279c3.14,0.63,5.87,0.23,9.25,0.28
			c0.33,0.05,0.31,0.438,0.279,0.84C172.01,228.09,171.91,227.061,172.43,226.641z M172.15,262.25c-0.29-1.35-3.109-1.09-2.521,0.85
			c0.311,0.062,0.439,0.312,0.561,0.562C171.42,263.77,172.09,263.311,172.15,262.25z M158.13,227.76c0.399-0.359,1.01-1.479,0-1.68
			C158.21,226.57,157.34,227.48,158.13,227.76z M148.6,230.01c0.92-0.38,1.141-2.96,0.28-2.81
			C148.8,228.15,148.43,228.811,148.6,230.01z M146.07,229.16c-0.109-1.01,0.11-2.34-0.84-2.521c-3.37,2.15-8.729-0.64-12.06,1.4
			c4-0.021,8.18,0.141,11.78-0.28C145.57,227.98,145.32,229.08,146.07,229.16z M129.53,228.04c0.7,0.04,0.881,0.54,1.12-0.28
			c-0.56,0-0.359-0.76-1.12-0.56C129.53,227.48,129.53,227.76,129.53,228.04z M126.44,227.2c-0.08,0.739,0.391,0.92,1.13,0.84
			C127.55,227.29,126.92,226.689,126.44,227.2z M115.23,269.55c1,0.062,1.46-0.409,1.4-1.409c-0.39,0.021-0.62-0.131-0.84-0.279
			c0.239,1.27-0.471,1.3-0.84,0.56C114.92,268.91,115.01,269.3,115.23,269.55z M85.78,235.05c0.011-0.55,0.771-0.35,0.561-1.12
			c-0.38-0.09-0.53-0.398-1.12-0.279C85.38,234.15,85.36,234.82,85.78,235.05z M84.1,237.58c-0.79-0.23-0.729,0.391-1.399,0.279
			c0,0.279,0,0.561,0,0.841C83.59,238.75,83.91,238.23,84.1,237.58z M72.88,227.76c-0.021-0.75-0.64-1.35-1.12-0.84
			C71.67,227.66,72.35,227.641,72.88,227.76z M69.24,227.76c-0.061-0.789-0.49-1.189-1.41-1.119
			C67.93,227.38,68.57,227.59,69.24,227.76z M61.94,226.92c1.311,0.2,3.16,1.33,4.49,0.561C65.18,227,63.06,225.87,61.94,226.92z
			 M61.66,253.84c0.25-0.689,0.55-2.17,0-2.8C59.22,249.15,58.73,254.91,61.66,253.84z M55.5,228.04c0.08-0.74-0.391-0.92-1.13-0.84
			C54.29,227.939,54.76,228.12,55.5,228.04z M49.61,228.6c-0.04-0.709-0.06-1.438-0.85-1.398C48.63,228.08,49.11,228.35,49.61,228.6
			z M46.24,228.04c-0.431-1-5.91-1.25-6.45,0.28C42.19,228.48,44.09,228.13,46.24,228.04z M38.11,228.88
			c0.17-0.26,1.25-1.438,0-1.399C38.28,227.98,37.29,228.65,38.11,228.88z M35.58,227.76c-0.351-0.01-0.38-0.359-0.84-0.279
			c-0.23,0.609-0.721,0.961-0.561,1.961C34.95,229.189,35.35,228.561,35.58,227.76z M31.94,230.29c0.181-0.64,0.721-2.36-0.279-2.53
			C31.29,228.21,31.05,230.23,31.94,230.29z M30.54,275.721c0.109-0.681-0.521-0.609-0.28-1.41c-0.28,0-0.56,0-0.84,0
			C29.57,275,29.66,275.76,30.54,275.721z M26.05,229.721c0.76-0.171,1.1-0.761,1.12-1.681C26.27,228.08,25.94,228.68,26.05,229.721
			z M25.49,228.04c-3.061-0.101-6.24,0.8-9.54,0.84c2.13,1.42,5.729,0.11,7.859-0.28c-0.09,0.381-0.399,0.541-0.28,1.12
			C24.61,229.6,24.58,228.35,25.49,228.04z M25.21,275.721c0-0.511,0.75-1.641,0-1.971C24.75,274.08,24.19,275.529,25.21,275.721z
			 M22.69,274.029c1.16,0.141,0.74-1.311,1.12-1.959C22.84,272.109,22.12,273.33,22.69,274.029z M21.56,272.07
			c0.3-0.641,0.88-0.99,0.84-1.961C21.54,269.971,20.29,271.891,21.56,272.07z M17.08,244.029c-1.09,0.24-0.46-1.229-1.69-0.84
			C15.06,244.391,16.77,245.15,17.08,244.029z M13.71,238.42c0.229,1.67,2.04,4.34,3.37,3.08c-1.32-0.18-1.79-1.2-2.25-2.24
			c0.529-0.06,0.62,0.32,1.12,0.28c0.26-1.38-1.171-1.07-1.12-2.24c0.17-0.39,1.08-0.05,1.12-0.56c-2.32-0.67-1.65-4.33-2.801-6.17
			c-0.22,2.64,0.61,4.25,1.4,5.89c-0.88,0.33-0.55,1.53,0,1.96C14.27,238.42,13.99,238.42,13.71,238.42z"/>
		<path d="M286.29,228.32c0.689,0.25,1.21,0.66,1.12,1.688C286.26,230.221,286.44,229.1,286.29,228.32z"/>
		<path fill="#FFFFFF" d="M286.85,218.79c-2.22-0.16-3.188,0.92-4.21,1.96c0.051,0.79,0.49,1.2,1.4,1.12
			c-1.16,1.87-3.931,1.84-5.601,0.56c0.261-0.85,1.109-1.119,0.84-2.52c-0.5-0.71-1.29-1.15-2.529-1.12
			c0.38-1.69-1.17-1.44-1.681-2.25c1.46-1.06,3.489-1.55,5.891-1.681c-1.891-0.851-4.32,0.17-5.61,0.841
			c-1.18-0.312-2.33-2.142-3.93-1.12c-1.12-1.21-2.67-2-4.479-2.521c1.051-2.879,1.949-5.898,4.199-7.568
			c0.091,0.648-0.04,1.068-0.279,1.398c2.739-0.63,3.939-2.8,7.021-3.09c0.29,1.42-0.83,1.42-1.13,2.25c2.7,0.48,3.96,2.4,3.93,5.61
			c-1.04,0.358-2.35,0.45-3.648,0.56c2.738,0.44,5.71,0.65,7.579,1.961C284.52,215.891,286.48,216.54,286.85,218.79z M278.16,216.54
			c0.47,0.12,1.26,1.33,1.68,0.569C279.37,216.99,278.58,215.779,278.16,216.54z M270.58,212.34c0.88-2.119,3.239-2.75,4.77-4.21
			C272.78,208.37,270.55,210.43,270.58,212.34z M270.3,210.38c-0.479-1.36,1.63-2.68,0.28-3.09
			C270.42,208.08,269.46,209.51,270.3,210.38z"/>
		<path d="M286.01,240.1c0.78,0.53-0.05,1.801-0.279,2.24C284.84,241.7,286.09,240.859,286.01,240.1z"/>
		<path d="M284.33,228.88c0.729-0.08,1.199,0.11,1.12,0.841C284.71,229.8,284.24,229.62,284.33,228.88z"/>
		<path d="M279.84,217.109c-0.42,0.761-1.21-0.449-1.68-0.569C278.58,215.779,279.37,216.99,279.84,217.109z"/>
		<path fill="#FFFFFF" d="M275.35,222.43c1.021,1.711,5.46,0.131,6.17,3.37c-5.778,0.36-12.989-0.25-19.909-0.28
			c0.171-3.459,5.529-2.26,7.011-0.84c0.729-0.479-0.54-1.31-0.28-2.25c1.95-0.08,1.9,1.84,3.08,2.53
			c0.03-2.64,0.12-7.271,4.21-6.729c-0.26,1.939,2.45,0.92,3.09,1.961C278.8,222.15,276.81,222.02,275.35,222.43z"/>
		<path d="M277.31,274.029c0.602-0.84,1.352,0.5,1.41,1.121C278.06,274.96,277.97,274.221,277.31,274.029z"/>
		<path d="M274.23,229.439c-0.45,0.711-1.351-0.489-1.961-0.561C272.84,228.061,273.73,229.26,274.23,229.439z"/>
		<path d="M275.35,208.13c-1.529,1.46-3.89,2.091-4.77,4.21C270.55,210.43,272.78,208.37,275.35,208.13z"/>
		<path fill="#FFFFFF" d="M270.58,215.42c1.64-1.15,3.89-0.1,3.93,1.971c-1.029,0.369-1.729,1.069-2.8,1.399
			c-0.979-2.32-4.71-2.99-7.86-2.25C262.85,212.34,270.37,212.05,270.58,215.42z"/>
		<path d="M270.86,241.5c0.471,0,0.939,0,1.409,0c-0.01,0.561-0.77,0.359-0.56,1.12C270.97,242.71,270.79,242.24,270.86,241.5z"/>
		<path d="M271.99,270.67c1.021,1.561-0.851,3.16-2.25,2.24C269.74,271.41,270.48,270.66,271.99,270.67z M270.3,272.35
			c0.811,0.062,1.53,0.03,1.41-0.84C271.05,271.6,270.5,271.8,270.3,272.35z"/>
		<path fill="#FFFFFF" d="M273.95,278.52c-0.25,3.021-1.171,5.371-2.53,7.291c-26.86,1.891-55.55-0.199-82.439,0.561
			c0.21-1.061-0.341-1.34-0.279-2.24c-0.83,0.381,0.05,2.48-1.682,1.96c-1.568,0.261-0.52-2.1-1.409-2.521
			c-0.641,0.391-0.101,1.949-0.279,2.801c-18.78,0.37-36.29,0.359-55.24-0.28c-0.61-0.51,0.05-2.29-0.56-2.8
			c-0.641,0.391-0.11,1.95-0.28,2.8c-18.29,0.63-40.7,1.4-59.17,0.562c-12.95-0.592-26.62,2.02-37.86-1.12
			c-0.53-1.94-0.88-5.421-0.84-7.011c9.689-0.609,19.939,0.029,29.439-0.279c1.23,0.08,0.44,2.18,1.41,2.52
			c1.011-0.41-0.739-1.83,0.28-2.24c2.06-0.188,0.7,3.031,1.96,3.65c0.72-1.02-0.33-2.66-0.28-3.93
			c7.86-0.87,15.261,0.199,22.71-0.561c0.7-0.051,0.881,0.43,1.12,0.84c0.96-1.17,2.73-0.569,3.931-0.561
			c25.63,0.1,50.67-0.439,75.438,0.561c8.2,0.33,16.551-0.84,24.67-0.84c4.062,0,8.29,0.379,12.341,0.561
			c12.409,0.55,25.479-0.79,37.301,0c0.97,0.061,0.51,1.55,0.84,2.24c1.09,0.26-0.24-2.121,1.12-2.24
			c-0.12,2.3,0.29,5.148-0.28,7.01c1.54-1.17,0.99-4.43,1.12-7.01C254.14,278.891,264.27,277.67,273.95,278.52z M131.77,285.811
			c0.34-0.761,0.71-3.59-0.279-3.931C131.26,282.76,130.71,285.4,131.77,285.811z"/>
		<path fill="#FFFFFF" d="M271.71,271.51c0.12,0.87-0.601,0.9-1.41,0.84C270.5,271.8,271.05,271.6,271.71,271.51z"/>
		<path fill="#FFFFFF" d="M271.42,218.79c0,1.58-0.851,2.319-0.561,4.21c-1.301-0.2-1.279-1.71-3.08-1.41
			c-0.619,0.04-0.119,1.189-0.279,1.689c-1.44-1.061-3.851-0.93-5.61-0.279c-0.64,0.57-0.79,1.641-1.12,2.52
			c-2.72,0.19-4.568-0.479-7.289-0.278C258.15,222.12,264.1,213.98,271.42,218.79z M269.74,220.189
			c0.141-0.881-0.399-1.101-0.561-1.681c-0.42,0.05-1.029-0.1-1.12,0.28C268.93,218.95,268.8,220.109,269.74,220.189z
			 M265.26,219.07c1.28-0.16,2.141,1.58,3.08,0.84C267.35,219.77,266.23,218.29,265.26,219.07z"/>
		<path d="M270.58,207.29c1.35,0.41-0.761,1.729-0.28,3.09C269.46,209.51,270.42,208.08,270.58,207.29z"/>
		<path d="M271.14,229.721c-0.699-0.32-1.92-0.131-1.96-1.121C270.1,228.71,271,228.85,271.14,229.721z"/>
		<path d="M269.18,218.51c0.16,0.58,0.7,0.801,0.562,1.682c-0.94-0.08-0.812-1.24-1.682-1.4
			C268.15,218.41,268.76,218.561,269.18,218.51z"/>
		<path d="M268.34,219.91c-0.939,0.74-1.8-1-3.08-0.84C266.23,218.29,267.35,219.77,268.34,219.91z"/>
		<path fill="#FFFFFF" d="M260.49,198.88c2.511,4.58,2.319,11.8-2.529,12.62c-2.61,0.439-11.721-4.93-12.9-6.73
			c-1.909-2.938-1.1-7.028,0-10.379c-1.1-3.131-1.84-7.07,2.25-6.449c1.98,0.3,3.271,3.05,5.051,3.93
			c-0.729,0.96-1.949,1.42-2.25,2.8c2.25-1.739,5.011-4.271,8.699-2.239c2.57,2.699-1.05,8.92,1.4,12.061
			C260.55,203.41,259.83,200.391,260.49,198.88z"/>
		<path fill="#FFFFFF" d="M261.05,217.67c-0.189,1.49-2.069,1.29-2.521,2.521c-1.141-0.73-1.811-1.94-1.971-3.65
			c-0.529-0.49-1.46-0.59-2.239-0.84c0.42,0.979,1.931,0.88,2.239,1.97c0.051,0.601-0.989,0.12-1.398,0.28
			c0.3,1.38,2.02,1.34,2.52,2.52c-1.55,1.721-3.46,3.08-5.319,4.49c-2.109-0.88-2.801-3.189-5.609-3.37
			c0.34-1.71,1.89-2.22,3.64-2.521c0.03-1.25-1.449-0.979-1.68-1.959c-0.29-3.74,6.87-4.641,7.85-1.41
			C258.55,214.93,260.18,216.439,261.05,217.67z M253.2,222.43c-0.54-0.949-0.971-2.02-1.69-2.8
			C251.37,221.27,252.16,221.98,253.2,222.43z M250.11,221.029c-0.021,0.881,1.17,1.99,1.681,1.4
			C251.06,222.141,250.85,221.32,250.11,221.029z"/>
		<path fill="#FFFFFF" d="M258.81,211.779c0.37,0.779,0.54,2.83,0.28,3.359c-1.96,0.262-3.26-2.35-5.609-2.52
			c-3.771-0.271-6.489,3.29-4.771,6.17c-4.97,0.199-9.08-0.46-14.021-0.28c0.59-0.909,2.141-0.858,2.521-1.97
			c-0.33-2.061,0.189-4.561,0-7.29c0.87-1.46,2.569-2.11,3.649-3.36c-1.439-5.67-5.091-9.119-6.17-15.14
			c-3.381-1.649-7.54-0.59-11.221-0.851c-3.729-0.25-4.85-1.471-7.85,0.851c-1.69,1.3-2.82,3.69-4.49,5.04
			c-1.07,0.87-1.71,0.359-2.24,1.13c-1.17,1.67-1.85,6.33-0.56,7.851c-2.36,2.41-5.341,4.189-6.17,8.131
			c-2.29-0.48-4.392-2.131-7.011-1.4c0.011-5.42,1.681-9.16,2.801-13.46c4.22,0.16,8.93-1.271,8.979-6.17
			c-1.34,5.54-9.87,6.33-15.71,4.2c-2.05-4.7-6.359-19.012,3.09-16.541c0.511,0.979,0.221,2.771,1.4,3.08
			c0.56-0.67-0.721-1.879-0.28-3.359c1.88-0.58,2.33-1.9,4.49-1.68c5.939,0.59,3.311,11.619,3.08,16.539
			c1.89-2.721,1.71-9.029,1.399-12.619c-0.591-6.76,0.399-13.25-0.279-18.79c-0.381-3.11-1.73-5.9-0.841-8.97
			c1.79-6.14,8.83-9.29,13.739-14.3c3.07-3.13,3.91-7.27,8.41-8.42c-1.47-2.66-5.199-4.47-6.439-7.85
			c-0.931-2.51-1.25-6.85,0.279-8.69c3.102-3.74,10.142,2.17,11.49,4.77c0.189,3.54-0.479,6.24-0.279,9.81
			c1.949,0.11,4.369-0.26,5.891,0.28c0.84-6.31,3.1-14.75,10.1-14.86c5.12-0.08,5.351,7.78,2.8,11.78
			c-2.18,3.41-7.64,3.73-12.06,4.48c0.39,0.64,1.96,0.11,2.81,0.28c5.48,6.4,7.44,16.3,11.49,24.12c-1.06-0.15-1.75-0.68-3.08-0.56
			c6.04,1.43,10.051,8.09,8.13,15.98c-0.56,2.31-2.68,4.36-2.8,6.74c-0.229,4.45,3.67,9.53,3.92,14.021
			c-0.33-0.33-0.989-0.319-1.68-0.279c-0.98-0.211,0.229-1.5-0.561-2.25c-0.421,1.17-0.761,2.42-1.96,2.81
			c-1.229-2.12-9.211-7.909-10.381-1.97c-0.359,1.84,0.891,3.199,0.841,5.05c-0.109,4.431-2.2,6.47,0.279,10.38
			c1.21,1.891,3.95,2.971,6.45,4.48C253.17,211.04,255.47,213.24,258.81,211.779z M248.71,123.16c0.85-1.79,0.76-5.23-1.12-5.89
			C248.6,118.6,248.19,121.35,248.71,123.16z M242.26,169.99c1.99-0.86,6.4-2.76,5.891-5.6c-0.931-5.22-12.811-0.13-14.021,0.56
			c0.74-9.74-6.49-13.88-17.11-13.18c-0.028-0.32,0.41-0.44,0-0.56c-2.75,1.07-4.27,3.39-5.89,5.6c-1.14-0.78-2.55-2.28-4.479-1.4
			c-0.46,2.18,0.88,4.39,2.239,6.17C215.32,170.01,229.79,175.42,242.26,169.99z M236.09,158.78c1.51-0.4,1.07-4.36-0.561-4.21
			C235.59,155.99,236.93,157.35,236.09,158.78z M234.13,140.27C230.75,137.11,232.21,144.61,234.13,140.27L234.13,140.27z
			 M233.85,131.58c-0.56-1.57-4.608-0.91-5.33,0C229.9,131.3,232.52,131,233.85,131.58z M218.14,178.13
			c2.69,2.83,7.562,3.47,13.181,3.36C227.07,180.23,221.68,180.109,218.14,178.13z M227.4,140.55c1.011-0.21,1.34-1.27,0.84-2.24
			C225.78,137.54,225.31,140.51,227.4,140.55z M223.47,117.27c2.15,0.38,3.11,1.94,4.21,3.37
			C227.56,118.42,225.47,116.68,223.47,117.27z M201.04,183.45c-1.391,0.35-3.021-0.511-3.37-0.28
			C198.23,183.891,200.34,184.54,201.04,183.45z"/>
		<path d="M254.32,228.32c0.83,0.01,1.71-0.021,1.681,0.84c-0.521-0.54-1.03-0.08-1.681,0C254.32,228.88,254.32,228.6,254.32,228.32
			z"/>
		<path d="M251.51,219.63c0.721,0.78,1.15,1.851,1.69,2.8C252.16,221.98,251.37,221.27,251.51,219.63z"/>
		<path d="M251.79,222.43c-0.511,0.59-1.7-0.52-1.681-1.398C250.85,221.32,251.06,222.141,251.79,222.43z"/>
		<path d="M252.08,228.88c-5.61,0.399-11.21-1.351-17.391-0.84c-2.381,0.2-5.529,1.11-7.851-0.56
			C235.97,227.939,244.61,227.05,252.08,228.88z"/>
		<path d="M247.59,117.27c1.88,0.66,1.97,4.1,1.12,5.89C248.19,121.35,248.6,118.6,247.59,117.27z"/>
		<path fill="#FFFFFF" d="M250.95,224.68c-4.04,0.86-8.261-0.52-12.62-0.279C241.29,221.66,248.43,221.35,250.95,224.68z"/>
		<path d="M248.15,164.39c0.511,2.84-3.899,4.74-5.891,5.6c-12.47,5.43-26.939,0.02-33.37-8.41c-1.359-1.78-2.699-3.99-2.239-6.17
			c1.931-0.88,3.34,0.62,4.479,1.4c1.62-2.21,3.14-4.53,5.89-5.6c0.41,0.12-0.029,0.24,0,0.56c10.62-0.7,17.852,3.44,17.11,13.18
			C235.34,164.26,247.22,159.17,248.15,164.39z M236.65,170.83c0.229-0.97-0.42-1.07-0.279-1.96c-2.62-0.29-3.44,1.24-4.2,2.81
			C234,171.73,235.4,171.36,236.65,170.83z M232.73,166.63c1.811-2.29,0.601-7.51-0.851-9.54c-2.72-3.81-10.09-5.3-16.26-4.48
			c-7.94,5.83-1.971,15.48,6.449,16.26C225.59,169.2,231.27,168.46,232.73,166.63z M226.28,171.12c0.671-2.18-3.029-1.45-3.931-1.13
			C223.8,170.23,224.87,170.84,226.28,171.12z M211.97,163.54c-0.43-0.87-0.43-2.17-1.12-2.8c-0.069,0.39-0.608,0.32-0.84,0.56
			C210.28,162.43,211.24,162.88,211.97,163.54z"/>
		<path fill="#FFFFFF" d="M235.81,219.35c2.91-0.27,7.19,0.45,10.94,0.28c-1.96,1.511-8.53,1.05-10.94,0.28
			C235.64,219.66,235.47,219.41,235.81,219.35z"/>
		<path fill="#FFFFFF" d="M235.53,222.71c1.189,0.19,3.181-1.271,5.051-0.56c-2.34,2.81-7.511,2.279-12.062,1.688
			c1.682-3.06-0.81-6.108-2.239-7.858c0.75-1.711,2.971-3.33,5.04-2.801c-0.119,1.369-1.489,1.5-1.96,2.521
			c1.899-0.33,5.699-1.33,7.011,0.28c-0.04,1.18-1.381,1.06-2.24,1.408c0.16,1.65-0.29,2.69-1.68,2.801
			c0.38,1.021,2.449,0.351,3.358,0.84C236.3,222.02,235.62,221.721,235.53,222.71z M232.17,216.54c-1.72,0.069-2.93,0.63-3.09,2.25
			C230.1,218.029,231.06,217.21,232.17,216.54z M229.92,223.279c1.05-0.17,2.021-0.42,2.53-1.129
			C231.24,222.16,230.29,222.43,229.92,223.279z"/>
		<path fill="#FFFFFF" d="M240.02,205.33c-0.528,1.43-1.85,2.08-3.09,2.8c0.04-1.34,0.021-2.63-0.56-3.36
			c-0.812,2.86,0.398,6.142,0,9.53c-1.221,0.271-3-0.521-4.771,0c0.091-0.659,0.45-1.05,0.28-1.96
			c-0.29-0.64-1.76-0.109-2.521-0.279c-1.761-3.221-1.96-9.221,1.12-11.221c-4.391,1.602-2.45,9.51-5.33,12.62
			c-2.061-1.58-3-4.29-5.601-5.33c0.91-3.188,3.3-4.92,4.76-7.569c-2.199-1.17-5.489-0.551-8.13-0.279
			c-0.25-3.15,0.891-4.91,1.4-7.29c-1.67,1.6-2.04,4.5-2.24,7.569c-2.83,0.539-4.061,2.67-6.17,3.931
			c-1.729-1.99-0.08-5.7,0.84-7.57c0.33-0.239,0.75-0.38,1.4-0.29c1.51-2.79,4.108-4.49,6.17-6.729c3.47-0.041,5.88,0.25,8.13,0.85
			c2-1.061,5.93,0.04,8.14,0.561C234.82,196.529,238.27,200.141,240.02,205.33z M232.45,200c-0.051-2.95-0.19-5.8-1.41-7.57
			C231.27,195.2,231.59,197.859,232.45,200z M229.92,196.35c0.62-1.039,0.1-2.979-0.561-3.64
			C229.42,194.061,229.5,195.38,229.92,196.35z M224.03,207.57c0.83-1.57,1.279-4.182,1.12-7.012
			c-0.54-1.078-0.21,1.301-0.279,1.682C224.61,203.891,222.97,209.58,224.03,207.57z M222.91,195.79c0.06-1.5,0.47-2.521-0.28-3.64
			C222.81,193.279,222.27,195.13,222.91,195.79z M219.83,197.76c1.33-0.91,1.79-4.189,1.399-5.89
			C220.86,193.92,220.13,195.62,219.83,197.76z M210.01,202.52c1.8-0.158,2.3-3.119,1.96-4.479
			C211.36,199.57,210.78,201.141,210.01,202.52z"/>
		<path fill="#FFFFFF" d="M236.37,168.87c-0.141,0.89,0.51,0.99,0.279,1.96c-1.25,0.53-2.649,0.9-4.479,0.85
			C232.93,170.11,233.75,168.58,236.37,168.87z"/>
		<path d="M235.53,154.57c1.631-0.15,2.069,3.81,0.561,4.21C236.93,157.35,235.59,155.99,235.53,154.57z"/>
		<path d="M234.13,140.27C232.21,144.61,230.75,137.11,234.13,140.27L234.13,140.27z"/>
		<path fill="#FFFFFF" d="M231.88,157.09c1.45,2.03,2.66,7.25,0.851,9.54c-1.461,1.83-7.141,2.57-10.66,2.24
			c-8.42-0.78-14.391-10.43-6.449-16.26C221.79,151.79,229.16,153.28,231.88,157.09z M225.71,158.78c2.229,0.93,3.05,4.71,0.29,5.61
			c7.2-0.66-1.62-11.12-1.69-3.65C224.62,159.92,224.9,159.08,225.71,158.78z M216.74,161.3c2.938-0.06,4.119-1.86,4.21-4.77
			c-1.71-1.67-4.9,0.67-4.21,2.25c0.989-0.7,1.1-2.27,3.09-1.97C220.02,159.53,218.45,160.48,216.74,161.3z"/>
		<path d="M231.04,192.43c1.22,1.771,1.359,4.62,1.41,7.57C231.59,197.859,231.27,195.2,231.04,192.43z"/>
		<path d="M228.52,131.58c0.722-0.91,4.771-1.57,5.33,0C232.52,131,229.9,131.3,228.52,131.58z"/>
		<path d="M231.32,181.49c-5.619,0.109-10.489-0.53-13.181-3.36C221.68,180.109,227.07,180.23,231.32,181.49z"/>
		<path d="M229.08,218.79c0.16-1.62,1.37-2.181,3.09-2.25C231.06,217.21,230.1,218.029,229.08,218.79z"/>
		<path d="M232.45,222.15c-0.511,0.709-1.48,0.959-2.53,1.129C230.29,222.43,231.24,222.16,232.45,222.15z"/>
		<path d="M229.36,192.71c0.659,0.66,1.181,2.601,0.561,3.64C229.5,195.38,229.42,194.061,229.36,192.71z"/>
		<path fill="#FFFFFF" d="M227.68,210.09c0.82,0.4,0.771,1.67,1.12,2.53c-1.25,0.62-2.35,1.39-3.09,2.521
			C224.67,213.74,227.34,211.9,227.68,210.09z"/>
		<path d="M228.24,138.31c0.5,0.97,0.17,2.03-0.841,2.24C225.31,140.51,225.78,137.54,228.24,138.31z"/>
		<path fill="#FFFFFF" d="M224.59,215.42c1.729,3.141,4.66,4.609,3.09,8.42c-7.13-0.39-13.16,0.49-20.47,0.561
			c-2.79-5.5,2.359-13.699,5.89-7.859c0.051-0.891-1.56-2.55-2.25-3.641C214.58,203.58,221.3,209.439,224.59,215.42z M218.42,221.87
			c-0.47-1.8,1.439-3.511,0.28-4.2c-0.66,0.83-0.602,2.38-1.4,3.08c-1.51,0.17-3.87-0.5-4.2,0.84
			C214.52,222.25,217.04,220.54,218.42,221.87z M217.3,215.7c-1.16-1.521,1.34-3.04,0.84-3.921
			C216.5,211.51,215.7,216.23,217.3,215.7z M215.34,215.7c-0.09-1.021,0.04-1.82,0.28-2.521c-0.36-0.021-0.391-0.359-0.841-0.279
			C214.92,214.189,213.99,215.311,215.34,215.7z M213.38,219.91c0.149-1.07-2.39-1.2-2.53-0.28
			C211.55,219.87,212.35,220,213.38,219.91z"/>
		<path d="M227.68,120.64c-1.1-1.43-2.06-2.99-4.21-3.37C225.47,116.68,227.56,118.42,227.68,120.64z"/>
		<path d="M226,164.39c2.76-0.9,1.939-4.68-0.29-5.61c-0.811,0.3-1.09,1.14-1.4,1.96C224.38,153.27,233.2,163.73,226,164.39z"/>
		<path fill="#FFFFFF" d="M222.35,169.99c0.9-0.32,4.602-1.05,3.931,1.13C224.87,170.84,223.8,170.23,222.35,169.99z"/>
		<path d="M225.15,200.561c0.159,2.83-0.29,5.439-1.12,7.01c-1.061,2.011,0.58-3.68,0.841-5.329
			C224.94,201.859,224.61,199.48,225.15,200.561z"/>
		<path d="M222.63,192.15c0.75,1.119,0.34,2.14,0.28,3.64C222.27,195.13,222.81,193.279,222.63,192.15z"/>
		<path fill="#FFFFFF" d="M202.72,213.18c3.851-6.42,9.67-13.08,20.471-12.619c-1.41,2.33-3.689,3.789-4.199,7.01
			c-5.15-1.271-8.562,1.511-8.98,5.891c-1.979,0.26-2.49,1.99-3.93,2.8C205.07,215.13,203.48,214.57,202.72,213.18z M212.25,204.77
			c1.029,0.201,2.22,1.701,2.81,1.4C214.5,205.5,213.44,203.88,212.25,204.77z M213.1,203.37c1.24,0.62,2.29,1.438,3.36,2.239
			C216.29,204.141,213.89,202.4,213.1,203.37z M209.45,210.09c-0.301-0.869-2.892-1.63-3.37-0.561
			C207.14,209.79,208.46,209.779,209.45,210.09z"/>
		<path d="M221.23,191.87c0.391,1.7-0.069,4.979-1.399,5.89C220.13,195.62,220.86,193.92,221.23,191.87z"/>
		<path d="M220.95,156.53c-0.091,2.91-1.271,4.71-4.211,4.77c1.711-0.82,3.279-1.77,3.091-4.49c-1.99-0.3-2.101,1.27-3.091,1.97
			C216.05,157.2,219.24,154.86,220.95,156.53z"/>
		<path d="M218.7,217.67c1.159,0.689-0.75,2.4-0.28,4.2c-1.38-1.33-3.9,0.38-5.32-0.28c0.33-1.34,2.69-0.67,4.2-0.84
			C218.1,220.05,218.04,218.5,218.7,217.67z"/>
		<path d="M218.14,211.779c0.5,0.881-2,2.4-0.84,3.921C215.7,216.23,216.5,211.51,218.14,211.779z"/>
		<path d="M215.62,213.18c-0.24,0.7-0.37,1.5-0.28,2.521c-1.351-0.391-0.42-1.51-0.561-2.801
			C215.23,212.82,215.26,213.16,215.62,213.18z"/>
		<path d="M215.06,206.17c-0.59,0.301-1.779-1.199-2.81-1.4C213.44,203.88,214.5,205.5,215.06,206.17z"/>
		<path d="M216.46,205.609c-1.07-0.801-2.12-1.619-3.36-2.239C213.89,202.4,216.29,204.141,216.46,205.609z"/>
		<path d="M210.01,228.32c1.17-1.32,3.971-0.99,5.891-0.84C214.2,227.84,211.25,228.43,210.01,228.32z"/>
		<path d="M210.85,219.63c0.142-0.92,2.681-0.79,2.53,0.28C212.35,220,211.55,219.87,210.85,219.63z"/>
		<path d="M211.97,198.04c0.34,1.36-0.16,4.319-1.96,4.479C210.78,201.141,211.36,199.57,211.97,198.04z"/>
		<path fill="#FFFFFF" d="M210.85,160.74c0.69,0.63,0.69,1.93,1.12,2.8c-0.729-0.66-1.689-1.11-1.96-2.24
			C210.24,161.06,210.78,161.13,210.85,160.74z"/>
		<path d="M206.08,209.529c0.479-1.069,3.069-0.311,3.37,0.561C208.46,209.779,207.14,209.79,206.08,209.529z"/>
		<path d="M205.8,228.32c0.11-0.932,1.5-0.312,1.41,0.56C206.31,229.12,206.34,228.439,205.8,228.32z"/>
		<path fill="#FFFFFF" d="M206.08,224.4c-2.891,0-5.79,0-8.69,0c-3.989-1.062-2.05-8.051-4.77-10.381
			c4.25-3.789,10.729,0.529,13.18,3.649C205,219.85,206.03,222.189,206.08,224.4z"/>
		<path d="M201.88,227.48c0.91,0.209,1.78,0.47,1.68,1.68C202.95,228.66,201.78,228.71,201.88,227.48z"/>
		<path d="M197.67,183.17c0.35-0.229,1.979,0.63,3.37,0.28C200.34,184.54,198.23,183.891,197.67,183.17z"/>
		<path d="M188.7,227.76c4.479-0.148,10.51-0.89,12.619,1.12C197.64,227.98,192.57,228.48,188.7,227.76z"/>
		<path fill="#FFFFFF" d="M189.82,212.62c3.311,1.39,4.279,6.71,3.931,11.5c-7.38-0.44-17.3-0.28-25.8-0.28
			c-1.83,0-4.99,0.93-5.61-1.41c2.391-1.289,4.82,0.36,7.57,0C177.15,221.49,181.74,209.221,189.82,212.62z M189.26,219.07
			c-0.05-1.262-0.31-2.312-1.12-2.812C188.1,217.609,188.2,218.82,189.26,219.07z M183.09,216.83c2.25,0.55,2.96,2.641,4.49,3.92
			C186.95,218.76,185.36,216.25,183.09,216.83z M181.97,219.07c1.55,0.42,2.54,2.869,3.641,2.8
			C184.72,220.8,183.41,218.66,181.97,219.07z"/>
		<path d="M191.5,259.45c0.74-0.08,1.41-0.091,1.12,0.84C191.89,260.37,191.42,260.189,191.5,259.45z"/>
		<path fill="#FFFFFF" d="M191.5,235.609c-0.5-0.029-0.59,0.351-1.12,0.279c-0.59-0.68-0.399-0.59-0.28-1.68
			C190.91,234.34,191.38,234.8,191.5,235.609z"/>
		<path d="M190.1,258.891c0.051-0.811,1.33-0.681,1.12,0.279C190.65,259.73,190.67,259.05,190.1,258.891z"/>
		<path d="M192.34,235.33c-0.521,1.46-2.34,1.07-3.08,0c-0.18-1.021,0.61-1.07,0.561-1.96
			C190.95,233.74,191.58,234.609,192.34,235.33z M190.38,235.891c0.53,0.069,0.62-0.311,1.12-0.279c-0.12-0.812-0.59-1.271-1.4-1.4
			C189.98,235.3,189.79,235.21,190.38,235.891z"/>
		<path d="M188.14,216.26c0.812,0.5,1.07,1.551,1.12,2.811C188.2,218.82,188.1,217.609,188.14,216.26z"/>
		<path d="M187.58,220.75c-1.53-1.279-2.24-3.37-4.49-3.92C185.36,216.25,186.95,218.76,187.58,220.75z"/>
		<path d="M185.61,221.87c-1.101,0.069-2.091-2.38-3.641-2.8C183.41,218.66,184.72,220.8,185.61,221.87z"/>
		<path fill="#FFFFFF" d="M178.04,212.061c1.09-0.609,2.8-0.74,4.21-0.279c-2.44,3.26-5.771,5.64-8.971,8.13
			c0.29-3.91,0.58-7.83,2.239-10.38c1.102-0.17,0.33,1.539,0.562,2.25c1.41-0.182,1.39-1.78,2.8-1.971
			C178.84,210.8,178.08,211.07,178.04,212.061z"/>
		<path fill="#FFFFFF" d="M171.59,182.33c1.25,7.199,11.21,13.34,8.42,22.72c-0.399,1.341-1.8,2.33-2.529,3.08
			c-4.189,0.64-5.051-2.05-5.609-5.05c1.6-0.46,3.17-0.939,3.648-2.521c-1.369,0.5-1.97,1.78-4.21,1.4
			c-3.909-2.35-3.59-10.43,1.69-10.93c-0.101-1.221,0.31-2.94-0.57-3.37c-0.449,0.76-0.359,2.069-0.56,3.09
			c-6.03,0.74-5.221,10.36-0.841,12.33c-0.641,2.63,1.479,4.36,2.811,5.89c0.149,1.09-0.51,1.37-0.28,2.53
			c-0.79-1.78-3.409-1.78-3.09-3.931c-0.63-0.779-1.56-1.239-2.8-1.399c-0.03-1.149,1.12-1.12,0.84-2.521
			c-0.939-1.641-3.43-0.01-4.21-1.689c-1.061,0.35-2.399,0.41-2.521,1.689c-0.699,0.041-0.681-0.631-1.119-0.851
			c-2.58,1.21-3.58,5.011-2.812,8.7c-1.359,0.33-3.26-1.96-5.05-0.561c-0.811,1.521-1.55,3.109-3.08,3.92
			c-1.55-1.659-4.35-0.75-5.61,0.841c-1.22-1.812-2.91-1.13-5.33-0.841c-1.159,0.229-0.14-1.729-0.84-1.959
			c-1.859-0.32-2.569,0.52-3.64-0.842c-1.72,0.15-2.49,1.25-2.811,2.801c-3.3-2.851-11.75-3.271-14.579-0.561
			c-0.23-2.84,0.289-4.939,0.56-7.29c2.84,1.19,10.61,2.29,8.69-3.93c0.689,0.55,2.35,0.271,3.09,0c5.12-5.79-1.04-13.99-4.21-17.66
			c1.26,4.33,8.38,10.53,3.93,17.101c-1.89,0.569-3.22-0.069-4.49-0.841c0.561,1.681,1.641,3.222,0.561,5.052
			c-1.891,0.68-4.471,0.119-6.17-0.28c-5.28-7.761-0.351-20.771,6.17-24.4c1.59-3.88,2.909-7.49,3.09-12.06
			c0.31-8.27-3.53-16.38,1.399-22.15c2.221-2.6,5.561-4.29,7.851-7.01c2.359-2.81,4.49-5.24,6.729-7.85
			c-1.05-2.73-4.1-3.82-5.05-6.45c-2.14-5.97,2.271-13,3.65-17.95c6.41,3.56,8.38,16.12,4.489,23.56c3.301,0.61,7.12,0.73,9.53,2.24
			c-1.189-10.91,3.71-17.4,11.22-20.47c3.351,8.96-1.489,19.61-10.101,21.31c2.221,3.48,3.36,8.28,6.73,11.78
			c1.63,1.69,4.119,2.71,5.609,4.77C176.26,160.12,169.82,172.1,171.59,182.33z M168.23,155.97c-4.439-1.17-7.939,1.03-12.061,1.12
			c1.58-2.77,4.521-4.04,3.64-8.69c-1.869-9.97-21.39-10.33-21.03,0.56c0.11,3.09,2.03,5.13,3.37,7.01
			c-4.55-0.21-8.779-5.44-12.62-3.36c3.771,2.11,7.521,4.26,12.9,4.76c-0.06,3.86,5.26,4.63,6.73,1.69
			c0.1,2.82,3.159,2.94,5.329,2.24c0.649-0.93,0.95-2.22,1.961-2.8C160.92,158.2,165.01,157.52,168.23,155.97z M158.41,200
			c2.06-1.42,4.93-1.51,5.89-4.21c-0.97-5.761-4.09-9.37-6.45-13.74c-6.608-0.021-11.648-1.62-18.229-1.68
			c-0.5,1.17-0.351,2.479-0.841,3.649c-1.649,3.979-6.189,7.84-6.729,11.771c-0.41,3.021,1.24,5.96,2.81,8.42
			c1.511,0.729,1.67-1.021,3.08-0.28c1.45,2.381,0.771,6.891,2.521,8.971c3.63-2.17,8.76-2.84,9.54-7.851
			C154.13,205.3,155.96,201.689,158.41,200z M155.05,139.99c0-0.47,0-0.94,0-1.4c-0.84-0.82-2.6-0.72-2.25,1.12
			C153.18,140.21,154.43,140.58,155.05,139.99z M155.33,162.98c-3.562,0.72-9.181,0-12.9-0.84
			C144.82,164.32,152.28,164.86,155.33,162.98z M148.04,140.27c0.62-0.61,1.16-1.46,0.56-2.53
			C146.06,137.14,146.28,140.18,148.04,140.27z"/>
		<path d="M179.16,228.04c-1.021,0.18-1.102-0.58-1.12-1.399C178.92,226.6,179.01,227.359,179.16,228.04z"/>
		<path d="M174.68,226.641c0.42,0.561,0.07,2.149-0.84,2.239C173.87,227.891,173.63,226.62,174.68,226.641z"/>
		<path fill="#FFFFFF" d="M172.43,214.859c0.812,1.66-0.39,3.711,0,5.891c-0.779,0.33-1.609,0.63-2.52,0.84
			c-0.29-1.58-1.36-2.38-1.96-3.64c-1.312,0-2.62,0-3.932,0c0.682-1.101,2.16-1.4,3.932-1.41c0.329-1.261-1.25-0.62-0.841-1.96
			c1.33,0.16,1.88,1.109,2.239,2.25c0.49-0.54,0.261-1.801,0.841-2.25c0.851,0.55,0.641,2.17,1.119,3.09
			C172.26,217.311,171.75,215.49,172.43,214.859z"/>
		<path fill="#FFFFFF" d="M169.07,209.811c2.91-0.319,5.649,3.239,2.521,5.33c-0.85-0.271-0.57-1.67-1.96-1.399
			c-0.7-4-7.899-6.49-10.939-3.08c-1.41-2.08,0.59-6.55,2.25-6.45c0.13,0.88-0.511,0.99-0.279,1.96c1.33-0.91,1.54-2.95,3.358-3.37
			c1.392,0.24-0.42,1.461-0.56,1.971c1.18,0.561,2.62-2.109,4.49-0.84c-0.46,0.939-1.131,1.67-1.69,2.521
			c0.79,0.989,3.181,0.38,3.65,1.68C170.15,209.221,169.22,209.13,169.07,209.811z"/>
		<path d="M161.5,226.92c3.01-1.311,7.06,0.141,10.93-0.279c-0.52,0.42-0.42,1.449-1.399,1.399c0.029-0.399,0.051-0.79-0.279-0.84
			C167.37,227.15,164.64,227.55,161.5,226.92z"/>
		<path fill="#FFFFFF" d="M171.31,261.971c0.091,0.739-0.39,0.92-1.119,0.85c-0.12-0.59,0.189-0.75,0.279-1.129
			C170.7,261.84,170.93,261.99,171.31,261.971z"/>
		<path d="M169.63,263.1c-0.59-1.938,2.229-2.199,2.521-0.85c-0.061,1.061-0.729,1.52-1.96,1.41
			C170.07,263.41,169.94,263.16,169.63,263.1z M170.19,262.82c0.729,0.068,1.21-0.11,1.119-0.852c-0.38,0.021-0.608-0.13-0.84-0.279
			C170.38,262.07,170.07,262.23,170.19,262.82z"/>
		<path fill="#FFFFFF" d="M169.07,221.59c-2.449,0.561-9.851-2.648-7.011,1.971c-0.55,0.529-2.79,0.369-3.369,0
			c-0.25-1.381,1.489-0.761,1.119-2.25c-0.029-1.08-1.09-1.149-2.239-1.119c0.421-0.82,1.681-1.892,1.12-2.801
			c-0.649-0.82-1.511,0.521-2.521,0.279c-0.46-7.68,10.66-10.641,12.899-3.09c-0.79-0.24-1.149-0.9-2.239-0.84
			c-1.28,0.26,0.14,1.76-0.57,2.24c-2.149-0.102-3.2,0.908-3.359,2.81C165.3,218.58,168.88,218.29,169.07,221.59z"/>
		<path d="M156.17,157.09c4.12-0.09,7.62-2.29,12.061-1.12c-3.221,1.55-7.311,2.23-11.779,2.53c-1.011,0.58-1.312,1.87-1.96,2.8
			c-2.171,0.7-5.23,0.58-5.33-2.24c-1.471,2.94-6.79,2.17-6.73-1.69c-5.38-0.5-9.13-2.65-12.9-4.76c3.841-2.08,8.07,3.15,12.62,3.36
			c-1.34-1.88-3.26-3.92-3.37-7.01c-0.359-10.89,19.161-10.53,21.03-0.56C160.69,153.05,157.75,154.32,156.17,157.09z
			 M158.97,150.92c1.59-13.89-26.82-11.2-17.66,3.09C146.04,158.55,158.12,158.36,158.97,150.92z M149.72,158.22
			c-0.1,4.73,6.85,2.42,5.33-1.13C153.69,157.88,151.92,158.27,149.72,158.22z M142.99,156.25c-0.73,4.12,4.8,5.71,5.329,1.69
			C146.02,157.89,144.68,156.9,142.99,156.25z"/>
		<path d="M164.3,195.79c-0.96,2.7-3.83,2.79-5.89,4.21c-2.45,1.689-4.28,5.3-8.41,5.05c-0.78,5.011-5.91,5.681-9.54,7.851
			c-1.75-2.08-1.07-6.59-2.521-8.971c-1.41-0.738-1.569,1.012-3.08,0.28c-1.569-2.46-3.22-5.399-2.81-8.42
			c0.54-3.931,5.08-7.79,6.729-11.771c0.49-1.17,0.341-2.479,0.841-3.649c6.58,0.06,11.619,1.66,18.229,1.68
			C160.21,186.42,163.33,190.029,164.3,195.79z M163.46,195.51c-1.04-5.13-3.979-8.35-5.891-12.619
			c-6.109-0.24-10.989-1.711-17.39-1.681c-0.68,3.56-2.29,5.351-3.92,8.13c-1.17,2-2.86,4.23-3.37,5.61
			c-1.07,2.93,1.101,7.34,3.37,8.7c0.79-1.642,0.68-4.19,1.68-5.61c0.021,1.649-1.09,4.89,0.561,5.61
			c0.359-2.271-0.2-5.44,1.12-6.73c-0.83,4.801-0.311,11,1.13,15.141c2.08-2.301,7.399-2.279,8.13-5.33
			c0.68-2.881-4.14-10.859-1.68-13.181c-0.061,4.45,0.85,7.931,2.239,10.94c3.301-0.07,4.87-1.86,6.73-3.37
			c-0.311-1.75-0.58-5.03,0-6.729c0.53,1.439,0.66,3.271,0.561,5.33C159.54,198.891,162.01,197.71,163.46,195.51z"/>
		<path fill="#FFFFFF" d="M157.57,182.891c1.91,4.271,4.851,7.489,5.891,12.619c-1.45,2.2-3.92,3.381-6.729,4.211
			c0.101-2.061-0.029-3.891-0.561-5.33c-0.58,1.699-0.311,4.979,0,6.729c-1.86,1.51-3.43,3.3-6.73,3.37
			c-1.39-3.01-2.3-6.49-2.239-10.94c-2.461,2.32,2.359,10.3,1.68,13.181c-0.73,3.051-6.05,3.029-8.13,5.33
			c-1.44-4.141-1.96-10.341-1.13-15.141c-1.32,1.29-0.761,4.46-1.12,6.73c-1.65-0.721-0.54-3.961-0.561-5.61
			c-1,1.42-0.89,3.97-1.68,5.61c-2.271-1.36-4.44-5.771-3.37-8.7c0.51-1.38,2.2-3.61,3.37-5.61c1.63-2.779,3.24-4.57,3.92-8.13
			C146.58,181.18,151.46,182.65,157.57,182.891z M157.57,190.75c0.5-0.73,1.779-2.141,0.841-3.37c-0.03,1-0.131,1.931-0.841,2.24
			c-0.71-1.62-0.699-3.97-1.681-5.32C155.73,187.17,156.4,189.21,157.57,190.75z M151.68,191.311c0.011-2.541-0.43-4.619-1.12-6.449
			C150.51,187.43,150.87,189.6,151.68,191.311z M148.6,189.061c0.38-1.511,1.91-4.461,0.561-5.891
			C149.29,185.27,147.9,187.33,148.6,189.061z M144.39,186.82c0.22-0.66,1.68-2.631,0.561-2.801
			C144.96,184.971,143.62,186.029,144.39,186.82z M141.03,193.83c0.62-1.75,2.891-4.73,2.24-5.891
			C142.5,189.7,140.52,191.73,141.03,193.83z M139.9,188.5c1.681-0.939,3.37-3.359,3.37-5.05
			C142.19,185.18,140.6,186.391,139.9,188.5z M140.46,184.3c0.149-0.51,1.3-2.38,0-2.53C140.56,182.54,139.66,183.74,140.46,184.3z"
			/>
		<path fill="#FFFFFF" d="M141.31,154.01c-9.16-14.29,19.25-16.98,17.66-3.09C158.12,158.36,146.04,158.55,141.31,154.01z
			 M153.93,150.92c1.83-0.28,1.771-4.11,0.562-5.04c-1.841-0.16-3.301,0.07-3.091,1.96c1.271,0.05,0.689-1.74,2.25-1.4
			C154.76,147.05,154.76,149.98,153.93,150.92z M146.63,149.24c0.95-0.73,1.82-1.55,1.689-3.36c-0.55-1.82-4.439-0.8-3.649,0.84
			c0.5-0.72,1.29-1.15,2.53-1.12C148.22,147.02,146.27,148.56,146.63,149.24z"/>
		<path fill="#FFFFFF" d="M158.97,221.029c0.181,1.4-1.43,1-1.68,1.971c-0.11,0.67,1.279-0.16,0.84,0.84c-2.62,0-5.229,0-7.851,0
			c0.131-1.83,1.891-2.05,3.081-2.811c-1.869-1.119-2.47,1.439-3.92,1.681c0.12-1.14-0.26-1.79-0.56-2.521
			c-0.53,0.641,0.32,2.279,0,3.649c-5.48,0.04-9.851-0.12-14.86,0c-0.92-2.21,0.87-3.68,3.08-3.649
			c0.93-2.149,2.48-3.689,4.21-5.051c1.34-0.029,1.851,0.771,2.24,1.69c1.32-0.86,2.93-2.511,5.05-1.69c0.19,0.87,0.19,0.541,0,1.4
			c0.53,0.529,0.5-0.16,1.4,0c0.229,0.71,0.77,1.109,0.84,1.97c1.41-0.31,3.28,0.15,3.93,1.4c1.19-0.4,1.512-1.66,3.08-1.681
			c-0.29,1.289-1.56,1.619-1.96,2.801C156.22,222.12,157.42,220.45,158.97,221.029z M143.55,222.43c-0.16-1.89-2.08-2.029-3.37-2.8
			C140.85,221.02,142.5,221.43,143.55,222.43z"/>
		<path d="M158.41,187.38c0.938,1.229-0.341,2.64-0.841,3.37c-1.17-1.54-1.84-3.58-1.681-6.45c0.98,1.351,0.971,3.7,1.681,5.32
			C158.28,189.311,158.38,188.38,158.41,187.38z"/>
		<path d="M158.13,226.08c1.01,0.199,0.399,1.32,0,1.68C157.34,227.48,158.21,226.57,158.13,226.08z"/>
		<path fill="#FFFFFF" d="M157.01,212.34c-0.67,1.852-1.79,3.26-1.399,6.17c-1.439,0.602-2.029-1.33-4.21-0.84
			c-1.72-1.87-1.319-3.609,1.96-3.65C151.23,211.34,155.79,210.37,157.01,212.34z"/>
		<path fill="#FFFFFF" d="M155.05,157.09c1.521,3.55-5.43,5.86-5.33,1.13C151.92,158.27,153.69,157.88,155.05,157.09z"/>
		<path d="M155.05,138.59c0,0.46,0,0.93,0,1.4c-0.62,0.59-1.87,0.22-2.25-0.28C152.45,137.87,154.21,137.77,155.05,138.59z"/>
		<path d="M154.49,145.88c1.21,0.93,1.27,4.76-0.562,5.04c0.83-0.94,0.83-3.87-0.279-4.48c-1.561-0.34-0.979,1.45-2.25,1.4
			C151.19,145.95,152.65,145.72,154.49,145.88z"/>
		<path d="M142.43,162.14c3.72,0.84,9.339,1.56,12.9,0.84C152.28,164.86,144.82,164.32,142.43,162.14z"/>
		<path d="M150.56,184.859c0.69,1.83,1.13,3.91,1.12,6.449C150.87,189.6,150.51,187.43,150.56,184.859z"/>
		<path d="M149.16,183.17c1.35,1.43-0.181,4.38-0.561,5.891C147.9,187.33,149.29,185.27,149.16,183.17z"/>
		<path d="M148.88,227.2c0.86-0.15,0.64,2.43-0.28,2.81C148.43,228.811,148.8,228.15,148.88,227.2z"/>
		<path d="M148.6,137.74c0.601,1.07,0.061,1.92-0.56,2.53C146.28,140.18,146.06,137.14,148.6,137.74z"/>
		<path d="M148.32,145.88c0.131,1.81-0.739,2.63-1.689,3.36c-0.36-0.68,1.59-2.22,0.57-3.64c-1.24-0.03-2.03,0.4-2.53,1.12
			C143.88,145.08,147.77,144.06,148.32,145.88z"/>
		<path fill="#FFFFFF" d="M148.32,157.94c-0.529,4.02-6.06,2.43-5.329-1.69C144.68,156.9,146.02,157.89,148.32,157.94z"/>
		<path d="M145.23,226.641c0.95,0.18,0.73,1.51,0.84,2.521c-0.75-0.08-0.5-1.181-1.119-1.4c-3.601,0.421-7.78,0.261-11.78,0.28
			C136.5,226,141.86,228.79,145.23,226.641z"/>
		<path d="M144.95,184.02c1.119,0.172-0.341,2.142-0.561,2.801C143.62,186.029,144.96,184.971,144.95,184.02z"/>
		<path d="M143.27,187.939c0.65,1.16-1.62,4.141-2.24,5.891C140.52,191.73,142.5,189.7,143.27,187.939z"/>
		<path d="M140.18,219.63c1.29,0.771,3.21,0.91,3.37,2.8C142.5,221.43,140.85,221.02,140.18,219.63z"/>
		<path d="M143.27,183.45c0,1.688-1.689,4.108-3.37,5.05C140.6,186.391,142.19,185.18,143.27,183.45z"/>
		<path d="M140.46,181.77c1.3,0.15,0.149,2.021,0,2.53C139.66,183.74,140.56,182.54,140.46,181.77z"/>
		<path fill="#FFFFFF" d="M137.1,215.98c0.65,0.619,0.93-0.711,2.24-0.28c-2.1,0.71-1.48,4.13-4.48,3.93
			c-0.5-1.84-1.79-2.89-2.81-4.21c0.53-1.15,0.97-2.391,2.53-2.52c0,0.47,0,0.93,0,1.398c1.029-0.18,1.67-0.76,3.08-0.561
			C137.9,214.91,137.12,215.07,137.1,215.98z"/>
		<path fill="#FFFFFF" d="M134.3,219.63c-0.37,1.03-2.42,2.75-0.85,3.931c-6.54,1.381-12.9-0.149-19.061,0.561
			C112.19,211.62,130.83,210.48,134.3,219.63z M132.33,222.71c0.29-0.87-0.21-3.06-1.681-3.08
			C131.07,220.8,131.45,222.01,132.33,222.71z M123.92,215.98c0.1-1.03-1.021-0.842-1.68-1.121
			C122.14,215.891,123.26,215.71,123.92,215.98z M117.19,218.79c0.7-0.14,1.69,0.01,1.681-0.84
			C117.88,217.8,117.43,218.18,117.19,218.79z M117.47,223c-0.64-1.77,1.6-3.33,0.56-3.65C117.45,220,115.5,222.439,117.47,223z"/>
		<path d="M130.65,219.63c1.471,0.021,1.971,2.21,1.681,3.08C131.45,222.01,131.07,220.8,130.65,219.63z"/>
		<path d="M131.49,281.88c0.989,0.341,0.619,3.17,0.279,3.931C130.71,285.4,131.26,282.76,131.49,281.88z"/>
		<path d="M130.65,227.76c-0.239,0.82-0.42,0.32-1.12,0.28c0-0.28,0-0.56,0-0.84C130.29,227,130.09,227.76,130.65,227.76z"/>
		<path d="M127.57,228.04c-0.739,0.08-1.21-0.101-1.13-0.84C126.92,226.689,127.55,227.29,127.57,228.04z"/>
		<path d="M122.24,214.859c0.659,0.279,1.779,0.091,1.68,1.121C123.26,215.71,122.14,215.891,122.24,214.859z"/>
		<path fill="#FFFFFF" d="M107.93,235.33c-1.77-0.859-3.58-2.84-3.36-4.76C103.25,232.71,105.33,235.33,107.93,235.33z
			 M123.08,233.09c-1.92-0.13-2.63-1.49-4.21-1.96c-1.74,2.83-3.03,6.13-7.011,6.729c-0.729-0.58-0.47-2.149-1.119-2.811
			c-2.82,1.301-4.421,3.811-8.69,3.65c-1.23-2.051-0.14-5.182,0.56-7.01c-2.71,1.06-6.069,2.229-9.819,1.398
			c-0.54-2,1.52-3.42,2.529-4.77c-0.97-0.75-3.51-0.521-3.09-3.36c4.601-2.31,10,2.46,13.181-0.28c-0.25-1.439-1-2.369-2.24-2.81
			c0.46-1.22,0.93-2.431,1.399-3.64c1.46-0.102,0.341,1.31,0.841,1.68c2.02-1.061,3.17-3,6.17-3.08c0.13,0.88-0.75,0.74-0.84,1.4
			c0.409,0.898,2.359,0.26,3.079,0.84C110.76,227.45,121.66,226.8,123.08,233.09z M114.95,230.29c0.819-0.149,1.369,1.39,1.96,0.56
			c-1.311-0.938-2.54-1.949-3.65-3.09c0.77,1.67,1.35,3.51,1.13,6.17C116.06,233.811,114.85,231.38,114.95,230.29z M111.3,224.12
			c-0.15-1.37,1.38-2.53,0.56-3.649C111.33,221.18,109.97,223.32,111.3,224.12z M110.18,221.87c-0.18-1.04,0.45-2.88-0.56-3.08
			C109.04,219.641,109.6,221.29,110.18,221.87z M108.5,229.721c1.149,0.439,1.66,1.521,3.08,1.689c-1.811-1.54-4.04-3.25-2.801-7.01
			c-1.76,1.83-1.39,7.6,0.841,8.688C109.22,231.99,108.76,230.95,108.5,229.721z M105.13,226.641
			c-0.771,0.689-0.021,3.239,0.84,2.239C105.08,228.75,106.44,226.359,105.13,226.641z M98.96,230.57
			c0.74-0.65,1.91-3.602,1.12-3.932C99.58,227.82,98.7,228.62,98.96,230.57z M97,230.57c0.529-1.57,3.22-3.83,2.52-4.771
			C98.46,227.17,96.88,228.02,97,230.57z"/>
		<path d="M118.87,217.95c0.01,0.85-0.98,0.7-1.681,0.84C117.43,218.18,117.88,217.8,118.87,217.95z"/>
		<path d="M118.03,219.35c1.04,0.32-1.199,1.881-0.56,3.65C115.5,222.439,117.45,220,118.03,219.35z"/>
		<path d="M116.63,268.141c0.06,1-0.4,1.471-1.4,1.409c-0.22-0.25-0.31-0.64-0.279-1.13c0.369,0.74,1.079,0.71,0.84-0.561
			C116.01,268.01,116.24,268.16,116.63,268.141z"/>
		<path d="M116.91,230.85c-0.591,0.83-1.141-0.709-1.96-0.56c-0.101,1.09,1.109,3.521-0.561,3.64c0.22-2.66-0.36-4.5-1.13-6.17
			C114.37,228.9,115.6,229.91,116.91,230.85z"/>
		<path fill="#FFFFFF" d="M111.86,193.27c1.42,8.711,0.92,17.172,0.841,24.961c-1.28-0.16,0.39-1.819-0.841-2.25
			c-2.83-0.211-4.069,1.17-5.609,2.25c-1.51-0.641-2.69-1.609-2.521-3.931c1,0.07,1.03-0.84,1.96-0.84
			c-0.05,1.271,0.73,1.7,1.681,1.96c1.89-0.08,0.93-3,2.81-3.08c-0.22-0.99-1.04-1.398-1.4-2.25c0.79,0.352,1.851,0.23,2.24-0.56
			c-0.56-1.892-3.68-1.66-5.609-1.4c0.119-0.909,1.25-0.81,1.119-1.96c-4.079-0.439-7.819,1.891-10.369,3.92
			c-0.71-0.79-0.94-2.05-1.971-2.52c-6.56,0.068-10.64,2.63-14.58,5.33c-0.88,0.14-0.989-0.512-1.96-0.28
			c-2.25,0.84-2.979,3.188-3.93,5.33c-0.05-1.28,0.67-4.19,1.69-5.33c-0.761-3.771,1.689-6.45,4.76-7.29
			c-1.34-0.96-2.44,0.72-3.641,0.84c-1.149-3.17-1.31-8.75,3.36-8.41c0.98,0.521,1.33,1.66,1.97,2.521
			c7.021,1.55,16.46,0.88,21.03-2.521c-3.95,0.73-8.95,2.83-14.87,2.521c-0.88-0.141-0.77-1.28-1.12-1.961
			c-1.689,0.529-4.02,0-5.33,0.279c-0.6-2.56-3.97-2.1-5.319-0.56c-9.96-0.37-10.91-11.11-22.721-8.7
			c2.021-4.77,4.4-8.97,3.931-14.86c-0.351-4.34-2.15-8.66-0.84-12.62c1.1-3.33,4.869-5.76,7.29-8.13
			c4.85-4.76,6.25-12.06,12.06-15.71c-5.94-3.28-14.68-6.54-12.62-15.98c9.46-1.56,17.18,2.33,15.42,13.18
			c4.05-0.91,8.851-0.58,12.34,0.56c0.11-1.47-0.08-4.93,0-7.29c1.32-2.01,2.381-4.36,5.33-4.77c3.811-0.53,8.86,2.96,9.25,5.61
			c0.36,2.41-1.699,4.66-3.08,5.61c-1.76,1.2-7.649,2.55-7.859,4.21c0.029,0,3.52,5.58,3.93,6.45c2.38,5,4.01,9.37,6.45,14.3
			c1.08,2.19,2.86,4.58,3.37,6.73c0.7,3.02-0.74,5.81-0.851,8.97C107.47,180.99,110.85,187.08,111.86,193.27z M98.96,173.64
			c1.54-0.06,3.55,0.37,3.37-1.4c-3.9-1.61-8.57,0.74-11.5,1.96c6.149-13.38-22.83-19.79-23-4.21c-1.561-1.86-4.271-5.35-7.57-3.64
			c-0.26,2.13,2.78,0.96,3.37,2.24c1.12,7.48,5.96,11.24,13.18,12.62c2.86,4.53,7.13,8.64,13.46,7.851
			C97.21,188.2,102.89,180.08,98.96,173.64z M100.08,129.61c0.569,1.03,2.72,1.95,3.37,1.97
			C102.89,130.36,101.97,129.5,100.08,129.61z M93.63,170.27c0.43-1.19,0.54-3.69-0.561-4.2C93.6,167.13,93.01,169.31,93.63,170.27z
			 M87.18,149.52c1.55-2.07-2.4-3.39-1.96-0.56C85.69,149.33,86.16,149.7,87.18,149.52z M80.73,139.71c2.36-0.21,5.49,0.3,7.011,0
			C85.92,138.7,82.61,138.64,80.73,139.71z M88.31,190.18c-4.479,0.65-9.53,0.19-13.189-0.84
			C77.62,191.58,85.09,191.99,88.31,190.18z M79.33,148.68c1.25,0.13,2.09-0.16,1.96-1.4C80.63,145.61,78.14,146.97,79.33,148.68z
			 M65.03,125.12c2.23,2.08,6.101,0.19,8.69,0.29C71.09,124.25,67.36,125.73,65.03,125.12z"/>
		<path d="M111.86,220.471c0.82,1.119-0.71,2.279-0.56,3.649C109.97,223.32,111.33,221.18,111.86,220.471z"/>
		<path d="M109.62,218.79c1.01,0.2,0.38,2.04,0.56,3.08C109.6,221.29,109.04,219.641,109.62,218.79z"/>
		<path d="M111.58,231.41c-1.42-0.17-1.931-1.25-3.08-1.689c0.26,1.229,0.72,2.271,1.12,3.369c-2.23-1.09-2.601-6.859-0.841-8.689
			C107.54,228.16,109.77,229.87,111.58,231.41z"/>
		<path fill="#FFFFFF" d="M110.18,209.25c-0.54,1.2-2.56,0.02-3.65,0c0.16,1.62,2.37,1.189,2.53,2.811
			c-0.819,0.069-0.859-0.641-1.689-0.561c0.18,1.221,1.17,2.52-0.28,3.08c-0.92-0.57-1.07-1.92-1.68-2.801
			c-0.86,0.261-1.12,1.121-1.681,1.681c-1.069-0.33-0.89-1.91-1.96-2.24c-1.76,0.2-3.5,0.431-5.05,0.841
			c0.3-3.199,5.32-3.99,8.13-5.609c1.22,0.93-2.399,1.66-2.8,2.8C103.89,209.57,108,207.8,110.18,209.25z"/>
		<path d="M105.97,228.88c-0.86,1-1.61-1.55-0.84-2.239C106.44,226.359,105.08,228.75,105.97,228.88z"/>
		<path d="M104.57,230.57c-0.22,1.92,1.591,3.898,3.36,4.76C105.33,235.33,103.25,232.71,104.57,230.57z"/>
		<path fill="#FFFFFF" d="M104.29,224.68c-6.67,0.67-5.36-4.979-12.62-3.93c-1.32,0.189-2.101,0.66-2.8,1.12
			c-1.601,1.04-3.101,4.979-5.891,5.33c-2.779,0.35-5.02-2.32-7.29-1.681c-2.029-3.819-1.449-9.979,2.521-12.061
			c2.17,0.54,3.21,2.21,4.77,3.37c0.17-1.59,6.15-7.8,6.45-1.69c1.83-1.068,4.72,0.36,6.17,1.4c1.04-0.45,0.29-2.689,1.12-3.359
			c1.47-0.49,2.93-0.99,5.05-0.841c1.9,2.591,1.51,6.511,0.28,9.53C103,222.6,104.23,223.061,104.29,224.68z M100.08,220.75
			c1.46,0.141,2.25-2.7,1.13-3.359C100.76,218.43,100.93,220.1,100.08,220.75z M99.8,218.79c0.19,0.84-1.78,1.89-0.56,1.96
			c1.779-1.01,1.47-5.48-0.841-5.609C98.9,216.32,99.82,217.09,99.8,218.79z M95.04,219.63c-1.061-2.03-4.66-3.01-7.3-2.521
			C90.66,217.46,92.94,218.46,95.04,219.63z M88.59,220.189c-2.01,0.5-4.39-0.061-5.61,0C83.87,221.37,87.7,221.42,88.59,220.189z
			 M84.66,223c-2.2,1.16-4.9-1.08-6.45-0.57C79.41,223.54,84.52,225.05,84.66,223z M77.37,217.391c0.56,2.149,2.37,4.539,4.77,3.92
			C79.76,220.79,79.32,218.33,77.37,217.391z M80.73,218.51c0-0.75,0.16-1.648-0.56-1.68C80.18,217.57,80.02,218.48,80.73,218.51z"
			/>
		<path d="M102.33,172.24c0.18,1.77-1.83,1.34-3.37,1.4c3.93,6.44-1.75,14.56-8.69,15.418c-6.33,0.791-10.6-3.318-13.46-7.85
			c-7.22-1.38-12.06-5.141-13.18-12.62c-0.59-1.28-3.63-0.11-3.37-2.24c3.3-1.71,6.01,1.78,7.57,3.64
			c0.17-15.58,29.149-9.17,23,4.21C93.76,172.98,98.43,170.63,102.33,172.24z M89.71,188.221c6.59-0.779,12.5-7.801,7.569-14.581
			c-4-0.68-7.3,1.64-8.97,4.209c0.61-0.061,0.891,0.229,0.84,0.84c-3.229-0.67-6.87,2.25-11.5,1.961
			C80.36,184.68,83.88,188.91,89.71,188.221z M89.71,174.76c4.569-7.79-4.86-12.91-11.22-12.9c-6.94,0.01-11.83,4.73-9.811,11.5
			C70.82,180.55,85.61,181.74,89.71,174.76z"/>
		<path d="M103.45,131.58c-0.65-0.02-2.801-0.94-3.37-1.97C101.97,129.5,102.89,130.36,103.45,131.58z"/>
		<path d="M101.21,217.391c1.12,0.659,0.33,3.5-1.13,3.359C100.93,220.1,100.76,218.43,101.21,217.391z"/>
		<path d="M100.08,226.641c0.79,0.33-0.38,3.279-1.12,3.93C98.7,228.62,99.58,227.82,100.08,226.641z"/>
		<path d="M99.24,220.75c-1.221-0.07,0.75-1.12,0.56-1.96c0.02-1.7-0.9-2.47-1.4-3.649C100.71,215.27,101.02,219.74,99.24,220.75z"
			/>
		<path d="M99.52,225.8c0.7,0.94-1.99,3.2-2.52,4.771C96.88,228.02,98.46,227.17,99.52,225.8z"/>
		<path fill="#FFFFFF" d="M97.28,173.64c4.931,6.78-0.979,13.799-7.569,14.581c-5.83,0.689-9.351-3.541-12.061-7.57
			c4.63,0.291,8.271-2.631,11.5-1.959c0.051-0.61-0.229-0.9-0.84-0.842C89.98,175.28,93.28,172.96,97.28,173.64z M89.99,187.1
			c0.279-0.5,1.069-1.72,0-1.959C90.25,186.189,88.8,186.74,89.99,187.1z M86.9,186.82c1.021,0.148,2.13-1.03,1.41-1.682
			C87.88,185.75,86.9,185.79,86.9,186.82z M81.86,184.02c0.96,0.672,3.07,2.701,4.2,1.4C84.38,185.41,83.21,183.41,81.86,184.02z"/>
		<path fill="#FFFFFF" d="M95.6,215.141c-1.28,0.239-3.03-1.461-5.33-1.121c-0.979-4.879-6.79-1.27-7.569,1.4
			c-0.78-0.529-1.381-1.24-2.25-1.68c3.26-2.91,7.859-4.48,12.899-5.61C95.68,209.689,95.56,212.48,95.6,215.141z M90.83,209.811
			c1.04,0.649,0.68,2.689,1.96,3.09C92.65,211.54,92,209.221,90.83,209.811z"/>
		<path fill="#FFFFFF" d="M86.9,225.24c0.99-3.932,8.261-4.79,11.221-1.961C94.15,223.7,89.77,223.71,86.9,225.24z"/>
		<path d="M93.07,166.07c1.101,0.51,0.99,3.01,0.561,4.2C93.01,169.31,93.6,167.13,93.07,166.07z"/>
		<path d="M92.79,212.9c-1.28-0.4-0.92-2.44-1.96-3.092C92,209.221,92.65,211.54,92.79,212.9z"/>
		<path d="M89.99,185.141c1.069,0.239,0.279,1.459,0,1.959C88.8,186.74,90.25,186.189,89.99,185.141z"/>
		<path fill="#FFFFFF" d="M78.49,161.86c6.359-0.01,15.789,5.11,11.22,12.9c-4.101,6.98-18.891,5.79-21.03-1.4
			C66.66,166.59,71.55,161.87,78.49,161.86z M85.5,173.64c2.6-2.09,0.58-8.14-3.08-5.61c-0.05,0.89-0.641,1.23-0.561,2.24
			c1.32,0.11,0.53-1.89,1.96-1.68C87.03,167.94,85.32,172.79,85.5,173.64z M74.56,173.92c-3.54-2.57,1.36-8.11,3.37-3.65
			C75.96,162.82,69.01,172.36,74.56,173.92z"/>
		<path d="M87.74,217.109c2.64-0.489,6.239,0.49,7.3,2.521C92.94,218.46,90.66,217.46,87.74,217.109z"/>
		<path d="M88.31,185.141c0.72,0.649-0.39,1.83-1.41,1.68C86.9,185.79,87.88,185.75,88.31,185.141z"/>
		<path d="M85.22,148.96c-0.44-2.83,3.51-1.51,1.96,0.56C86.16,149.7,85.69,149.33,85.22,148.96z"/>
		<path d="M82.98,220.189c1.221-0.061,3.601,0.5,5.61,0C87.7,221.42,83.87,221.37,82.98,220.189z"/>
		<path fill="#FFFFFF" d="M82.7,199.439c0.92-0.351,4.479-0.939,4.199,0.84C85.25,200.25,83.93,199.88,82.7,199.439z"/>
		<path d="M87.74,139.71c-1.521,0.3-4.65-0.21-7.011,0C82.61,138.64,85.92,138.7,87.74,139.71z"/>
		<path d="M86.34,233.93c0.21,0.771-0.55,0.57-0.561,1.12c-0.42-0.229-0.399-0.899-0.56-1.399
			C85.81,233.529,85.96,233.84,86.34,233.93z"/>
		<path d="M82.42,168.03c3.66-2.53,5.68,3.52,3.08,5.61c-0.181-0.85,1.529-5.7-1.681-5.05c-1.43-0.21-0.64,1.79-1.96,1.68
			C81.78,169.26,82.37,168.92,82.42,168.03z"/>
		<path d="M86.06,185.42c-1.13,1.301-3.24-0.729-4.2-1.4C83.21,183.41,84.38,185.41,86.06,185.42z"/>
		<path d="M75.12,189.34c3.659,1.03,8.71,1.49,13.189,0.84C85.09,191.99,77.62,191.58,75.12,189.34z"/>
		<path d="M82.7,237.859c0.67,0.109,0.609-0.51,1.399-0.279c-0.189,0.65-0.51,1.17-1.399,1.12
			C82.7,238.42,82.7,238.141,82.7,237.859z"/>
		<path d="M78.21,222.43c1.55-0.51,4.25,1.73,6.45,0.57C84.52,225.05,79.41,223.54,78.21,222.43z"/>
		<path d="M82.14,221.311c-2.399,0.619-4.21-1.771-4.77-3.92C79.32,218.33,79.76,220.79,82.14,221.311z"/>
		<path d="M81.29,147.28c0.13,1.24-0.71,1.53-1.96,1.4C78.14,146.97,80.63,145.61,81.29,147.28z"/>
		<path d="M80.17,216.83c0.72,0.029,0.56,0.93,0.56,1.68C80.02,218.48,80.18,217.57,80.17,216.83z"/>
		<path d="M77.93,170.27c-2.01-4.46-6.91,1.08-3.37,3.65C69.01,172.36,75.96,162.82,77.93,170.27z"/>
		<path fill="#FFFFFF" d="M76.25,206.45c-0.28,0.938-1.13,1.3-1.41,2.239c-0.86-0.221-1.82-4.061-0.84-1.959
			c0.399-0.791-0.021-3.15-0.28-4.211c-0.7,0.58-0.67,2.199-0.28,3.09c-1.43-1.459-2.27-3.521-3.359-5.33
			c0.71-0.5,1.14-1.279,1.12-2.521c2.01,0.33,1.92,1.44,4.489,0.841C74.92,200.98,74.15,204.93,76.25,206.45z M72.32,201.96
			c0.29-0.62,1.15-2.44,0-2.8C72.16,199.77,71.65,201.46,72.32,201.96z"/>
		<path d="M73.72,125.41c-2.59-0.1-6.46,1.79-8.69-0.29C67.36,125.73,71.09,124.25,73.72,125.41z"/>
		<path fill="#FFFFFF" d="M73.44,218.51c0.12,0.961-0.08,1.602-1.12,1.4C72.25,219,72.65,218.561,73.44,218.51z"/>
		<path d="M72.32,199.16c1.15,0.359,0.29,2.18,0,2.8C71.65,201.46,72.16,199.77,72.32,199.16z"/>
		<path d="M71.76,226.92c0.48-0.51,1.1,0.09,1.12,0.84C72.35,227.641,71.67,227.66,71.76,226.92z"/>
		<path fill="#FFFFFF" d="M65.03,198.88c6.82,2.54,12.421,13.841,5.891,20.75c-0.29-1.58-0.86-2.88-1.96-3.649
			c0.5,2.431,2.09,4.511,1.399,7.301c-14.369-0.641-30.479,0.35-43.75,0.84c-5.25-4.42-3.619-16.96,0.841-21.04
			c-0.671-0.19-1.931,1.43-2.24,2.53c-0.58-7.78,4.439-12.392,12.34-12.62c0.03-0.421,0.37-1.261,0.84-1.96
			c3.07-3.67,9.28-3.262,14.021-1.41c-0.681,0.729-1.971,0.84-2.24,1.97c8.21-4.34,17.54,0.63,18.79,8.97
			C67.79,199.85,66.6,199.18,65.03,198.88z M65.03,209.811c-1.739-2.74-5.17-5.301-8.689-5.319
			C59.86,205.641,62.6,207.57,65.03,209.811z M58.58,195.51c-3.141,0.131-4.271,2.271-5.891,3.932c-1.12,0-2.239,0-3.359,0
			c-0.521-1.66,0.21-4.682-0.57-5.33c-0.78,1.27-1.28,2.83-1.96,4.209c-1.18-0.811-3.79-2.789-4.771-1.971
			c0.851,0.75,2.11,2.562,1.69,3.65c-1.37-0.96-4.24-2.49-6.17-1.12c4.15-0.17,8.12,2.011,7.29,5.05c1.63-1.068,4.38,0.65,5.33,0.28
			c-0.75-0.86,1.29-1.319,2.24-1.41C52.66,198.57,56.01,197.43,58.58,195.51z M56.9,221.87c-1.39-5.25-2.87-10.399-5.89-14.021
			C53.1,212.4,54.73,217.4,56.9,221.87z M43.72,217.95c-0.14-2.479,1.45-4.72,1.12-6.45C44.01,213.01,42.85,215.67,43.72,217.95z
			 M42.88,219.07c-0.86-0.99,0.979-5.75,0-6.73C42.47,214.13,41.31,218.67,42.88,219.07z M40.35,192.43
			c0.32,0.62,1.38,1.961,1.96,1.4C41.9,193.13,41.13,192.77,40.35,192.43z M39.51,193.83c1.11-0.25,1.53,1.63,2.24,0.84
			C41.06,194.51,40.26,193,39.51,193.83z M41.75,204.77c-1.87,0.182-4.15,1.44-4.2,2.521C38.67,206.17,40.57,205.83,41.75,204.77z
			 M34.18,208.689c1.73-2.569,4.63-3.971,7.57-5.319C38.07,203.8,34.78,206.109,34.18,208.689z M31.38,222.71
			c-0.65-3.92,1.07-6.96,1.12-9.25C31.16,215.5,30.03,219.74,31.38,222.71z"/>
		<path fill="#FFFFFF" d="M68.39,196.35c0.811-0.119,2.71,2.041,1.41,3.371C69.22,198.71,69.12,197.221,68.39,196.35z"/>
		<path d="M67.83,226.641c0.92-0.07,1.35,0.33,1.41,1.119C68.57,227.59,67.93,227.38,67.83,226.641z"/>
		<path d="M66.43,227.48c-1.33,0.77-3.18-0.36-4.49-0.562C63.06,225.87,65.18,227,66.43,227.48z"/>
		<path d="M56.34,204.49c3.52,0.02,6.95,2.58,8.689,5.318C62.6,207.57,59.86,205.641,56.34,204.49z"/>
		<path d="M61.66,251.04c0.55,0.63,0.25,2.11,0,2.8C58.73,254.91,59.22,249.15,61.66,251.04z M60.82,253.279
			c0.381-0.409,0.58-2.221-0.279-2.239C60.17,251.45,59.97,253.26,60.82,253.279z"/>
		<path fill="#FFFFFF" d="M60.54,251.04c0.859,0.021,0.66,1.83,0.279,2.239C59.97,253.26,60.17,251.45,60.54,251.04z"/>
		<path d="M54.37,227.2c0.739-0.08,1.21,0.1,1.13,0.84C54.76,228.12,54.29,227.939,54.37,227.2z"/>
		<path d="M52.69,199.439c1.62-1.66,2.75-3.801,5.891-3.931c-2.57,1.921-5.92,3.062-6.17,7.29c-0.95,0.09-2.99,0.551-2.24,1.41
			c-0.95,0.37-3.7-1.35-5.33-0.279c0.83-3.041-3.14-5.221-7.29-5.051c1.93-1.37,4.8,0.16,6.17,1.12c0.42-1.09-0.84-2.899-1.69-3.649
			c0.98-0.82,3.591,1.159,4.771,1.971c0.68-1.381,1.18-2.94,1.96-4.211c0.78,0.649,0.05,3.67,0.57,5.33
			C50.45,199.439,51.57,199.439,52.69,199.439z M51.85,202.24c-0.229-0.971,0.42-1.07,0.28-1.961c-1.33-0.84-2.37,0.511-3.37,0
			c-0.3-1.1-0.06-2.739-0.56-3.649c-0.54,0.67-0.54,1.89-1.12,2.53c-1.051-0.721-1.971-1.58-3.36-1.96
			c0.47,2.04,1.29,3.75,1.68,5.88C48.35,203.49,49.74,203.12,51.85,202.24z"/>
		<path d="M51.01,207.85c3.02,3.621,4.5,8.771,5.89,14.021C54.73,217.4,53.1,212.4,51.01,207.85z"/>
		<path fill="#FFFFFF" d="M52.13,200.279c0.14,0.891-0.51,0.99-0.28,1.961c-2.109,0.88-3.5,1.25-6.45,0.84
			c-0.39-2.13-1.21-3.84-1.68-5.88c1.39,0.38,2.31,1.239,3.36,1.96c0.58-0.641,0.58-1.86,1.12-2.53c0.5,0.91,0.26,2.55,0.56,3.649
			C49.76,200.79,50.8,199.439,52.13,200.279z"/>
		<path d="M48.76,227.2c0.79-0.04,0.81,0.688,0.85,1.399C49.11,228.35,48.63,228.08,48.76,227.2z"/>
		<path d="M44.84,211.5c0.33,1.73-1.26,3.971-1.12,6.45C42.85,215.67,44.01,213.01,44.84,211.5z"/>
		<path d="M39.79,228.32c0.54-1.53,6.02-1.28,6.45-0.28C44.09,228.13,42.19,228.48,39.79,228.32z"/>
		<path d="M42.88,212.34c0.979,0.98-0.86,5.74,0,6.73C41.31,218.67,42.47,214.13,42.88,212.34z"/>
		<path d="M42.31,193.83c-0.58,0.561-1.64-0.78-1.96-1.4C41.13,192.77,41.9,193.13,42.31,193.83z"/>
		<path d="M41.75,194.67c-0.71,0.79-1.13-1.09-2.24-0.84C40.26,193,41.06,194.51,41.75,194.67z"/>
		<path d="M37.55,207.29c0.05-1.08,2.33-2.34,4.2-2.521C40.57,205.83,38.67,206.17,37.55,207.29z"/>
		<path d="M41.75,203.37c-2.94,1.351-5.84,2.75-7.57,5.319C34.78,206.109,38.07,203.8,41.75,203.37z"/>
		<path d="M38.11,227.48c1.25-0.041,0.17,1.14,0,1.398C37.29,228.65,38.28,227.98,38.11,227.48z"/>
		<path d="M34.74,227.48c0.46-0.08,0.489,0.27,0.84,0.278c-0.23,0.8-0.63,1.431-1.4,1.681C34.02,228.439,34.51,228.09,34.74,227.48z
			"/>
		<path d="M31.66,227.76c1,0.17,0.46,1.891,0.279,2.53C31.05,230.23,31.29,228.21,31.66,227.76z"/>
		<path d="M32.5,213.46c-0.05,2.29-1.771,5.33-1.12,9.25C30.03,219.74,31.16,215.5,32.5,213.46z"/>
		<path d="M30.26,274.311c-0.24,0.801,0.39,0.729,0.28,1.41c-0.88,0.039-0.971-0.721-1.12-1.41
			C29.7,274.311,29.98,274.311,30.26,274.311z"/>
		<path d="M27.17,228.04c-0.021,0.92-0.36,1.51-1.12,1.68C25.94,228.68,26.27,228.08,27.17,228.04z"/>
		<path d="M15.95,228.88c3.3-0.04,6.479-0.938,9.54-0.84c-0.91,0.31-0.881,1.56-1.961,1.681c-0.119-0.58,0.19-0.74,0.28-1.121
			C21.68,228.99,18.08,230.3,15.95,228.88z"/>
		<path d="M25.21,273.75c0.75,0.33,0,1.46,0,1.971C24.19,275.529,24.75,274.08,25.21,273.75z"/>
		<path fill="#FFFFFF" d="M26.05,224.12c-2.23,2.101-3.39-1.13-5.33-1.97c-2.38-1.021-6.1-0.551-6.729-2.801
			c0.34-1.439,0.569-2.99,1.399-3.931c-0.399-0.899-1.37-1.239-2.24-1.68c0.391-2.78,1.95-4.41,4.49-5.05
			c0.311,0.528,0.36,1.328,0.561,1.97c1.43-0.761,2.72-3.021,5.05-1.97c-0.4,3.05-1.76,6.879-0.561,9.818
			c-1.51,0.36-4.33-0.59-5.89,0.28c1.17,0.19,4.08,0.16,5.89,0.56C23.63,221.109,24.32,223.141,26.05,224.12z M21.56,213.74
			c-1.54-0.381-4.1-0.471-4.479,1.119C18.28,214.189,20.14,214.189,21.56,213.74z M21,212.62c-1.48-0.851-5.42-1-5.891,0.84
			C17,212.52,18.99,213.07,21,212.62z"/>
		<path d="M23.81,272.07c-0.38,0.648,0.04,2.1-1.12,1.959C22.12,273.33,22.84,272.109,23.81,272.07z"/>
		<path d="M22.4,270.109c0.04,0.971-0.54,1.32-0.84,1.961C20.29,271.891,21.54,269.971,22.4,270.109z"/>
		<path d="M17.08,214.859c0.38-1.59,2.939-1.5,4.479-1.119C20.14,214.189,18.28,214.189,17.08,214.859z"/>
		<path d="M15.11,213.46c0.471-1.84,4.41-1.69,5.891-0.84C18.99,213.07,17,212.52,15.11,213.46z"/>
		<path d="M15.39,243.189c1.23-0.391,0.601,1.08,1.69,0.84C16.77,245.15,15.06,244.391,15.39,243.189z"/>
		<path d="M17.08,241.5c-1.33,1.26-3.141-1.41-3.37-3.08c0.28,0,0.56,0,0.84,0c-0.55-0.43-0.88-1.63,0-1.96
			c-0.79-1.64-1.62-3.25-1.4-5.89c1.15,1.84,0.48,5.5,2.801,6.17c-0.04,0.51-0.95,0.17-1.12,0.56c-0.051,1.17,1.38,0.86,1.12,2.24
			c-0.5,0.04-0.591-0.34-1.12-0.28C15.29,240.3,15.76,241.32,17.08,241.5z"/>
	</g>
</g>
<text transform="matrix(1 0 0 1 113.0901 328.5)" font-family="'MyriadPro-Regular'" font-size="12"> 2012 Aardman Animations Ltd.</text>
</svg>
