<svg version="1.1" id="Lager_1" xmlns="http://www.w3.org/2000/svg" xmlns:xlink="http://www.w3.org/1999/xlink" x="0px" y="0px" width="300px" height="350px" viewBox="0 0 300 350" enable-background="new 0 0 300 350" xml:space="preserve"> <g> <g> <path fill="#FFFFFF" d="M143.294,7.25c-4.841,1.819-7.144,6.176-14.467,5.511C132.615,9.89,137.141,7.756,143.294,7.25z"/> <path d="M143.294,55.474c3.579,7.254,15.176,9.25,25.489,7.578c-49.75,17.033-25.37-67.072,10.334-40.646 c-19.959-8.707-42.277,6.869-36.513,32.379c-5.693-26.02,26.125-40.233,42.712-24.801c9.894,9.203,10.965,30.351-8.267,31.69 c5.904-3.97,13.969-5.78,14.467-15.156C184.305,55.404,157.998,64.366,143.294,55.474z M190.14,43.762 c1.946-16.611-25.937-22.651-38.579-11.711c-5.915,5.119-9.206,13.763-4.822,24.112c5.129,1.782,15.641,2.27,20.667,0 c-18.83-0.803-14.102-29.109,3.445-24.801c9.465,2.324,11.358,20.345,0.688,24.112C179.041,52.84,189.244,51.406,190.14,43.762z M166.717,54.096c13.011,0.275,13.685-24.807-2.756-19.979C153.538,37.179,156.226,53.875,166.717,54.096z"/> <path d="M135.027,26.54c0.526,6.726-4.99,7.41-8.267,10.334c-3.149-0.755-5.023-2.784-7.578-4.134 C121.19,27.397,128.16,22.848,135.027,26.54z M121.249,32.74c4.861,4.023,11.792,0.583,12.399-5.511 C127.581,25.41,122.895,28.157,121.249,32.74z"/> <path fill="#FFFFFF" d="M133.649,27.229c-0.607,6.095-7.538,9.534-12.399,5.511C122.895,28.157,127.581,25.41,133.649,27.229z"/> <path fill="#FFFFFF" d="M171.539,55.474c10.67-3.768,8.775-21.788-0.688-24.112c-17.547-4.308-22.275,23.998-3.445,24.801 c-5.026,2.27-15.538,1.782-20.667,0c-4.383-10.349-1.093-18.993,4.822-24.112c12.644-10.94,40.525-4.9,38.579,11.711 C189.244,51.406,179.041,52.84,171.539,55.474z"/> <path fill="#FFFFFF" d="M163.961,34.118c16.439-4.828,15.767,20.253,2.756,19.979C156.226,53.875,153.538,37.179,163.961,34.118z M171.539,43.074c-1.91-15.125-16.574,2.725-5.512,6.889c3.729-1.017,4.07-1.326,7.577,0 C176.493,48.313,176.438,40.257,171.539,43.074z"/> <path fill="#FFFFFF" d="M112.292,34.118c1.607,6.181,5.816,20.585,0,25.49c-0.968-8.906-4.104-15.646-4.822-24.801 C108.358,33.857,110.463,34.125,112.292,34.118z"/> <path fill="#FFFFFF" d="M104.715,36.874c1.877,0.648,1.577,3.475,2.065,5.511c-13.163-2.505-15.05,17.537-6.199,21.356 c-0.839,1.917-4.231,1.28-6.89,1.378C89.392,52.422,95.129,40.042,104.715,36.874z"/> <path fill="#FFFFFF" d="M172.917,43.074c0.554,0.364,1.118,0.718,2.065,0.688C175.263,52.19,168.146,47.914,172.917,43.074z"/> <path fill="#FFFFFF" d="M106.781,44.451c4.037,6.071,5.524,18.047-4.821,17.912C94.489,59.226,95.766,42.643,106.781,44.451z M104.715,59.607c3.813-0.744,4.574-8.039,2.065-11.022C99.128,44.418,97.156,59.788,104.715,59.607z"/> <path d="M135.027,49.962c-2.672,4.417-15.178,12.686-15.845,1.378C122.972,46.81,130.704,43.556,135.027,49.962z M120.56,53.407 c3.286,4.94,10.249-0.756,12.4-3.445C128.419,45.246,122.976,48.876,120.56,53.407z"/> <path fill="#FFFFFF" d="M132.96,49.962c-2.151,2.689-9.114,8.385-12.4,3.445C122.976,48.876,128.419,45.246,132.96,49.962z"/> <path d="M106.781,48.585c2.509,2.983,1.747,10.279-2.065,11.022C97.156,59.788,99.128,44.418,106.781,48.585z"/> <path d="M209.43,58.918c-2.972-0.735-9.66-6.996-15.846-2.756C197.875,50.531,206.712,53.833,209.43,58.918z"/> <path fill="#FFFFFF" d="M112.292,60.296c-3.233,5.722-9.03,8.882-15.156,11.711c0.189-2.716-2.945-2.106-2.756-4.822 C102.467,67.004,105.122,61.392,112.292,60.296z"/> <path d="M205.296,65.808c6.661,5.019-1.125,21.806-1.378,31.001C201.563,86.981,209.164,74.99,205.296,65.808z"/> <path fill="#FFFFFF" d="M120.56,66.497c1.998,3.744,9.303,2.179,10.334,6.889c-13.822-0.386-25.78,7.265-37.891,4.133 C102.135,73.791,109.995,68.791,120.56,66.497z"/> <path d="M100.581,91.297c-9.003,4.479-25.889,10.162-35.135,4.133C73.858,88.986,93.333,79.16,100.581,91.297z M68.202,94.742 c9.16,4.422,22.887-0.985,31.001-4.133C90.29,82.663,76.873,90.548,68.202,94.742z"/> <path fill="#FFFFFF" d="M99.203,90.608c-8.114,3.148-21.841,8.555-31.001,4.133C76.873,90.548,90.29,82.663,99.203,90.608z"/> <path d="M74.402,111.276c-4.352,4.375-8.917,8.536-16.533,9.645c-0.968-3.396-4.062-4.666-3.445-9.645 C61.236,107.822,69.917,102.878,74.402,111.276z M55.802,111.965c0.365,3.539,1.722,6.086,4.134,7.578 c4-2.889,9.498-4.28,12.4-8.267C68.049,104.622,62.146,109.903,55.802,111.965z"/> <path fill="#FFFFFF" d="M72.336,111.276c-2.902,3.987-8.4,5.378-12.4,8.267c-2.412-1.492-3.769-4.039-4.134-7.578 C62.146,109.903,68.049,104.622,72.336,111.276z"/> <path d="M93.692,122.987c-1.6-1.155-2.911-2.6-4.821-3.444C81.316,128.566,90.728,111.497,93.692,122.987z"/> <path d="M90.937,139.521c2.856-7.153-0.987-13.048-1.378-17.912C93.671,123.648,100.229,140.89,90.937,139.521z"/> <path fill="#FFFFFF" d="M190.14,129.876c2.054,2.323-0.995,5.405-0.688,8.267C186.946,135.255,189.317,132.894,190.14,129.876z"/> <path d="M64.069,136.766c0.273,4.176-2.936,4.872-4.821,6.889c-3.724-0.64-5.42-3.307-6.89-6.2 C54.299,133.55,61.595,133.181,64.069,136.766z M53.735,138.144c2.34,0.875,2.609,3.82,5.512,4.133 c0.697-2.288,3.813-2.158,3.443-5.511C59.083,135.451,56.102,135.275,53.735,138.144z"/> <path fill="#FFFFFF" d="M62.691,136.766c0.368,3.354-2.747,3.224-3.443,5.511c-2.902-0.313-3.172-3.258-5.512-4.133 C56.102,135.275,59.083,135.451,62.691,136.766z"/> <path fill="#FFFFFF" d="M186.006,136.077c3.684,5.164-0.644,13.978-5.511,15.156C176.739,143.789,184.067,141.633,186.006,136.077 z"/> <path fill="#FFFFFF" d="M179.806,156.055c2.225,4.706-1.557,8.87-6.2,8.956C173.621,159.974,174.813,156.114,179.806,156.055z"/> <path fill="#FFFFFF" d="M170.161,169.145c-0.601,2.845-3.447,3.441-6.89,3.444C162.376,168.63,168.266,165.94,170.161,169.145z"/> <path fill="#FFFFFF" d="M146.049,171.9c3.11,1.823-4.371,6.937-8.267,4.133C139.435,173.552,143.977,173.961,146.049,171.9z"/> <path fill="#FFFFFF" d="M157.761,174.656c-0.466,2.574-5.036,3.754-7.578,2.066C150.649,174.147,155.22,172.969,157.761,174.656z" /> <path fill="#FFFFFF" d="M137.782,178.789c-1.11,1.416-3.454,1.598-6.2,1.378c0.088-1.235-0.844-1.453-0.688-2.756 C133.465,176.71,137.519,174.546,137.782,178.789z"/> <path fill="#FFFFFF" d="M145.36,178.102c0.078,2.185-4.948,2.806-6.199,1.377C139.077,177.289,145.118,177.682,145.36,178.102z"/> <path fill="#FFFFFF" d="M127.449,178.789c0.674-2.109,2.321,0.309,2.756,0.689C129.528,181.59,128.366,178.688,127.449,178.789z" /> <path fill="#FFFFFF" d="M125.382,178.789c-0.813,2.081-3.416,2.367-5.511,1.378C121.078,179.078,123.541,179.245,125.382,178.789z "/> <path fill="#FFFFFF" d="M212.874,182.232c-1.66,0.283-1.497-1.258-3.444-0.688C209.787,179.313,213.568,178.501,212.874,182.232z" /> <path fill="#FFFFFF" d="M210.808,182.923c-0.016,1.623,1.188,2.028,0.688,4.134c-2.175,0.338-2.434-1.242-4.822-0.688 C206.98,184.148,207.726,182.367,210.808,182.923z"/> <path fill="#FFFFFF" d="M127.449,189.123c0.563-1.395,3.632,0.438,4.821,0.688c-0.363,0.556-0.719,1.119-0.688,2.067 C129.737,191.427,128.963,189.904,127.449,189.123z"/> <path fill="#FFFFFF" d="M115.737,247.682c-4.959,5.588-10.218-4.73-11.021-9.646c-3.214-19.629,16.125-35.815,21.355-48.226 c12.8,9.461-5.361,24.896-13.777,30.313c-0.493,1.117,3.249,1.117,2.756,0C114.043,226.834,107.968,241.473,115.737,247.682z"/> <path fill="#FFFFFF" d="M208.052,198.079c-3.021,0.034-5.601-0.371-6.89-2.067C201.51,189.115,209.494,190.928,208.052,198.079z" /> <path fill="#FFFFFF" d="M203.229,198.768c1.29,0.152,4.565,1.776,5.512,0c1.651,1.922-1.198,5.203-0.688,8.268 C205.878,204.846,204.258,202.104,203.229,198.768z"/> <path fill="#FFFFFF" d="M186.695,202.212c1.736,1.249,1.958,4.013,4.135,4.822c-1.251,1.506-1.129,4.383-4.135,4.134 C186.695,208.184,186.695,205.197,186.695,202.212z"/> <path fill="#FFFFFF" d="M128.827,206.346c-2.691,8.498-9.638,21.826-6.89,35.823c-2.526-2.065-6.736-2.448-8.267-5.511 C114.276,222.107,122.667,215.342,128.827,206.346z"/> <path fill="#FFFFFF" d="M191.518,209.102c1.009,0.6,2.185,1.031,2.066,2.756c-2.106-0.5-2.026,1.188-4.133,0.688 C189.854,211.111,190.898,210.318,191.518,209.102z"/> <path fill="#FFFFFF" d="M112.292,238.725c1.878,0.647,1.309,3.743,4.823,2.756c0.22,1.599-0.111,2.646-0.689,3.444 C113.546,244.359,113.091,241.371,112.292,238.725z"/> <path fill="#FFFFFF" d="M117.804,242.857c1.112-0.193,1.187,0.65,2.066,0.688c0,0.459,0,0.919,0,1.378 c-0.802-0.111-1.227,0.152-1.378,0.688C117.558,245.4,117.921,243.889,117.804,242.857z"/> <path fill="#FFFFFF" d="M120.56,246.303c1.337-0.273,1.006,3.139-0.688,2.066c0-0.459,0-0.918,0-1.378 C120.457,247.118,120.521,246.723,120.56,246.303z"/> <path fill="#FFFFFF" d="M116.426,247.682c1.405,0.201,1.351,1.863,2.755,2.065c-0.917,1.806-3.058,1.315-4.822,0.688 C114.562,249.031,116.224,249.085,116.426,247.682z"/> <path fill="#FFFFFF" d="M123.315,249.747c3.318,2.882,6.089,6.312,6.89,11.712C122.702,262.298,122.063,255.799,123.315,249.747z" /> <path fill="#FFFFFF" d="M122.626,260.081c-2.729,1.862-6.184,3.002-10.334,3.444C112.201,258.757,121.188,257.063,122.626,260.081 z"/> <path fill="#FFFFFF" d="M111.604,262.837c0.116,1.493-2.443,0.312-3.444,0.688C108.786,262.329,110.573,261.745,111.604,262.837z" /> <path fill="#FFFFFF" d="M141.227,271.104c-6.339,4.685-13.974,8.071-22.045,11.022c-0.095-1.283-0.453-2.303-1.377-2.756 c1.003-5.427,8.285-4.574,9.646-9.646c-5.206,1.918-15.24,4.965-21.356,8.268c-1.576-1.18-0.252-5.258-0.688-7.578 c11.293-2.512,15.134-9.946,28.935-6.889C136.774,265.912,140.651,266.857,141.227,271.104z"/> <path fill="#FFFFFF" d="M103.337,271.792c2.47,0.424,1.146,4.638,0.688,6.2c-2.174,0.338-2.433-1.241-4.822-0.688 C99.167,274.053,102.113,273.783,103.337,271.792z"/> <path fill="#FFFFFF" d="M116.426,280.061c1.506,0.102,1.479,1.734,1.378,3.443c-1.66-0.281-1.498,1.258-3.445,0.688 C114.371,282.137,116.15,281.852,116.426,280.061z"/> <path fill="#FFFFFF" d="M186.006,284.191c-0.54,1.582-4.265,0.672-3.444-1.377C184.162,281.15,184.406,283.891,186.006,284.191z" /> <path fill="#FFFFFF" d="M160.517,319.327c5.342-0.043,2.833,5.94-0.688,6.2C159.969,323.372,159.363,320.471,160.517,319.327z"/> <path fill="#FFFFFF" d="M188.073,327.596c1.698-0.092,3.319-0.104,4.134,0.688c0.296,2.822-0.639,4.414-1.377,6.199 C188.823,333.273,188.206,330.677,188.073,327.596z"/> <path fill="#FFFFFF" d="M170.161,333.105c3.229-0.703,3.918,1.134,5.512,2.065c0.135,4.499-1.803,6.925-4.134,8.956 C168.309,343.494,169.23,335.676,170.161,333.105z"/> <path fill="#FFFFFF" d="M199.096,62.363c3.258-0.272,5.749,0.221,8.267,0.688c1.241-5.081-9.658-6.333-11.711-1.377 c-1.381,18.427,4.254,32.943,1.378,48.224c-3.204,17.025-17.735,34.27-28.935,45.468c-13.423,13.423-37.567,24.745-64.069,22.733 c-20.654-1.566-43.951-8.593-54.424-22.733c-7.133-9.632-9.009-30.173-3.443-42.023c7.912-16.853,28.595-26.629,44.09-35.135 c13.509,4.512,30.016-3.284,44.09-4.822c-6.554-8.152-20.287-10.381-28.935-2.756c2.318-4.561,10.373-7.854,11.712-14.467 c1.771-8.759-4.123-17.142-4.135-25.49c-0.012-9.139,6.925-11.78,13.089-17.223c10.496,2.214,17.233-4.634,24.112-8.267 c41.166-8.651,43.78,27.331,57.869,50.979c7.904,13.27,20.36,21.685,20.667,38.579c0.514,28.254-19.68,45.964-35.823,61.313 c2.479-9.489,6.506-21.015,6.89-30.312c-5.191,31.837-21.29,57.242-53.735,61.313c-9.086,1.141-26.651-0.971-26.179-5.512 c16.001,7.689,47.055-2.059,58.558-15.156c9.944-11.324,10.892-28.216,15.155-42.712c2.1-7.138,5.514-11.913,6.2-19.29 c0.37-3.978-0.356-8.384,0-13.089C200.661,79.748,206.8,67.591,199.096,62.363z M191.518,46.518 c-0.498,9.376-8.563,11.186-14.467,15.156c19.229-1.339,18.159-22.487,8.267-31.69c-16.588-15.433-48.406-1.219-42.712,24.801 c-5.765-25.51,16.554-41.086,36.513-32.379c-35.704-26.427-60.084,57.678-10.334,40.646c-10.313,1.672-21.911-0.323-25.489-7.578 C157.998,64.366,184.305,55.404,191.518,46.518z M119.182,32.74c2.555,1.35,4.429,3.379,7.578,4.134 c3.276-2.924,8.793-3.608,8.267-10.334C128.16,22.848,121.19,27.397,119.182,32.74z M119.182,51.34 c0.667,11.308,13.173,3.039,15.845-1.378C130.704,43.556,122.972,46.81,119.182,51.34z M193.584,56.163 c6.186-4.24,12.874,2.021,15.846,2.756C206.712,53.833,197.875,50.531,193.584,56.163z M203.918,96.809 c0.253-9.195,8.039-25.982,1.378-31.001C209.164,74.99,201.563,86.981,203.918,96.809z M65.447,95.431 c9.247,6.029,26.132,0.345,35.135-4.133C93.333,79.16,73.858,88.986,65.447,95.431z M54.424,111.276 c-0.616,4.979,2.478,6.249,3.445,9.645c7.616-1.109,12.182-5.27,16.533-9.645C69.917,102.878,61.236,107.822,54.424,111.276z M88.87,119.543c1.91,0.844,3.222,2.289,4.821,3.444C90.728,111.497,81.316,128.566,88.87,119.543z M96.448,136.077 c-0.206,2.779-1.017,4.954-4.133,4.822c-2.689,0.807-2.728-4.559-4.134-2.755C88.62,144.587,99.884,142.331,96.448,136.077z M89.559,121.609c0.391,4.864,4.234,10.759,1.378,17.912C100.229,140.89,93.671,123.648,89.559,121.609z M52.357,137.455 c1.47,2.894,3.166,5.56,6.89,6.2c1.887-2.017,5.095-2.713,4.821-6.889C61.595,133.181,54.299,133.55,52.357,137.455z"/> <path d="M173.605,49.962c-3.507-1.326-3.85-1.017-7.577,0c-11.063-4.164,3.602-22.014,5.512-6.889 C176.438,40.257,176.493,48.313,173.605,49.962z M174.983,43.762c-0.947,0.03-1.513-0.324-2.065-0.688 C168.146,47.914,175.263,52.19,174.983,43.762z"/> <path d="M88.181,138.144c1.406-1.804,1.443,3.563,4.134,2.755c3.117,0.131,3.928-2.043,4.134-4.822 C99.884,142.331,88.62,144.587,88.181,138.144z"/> <path fill="#FFFFFF" d="M182.562,156.744c-1.911-0.155-1.948-2.185-3.443-2.756c-4.702,1.498-7.514,4.888-6.89,11.711 c-0.116,1.494,2.443,0.313,3.444,0.689c-1.146,1.381-1.851,3.202-4.134,3.445c-1.41-9.279-14.73,0.434-7.578,5.511 c-2.369,0.615-4.294,1.676-6.2,2.756c-1.543-0.502,1.521-2.072,1.378-3.445c-0.584-1.482-1.696-2.437-4.134-2.067 c10.792-5.283,15.614-16.535,23.424-24.801c-0.069,2.136,0.842,3.292,1.377,4.822 C187.391,149.979,184.601,150.451,182.562,156.744z"/> <path fill="#FFFFFF" d="M169.473,156.055c-1.946,7.244-13.464,14.547-20.667,16.534 C154.448,165.832,164.567,163.551,169.473,156.055z"/> <path fill="#FFFFFF" d="M146.738,180.167c-0.266-3.803-1.064-5.067,2.757-5.511c-1.907,2.41,0.646,4.962,4.133,4.133 c-7.628,3.33-19.05,5.982-29.623,4.134C128.479,178.083,139.266,184.491,146.738,180.167z"/> <path fill="#FFFFFF" d="M188.762,219.436c3.422-0.756-2.754-2.362-2.066-4.822c2.258,1.188,3.255,3.635,5.512,4.822 c0.856-3.078-2.723-3.814-4.822-5.512c3.138-0.23,7.702,3.609,8.956,8.956c1.903-1.728-1.198-4.272-2.066-5.512 c1.535-0.94,4.542,4.276,2.756,6.89c3.449-5.232-0.525-9.267-4.822-11.712c8.061,3.479,7.376,4.244,6.89,15.156 c-2.08-2.515-3.181-6.007-6.2-7.578c4.463,7.342,6.458,16.233,4.822,26.179c-2.135,12.981-11.991,25.762-15.845,33.758 c-2.534,5.256,2.343,8.275,6.889,5.51c-0.906,1.851-1.85,3.662-2.756,5.513c1.369,2.64,3.26-3.522,4.134-1.378 c1.282,13.568,1.92,25.304,2.756,37.201c-2.192-1.146-2.883-1.178-5.512-0.688c-1.224-4.747,0.55-12.489-2.066-15.846 c-4.992,5.8-6.643,14.944-8.267,24.112c-2.067-1.59-4.783-5.076-7.578-2.066c0.183-6.359,6.067-16.288,4.822-24.111 c-4.742,2.146-7.146,6.633-8.956,11.711c-1.654-0.642-1.824-2.769-4.822-2.066c3.581-8.36,7.172-16.71,10.334-25.489 c2.777,1.369,8.755,7.354,11.711,2.065c-1.229-0.478-3.152,1.043-6.199,0c-4.485-5.346-2.535-16.422-1.379-24.111 c5.492-3.234,11.475-5.979,14.469-11.711c-8.885,5.982-19.73,14.553-35.824,12.4c-18.82-2.519-31.145-22.522-29.623-42.023 c0.824-10.561,6.913-18.066,9.645-27.557c3.723,2.707,5.273,7.586,11.711,7.578c-7.556-2.549-10.743-9.465-11.021-19.291 c18.997,0.627,32.94-3.801,43.401-11.711c1.272,2.315-3.525,3.567-2.066,8.268c2.568-0.188,0.904-4.605,2.756-5.512 c12.272-2.703,15.816,3.709,19.979,13.777c5.117,12.383,14.409,19.69,13.777,37.202c-0.801,22.205,4.14,52.823-19.289,56.49 c0.569-6.164,8.776-8.115,6.89-14.468c-4.021,3.1-8.235,6.002-11.022,10.334c-2.461-0.295-3.781-1.729-4.822-3.444 c8.749-9.163,8.314-27.51,19.979-33.757c-5.225-5.006-3.31-18.82-2.756-27.557c2.785-0.66,4.907-1.981,7.578-2.756 c-0.983-2.926-3.581,1.053-6.89,0c-6.582-3.521-9.589-10.619-14.468-15.846c0.627-1.87,2.414,0.702,3.445,0.689 c0.049-2.347-2.027-2.566-3.445-3.444c-7.943,2.159-9.718,10.489-17.911,12.399c7.083,2.024,9.212-6.856,15.156-8.268 c0.276,7.072-0.809,15.505,3.444,18.602C189.364,219.593,186.27,216.68,188.762,219.436z"/> <path d="M152.938,1.739c4.134,0,8.268,0,12.4,0c8.085,1.84,19.904,5.228,26.179,13.089c7.441,9.324,9.777,23.305,15.845,34.446 c5.26,9.655,13.104,17.416,17.912,25.49c20.458,34.342-15.388,71.411-35.135,87.492c-1.247,6.157-10.832,11.137-10.334,14.467 c11.033,1.367,17.676,7.125,21.356,15.846c3.288-5.342,5.752-14.735,12.399-14.467c1.307,10.371-2.965,20.834-4.822,30.312 c7.271,6.183,4.439,19.635,4.822,31.69c0.267,8.36,2.664,16.188,1.378,23.422c-2.416,13.596-9.395,26.26-22.733,26.867 c-1.365,14.135,8.049,38.002-2.755,46.848c-3.854-5.561-3.913-14.918-5.513-22.734c-5.219,9.708-2.077,27.775-13.777,31.001 c-8.436-9.709,2.453-24.146,2.066-33.757c-5.349,4.525-4.759,14.991-13.777,15.846c-1.854-22.062,17.224-31.279,13.089-55.803 c-9.123,5.155-17.126-0.918-25.49,0c-12.195,1.339-20.724,15.146-33.757,13.777c-0.972-5.012,6.963-8.006,4.134-10.332 c-4.179,2.183-14.428,7.207-19.29,2.066c1.776-7.181,9.711-8.201,15.156-11.713c-4.139,0.184-6.389,0.128-6.89-2.066 c-0.969-4.238,17.25-4.139,15.156-11.021c-2.707,1.469-10.84-0.773-13.778-4.134c-17.372-19.861,12.089-46.438,17.912-60.624 c-4.398-1.344-7.807-3.676-10.334-6.891c-2.525,0.23-2.78,2.73-6.199,2.067c-20.423-5.543-47.65-9.563-60.624-26.868 c-7.294-9.729-10.983-28.11-3.445-44.09c9.271-19.653,31.807-28.023,50.979-39.268c-12.719-15.272-1.75-38.426,15.156-41.335 C114.158,11.182,133.569,6.481,152.938,1.739z M199.784,91.297c-0.356,4.705,0.37,9.111,0,13.089 c-0.688,7.377-4.102,12.152-6.2,19.29c-4.265,14.496-5.211,31.388-15.155,42.712c-11.503,13.098-42.557,22.846-58.558,15.156 c-0.473,4.541,17.092,6.651,26.179,5.513c32.445-4.072,48.543-29.478,53.735-61.313c-0.384,9.297-4.409,20.823-6.89,30.312 c16.145-15.349,36.337-33.059,35.823-61.313c-0.307-16.895-12.763-25.31-20.667-38.579c-14.089-23.648-16.703-59.63-57.869-50.979 c-6.879,3.633-13.616,10.481-24.112,8.267c-6.165,5.442-13.101,8.083-13.089,17.223c0.012,8.348,5.906,16.73,4.135,25.49 c-1.339,6.613-9.394,9.906-11.712,14.467c8.647-7.625,22.381-5.396,28.935,2.756c-14.074,1.538-30.582,9.334-44.09,4.822 c-15.495,8.505-36.178,18.282-44.09,35.135c-5.564,11.85-3.688,32.392,3.443,42.023c10.474,14.142,33.771,21.167,54.424,22.734 c26.502,2.01,50.646-9.313,64.069-22.734c11.198-11.199,25.729-28.443,28.935-45.468c2.877-15.28-2.759-29.797-1.378-48.224 c2.053-4.956,12.952-3.703,11.711,1.377c-2.518-0.468-5.009-0.961-8.267-0.688C206.8,67.591,200.661,79.748,199.784,91.297z M128.827,12.761c7.323,0.665,9.626-3.692,14.467-5.511C137.141,7.756,132.615,9.89,128.827,12.761z M107.47,34.807 c0.72,9.155,3.854,15.895,4.822,24.801c5.816-4.905,1.607-19.309,0-25.49C110.463,34.125,108.358,33.857,107.47,34.807z M93.692,65.119c2.658-0.098,6.051,0.539,6.89-1.378c-8.851-3.819-6.964-23.861,6.199-21.356 c-0.489-2.036-0.188-4.863-2.065-5.511C95.129,40.042,89.392,52.422,93.692,65.119z M101.959,62.363 c10.347,0.135,8.858-11.841,4.821-17.912C95.766,42.643,94.489,59.226,101.959,62.363z M94.381,67.186 c-0.189,2.716,2.945,2.106,2.756,4.822c6.126-2.83,11.922-5.989,15.156-11.711C105.122,61.392,102.467,67.004,94.381,67.186z M93.003,77.519c12.109,3.132,24.068-4.52,37.891-4.133c-1.031-4.71-8.336-3.146-10.334-6.889 C109.995,68.791,102.135,73.791,93.003,77.519z M189.451,138.144c-0.308-2.862,2.741-5.944,0.688-8.267 C189.317,132.894,186.946,135.255,189.451,138.144z M180.495,151.233c4.867-1.179,9.193-9.992,5.511-15.156 C184.067,141.633,176.739,143.789,180.495,151.233z M179.806,152.61c-0.535-1.531-1.446-2.686-1.377-4.822 c-7.81,8.266-12.632,19.518-23.424,24.801c2.438-0.37,3.55,0.584,4.134,2.067c0.145,1.371-2.921,2.943-1.378,3.445 c1.906-1.08,3.831-2.142,6.2-2.756c-7.152-5.078,6.168-14.79,7.578-5.511c2.283-0.243,2.987-2.063,4.134-3.445 c-1.001-0.376-3.562,0.805-3.444-0.689c-0.624-6.823,2.188-10.213,6.89-11.711c1.495,0.571,1.532,2.601,3.443,2.756 C184.601,150.451,187.391,149.979,179.806,152.61z M148.805,172.589c7.204-1.987,18.721-9.29,20.667-16.534 C164.567,163.551,154.448,165.832,148.805,172.589z M173.605,165.011c4.645-0.085,8.425-4.25,6.2-8.956 C174.813,156.114,173.621,159.974,173.605,165.011z M163.272,172.589c3.441-0.003,6.289-0.6,6.89-3.444 C168.266,165.94,162.376,168.63,163.272,172.589z M137.782,176.033c3.896,2.804,11.377-2.311,8.267-4.133 C143.977,173.961,139.435,173.552,137.782,176.033z M150.183,176.723c2.542,1.688,7.112,0.508,7.578-2.066 C155.22,172.969,150.649,174.147,150.183,176.723z M124.004,182.923c10.573,1.851,21.994-0.804,29.623-4.134 c-3.486,0.829-6.04-1.725-4.133-4.133c-3.821,0.444-3.022,1.708-2.757,5.511C139.266,184.491,128.479,178.083,124.004,182.923z M130.894,177.411c-0.155,1.303,0.776,1.521,0.688,2.756c2.746,0.22,5.09,0.038,6.2-1.378 C137.519,174.546,133.465,176.71,130.894,177.411z M139.16,179.479c1.251,1.429,6.277,0.808,6.199-1.377 C145.118,177.682,139.077,177.289,139.16,179.479z M130.205,179.479c-0.435-0.381-2.082-2.799-2.756-0.688 C128.366,178.688,129.528,181.59,130.205,179.479z M188.073,220.813c-4.253-3.096-3.168-11.527-3.443-18.601 c-5.944,1.41-8.073,10.292-15.156,8.269c8.193-1.912,9.968-10.241,17.911-12.4c1.418,0.878,3.494,1.1,3.445,3.443 c-1.031,0.014-2.818-2.56-3.445-0.688c4.879,5.226,7.886,12.323,14.468,15.847c3.309,1.053,5.905-2.927,6.89,0 c-2.672,0.772-4.794,2.096-7.578,2.754c-0.554,8.736-2.47,22.553,2.756,27.558c-11.664,6.247-11.229,24.594-19.979,33.757 c1.041,1.715,2.361,3.148,4.822,3.443c2.787-4.33,7.003-7.233,11.022-10.332c1.888,6.352-6.319,8.303-6.89,14.467 c23.428-3.667,18.488-34.285,19.289-56.49c0.632-17.512-8.66-24.818-13.778-37.202c-4.16-10.067-7.704-16.479-19.978-13.778 c-1.852,0.906-0.188,5.326-2.756,5.513c-1.459-4.699,3.34-5.951,2.065-8.267c-10.461,7.91-24.403,12.336-43.4,11.711 c0.277,9.826,3.467,16.74,11.021,19.289c-6.438,0.01-7.989-4.869-11.711-7.578c-2.73,9.49-8.82,16.998-9.645,27.558 c-1.521,19.501,10.803,39.506,29.623,42.022c16.094,2.152,26.939-6.416,35.824-12.399c-2.994,5.731-8.977,8.478-14.469,11.711 c-1.156,7.688-3.106,18.767,1.378,24.112c3.048,1.043,4.973-0.479,6.2,0c-2.956,5.287-8.934-0.697-11.711-2.066 c-3.162,8.779-6.753,17.129-10.334,25.489c2.998-0.701,3.168,1.426,4.822,2.067c1.811-5.08,4.214-9.564,8.956-11.713 c1.245,7.824-4.642,17.754-4.822,24.112c2.795-3.01,5.511,0.478,7.578,2.065c1.624-9.168,3.272-18.313,8.267-24.111 c2.616,3.355,0.844,11.1,2.066,15.846c2.629-0.488,3.318-0.457,5.512,0.688c-0.836-11.897-1.474-23.634-2.756-37.201 c-0.874-2.146-2.765,4.017-4.134,1.378c0.906-1.85,1.85-3.662,2.756-5.512c-4.546,2.766-9.423-0.256-6.889-5.512 c3.854-7.994,13.71-20.774,15.845-33.756c1.636-9.945-0.359-18.838-4.822-26.18c3.021,1.572,4.12,5.064,6.2,7.578 c0.486-10.912,1.171-11.676-6.89-15.156c4.297,2.445,8.271,6.479,4.822,11.712c1.786-2.612-1.221-7.829-2.756-6.89 c0.868,1.238,3.97,3.783,2.066,5.512c-1.254-5.347-5.818-9.188-8.956-8.956c2.101,1.696,5.68,2.433,4.822,5.511 c-2.258-1.188-3.255-3.633-5.512-4.821c-0.688,2.46,5.488,4.067,2.066,4.821C186.27,216.68,189.364,219.593,188.073,220.813z M119.871,180.167c2.096,0.989,4.699,0.703,5.511-1.378C123.541,179.245,121.078,179.078,119.871,180.167z M209.43,181.545 c1.947-0.568,1.784,0.971,3.444,0.688C213.568,178.501,209.787,179.313,209.43,181.545z M206.674,186.367 c2.39-0.553,2.647,1.025,4.822,0.689c0.498-2.105-0.704-2.512-0.688-4.135C207.726,182.367,206.98,184.148,206.674,186.367z M204.607,190.501c0.128-1.021,1.664-0.632,2.755-0.688c0.718,2.728,1.524,5.364,2.757,7.578 c-0.468-3.476,2.652-6.961,0.688-9.646c-0.896,1.513-3.725-0.813-5.512-0.688C205.886,188.663,202.887,190.023,204.607,190.501z M131.582,191.879c-0.03-0.947,0.325-1.513,0.688-2.066c-1.189-0.252-4.259-2.084-4.821-0.688 C128.963,189.904,129.737,191.427,131.582,191.879z M116.426,244.925c0.578-0.8,0.909-1.847,0.689-3.444 c-3.515,0.987-2.944-2.107-4.823-2.756C113.091,241.371,113.546,244.359,116.426,244.925z M115.048,220.124 c0.493,1.117-3.249,1.117-2.756,0c8.416-5.416,26.577-20.853,13.777-30.313c-5.23,12.408-24.569,28.597-21.355,48.226 c0.805,4.914,6.063,15.233,11.021,9.646C107.968,241.473,114.043,226.834,115.048,220.124z M201.162,196.012 c1.289,1.696,3.868,2.103,6.89,2.067C209.494,190.928,201.51,189.115,201.162,196.012z M208.052,207.034 c-0.51-3.063,2.341-6.345,0.688-8.267c-0.945,1.775-4.222,0.151-5.512,0C204.258,202.104,205.878,204.846,208.052,207.034z M186.695,211.168c3.006,0.249,2.884-2.628,4.135-4.134c-2.177-0.81-2.397-3.573-4.135-4.822 C186.695,205.197,186.695,208.184,186.695,211.168z M113.67,236.658c1.53,3.063,5.74,3.445,8.267,5.511 c-2.748-13.997,4.198-27.325,6.89-35.823C122.667,215.342,114.276,222.107,113.67,236.658z M189.451,212.546 c2.105,0.5,2.025-1.188,4.133-0.688c0.117-1.725-1.059-2.156-2.066-2.756C190.898,210.318,189.854,211.111,189.451,212.546z M118.493,245.613c0.151-0.536,0.576-0.801,1.378-0.688c0-0.459,0-0.919,0-1.378c-0.88-0.038-0.954-0.883-2.066-0.688 C117.921,243.889,117.558,245.4,118.493,245.613z M119.871,246.991c0,0.46,0,0.919,0,1.378c1.694,1.07,2.025-2.34,0.688-2.066 C120.521,246.723,120.457,247.118,119.871,246.991z M114.359,250.438c1.766,0.625,3.905,1.115,4.822-0.689 c-1.405-0.202-1.351-1.864-2.755-2.066C116.224,249.085,114.562,249.031,114.359,250.438z M130.205,261.459 c-0.801-5.4-3.571-8.83-6.89-11.712C122.063,255.799,122.702,262.298,130.205,261.459z M112.292,263.525 c4.15-0.442,7.604-1.582,10.334-3.444C121.188,257.063,112.201,258.757,112.292,263.525z M108.159,263.525 c1.001-0.377,3.561,0.805,3.444-0.688C110.573,261.745,108.786,262.329,108.159,263.525z M134.338,263.525 c-13.801-3.059-17.644,4.377-28.935,6.889c0.437,2.32-0.888,6.398,0.688,7.578c6.116-3.303,16.15-6.35,21.356-8.268 c-1.359,5.07-8.643,4.219-9.646,9.646c0.924,0.453,1.283,1.473,1.377,2.756c8.071-2.951,15.707-6.339,22.045-11.022 C140.651,266.857,136.774,265.912,134.338,263.525z M99.203,277.305c2.39-0.554,2.647,1.025,4.822,0.688 c0.457-1.563,1.781-5.776-0.688-6.2C102.113,273.783,99.167,274.053,99.203,277.305z M114.359,284.191 c1.947,0.569,1.785-0.971,3.445-0.688c0.101-1.709,0.128-3.343-1.378-3.443C116.15,281.852,114.371,282.137,114.359,284.191z M182.562,282.814c-0.819,2.049,2.904,2.959,3.444,1.377C184.406,283.891,184.162,281.15,182.562,282.814z M159.828,325.527 c3.521-0.26,6.029-6.243,0.688-6.2C159.363,320.471,159.969,323.372,159.828,325.527z M190.829,334.482 c0.738-1.785,1.673-3.377,1.377-6.199c-0.813-0.793-2.436-0.779-4.134-0.688C188.206,330.677,188.823,333.273,190.829,334.482z M171.539,344.128c2.331-2.03,4.269-4.457,4.134-8.956c-1.594-0.934-2.282-2.77-5.512-2.066 C169.23,335.676,168.309,343.494,171.539,344.128z"/> <path fill="#FFFFFF" d="M205.296,187.057c1.787-0.125,4.614,2.201,5.512,0.688c1.964,2.685-1.156,6.17-0.688,9.646 c-1.231-2.214-2.039-4.852-2.757-7.578c-1.091,0.058-2.627-0.332-2.755,0.688C202.887,190.023,205.886,188.663,205.296,187.057z" /> </g> </g> </svg>