<?xml version="1.0" encoding="utf-8"?>
<!-- Generator: Adobe Illustrator 15.1.0, SVG Export Plug-In . SVG Version: 6.00 Build 0)  -->
<!DOCTYPE svg PUBLIC "-//W3C//DTD SVG 1.1//EN" "http://www.w3.org/Graphics/SVG/1.1/DTD/svg11.dtd">
<svg version="1.1" id="Lager_1" xmlns="http://www.w3.org/2000/svg" xmlns:xlink="http://www.w3.org/1999/xlink" x="0px" y="0px"
	 width="300px" height="350px" viewBox="0 0 300 350" enable-background="new 0 0 300 350" xml:space="preserve">
<g>
	<g id="XMLID_1_">
		<g>
			<path fill="#FFFFFF" d="M121.43,74.28c12.82,25.07,31.06,47.43,51.6,66.08c4.04,3.68,8.8,6.54,13.37,10.15
				c4.239,3.34,9.31,6.48,14.489,9.02c0.32,0.16,0.641,0.31,0.971,0.47l-0.471,0.96c-3.96-1.95-7.689-4.07-11.199-6
				c0.689,1.24,2.079,1.85,3.229,2.57c5.72,3.59,12.13,7.16,19.5,9.13c3.03,0.82,6.17,1.08,9.47,1.9
				c-6.58,2.71-14.25,0.97-20.39-0.56c-6.4-1.6-12.21-4.07-17.27-6.57c-10.7-5.3-20.061-11.99-28.421-19.17
				c-12.79-10.98-22.39-25.3-29.859-41.68c-2.16-4.72-4.02-10.13-4.68-16.16c-0.08-0.69,0.3-1.82-0.56-2.34
				c-1.04,0.98,0.03,3.37-0.11,4.91c-1.37-3.11-2.54-8.06-2.57-13.15c0-0.22-0.01-0.44-0.01-0.67l1-0.03
				c0.01,0.6,0.06,1.16,0.13,1.48c0.08,0.38,0.52,0.61,0.67,1c0.45,1.22-0.03,3.01,1,3.68C121.63,77.77,120.87,75.78,121.43,74.28z"
				/>
			<path fill="#FFFFFF" d="M158.54,153.74c0.91,2.8,2,5.43,5.46,5.68c-0.58,0.66-2.16,0.88-2.23,1.67c0.95-0.11,2.011-0.71,3.461-1
				c1.229-0.25,2.77-0.54,4.34-0.45c3.08,0.19,6.33,2.9,7.91,4.91c3.51,4.45,5.199,10.39,7.689,16.38
				c1.57,3.771,4.22,7.66,6.67,11.07l-0.79,0.56c-0.78-0.989-3.25-1.21-4.99-1.05c-1.189,0.12-2.079,0.62-2.779,0.9
				c-4.61-2.57-6.83-7.521-8.8-12.71c0.369-1.271,2.02-1.25,3-0.55c-0.311-2.391-3.45-0.83-4.561,0.22
				c-2.68,2.52-2.41,9.67-2.46,14.37c-4-0.23-8.11-0.141-11.25,0.779c-2.78-3.84-6.13-7.46-11.93-8.02
				c-7.1-0.69-10.38,4.64-14.82,7.13c-0.21-2.24-0.66-4.56-0.78-7.13c-0.11-2.41,0.4-5.39-0.55-7.24c-0.26-0.51-1.08-0.87-1.34-1.34
				c-0.45-0.82-0.25-2-0.22-2.9c-1.31,0.2-0.84,1.64-1.01,2.68c-0.52,3.29-2.38,6.689-4.01,9.359c-1.75,2.87-3.88,5.16-6.68,6.57
				c-3.97,0.13-7.44,1.25-10.59,2.45c-0.82,0.32-2.23,0.439-2.52,1.45l-1.01-0.38c0.81-1.15,1.88-2.141,2.86-3.41
				c3.74-4.83,7.25-9.49,10.92-14.48c1.22-1.66,2.24-3.4,3.12-5.35c0.87-1.93,1.56-3.96,2.68-5.8c2.05-3.39,5.09-6.9,9.02-7.8
				c1.86-0.42,3.04,0.38,4.35,1.12c0.71-0.59-0.84-0.97-0.67-1.34c7.13,0.35,7.38-5.09,7.91-11.81c0.33-4.11,0.64-8.38,0.67-11.7
				c0-0.08,0-0.15,0-0.23c0.1-0.07,0.2-0.13,0.22,0c5.49,1.51,9.87,5.25,11.15,11.04C156.45,149.54,156.34,153.07,158.54,153.74z"/>
			<path fill="#FFFFFF" d="M150.29,58.46c2.09-0.3,4.26-0.06,6.28,0.55l-0.261,0.89c-0.64-0.22-1.39-0.3-2.229-0.22
				c-3.09,0.31-4.72,1.94-4.57,5.24c0.11,2.29,1.55,4.02,3.59,4.59l-0.05,0.21c-0.83-0.22-1.64-0.49-2.42-0.79
				c-2.65-1.03-5.64-2.44-5.91-4.79C144.35,60.93,147.7,58.82,150.29,58.46z"/>
			<path fill="#FFFFFF" d="M159.77,70.49c-2.38,0.06-4.64-0.22-6.72-0.77l0.05-0.21c0.48,0.13,1,0.2,1.54,0.2
				c5.83-0.04,6.33-8.27,1.67-9.81l0.261-0.89c3.59,1.09,6.729,3.33,8.21,5.8c0.5,0.83,1.359,2.65,1.229,3.46
				C165.72,69.91,162.05,70.44,159.77,70.49z"/>
			<path d="M151.74,57.34c7.17,0,13.17,4.18,15.05,9.81c0.77-7.7-4.48-13.03-11.71-12.93c-3.95,0.06-6.59,2.14-8.58,4.57
				c-0.04,0.12-0.13,0.27,0,0.11C147.98,57.96,149.52,57.34,151.74,57.34z M168.01,68.15c-1.74,6.03-7.5,9.41-14.37,8.92
				c-6.02-0.43-11.03-4.4-10.81-11.59c0.21-6.98,3.71-11.78,11.36-12.48c4.22-0.39,7.529,1.14,10.029,3.23
				C166.96,58.51,169.64,62.52,168.01,68.15z M166.01,68.27c0.13-0.81-0.729-2.63-1.229-3.46c-1.48-2.47-4.62-4.71-8.21-5.8
				c-2.021-0.61-4.19-0.85-6.28-0.55c-2.59,0.36-5.94,2.47-5.57,5.68c0.27,2.35,3.26,3.76,5.91,4.79c0.78,0.3,1.59,0.57,2.42,0.79
				c2.08,0.55,4.34,0.83,6.72,0.77C162.05,70.44,165.72,69.91,166.01,68.27z M165.34,70.16c-6.77,3.05-17.52,0.07-20.84-4.01
				c0.24,0.58,0.84,0.79,0.89,1.56c-0.53,0.24-0.86-0.69-1-0.11c0.77,5.47,5.54,8.6,12.03,8.13c3.3-0.24,6.521-1.96,7.58-3.79
				c-0.24,0.05-1.19,0.36-1.23-0.11C163.44,71.16,165.46,71.25,165.34,70.16z"/>
			<path d="M115.3,312.65c-0.18-1.12-1.03-1.57-2.23-1.67c-0.17,1.1-0.98,1.989-0.55,3.34C113.84,314.15,114.38,313.21,115.3,312.65
				z M143.38,200.65c-0.1-0.49-0.43-0.75-1-0.78c-1.64,1.91-6.74,5.39-2.12,7.25c0.41-0.97,1.18-1.57,1.56-2.57
				C139.47,203.45,142.47,201.54,143.38,200.65z M145.06,204c-0.69-0.54-0.92-1.54-1.34-2.34c-0.7,0.56-1.43,1.09-1.9,1.89
				C142.67,203.86,143.93,204.34,145.06,204z M144.28,207.67c-0.19-2.47-3.41-1.61-3.24,0.23
				C142.23,207.93,143.33,207.88,144.28,207.67z M145.61,205c-1.18,0.13-2.74-0.49-3.12,0.44c1.45,0.01,2.03,0.88,2.34,2.01
				c1.58-0.36,3.18-1.87,3.01-3.23C147.31,204.55,146.58,204.89,145.61,205z M155.98,199.43c-0.41-0.93-1.351-1.33-2.011-2.01
				c-0.27,0.51-0.899,0.66-1,1.34C153.49,199.39,155.22,200.09,155.98,199.43z M137.03,311.87c-1.08-0.7-2.26,0.02-2.34,1.11
				c-0.11,1.619,1.55,2.899,3.23,2.68C138.01,314.44,137.95,312.46,137.03,311.87z M120.43,316.55c0.99,1.07,3.66,0.96,4.01-0.45
				C125.27,312.75,118.99,312.06,120.43,316.55z M127.89,184.05c-1.76,3.83-4.45,6.96-6.68,9.69c3.18,0.5,6.47,0.89,8.91,2.12
				c1.79-0.811,0.83-2.74,0.56-4.9c-0.45-3.53-0.09-8.27-0.89-11.26c-0.15,0.01-0.25-0.05-0.34-0.11
				C128.98,181.21,128.53,182.66,127.89,184.05z M121.1,299.72c1.97-2.93,8.37-1.149,11.59-0.89c-0.61-0.59-0.9-1.49-1.34-2.23
				c-0.57-0.25-1.54-0.09-1.78-0.67c1.11-0.989,0.76-2.399,1-4.12c0.38-2.739,2.86-6.22,0.33-8.359c-1.27-0.061-2.95,0.08-4.45,0
				c-1.62-0.08-3.95-0.07-3.57-1.78c1.92,0.32,4.71,0.65,6.02-0.45c-0.1-1.55-2.28-1.68-3.9-1.779c-2.14-0.131-4.81,0.02-6.35,0.439
				c0.62,2.25,1.05,4.55,1.67,7.03c0.61,2.46,2.02,4.52,2,6.79c0,0.85-0.18,2.439-0.55,3.229c-0.28,0.59-1.08,0.78-1.45,1.23
				c-0.3,0.37-0.52,0.81-0.71,1.27c-0.33,0.78-0.6,1.62-1.08,2.301c-0.87,1.239-2.41,2.029-2.22,3.779
				c-0.98,1.48-2.03,2.891-2.79,4.57c1.46,0.14,2.16,1.04,2.79,2.01c0.84-1.46,2.32-2.28,2.67-4.229
				c-0.59-0.761-0.95-1.73-1.78-2.23c1.52-0.75,2.92,1.561,3.12,2.67c0.34,1.92-1.31,3.94-0.67,5.8c0.93-3,5.13-1.51,5.79,0.66
				c1.43-0.95,1.17-4.34-0.11-5.229c-1.11-0.78-2.53-0.17-3.68-0.9c1.72-1.14,4.64-0.07,5.69,0.9c0.76-1.45,0.08-2.73,0.11-4.57
				c-0.08-0.51-0.95-0.24-1-0.78c2.39-1.66,2.88,4.08,3.12,6.351c0.44,1.01,1.82,1.27,2.78,1.89c0.6,0.39,1.07,1.36,1.56,1.23
				c-0.47-1.98,1.08-3.431,3.23-2.79c-0.27-1.78-1.92-2.471-2.22-4.011c-0.17-0.84,0.06-1.75,0-2.449c-0.41-4.04-2.94-4.28-6.69-4.9
				c-1.12-0.19-2.28-0.51-3.12-0.56C123.45,298.84,122.4,299.62,121.1,299.72z M220.83,161.2c-0.1,1.09-0.51,1.87-0.89,2.68
				C221.37,164.13,221.4,161.94,220.83,161.2z M195.87,61.69c1.34-0.07,2.03-0.88,3.34-0.78c4.58,0.35,5.25,7.54,1.34,9.03
				c3.25,0.18,4.8-0.04,5.021-2.68c0.17-2.06-0.5-6.27-2.12-7.35C200.89,58.2,197.83,60.64,195.87,61.69z M200.22,70.83
				c-1.88-0.19-4.38-1.02-5.569-0.78c0.239,0.57,1.489,0.14,1.67,0.78c-0.29,0.23-0.69,0.35-1.23,0.33
				c0.83,2.08,1.95,3.84,3.68,5.02c1.881-0.08,3.24-1.24,4.461-2.45c1.149-1.16,2.159-2.9,2.229-3.68
				c-0.56,0.74-1.78,1.33-3.24,1.45c-0.819,0.06-2.18,0.22-2.779-0.34c0.3-0.21,1.09-0.09,1.67-0.11c0.3-0.01,1.67,0.1,0.439-0.11
				C201.16,70.87,200.76,70.88,200.22,70.83z M195.2,62.25c-1.061,0.45-0.79,2.79,0.45,2.78C197.24,65.02,196.98,61.49,195.2,62.25z
				 M192.86,153.96c7.37,4.19,14.51,8.6,24.739,9.92c1.301-1.02,1.471-3.73,0.891-5.69c-1.16,0.92-2.101,3.28-3.9,3.68
				c-2.01,0.45-4.57-0.51-6.35-1.11C202.62,158.87,197.4,155.74,192.86,153.96z M191.75,63.14c3.18-1.88,6.15-5.13,11.25-4.35
				c-0.91-1.56-4.81-3.15-7.91-3.34c-1.109-0.07-2.63,0.11-3.229,0.78C190.49,57.75,191.7,61.08,191.75,63.14z M192.08,64.48
				c0.5,1.32,0.89,2.75,1.45,4.01c1.029,0.16,2.25,0.72,3.12,0.67c-1.021-0.8-1.57-2.07-1.67-3.79c-0.961-0.27-0.78-2-1-2.68
				C193.41,63.35,192.45,63.62,192.08,64.48z M187.4,314.76c2.08-2.43-2.131-5.81-2.561-2.89
				C184.61,313.46,185.76,314.63,187.4,314.76z M178.49,315.54c0-2.05-3.641-3.36-4.13-1.22c-0.21,0.949,0.27,1.399,0.449,2.67
				C176.27,318.49,178.48,317.41,178.49,315.54z M173.36,181.15c-1.561,3.159-1.61,7.83-1.561,12.59c3.25,0.35,6.53,0.68,9.25,1.56
				c0.25-0.6,0.63-1.08,0.891-1.67C177.65,190.9,175.45,186.08,173.36,181.15z M167.57,209.34c-0.42,0.811-0.59,2.12-0.67,2.57
				c0.869-1.021,2.54,0.43,2.779,0.33c0.34-2.34,2.601-2.75,4.24-3.79c0.93-1.9-0.7-4.01-2.9-2.891
				C170.18,205.98,168.01,208.48,167.57,209.34z M166.56,213.02c0.61,0.73,1.15,1.521,2.011,2.011c0.58-0.28,0.729-0.98,0.89-1.67
				C169.13,212.17,167.09,211.68,166.56,213.02z M157.09,199.98c-0.34-0.16-0.83-0.561-1,0
				C156.46,199.88,156.85,200.33,157.09,199.98z M157.98,198.98c0.13-1.011,0.09-2.141-0.33-2.9c-0.28,0.77-0.891,1.2-1.341,1.79
				C156.7,198.41,157.1,198.94,157.98,198.98z M162.44,311.09c2.06-1.41,4.109,0.76,3.68,2.891c0.56-0.54,0.53-1.24,1.34-1.891
				c0.93-0.76,2.521-1,2.89-1.89c0.48-1.141-0.27-3.04-1.109-3.79c1.939-2.28,2.729,1.649,3.229,3.229c0.36-1,1.62-2.21,2.9-1.56
				c-1.58,1.689-3.99,4.71-1.9,7.46c-0.859-4.37,5.03-3.64,5.8-1.22c1.431-1.69-0.55-8.28,1.33-9.36
				c0.83-0.479,2.181-0.36,2.011,0.78c-0.24,0.39-0.96,0.3-1.23,0.67c-0.85,2.66,1.28,5.56,2.57,6.01
				c-0.181-1.86,1.04-2.75,2.45-2.67c-1.261-1.98-2.381-4.08-3.011-6.69c-2-1.859-3.029-4.689-4.899-6.68
				c-0.95,1.69-5.63,2.79-7.021,1c5.54,1.19,6.59-3.58,7.8-7.689c0.601-2.051,0.9-4.301,1.33-6.46c0.92-4.54,2.301-8.86,2.9-12.601
				c-7.45-0.35-11.51,3.65-12.59,10.03c0.56,2.76,4.87,1.109,6.02,2.46c-1.56,2.49-4.93-0.43-7.25,0.67
				c-0.739,0.35-1.63,2.95-1.67,4.12c-0.08,2.38,1.36,3.95,1,6.8c-0.41,3.36-3.569,5.03-4.229,7.91c-0.311,1.34,0.12,2.93,0,4.12
				C164.58,308.69,162.76,309.27,162.44,311.09z M163.78,246.12c2.779-14.8,5.95-29.63,13.93-38.45c-2.83,0.67-4.57,2.42-6.8,3.68
				c-0.561,1.78-0.53,4.631-2.45,4.57c-1.15-0.04-1.77-1.38-2.45-2.229c-3.96,2.409-5.279-8.601-3.24-11.48
				c-2.619-1.27-9.97-0.05-10.81-2.78c-0.39-1.3,0.3-1.819,0.79-2.79c-0.15-0.37-1.23-1.1-1.45-0.33c0.33,2.54-0.069,4.24-0.9,6.131
				c-0.56,1.279-0.8,2.619-1.22,3.56c-1.02,2.27-4.08,2.62-7.13,2.79c9.23,12.72,11.9,32.96,14.15,53.04
				c4.8-0.12,5.58-4.01,6.24-8.36C162.85,250.79,163.36,248.37,163.78,246.12z M173.03,140.36c-20.54-18.65-38.78-41.01-51.6-66.08
				c-0.56,1.5,0.2,3.49-0.11,5.02c-1.03-0.67-0.55-2.46-1-3.68c-0.15-0.39-0.59-0.62-0.67-1c-0.07-0.32-0.12-0.88-0.13-1.48
				c-0.03-0.99,0.01-2.11,0.13-2.42c0.47-1.28,2.62-1.27,3.9-1.79c0.72-0.28,3.54-2.66,3.68-0.89c0.06,0.79-1.38,0.8-2.34,1.23
				c-1.37,0.61-2.96,1.65-4.24,2.23c1.95,0.71,2.45,2.97,3.34,4.79c9.4,19,22.06,33.71,35.66,48.7
				c6.93,7.62,14.649,15.9,23.63,21.39c6.939,4.25,14.08,8.51,21.95,11.81c2.21,0.93,6.569,2.89,8.92,2.35
				c1.47-0.35,3.609-3.42,4.229-5.02c2-5.09,1.4-13.33,0.561-19.28c-2.21-15.7-7.4-28.11-12.7-40.23
				c-1.101-2.5-2.51-4.93-3.351-7.35c-1.17-3.37-1.46-6.88-2.449-10.37c-1.87,0.23-3.311-1.42-4.23-2.67
				c-1.46-1.97-3-5.13-4.13-8.25c-1.54-4.25-3.16-11.23,0.56-13.37c0.58-0.02,1.11,0,1.561,0.11c-4.16-6.59-11.46-10.38-18.28-14.37
				c-5.14-3.02-10.58-5.77-16.15-8.25c-1.96-0.87-4.229-1.15-6.13-2.12c-0.93-0.47-1.939-1.93-2.899-2.89
				c-2.95-2.95-5.86-5.98-8.69-8.81c-3.78-3.77-8.54-8.1-14.71-8.58c-4.92-0.38-8.74,2.98-10.37,6.02c-0.96,1.8-1.46,4.4,0.9,4.79
				c0.29-0.67,0.06-1.87,0.55-2.34c1.49,0.52,0.62,2.6,0.67,3.9c0.25,6.83,3.47,12.44,3.34,19.95c0.87-0.45,2.32-2.43,3.9-1.78
				c-7.15,4.02-5.86,16.49-7.24,26.29c0.64-0.16,3.58-2.07,4.9-0.55c-2.27,0.35-4.59,1.47-5.23,3.45c-0.37,1.11-0.28,2.8-0.24,4.35
				c0,0.23,0.01,0.45,0.01,0.67c0.03,5.09,1.2,10.04,2.57,13.15c0.14-1.54-0.93-3.93,0.11-4.91c0.86,0.52,0.48,1.65,0.56,2.34
				c0.66,6.03,2.52,11.44,4.68,16.16c7.47,16.38,17.07,30.7,29.859,41.68c8.36,7.18,17.721,13.87,28.421,19.17
				c5.06,2.5,10.869,4.97,17.27,6.57c6.14,1.53,13.81,3.27,20.39,0.56c-3.3-0.82-6.439-1.08-9.47-1.9
				c-7.37-1.97-13.78-5.54-19.5-9.13c-1.15-0.72-2.54-1.33-3.229-2.57c3.51,1.93,7.239,4.05,11.199,6
				c0.931,0.47,1.88,0.92,2.841,1.36c5.75,2.62,13.569,5.88,20.609,3.9c-0.05-5.82-1.8-10.9-3.67-15.27c0.11,1.34-0.92,2.55-1,3.9
				c-0.2,3.02,5.08,10.03-1.12,10.03c-6.319,0-12.29-2.5-17.189-4.88c-0.33-0.16-0.65-0.31-0.971-0.47
				c-5.18-2.54-10.25-5.68-14.489-9.02C181.83,146.9,177.07,144.04,173.03,140.36z M164.89,213.02c0.641-0.92,0.96-2.159,1.341-3.34
				c-1.19-0.109-2.061-1.13-3.12-1C163.51,210.31,163.8,212.07,164.89,213.02z M166.79,289.02c-0.63,1.681-1.41,3.23-2.34,4.91
				c-0.681,1.21-1.7,3.83-3.351,3.78c-1.85-0.05-2.34-3.44-2.449-5.12c-0.04-0.64-0.061-1.28-0.07-1.91
				c-0.03-4.479,0.8-8.85,1.3-13.359c0.57-5.181,0.95-10.271,1.561-14.82c-1.32,0.21-3.32,0.7-5.131,0.78
				c0.23,8.83,1.261,18.06,1.511,27.41c0.09,3.109,0.08,6.229-0.061,9.359c-0.17,3.7,0.04,10.47-3.68,10.26
				c-1.11-0.069-2.12-0.97-2.67-1.79c-1.43-2.09-2.17-5.75-3.23-8.47c-3.36-8.55-5.76-17.439-15.38-19.5
				c0.2,2.391,0.67,4.37,0.55,6.8c-0.16,3.721-2.06,6.051-0.33,9.471c1.23,2.439,2.96,3.59,3.23,7.02c0.06,0.771-0.19,1.66,0,2.57
				c0.16,0.77,0.97,1.38,1.45,2.22c0.42,0.74,0.88,1.72,1.12,2.57c0.42,1.53,1.08,4.92-0.23,5.68c-1.37,0.8-3.66-0.399-4.68-1
				c-0.73-0.43-1.19-1.42-2-2.01c-0.57-0.41-1.25-0.67-1.79-1c-0.57-0.351-1.03-0.99-1.67-0.89c-0.58,0.8-0.43,1.84-0.89,2.779
				c-0.82,1.67-2.58,3.391-4.23,3.79c-3.56,0.87-5.97-2.54-5.02-6.68c-0.74,0.82-1.47,1.88-2.9,2.56
				c-0.63,0.301-2.08,1.61-3.23,1.34c-2.09-0.5-0.76-4.76-0.11-6.13c0.88-1.859,1.96-3.1,2.9-4.569c0-2.101,1.69-3.11,2.56-4.46
				c1.01-1.561,1.41-3.53,3.01-4.46c1.1-2.881-0.51-5.07-1.23-7.351c-1.08-3.43-1.21-7.24-2.67-10.25c-4.31-0.54-7.66-1.8-11.7-3.01
				c-1.11-0.33-3.15-0.35-4.01-0.89c-2.31-1.46-1.34-8.04-0.78-11.04c0.87-4.66,2.44-8.29,2.11-13.7c-0.21-3.5-1.51-7-2.11-10.811
				c-1.22-7.68-0.16-15.409,1.45-22.85c0.51-2.4,1.19-5.04,1.33-8.35c0.05-1.07,0.46-2.221,0.34-2.79
				c-0.21-0.94-1.85-1.28-2.23-2.561c-0.27-0.89-0.11-3.27,0.44-4.569c0.6-1.381,2.54-3.28,3.79-4.9
				c3.75-4.85,7.79-10.09,11.26-14.83c1.23-1.68,2.39-3.49,3.23-5.46c0.86-2.02,1.46-4.1,2.67-6.01c2.06-3.23,5.39-6.92,9.59-7.8
				c4.42-0.94,7.81,0.5,9.47-3.01c1.24-2.62,1.25-8.51,1.45-11.93c0.11-2,0.24-4.2,0.33-6.35c0.1-2.18,0.47-4.78,0.11-6.46
				c-0.26-1.26-2.28-3.2-3.23-4.46c-7.78-10.38-14.04-21.6-18.72-35.1c-1.38-3.98-2.96-7.28-3.68-11.7c-0.69-4.31-0.7-9.57,0-14.27
				c0.67-4.42,0.76-9.27,1.34-14.04c0.57-4.66,1.83-8.97,1.56-13.71c-0.13-2.26-0.98-4.65-1.45-7.35c-0.2-1.16-0.45-2.48-0.67-3.79
				c-0.2-1.24-0.26-2.81-0.66-3.68c-0.97-2.08-4.12-1.79-3.46-5.57c0.45-2.56,2.3-4.75,4.12-6.46c2.04-1.91,4.49-3.36,7.47-3.46
				c6.89-0.21,12.64,4.85,16.16,8.36c3.05,3.05,6.06,5.95,9.25,9.14c1.04,1.04,2.05,2.5,3.01,3.01c0.86,0.46,2.11,0.56,3.12,0.89
				c2.77,0.9,5.56,2.4,8.24,3.68c7.069,3.36,13.72,7.37,20.17,11.7c3.95,2.64,7.87,5.23,9.81,9.8c3.87,0.74,7.9,1.56,9.471,4.91
				c0.359,0.77,0.529,1.98,0.89,3.01c0.38,1.06,0.71,2.12,0.78,3.12c0.069,0.92-0.21,1.85-0.11,2.78c0.05,0.47,0.46,0.98,0.45,1.45
				c-0.021,1.31-1.33,3.22-2.12,4.24c-0.99,1.27-2.29,2.17-3.45,2.89c0.71,3.82,1.311,7.74,2.45,11.26
				c0.86,2.66,2.36,5.23,3.45,7.69c6.21,13.98,12.22,28.92,13.71,47.58c0.13,1.69-0.05,3.59,0.33,5.24
				c0.279,1.18,1.14,2.56,1.68,4.01c0.99,2.72,1.84,5.4,2.45,8.8c0.3,1.73,0.8,3.77,0.439,5.24c-1.41,5.87-12.16,5.14-18.5,4.12
				c-20.54-3.29-34.649-13.8-48.25-23.95c0.551,3.62,0.16,8.48,2.12,10.36c1.891,1.82,5.021,1.03,8.36,1.34
				c3.82,0.35,7.37,3.5,9.359,6.35c2.33,3.33,3.7,7.04,5.12,10.58c2.38,5.95,4.86,10.45,8.25,15.38c1.49,2.16,3.681,4.02,2.79,7.689
				c-0.489,1.971-2,4-3.239,5.24c-1.101,1.11-3.78,2.83-4.011,4.46c-0.26,1.851,1.551,4.4,2.57,5.9c1.21,1.81,2.46,3.25,3,5.35
				c0.59,2.26,0.53,4.92,0.78,7.58c0.72,7.53,1.529,15.25,2.12,23.07c0.21,2.67,0.25,5.33,0.56,7.8c0.31,2.5,1.1,4.81,1.34,7.021
				c0.25,2.42-0.42,4.609-2.01,5.13c-1.58,0.51-3.81-0.19-5.57-0.341c-1.989-0.159-3.8-0.3-5.68-0.329
				c-0.82,4.899-2.521,9.56-3.46,14.6c-0.33,1.79-0.5,3.79-1,5.79c-0.37,1.439-1.64,3.939-1.45,5.35c0.14,1.03,1.83,2.73,2.561,3.9
				c0.899,1.43,2.1,2.53,2.68,3.68c0.3,0.601,0.3,1.37,0.55,2c0.26,0.641,0.85,1.16,1.12,1.78c0.229,0.54,0.229,1.12,0.44,1.57
				c0.55,1.14,1.939,1.97,2.229,3c0.43,1.489,0.26,4.83-1.34,5.239c-2.601,0.67-5.01-3.18-6.46-4.119c-0.54,2.71-1.5,6.93-4.12,7.13
				c-3.71,0.29-5.67-3.551-6.13-7.13c-1.99-0.03-2.79,2.289-4.24,3.34c-0.61,0.449-1.46,0.71-2.34,1.229
				c-1.05,0.63-1.92,1.141-2.89,0.67c-1.591-0.79-0.91-4.75-0.341-6.47c0.58-1.74,1.82-2.46,2.12-3.9c0.21-1.02-0.06-1.859,0-2.779
				c0.24-3.971,2.78-5.28,4.011-8.25C168.04,293.86,167.42,291.07,166.79,289.02z M163,207.9c1.27,0.239,2.17,0.869,3.34,1.22
				c1.8-1.75,2.68-4.26,5.021-5.12c3.51-1.31,7.47,2.35,10.25,3c0.83,0.2,4.67-0.32,4.68,0.67c0,1.061-4.67,0.95-6.35,1.12
				c-1.21,0.11-3.44,2.41-4.131,3.34c-3.04,4.101-5.17,11.01-6.909,17.05c-4.471,15.551-6.04,33.86-8.021,51.82
				c-0.6,5.47-1.75,11.07,0.11,15.27c4.479-4.3,5.069-11.76,7.8-17.5c2.6-5.46,6.75-10.529,14.27-11.029
				c3.101-0.21,6.86,0.29,9.69,0.55c0.99,0.1,2.32,0.53,3.12,0.34c1.12-0.26,1.479-1.88,1.34-3.46c-0.16-1.75-0.82-3.56-1.12-5.46
				c-0.29-1.91-0.399-3.91-0.55-6.01c-0.58-8.11-1.44-16.601-2.12-24.41c-0.33-3.71-0.29-9.1-1.67-11.59
				c-0.78-1.4-2.16-2.74-3.12-4.45c-0.64-1.13-2.1-3.37-1.87-5.49c0.021-0.14,0.05-0.279,0.08-0.42c0.43-1.85,3.08-3.26,4.57-4.899
				c1.41-1.551,3.28-4.021,2.899-6.69c-0.14-0.99-1.369-2.23-2.34-3.57c-0.04-0.06-0.09-0.12-0.13-0.18
				c-2.45-3.41-5.1-7.3-6.67-11.07c-2.49-5.99-4.18-11.93-7.689-16.38c-1.58-2.01-4.83-4.72-7.91-4.91
				c-1.57-0.09-3.11,0.2-4.34,0.45c-1.45,0.29-2.511,0.89-3.461,1c0.07-0.79,1.65-1.01,2.23-1.67c-3.46-0.25-4.55-2.88-5.46-5.68
				c-2.2-0.67-2.09-4.2-2.56-6.35c-1.28-5.79-5.661-9.53-11.15-11.04c-0.02-0.13-0.12-0.07-0.22,0c0,0.08,0,0.15,0,0.23
				c-0.03,3.32-0.34,7.59-0.67,11.7c-0.53,6.72-0.78,12.16-7.91,11.81c-0.17,0.37,1.38,0.75,0.67,1.34
				c-1.31-0.74-2.49-1.54-4.35-1.12c-3.93,0.9-6.97,4.41-9.02,7.8c-1.12,1.84-1.81,3.87-2.68,5.8c-0.88,1.95-1.9,3.689-3.12,5.35
				c-3.67,4.99-7.18,9.65-10.92,14.48c-0.98,1.27-2.05,2.26-2.86,3.41c-0.92,1.279-1.52,2.77-1.37,5.06
				c2.26,2.56,6.3,4.271,11.14,4.57c2.95,0.18,6.37-0.15,9.58,0c3.32,0.16,6.52,0.84,9.03,0.779c0.81-0.02,1.6-0.529,2.19-0.29
				c0.09,0.04,0.18,0.101,0.26,0.181c-0.57,1.46-2.81,0.96-4.46,0.89c-0.86-0.03-1.78,0.09-2.56,0c-5.08-0.59-12.5,0.88-17.94,0.11
				c-1.65-0.23-2.91-1.061-4.46-1.11c-0.27,1.25,0.34,2.58,0.78,3.68c0.45,1.11,0.99,2.37,1.67,3.341
				c0.98,1.399,3.05,2.779,2.12,5.239c-0.95-3.739-4.45-4.92-5.57-8.47c-1.98,9.12-4.42,19.3-2.34,29.64
				c0.63,3.16,1.76,6.29,1.89,9.811c0.27,7.3-3.56,13.54-2.78,20.72c0.09,0.88,0.31,1.44,0.89,2.23
				c6.61,1.27,10.86,3.33,18.05,3.899c6.83,0.551,13.21,1.04,18.17,3.9c5.17,2.99,6.94,6.96,9.24,12.82
				c1.62,4.119,2.98,7.58,4.57,11.92c0.341,0.91,1.07,3.16,2.681,2.899c1.359-0.22,1.41-3.8,1.56-5.68
				c0.23-3.021,0.46-5.33,0.33-7.8c-0.85-16.811-1.01-33.23-3.45-48.931c-1.27-8.13-2.69-14.51-4.91-21.279
				c-2.32-7.12-5.74-15.681-12.03-18.5c-0.42,0.08-1.17,0.46-1.6,0.279c-0.14-0.06-0.24-0.18-0.29-0.39
				c0.13-0.55,0.84-0.6,1.22-0.89c1.12-0.87,1.83-2.271,2.9-3.34c1.07-1.08,2.25-2.08,2.78-3.46c-0.12-0.801-1.68-1.24-0.89-2.23
				c0.93,1.56,2.99,2.68,4.91,2.57c-0.04,0.52-0.74,0.37-0.9,0.779c0.21,1.551,0.57,2.99,1.68,3.9c2.76-0.58,4.48-3.05,4.23-6.02
				c-0.25-3.03-2.85-5.561-5.01-6.69c-0.65-0.33-1.87-0.44-1.9-1.45c2.1-0.03,4.58,1.82,5.68,3.351c2.78,1.01,5.15,2.43,7.141,4.229
				c0.88-0.61,1.279-1.689,1.89-2.56c-2.32-3.7-5.82-6.721-10.92-7.25c-3.96-0.4-6.53,1.6-8.91,3.46
				c-3.47,2.71-7.97,4.399-8.25,9.689c-0.03,0.55,0.47,1.73-0.56,1.9c-1.29-1.38-0.16-4.53,0.45-5.8
				c-3.62-1.141-7.78-2.391-12.26-2.11c-3.62,0.22-7.11,1.41-9.81,2.45c-0.87,0.33-2.01,1.189-2.89,0.55
				c0.01-0.08,0.02-0.15,0.04-0.22c0.29-1.011,1.7-1.13,2.52-1.45c3.15-1.2,6.62-2.32,10.59-2.45c2.8-1.41,4.93-3.7,6.68-6.57
				c1.63-2.67,3.49-6.069,4.01-9.359c0.17-1.04-0.3-2.48,1.01-2.68c-0.03,0.9-0.23,2.08,0.22,2.9c0.26,0.47,1.08,0.83,1.34,1.34
				c0.95,1.851,0.44,4.83,0.55,7.24c0.12,2.57,0.57,4.89,0.78,7.13c4.44-2.49,7.72-7.82,14.82-7.13c5.8,0.56,9.15,4.18,11.93,8.02
				c3.14-0.92,7.25-1.01,11.25-0.779c0.05-4.7-0.22-11.851,2.46-14.37c1.11-1.05,4.25-2.61,4.561-0.22c-0.98-0.7-2.631-0.721-3,0.55
				c1.97,5.189,4.189,10.14,8.8,12.71c0.7-0.28,1.59-0.78,2.779-0.9c1.74-0.16,4.21,0.061,4.99,1.05
				c0.15,0.181,0.24,0.391,0.25,0.631c-1.27,0.68-2.939-0.4-4.569-0.341c-2.23,0.08-3.66,1.17-4.341,3.011
				c1.431,0.71,3.99,1.34,3.9,3.12c-1.46,0-2.38-1.311-3.68-1.891c-6.061-2.74-16.811-2.81-23.74-1.34c0.61,1.3,0.14,3.78,0,4.46
				c1.59,0.15,2.95,0.54,4.57,0.67c0.619-0.87,1.409-1.899,2.229-2.79c0.74-0.8,1.66-2.18,2.9-1.78
				c-0.011,1.08-1.141,1.65-1.78,2.341C164.66,200.89,162.54,203.51,163,207.9z M164.67,314.76c0.38-0.72,0.72-1.93,0.22-2.67
				c-1.319-1.95-4.109,1.69-2.779,4.01C163.14,315.83,163.64,315.03,164.67,314.76z"/>
			<path fill="#FFFFFF" d="M156.31,263.28c1.811-0.08,3.811-0.57,5.131-0.78c-0.61,4.55-0.99,9.64-1.561,14.82
				c-0.5,4.51-1.33,8.88-1.3,13.359l-0.76,0.011C157.57,281.34,156.54,272.11,156.31,263.28z"/>
			<path fill="#FFFFFF" d="M221.17,150.95c1.87,4.37,3.62,9.45,3.67,15.27c-7.04,1.98-14.859-1.28-20.609-3.9
				c-0.961-0.44-1.91-0.89-2.841-1.36l0.471-0.96c4.899,2.38,10.87,4.88,17.189,4.88c6.2,0,0.92-7.01,1.12-10.03
				C220.25,153.5,221.28,152.29,221.17,150.95z"/>
			<path fill="#FFFFFF" d="M220.83,161.2c0.57,0.74,0.54,2.93-0.89,2.68C220.32,163.07,220.73,162.29,220.83,161.2z"/>
			<path fill="#FFFFFF" d="M218.94,136.24c0.84,5.95,1.439,14.19-0.561,19.28c-0.62,1.6-2.76,4.67-4.229,5.02
				c-2.351,0.54-6.71-1.42-8.92-2.35c-7.87-3.3-15.011-7.56-21.95-11.81c-8.98-5.49-16.7-13.77-23.63-21.39
				c-13.601-14.99-26.26-29.7-35.66-48.7c-0.89-1.82-1.39-4.08-3.34-4.79c1.28-0.58,2.87-1.62,4.24-2.23
				c0.96-0.43,2.4-0.44,2.34-1.23c-0.14-1.77-2.96,0.61-3.68,0.89c-1.28,0.52-3.43,0.51-3.9,1.79c-0.12,0.31-0.16,1.43-0.13,2.42
				l-1,0.03c-0.04-1.55-0.13-3.24,0.24-4.35c0.64-1.98,2.96-3.1,5.23-3.45c-1.32-1.52-4.26,0.39-4.9,0.55
				c1.38-9.8,0.09-22.27,7.24-26.29c-1.58-0.65-3.03,1.33-3.9,1.78c0.13-7.51-3.09-13.12-3.34-19.95c-0.05-1.3,0.82-3.38-0.67-3.9
				c-0.49,0.47-0.26,1.67-0.55,2.34c-2.36-0.39-1.86-2.99-0.9-4.79c1.63-3.04,5.45-6.4,10.37-6.02c6.17,0.48,10.93,4.81,14.71,8.58
				c2.83,2.83,5.74,5.86,8.69,8.81c0.96,0.96,1.97,2.42,2.899,2.89c1.9,0.97,4.17,1.25,6.13,2.12c5.57,2.48,11.011,5.23,16.15,8.25
				c6.82,3.99,14.12,7.78,18.28,14.37c-0.45-0.11-0.98-0.13-1.561-0.11c-3.72,2.14-2.1,9.12-0.56,13.37
				c1.13,3.12,2.67,6.28,4.13,8.25c0.92,1.25,2.36,2.9,4.23,2.67c0.989,3.49,1.279,7,2.449,10.37c0.841,2.42,2.25,4.85,3.351,7.35
				C211.54,108.13,216.73,120.54,218.94,136.24z M190.08,119.86c0.41-0.36,1.21-2.58-0.23-2.45c-0.21,0.38-0.09,1.09-0.439,1.34
				c-0.58,0.36-1.25-0.56-1.9-0.12C187.51,119.86,188.94,120.14,190.08,119.86z M186.62,116.29c0.13,1.38,1.13,2.41,2.56,2.12
				c-0.01-1.64-0.779-3.45-1.56-4.9c-0.72-1.35-1.71-3.19-3.34-3.23c0.38,1.1,1.109,1.91,1.67,2.89c0.54,0.95,1.1,1.92,1.45,3.12
				C187.25,116.14,186.77,116.14,186.62,116.29z M183.95,109.5c0.3,0.25,0.939,0.71,1.34,0.22c-0.3-2.15-3.65-1.06-2.23,1.11
				c0.181,0,0.37,0,0.551,0C184,110.66,183.7,109.81,183.95,109.5z M168.01,68.15c1.63-5.63-1.05-9.64-3.79-11.92
				c-2.5-2.09-5.81-3.62-10.029-3.23c-7.65,0.7-11.15,5.5-11.36,12.48c-0.22,7.19,4.79,11.16,10.81,11.59
				C160.51,77.56,166.27,74.18,168.01,68.15z M139.04,76.62c1.11,0.47,2.7,1.08,4.12,0.34c-4.31-0.52-6.41-2.25-8.69-4.91
				c-1.25-1.46-2.96-4.82-5.02-4.12c0.01,0.07,0.02,0.13,0.12,0.11C132.82,70.59,134.87,74.88,139.04,76.62z"/>
			<path fill="#FFFFFF" d="M218.49,158.19c0.58,1.96,0.41,4.67-0.891,5.69c-10.229-1.32-17.369-5.73-24.739-9.92
				c4.54,1.78,9.76,4.91,15.38,6.8c1.779,0.6,4.34,1.56,6.35,1.11C216.39,161.47,217.33,159.11,218.49,158.19z"/>
			<path fill="#FFFFFF" d="M203.45,59.91c1.62,1.08,2.29,5.29,2.12,7.35c-0.221,2.64-1.771,2.86-5.021,2.68
				c3.91-1.49,3.24-8.68-1.34-9.03c-1.31-0.1-2,0.71-3.34,0.78C197.83,60.64,200.89,58.2,203.45,59.91z"/>
			<path fill="#FFFFFF" d="M205.46,70.05c-0.07,0.78-1.08,2.52-2.229,3.68c-1.221,1.21-2.58,2.37-4.461,2.45
				c-1.729-1.18-2.85-2.94-3.68-5.02c0.54,0.02,0.94-0.1,1.23-0.33c-0.181-0.64-1.431-0.21-1.67-0.78
				c1.189-0.24,3.689,0.59,5.569,0.78c0.54,0.05,0.94,0.04,1.33,0.11c1.23,0.21-0.14,0.1-0.439,0.11c-0.58,0.02-1.37-0.1-1.67,0.11
				c0.6,0.56,1.96,0.4,2.779,0.34C203.68,71.38,204.9,70.79,205.46,70.05z"/>
			<path fill="#FFFFFF" d="M203,58.79c-5.1-0.78-8.07,2.47-11.25,4.35c-0.05-2.06-1.26-5.39,0.11-6.91
				c0.6-0.67,2.12-0.85,3.229-0.78C198.19,55.64,202.09,57.23,203,58.79z"/>
			<path fill="#FFFFFF" d="M197.21,265.17c0.14,1.58-0.22,3.2-1.34,3.46c-0.8,0.19-2.13-0.24-3.12-0.34
				c-2.83-0.26-6.59-0.76-9.69-0.55c-7.52,0.5-11.67,5.569-14.27,11.029c-2.73,5.74-3.32,13.2-7.8,17.5
				c-1.86-4.199-0.71-9.8-0.11-15.27c1.98-17.96,3.55-36.27,8.021-51.82c1.739-6.04,3.869-12.949,6.909-17.05
				c0.69-0.93,2.921-3.229,4.131-3.34c1.68-0.17,6.35-0.06,6.35-1.12l0.47,0.09c-0.229,2.12,1.23,4.36,1.87,5.49
				c0.96,1.71,2.34,3.05,3.12,4.45c1.38,2.49,1.34,7.88,1.67,11.59c0.68,7.81,1.54,16.3,2.12,24.41c0.15,2.1,0.26,4.1,0.55,6.01
				C196.39,261.61,197.05,263.42,197.21,265.17z M182.94,262.39c1.17-0.09,3.02,0.4,3.569-0.34c-4.75-1.68-9.74,0.23-12.7,2.79
				c-1.489,1.28-3.3,3.141-3.68,5.021c1.16-0.44,1.7-1.641,2.561-2.46C175.18,265.05,178.72,262.69,182.94,262.39z M183.5,252.03
				c-0.08-0.58-0.95-0.55-1.34-0.561c-5.55-0.21-9.24,4.45-11.36,8.13c-0.76,1.32-1.74,2.73-1.56,4.131
				c0.72-0.2,1.01-1.11,1.34-1.681C173.41,257.12,177.03,253.2,183.5,252.03z M166.9,251.13c0.449-2.86,1.25-5.62,1.22-8.35
				c0-0.07-0.01-0.141-0.11-0.12c-0.16,0.07-0.27,0.18-0.33,0.34c-1.55,4.69-2.739,10.58-3.46,16.49
				c-0.64,5.26-1.06,10.66-1.45,15.939c-0.039,0.57-0.5,1.641,0.341,2C164.57,268.95,165.56,259.69,166.9,251.13z"/>
			<path fill="#FFFFFF" d="M196.65,69.16c-0.87,0.05-2.091-0.51-3.12-0.67c-0.561-1.26-0.95-2.69-1.45-4.01
				c0.37-0.86,1.33-1.13,1.9-1.79c0.22,0.68,0.039,2.41,1,2.68C195.08,67.09,195.63,68.36,196.65,69.16z"/>
			<path fill="#FFFFFF" d="M195.2,62.25c1.78-0.76,2.04,2.77,0.45,2.78C194.41,65.04,194.14,62.7,195.2,62.25z"/>
			<path fill="#FFFFFF" d="M194.31,195.75c0.381,2.67-1.489,5.14-2.899,6.69c-1.49,1.64-4.141,3.05-4.57,4.899
				c-0.03,0.141-0.06,0.28-0.08,0.42l-0.47-0.09c-0.01-0.99-3.85-0.47-4.68-0.67c-2.78-0.65-6.74-4.31-10.25-3
				c-2.341,0.86-3.221,3.37-5.021,5.12c-1.17-0.351-2.07-0.98-3.34-1.22c-0.46-4.391,1.66-7.011,3.79-9.25
				c0.64-0.69,1.77-1.261,1.78-2.341c-1.24-0.399-2.16,0.98-2.9,1.78c-0.82,0.891-1.61,1.92-2.229,2.79
				c-1.62-0.13-2.98-0.52-4.57-0.67c0.14-0.68,0.61-3.16,0-4.46c6.93-1.47,17.68-1.4,23.74,1.34c1.3,0.58,2.22,1.891,3.68,1.891
				c0.09-1.78-2.47-2.41-3.9-3.12c0.681-1.841,2.11-2.931,4.341-3.011c1.63-0.06,3.3,1.021,4.569,0.341
				c-0.01-0.24-0.1-0.45-0.25-0.631l0.79-0.56c0.04,0.06,0.09,0.12,0.13,0.18C192.94,193.52,194.17,194.76,194.31,195.75z"/>
			<path d="M189.85,117.41c1.44-0.13,0.641,2.09,0.23,2.45c-1.14,0.28-2.57,0-2.57-1.23c0.65-0.44,1.32,0.48,1.9,0.12
				C189.76,118.5,189.64,117.79,189.85,117.41z"/>
			<path d="M189.18,118.41c-1.43,0.29-2.43-0.74-2.56-2.12c0.149-0.15,0.63-0.15,0.78,0c-0.351-1.2-0.91-2.17-1.45-3.12
				c-0.561-0.98-1.29-1.79-1.67-2.89c1.63,0.04,2.62,1.88,3.34,3.23C188.4,114.96,189.17,116.77,189.18,118.41z"/>
			<path fill="#FFFFFF" d="M184.84,311.87c0.43-2.92,4.641,0.46,2.561,2.89C185.76,314.63,184.61,313.46,184.84,311.87z"/>
			<path fill="#FFFFFF" d="M186.4,309.75c-1.41-0.08-2.631,0.81-2.45,2.67c-1.29-0.45-3.42-3.35-2.57-6.01
				c0.271-0.37,0.99-0.28,1.23-0.67c0.17-1.141-1.181-1.26-2.011-0.78c-1.88,1.08,0.101,7.67-1.33,9.36
				c-0.77-2.42-6.659-3.15-5.8,1.22c-2.09-2.75,0.32-5.771,1.9-7.46c-1.28-0.65-2.54,0.56-2.9,1.56c-0.5-1.58-1.29-5.51-3.229-3.229
				c0.84,0.75,1.59,2.649,1.109,3.79c-0.369,0.89-1.96,1.13-2.89,1.89c-0.81,0.65-0.78,1.351-1.34,1.891
				c0.43-2.131-1.62-4.301-3.68-2.891c0.319-1.82,2.14-2.399,2.34-4.35c0.12-1.19-0.311-2.78,0-4.12
				c0.66-2.88,3.819-4.55,4.229-7.91c0.36-2.85-1.08-4.42-1-6.8c0.04-1.17,0.931-3.771,1.67-4.12c2.32-1.1,5.69,1.82,7.25-0.67
				c-1.149-1.351-5.46,0.3-6.02-2.46c1.08-6.38,5.14-10.38,12.59-10.03c-0.6,3.74-1.98,8.061-2.9,12.601
				c-0.43,2.159-0.729,4.409-1.33,6.46c-1.21,4.109-2.26,8.88-7.8,7.689c1.391,1.79,6.07,0.69,7.021-1
				c1.87,1.99,2.899,4.82,4.899,6.68C184.02,305.67,185.14,307.77,186.4,309.75z"/>
			<path d="M186.51,262.05c-0.55,0.74-2.399,0.25-3.569,0.34c-4.221,0.301-7.761,2.66-10.25,5.011c-0.86,0.819-1.4,2.02-2.561,2.46
				c0.38-1.88,2.19-3.74,3.68-5.021C176.77,262.28,181.76,260.37,186.51,262.05z"/>
			<path d="M185.29,109.72c-0.4,0.49-1.04,0.03-1.34-0.22c-0.25,0.31,0.05,1.16-0.34,1.33c-0.181,0-0.37,0-0.551,0
				C181.64,108.66,184.99,107.57,185.29,109.72z"/>
			<path d="M182.16,251.47c0.39,0.011,1.26-0.02,1.34,0.561c-6.47,1.17-10.09,5.09-12.92,10.02c-0.33,0.57-0.62,1.48-1.34,1.681
				c-0.181-1.4,0.8-2.811,1.56-4.131C172.92,255.92,176.61,251.26,182.16,251.47z"/>
			<path fill="#FFFFFF" d="M181.94,193.63c-0.261,0.59-0.641,1.07-0.891,1.67c-2.72-0.88-6-1.21-9.25-1.56
				c-0.05-4.76,0-9.431,1.561-12.59C175.45,186.08,177.65,190.9,181.94,193.63z"/>
			<path fill="#FFFFFF" d="M178.49,315.54c-0.01,1.87-2.221,2.95-3.681,1.45c-0.18-1.271-0.659-1.721-0.449-2.67
				C174.85,312.18,178.49,313.49,178.49,315.54z"/>
			<path fill="#FFFFFF" d="M170.91,211.35c2.229-1.26,3.97-3.01,6.8-3.68c-7.979,8.82-11.15,23.65-13.93,38.45
				c-0.42,2.25-0.931,4.67-1.34,7.35c-0.66,4.351-1.44,8.24-6.24,8.36c-2.25-20.08-4.92-40.32-14.15-53.04
				c3.05-0.17,6.11-0.521,7.13-2.79c0.42-0.94,0.66-2.28,1.22-3.56c0.831-1.891,1.23-3.591,0.9-6.131c0.22-0.77,1.3-0.04,1.45,0.33
				c-0.49,0.971-1.18,1.49-0.79,2.79c0.84,2.73,8.19,1.511,10.81,2.78c-2.039,2.88-0.72,13.89,3.24,11.48
				c0.681,0.85,1.3,2.189,2.45,2.229C170.38,215.98,170.35,213.13,170.91,211.35z"/>
			<path fill="#FFFFFF" d="M171.02,205.56c2.2-1.119,3.83,0.99,2.9,2.891c-1.64,1.04-3.9,1.45-4.24,3.79
				c-0.239,0.1-1.91-1.351-2.779-0.33c0.08-0.45,0.25-1.76,0.67-2.57C168.01,208.48,170.18,205.98,171.02,205.56z"/>
			<path fill="#FFFFFF" d="M169.46,213.36c-0.16,0.689-0.31,1.39-0.89,1.67c-0.86-0.49-1.4-1.28-2.011-2.011
				C167.09,211.68,169.13,212.17,169.46,213.36z"/>
			<path d="M168.12,242.78c0.03,2.729-0.771,5.489-1.22,8.35c-1.341,8.561-2.33,17.82-3.79,26.3c-0.841-0.359-0.38-1.43-0.341-2
				c0.391-5.279,0.811-10.68,1.45-15.939c0.721-5.91,1.91-11.8,3.46-16.49c0.061-0.16,0.17-0.27,0.33-0.34
				C168.11,242.64,168.12,242.71,168.12,242.78z"/>
			<path fill="#FFFFFF" d="M155.08,54.22c7.229-0.1,12.479,5.23,11.71,12.93c-1.88-5.63-7.88-9.81-15.05-9.81
				c-2.22,0-3.76,0.62-5.24,1.56c-0.13,0.16-0.04,0.01,0-0.11C148.49,56.36,151.13,54.28,155.08,54.22z"/>
			<path fill="#FFFFFF" d="M165.34,70.16c0.12,1.09-1.899,1-2.57,1.67c0.04,0.47,0.99,0.16,1.23,0.11
				c-1.06,1.83-4.28,3.55-7.58,3.79c-6.49,0.47-11.26-2.66-12.03-8.13c0.14-0.58,0.47,0.35,1,0.11c-0.05-0.77-0.65-0.98-0.89-1.56
				C147.82,70.23,158.57,73.21,165.34,70.16z M147.17,69.38c3.06,1.85,7.39,3.01,12.04,2.9c-0.86-0.64-2.07-0.53-3.12-0.67
				c-3.46-0.47-6.46-1.19-8.81-2.68c-0.07,0-0.14,0-0.22,0C147.05,69.13,147.09,69.28,147.17,69.38z"/>
			<path fill="#FFFFFF" d="M164.89,312.09c0.5,0.74,0.16,1.95-0.22,2.67c-1.03,0.271-1.53,1.07-2.56,1.34
				C160.78,313.78,163.57,310.14,164.89,312.09z"/>
			<path fill="#FFFFFF" d="M166.23,209.68c-0.381,1.181-0.7,2.42-1.341,3.34c-1.09-0.949-1.38-2.71-1.779-4.34
				C164.17,208.55,165.04,209.57,166.23,209.68z"/>
			<path d="M159.21,72.28c-4.65,0.11-8.98-1.05-12.04-2.9c-0.08-0.1-0.12-0.25-0.11-0.45c0.08,0,0.15,0,0.22,0
				c2.35,1.49,5.35,2.21,8.81,2.68C157.14,71.75,158.35,71.64,159.21,72.28z"/>
			<path fill="#FFFFFF" d="M157.65,196.08c0.42,0.76,0.46,1.89,0.33,2.9c-0.881-0.04-1.28-0.57-1.671-1.11
				C156.76,197.28,157.37,196.85,157.65,196.08z"/>
			<path fill="#FFFFFF" d="M157.09,199.98c-0.24,0.35-0.63-0.101-1,0C156.26,199.42,156.75,199.82,157.09,199.98z"/>
			<path d="M156.31,59.9c4.66,1.54,4.16,9.77-1.67,9.81c-0.54,0-1.06-0.07-1.54-0.2c-2.04-0.57-3.479-2.3-3.59-4.59
				c-0.15-3.3,1.48-4.93,4.57-5.24C154.92,59.6,155.67,59.68,156.31,59.9z M150.29,62.8c0,2.69,4.17,2.37,3.79-0.33
				c-0.13-0.97-0.87-1.79-2.34-1.45C150.8,61.24,150.29,61.83,150.29,62.8z"/>
			<path fill="#FFFFFF" d="M156.42,295.49c0.13,2.47-0.1,4.779-0.33,7.8c-0.149,1.88-0.2,5.46-1.56,5.68
				c-1.61,0.261-2.34-1.989-2.681-2.899c-1.59-4.34-2.95-7.801-4.57-11.92c-2.3-5.86-4.07-9.83-9.24-12.82
				c-4.96-2.86-11.34-3.35-18.17-3.9c-7.19-0.569-11.44-2.63-18.05-3.899c-0.58-0.79-0.8-1.351-0.89-2.23
				c-0.78-7.18,3.05-13.42,2.78-20.72c-0.13-3.521-1.26-6.65-1.89-9.811c-2.08-10.34,0.36-20.52,2.34-29.64
				c1.12,3.55,4.62,4.73,5.57,8.47c0.93-2.46-1.14-3.84-2.12-5.239c-0.68-0.971-1.22-2.23-1.67-3.341c-0.44-1.1-1.05-2.43-0.78-3.68
				c1.55,0.05,2.81,0.88,4.46,1.11c5.44,0.77,12.86-0.7,17.94-0.11c0.78,0.09,1.7-0.03,2.56,0c1.65,0.07,3.89,0.57,4.46-0.89
				c-0.08-0.08-0.17-0.141-0.26-0.181l0.11-0.21c0.43,0.181,1.18-0.199,1.6-0.279c6.29,2.819,9.71,11.38,12.03,18.5
				c2.22,6.77,3.64,13.149,4.91,21.279C155.41,262.26,155.57,278.68,156.42,295.49z M148.73,269.63
				c0.42-11.2-2.72-19.75-8.35-26.189c-2.89-3.29-5.04-6.591-7.58-9.91c-1.96-2.57-3.85-4.91-4.91-8.141
				c-0.33-1.02-0.4-2.35-1-3.449c-1.46-2.69-6.09-3.46-10.03-3.57c-0.11,0-0.13,0.09-0.22,0.11c0,0.109,0,0.229,0,0.34
				c3.29,1.26,8.24,1.55,9.69,4.79c0.51,1.13,0.57,2.37,0.9,3.34c1.09,3.3,2.96,5.39,4.9,7.91c2.47,3.22,4.5,6.609,7.35,9.81
				c2.84,3.19,4.98,6.45,6.36,10.7c1.2,3.74,1.93,8.149,2.34,12.59C148.22,268.44,147.99,269.44,148.73,269.63z M106.72,261.39
				c3.62-6.37,4.1-16.39,3.9-26.3c-0.02-1.35,0.13-4.68-0.67-4.57c-0.37,12.591-1.61,24.311-5.68,33.211
				C105.45,263.66,106.18,262.34,106.72,261.39z"/>
			<path fill="#FFFFFF" d="M157.87,194.86c-0.61,0.87-1.01,1.949-1.89,2.56c-1.99-1.8-4.36-3.22-7.141-4.229
				c-1.1-1.53-3.58-3.381-5.68-3.351c0.03,1.01,1.25,1.12,1.9,1.45c2.16,1.13,4.76,3.66,5.01,6.69c0.25,2.97-1.47,5.439-4.23,6.02
				c-1.11-0.91-1.47-2.35-1.68-3.9c0.16-0.409,0.86-0.26,0.9-0.779c-1.92,0.109-3.98-1.011-4.91-2.57
				c-0.79,0.99,0.77,1.43,0.89,2.23c-0.53,1.38-1.71,2.38-2.78,3.46c-1.07,1.069-1.78,2.47-2.9,3.34c-0.38,0.29-1.09,0.34-1.22,0.89
				c0.05,0.21,0.15,0.33,0.29,0.39l-0.11,0.21c-0.59-0.239-1.38,0.271-2.19,0.29c-2.51,0.061-5.71-0.619-9.03-0.779
				c-3.21-0.15-6.63,0.18-9.58,0c-4.84-0.3-8.88-2.011-11.14-4.57c-0.15-2.29,0.45-3.78,1.37-5.06l1.01,0.38
				c-0.02,0.069-0.03,0.14-0.04,0.22c0.88,0.64,2.02-0.22,2.89-0.55c2.7-1.04,6.19-2.23,9.81-2.45c4.48-0.28,8.64,0.97,12.26,2.11
				c-0.61,1.27-1.74,4.42-0.45,5.8c1.03-0.17,0.53-1.351,0.56-1.9c0.28-5.29,4.78-6.979,8.25-9.689c2.38-1.86,4.95-3.86,8.91-3.46
				C152.05,188.14,155.55,191.16,157.87,194.86z"/>
			<path fill="#FFFFFF" d="M155.98,199.43c-0.761,0.66-2.49-0.04-3.011-0.67c0.101-0.68,0.73-0.83,1-1.34
				C154.63,198.1,155.57,198.5,155.98,199.43z"/>
			<path fill="#FFFFFF" d="M154.08,62.47c0.38,2.7-3.79,3.02-3.79,0.33c0-0.97,0.51-1.56,1.45-1.78
				C153.21,60.68,153.95,61.5,154.08,62.47z"/>
			<path d="M140.38,243.44c5.63,6.439,8.77,14.989,8.35,26.189c-0.74-0.189-0.51-1.189-0.55-1.67c-0.41-4.44-1.14-8.85-2.34-12.59
				c-1.38-4.25-3.52-7.51-6.36-10.7c-2.85-3.2-4.88-6.59-7.35-9.81c-1.94-2.521-3.81-4.61-4.9-7.91c-0.33-0.97-0.39-2.21-0.9-3.34
				c-1.45-3.24-6.4-3.53-9.69-4.79c0-0.11,0-0.23,0-0.34c0.09-0.021,0.11-0.11,0.22-0.11c3.94,0.11,8.57,0.88,10.03,3.57
				c0.6,1.1,0.67,2.43,1,3.449c1.06,3.23,2.95,5.57,4.91,8.141C135.34,236.85,137.49,240.15,140.38,243.44z"/>
			<path fill="#FFFFFF" d="M147.84,204.22c0.17,1.36-1.43,2.87-3.01,3.23c-0.31-1.13-0.89-2-2.34-2.01
				c0.38-0.931,1.94-0.311,3.12-0.44C146.58,204.89,147.31,204.55,147.84,204.22z"/>
			<path fill="#FFFFFF" d="M145.06,204c-1.13,0.34-2.39-0.14-3.24-0.45c0.47-0.8,1.2-1.33,1.9-1.89
				C144.14,202.46,144.37,203.46,145.06,204z"/>
			<path fill="#FFFFFF" d="M141.04,207.9c-0.17-1.841,3.05-2.7,3.24-0.23C143.33,207.88,142.23,207.93,141.04,207.9z"/>
			<path fill="#FFFFFF" d="M142.38,199.87c0.57,0.03,0.9,0.29,1,0.78c-0.91,0.89-3.91,2.8-1.56,3.899c-0.38,1-1.15,1.601-1.56,2.57
				C135.64,205.26,140.74,201.78,142.38,199.87z"/>
			<path d="M143.16,76.96c-1.42,0.74-3.01,0.13-4.12-0.34c-4.17-1.74-6.22-6.03-9.47-8.58c-0.1,0.02-0.11-0.04-0.12-0.11
				c2.06-0.7,3.77,2.66,5.02,4.12C136.75,74.71,138.85,76.44,143.16,76.96z"/>
			<path fill="#FFFFFF" d="M137.03,311.87c0.92,0.59,0.98,2.57,0.89,3.79c-1.68,0.22-3.34-1.061-3.23-2.68
				C134.77,311.89,135.95,311.17,137.03,311.87z"/>
			<path fill="#FFFFFF" d="M137.14,310.86c-2.15-0.641-3.7,0.81-3.23,2.79c-0.49,0.13-0.96-0.841-1.56-1.23
				c-0.96-0.62-2.34-0.88-2.78-1.89c-0.24-2.271-0.73-8.011-3.12-6.351c0.05,0.54,0.92,0.271,1,0.78c-0.03,1.84,0.65,3.12-0.11,4.57
				c-1.05-0.971-3.97-2.04-5.69-0.9c1.15,0.73,2.57,0.12,3.68,0.9c1.28,0.89,1.54,4.279,0.11,5.229c-0.66-2.17-4.86-3.66-5.79-0.66
				c-0.64-1.859,1.01-3.88,0.67-5.8c-0.2-1.109-1.6-3.42-3.12-2.67c0.83,0.5,1.19,1.47,1.78,2.23c-0.35,1.949-1.83,2.77-2.67,4.229
				c-0.63-0.97-1.33-1.87-2.79-2.01c0.76-1.68,1.81-3.09,2.79-4.57c-0.19-1.75,1.35-2.54,2.22-3.779
				c0.48-0.681,0.75-1.521,1.08-2.301l1.49,0.29c1.3-0.1,2.35-0.88,4.01-0.779c0.84,0.05,2,0.369,3.12,0.56
				c3.75,0.62,6.28,0.86,6.69,4.9c0.06,0.699-0.17,1.609,0,2.449C135.22,308.39,136.87,309.08,137.14,310.86z"/>
			<path fill="#FFFFFF" d="M131.35,296.6c0.44,0.74,0.73,1.641,1.34,2.23c-3.22-0.26-9.62-2.04-11.59,0.89l-1.49-0.29
				c0.19-0.46,0.41-0.899,0.71-1.27c0.37-0.45,1.17-0.641,1.45-1.23c0.37-0.79,0.55-2.38,0.55-3.229c0.02-2.271-1.39-4.33-2-6.79
				c-0.62-2.48-1.05-4.78-1.67-7.03c1.54-0.42,4.21-0.57,6.35-0.439c1.62,0.1,3.8,0.229,3.9,1.779c-1.31,1.101-4.1,0.771-6.02,0.45
				c-0.38,1.71,1.95,1.7,3.57,1.78c1.5,0.08,3.18-0.061,4.45,0c2.53,2.14,0.05,5.62-0.33,8.359c-0.24,1.721,0.11,3.131-1,4.12
				C129.81,296.51,130.78,296.35,131.35,296.6z"/>
			<path fill="#FFFFFF" d="M130.68,190.96c0.27,2.16,1.23,4.09-0.56,4.9c-2.44-1.23-5.73-1.62-8.91-2.12
				c2.23-2.73,4.92-5.86,6.68-9.69c0.64-1.39,1.09-2.84,1.56-4.46c0.09,0.061,0.19,0.12,0.34,0.11
				C130.59,182.69,130.23,187.43,130.68,190.96z"/>
			<path fill="#FFFFFF" d="M120.43,316.55c-1.44-4.49,4.84-3.8,4.01-0.45C124.09,317.51,121.42,317.62,120.43,316.55z"/>
			<path fill="#FFFFFF" d="M113.07,310.98c1.2,0.1,2.05,0.55,2.23,1.67c-0.92,0.56-1.46,1.5-2.78,1.67
				C112.09,312.97,112.9,312.08,113.07,310.98z"/>
			<path d="M110.62,235.09c0.2,9.91-0.28,19.93-3.9,26.3c-0.54,0.95-1.27,2.271-2.45,2.341c4.07-8.9,5.31-20.62,5.68-33.211
				C110.75,230.41,110.6,233.74,110.62,235.09z"/>
		</g>
		<g>
		</g>
	</g>
</g>
</svg>
