<?xml version="1.0" encoding="utf-8"?>
<!-- Generator: Adobe Illustrator 15.1.0, SVG Export Plug-In . SVG Version: 6.00 Build 0)  -->
<!DOCTYPE svg PUBLIC "-//W3C//DTD SVG 1.1//EN" "http://www.w3.org/Graphics/SVG/1.1/DTD/svg11.dtd">
<svg version="1.1" id="Lager_1" xmlns="http://www.w3.org/2000/svg" xmlns:xlink="http://www.w3.org/1999/xlink" x="0px" y="0px"
	 width="300px" height="350px" viewBox="0 0 300 350" enable-background="new 0 0 300 350" xml:space="preserve">
<g id="XMLID_1_">
	<g>
		<path d="M275.37,321.85c0.52,2.341,0.13,4.03,0,7.051c-0.51,1.34-2.32,1.58-3.521,2.77c-0.93,0.91-0.939,2.07-2.02,2.771
			c-2.6,1.68-6.94,2.21-10.07,1.51c-3.81,0.91-7.34,2.03-10.819,3.27c-3.591,1.28-7.631,1.91-10.83,3.521
			c-1.841,0.93-2.63,2.359-4.28,3.029c-4.61,1.87-11.32,0.431-16.61,2.261c-1.18,0-2.35,0-3.529,0c-4.21-0.9-7.21-3.57-11.83-4.03
			c-2.141-0.21-4.681,0.59-7.301,0.76c-4.699,0.3-10.51-1.41-11.579-4.529c-2.04-5.94,4.39-14.11,7.05-18.381
			c2.52-4.05,7.59-12.699,8.31-17.88c0.48-3.52-1.13-5.7-0.26-8.56c1.35-4.391,6.02-3.26,10.08-4.78
			c1.689-0.63,2.899-2.189,4.27-2.52c2.431-0.57,5.82,0.359,8.82,0.26c2.96-0.11,7.39-1.12,11.33-2.021
			c3.71-0.84,7.95-1.649,10.82-2.77c1.97-0.771,3.399-2.12,5.29-2.521c3.02-0.64,5.13,0.12,7.05,0.261c4.16,0.3,8.54-0.21,10.319,1
			c3.58,2.449,2.69,9.84,4.28,16.12c0.91,3.6,3.22,6.71,2.771,10.569c-0.181,1.53-1.25,2.55-1.261,3.521
			C271.81,315.63,274.63,318.47,275.37,321.85z M271.85,329.4c5.36-2.811-0.939-14.591-2.77-17.12c-0.7,0.56-2.87,0.7-2.271,1.76
			c0.32,1.19,2.21-0.41,3.021,0.51C270.21,319.98,271.34,324.78,271.85,329.4z M270.09,332.42c1.22-5.26-0.2-11.53-3.02-14.35
			c-1.011,0.92-2.94,0.93-4.03,1.76c2.04,3.439,3.33,10.46,1,14.61C266.27,333.98,268.33,333.35,270.09,332.42z M266.06,312.28
			c2-0.771,4.181-1.36,5.29-3.021c-1.939-8.2-3.67-16.569-5.54-24.67c-1.06-0.3,0.48,1.75-0.76,1.76c-0.91-0.35-0.92-1.59-1.26-2.52
			c0.65-0.5,1.16,0.26,1.51-0.25c-1.41-1.18-3.76-1.44-6.29-1.51c2.681,1.029,2.57,3.43,3.021,6.8
			C263.02,296.22,264.45,305.34,266.06,312.28z M268.83,316.81c-0.08-0.76,0.04-1.72-0.76-1.76c-2.561,0.96-5.061,1.99-8.051,2.521
			c1.25,3.359,1.431,7.8,4.021,9.819c-0.35-3.17-1.57-5.47-2.51-8.06C263.81,318.34,266.27,317.52,268.83,316.81z M263.79,328.65
			c-0.89-0.37-1.51,0.81-1.76,0.25c-0.95-3.83-2.04-7.53-3.521-10.83c-0.109-1.221,2.94-1.301,1.51-2.261
			c-7.97,2.771-17.489,3.99-25.43,6.79c0.93,1.11,2.25-0.199,3.521-0.25c2.43,4.99,2.88,14.221,0,18.881
			c7.729-3.181,15.899-5.921,24.93-7.801C263.47,332.01,263.4,330.1,263.79,328.65z M265.81,315.05c-3.3-8.96-3.77-20.74-5.79-30.97
			c-3.46-1.24-8.72-3.51-12.34-1c2.86,0.67,6.25,0.479,7.811,2.77c2.279,3.36,1.51,10.521,2.26,15.86
			c0.82,5.82,2.56,10.62,4.03,14.35C263.21,315.81,264.26,315.18,265.81,315.05z M259.51,314.8c-2.979-8.51-3.38-19.609-5.54-28.95
			c-9.729-3.67-20.109,2.54-29.7,3.771c1.7,0.149,2.801,0.89,3.521,2.02c0.99,10.75,3.24,20.261,6.04,29.2
			C243.26,319.7,250.6,316.46,259.51,314.8z M237.11,325.37c1.08,0.939,0.84,3.189,1.76,4.28c-0.21-2.391-0.9-4.301-1.51-6.29
			c-3.54,0.83-6.58,2.149-10.07,3.02c1.22,3.15,1.94,6.79,3.77,9.32c0.181-2.47-1.05-5.65-1.76-8.061
			C231.85,326.83,234.56,326.18,237.11,325.37z M228.04,345.01c10.86,1.26,12.5-11.319,8.31-18.63c-1.869,0.73-4.18,1.03-5.79,2.01
			C233.53,333.76,232.17,341.95,228.04,345.01z M233.83,323.61c-3.96-9.141-6.26-20.67-7.55-31.721
			c-3.61-2.59-11.011-3.83-15.36-1.51c2.87,0.66,5.98,1.07,8.82,1.76c4.31,9.271,3.779,23.38,8.55,32.73
			C230.42,324.73,231.82,323.86,233.83,323.61z M230.81,337.71c-2.369-2.92-3.64-6.93-4.779-11.08c0.01-1.17,1.76-1.5,0.5-2.52
			c-1.721-0.32-5.61,0.239-7.3-0.5c-6.82-2.98-5.721-15.91-9.311-22.15c-0.32-0.02-0.35-0.33-0.76-0.25
			c0.57,14.05,1.55,28.13,5.54,39.521c-2.9,3.13-7.88,0.439-9.82-1.761c-1.57,0.23-3.689,0.83-5.28,0.25
			c-0.08-0.51-0.689-0.489-0.76-1.01c0.3-5.74,1.25-12.17,0.76-17.87c-2.72,5.771-1.729,12.84-4.029,19.38
			c2.29,2.96,5.739,2.33,10.319,3.78c2.351,0.74,5.091,1.94,7.301,2.27C221.47,347,230.17,344.48,230.81,337.71z M200.6,296.42
			c19.4-5.51,8,30.7,25.431,25.68c-3.721-8.449-3.82-20.52-7.3-29.199c-6.641-1.771-13.5-0.61-18.631,2.01
			c-0.39,1.399-0.909,3.79,0,5.04C201.45,299.04,199.54,297.04,200.6,296.42z M205.13,337.96c2.93,0.51,4.69,4.45,8.061,2.771
			c-0.5-4.091-2.521-7.271-3.021-11.33c-0.979-7.931-2.66-18.011-2.77-27.19c-0.011-0.15-0.04-0.3-0.25-0.25
			c-1.98,2.58-2.221,5.92-3.53,9.57c-0.65,1.819-1.97,3.39-2.26,5.029c-1.21,6.721,0.87,13.881-0.761,21.15
			C202.24,338.76,203.57,337.69,205.13,337.96z M208.16,298.94c-5.75-4.841-7.49,3.869-9.32,8.31c-1.42,3.44-2.79,6.9-4.28,9.82
			c-4.279,8.399-10.56,14.02-10.319,22.649c1.359,1.71,4.1,2.63,6.29,2.771c-0.24-0.92-1.311-2.8-1.511-4.03
			c0.57-1.36,1.061-2.8,1.261-4.53c2.84-4.8,5.67-9.85,8.31-15.609C201.47,312.04,203.67,302.97,208.16,298.94z M194.06,339.97
			c0.051-4.81,2.91-8.149,2.011-13.09c-1.99,4.22-4.92,7.51-5.54,13.09C191.9,340.34,193.18,340.2,194.06,339.97z M191.54,341.74
			c1.229,0.7,4.21,2.05,5.79,0.75C195.95,341.93,193.3,340.26,191.54,341.74z"/>
		<path fill="#FFFFFF" d="M269.08,312.28c1.83,2.529,8.13,14.31,2.77,17.12c-0.51-4.62-1.64-9.42-2.02-14.851
			c-0.811-0.92-2.7,0.681-3.021-0.51C266.21,312.98,268.38,312.84,269.08,312.28z"/>
		<path fill="#FFFFFF" d="M267.07,318.07c2.819,2.819,4.239,9.09,3.02,14.35c-1.76,0.93-3.82,1.561-6.05,2.021
			c2.33-4.15,1.04-11.171-1-14.61C264.13,319,266.06,318.99,267.07,318.07z"/>
		<path fill="#FFFFFF" d="M271.35,309.26c-1.109,1.66-3.29,2.25-5.29,3.021c-1.609-6.94-3.04-16.061-4.029-23.41
			c-0.45-3.37-0.34-5.771-3.021-6.8c2.53,0.069,4.88,0.33,6.29,1.51c-0.35,0.51-0.859-0.25-1.51,0.25c0.34,0.93,0.35,2.17,1.26,2.52
			c1.24-0.01-0.3-2.06,0.76-1.76C267.68,292.69,269.41,301.06,271.35,309.26z M263.29,286.85c0.46-0.64,0.24-2.279-0.76-2.26
			C262.03,285.27,262.25,286.92,263.29,286.85z"/>
		<path fill="#FFFFFF" d="M268.07,315.05c0.8,0.04,0.68,1,0.76,1.76c-2.561,0.71-5.021,1.53-7.3,2.521
			c0.939,2.59,2.16,4.89,2.51,8.06c-2.59-2.02-2.771-6.46-4.021-9.819C263.01,317.04,265.51,316.01,268.07,315.05z"/>
		<path fill="#FFFFFF" d="M262.03,328.9c0.25,0.56,0.87-0.62,1.76-0.25c-0.39,1.449-0.32,3.359-0.75,4.779
			c-9.03,1.88-17.2,4.62-24.93,7.801c2.88-4.66,2.43-13.891,0-18.881c-1.271,0.051-2.591,1.36-3.521,0.25
			c7.94-2.8,17.46-4.02,25.43-6.79c1.431,0.96-1.619,1.04-1.51,2.261C259.99,321.37,261.08,325.07,262.03,328.9z M247.68,336.7
			c0.07-0.66-0.09-1.08-0.75-1c-0.14,0.37-0.38,0.63-0.51,1C246.84,336.7,247.26,336.7,247.68,336.7z M243.9,338.21
			c0.989-0.12,1.56-1.66,1.01-2.51c-0.25,0-0.5,0-0.75,0C244.02,336.46,243.22,337.4,243.9,338.21z M241.13,339.47
			c0.39-0.62,0.99-1.02,1.01-2.01c-0.479-0.11-0.63-0.54-1.26-0.51C240.73,337.63,239.65,339.4,241.13,339.47z"/>
		<path d="M262.53,284.59c1-0.02,1.22,1.62,0.76,2.26C262.25,286.92,262.03,285.27,262.53,284.59z"/>
		<path fill="#FFFFFF" d="M260.02,284.08c2.021,10.229,2.49,22.01,5.79,30.97c-1.55,0.13-2.6,0.76-4.029,1.01
			c-1.471-3.729-3.21-8.529-4.03-14.35c-0.75-5.34,0.02-12.5-2.26-15.86c-1.561-2.29-4.95-2.1-7.811-2.77
			C251.3,280.57,256.56,282.84,260.02,284.08z M259.26,286.85c0.53-0.77,0.351-2.58-1.01-2.26
			C258.21,285.72,258.13,286.89,259.26,286.85z M257.25,285.85c-0.48,0.051-0.56-0.29-1.01-0.25
			C256.17,286.33,257.22,286.56,257.25,285.85z"/>
		<path d="M258.25,284.59c1.36-0.32,1.54,1.49,1.01,2.26C258.13,286.89,258.21,285.72,258.25,284.59z"/>
		<path d="M258.25,313.54c-0.29-0.04-0.44,0.06-0.5,0.25c-0.73-0.44-0.96-1.39-1.01-2.51C257.87,311.41,258.14,312.4,258.25,313.54z
			"/>
		<path d="M256.24,285.6c0.45-0.04,0.529,0.301,1.01,0.25C257.22,286.56,256.17,286.33,256.24,285.6z"/>
		<path fill="#FFFFFF" d="M253.97,285.85c2.16,9.341,2.561,20.44,5.54,28.95c-8.91,1.66-16.25,4.9-25.68,6.04
			c-2.8-8.939-5.05-18.45-6.04-29.2c-0.72-1.13-1.82-1.87-3.521-2.02C233.86,288.39,244.24,282.18,253.97,285.85z M257.75,313.79
			c0.06-0.19,0.21-0.29,0.5-0.25c-0.11-1.14-0.38-2.13-1.51-2.26C256.79,312.4,257.02,313.35,257.75,313.79z M255.49,314.04
			c0.13-0.89-0.221-1.29-0.76-1.51c-0.511,0.489-0.591,1.02-0.25,1.77C254.95,314.35,255.03,314.01,255.49,314.04z M252.72,289.37
			c0.95-0.42,0.36-2.15,0.25-3.021C250.64,285.29,251.75,288.79,252.72,289.37z M251.21,314.8c0.65,0.07,1.08-0.09,1-0.76
			C251.58,314,251.42,314.43,251.21,314.8z M251.71,291.89c0.38-0.449,0.14-1.819-0.76-1.76
			C250.41,290.75,250.77,291.99,251.71,291.89z M250.45,288.87c0.08-0.92-0.04-1.64-0.25-2.271c-0.34,0-0.67,0-1.01,0
			C248.54,287.57,249.18,289.02,250.45,288.87z M247.43,290.38c-0.239,0.92,1.24,1,1.261,0.25c-0.36-0.06-0.431-0.41-0.761-0.5
			C247.88,290.32,247.72,290.42,247.43,290.38z M247.18,289.12c0.561-0.74,0.24-2.3-1.01-2.01
			C245.61,287.85,245.92,289.4,247.18,289.12z M241.89,288.87c0.521,0.14,0.811,0.72,1.261,0.25
			C243.15,288.25,242.14,288.3,241.89,288.87z M233.08,291.64c0.3-1.08-1.24-1.76-1.51-0.76
			C231.96,291.25,232.07,291.9,233.08,291.64z M230.31,292.64c0.091-1.26-0.829-1.52-1.76-1.76
			C228.16,291.58,229,292.84,230.31,292.64z"/>
		<path d="M254.73,312.53c0.539,0.22,0.89,0.62,0.76,1.51c-0.46-0.03-0.54,0.31-1.01,0.26
			C254.14,313.55,254.22,313.02,254.73,312.53z"/>
		<path d="M252.97,286.35c0.11,0.87,0.7,2.601-0.25,3.021C251.75,288.79,250.64,285.29,252.97,286.35z"/>
		<path d="M252.21,314.04c0.08,0.67-0.35,0.83-1,0.76C251.42,314.43,251.58,314,252.21,314.04z"/>
		<path d="M250.95,290.13c0.899-0.06,1.14,1.311,0.76,1.76C250.77,291.99,250.41,290.75,250.95,290.13z"/>
		<path d="M250.2,286.6c0.21,0.631,0.33,1.351,0.25,2.271c-1.271,0.149-1.91-1.3-1.26-2.271C249.53,286.6,249.86,286.6,250.2,286.6z
			"/>
		<path d="M248.69,290.63c-0.021,0.75-1.5,0.67-1.261-0.25c0.29,0.04,0.45-0.06,0.5-0.25C248.26,290.22,248.33,290.57,248.69,290.63
			z"/>
		<path d="M246.93,335.7c0.66-0.08,0.82,0.34,0.75,1c-0.42,0-0.84,0-1.26,0C246.55,336.33,246.79,336.07,246.93,335.7z"/>
		<path d="M246.17,287.11c1.25-0.29,1.57,1.27,1.01,2.01C245.92,289.4,245.61,287.85,246.17,287.11z"/>
		<path d="M244.91,335.7c0.55,0.85-0.021,2.39-1.01,2.51c-0.681-0.81,0.119-1.75,0.26-2.51C244.41,335.7,244.66,335.7,244.91,335.7z
			"/>
		<path d="M243.15,289.12c-0.45,0.47-0.74-0.11-1.261-0.25C242.14,288.3,243.15,288.25,243.15,289.12z"/>
		<path d="M242.14,337.46c-0.02,0.99-0.62,1.39-1.01,2.01c-1.479-0.069-0.399-1.84-0.25-2.52
			C241.51,336.92,241.66,337.35,242.14,337.46z"/>
		<path fill="#FFFFFF" d="M238.87,329.65c-0.92-1.091-0.68-3.341-1.76-4.28c-2.551,0.81-5.261,1.46-7.811,2.27
			c0.71,2.41,1.94,5.591,1.76,8.061c-1.829-2.53-2.55-6.17-3.77-9.32c3.49-0.87,6.53-2.189,10.07-3.02
			C237.97,325.35,238.66,327.26,238.87,329.65z"/>
		<path fill="#FFFFFF" d="M236.35,326.38c4.19,7.311,2.551,19.89-8.31,18.63c4.13-3.06,5.49-11.25,2.52-16.62
			C232.17,327.41,234.48,327.11,236.35,326.38z"/>
		<path d="M231.57,290.88c0.27-1,1.81-0.32,1.51,0.76C232.07,291.9,231.96,291.25,231.57,290.88z"/>
		<path d="M228.55,290.88c0.931,0.24,1.851,0.5,1.76,1.76C229,292.84,228.16,291.58,228.55,290.88z"/>
		<path fill="#FFFFFF" d="M226.28,291.89c1.29,11.051,3.59,22.58,7.55,31.721c-2.01,0.25-3.41,1.12-5.54,1.26
			c-4.771-9.351-4.24-23.46-8.55-32.73c-2.84-0.689-5.95-1.1-8.82-1.76C215.27,288.06,222.67,289.3,226.28,291.89z M223.51,295.16
			c0.15-0.98-0.22-1.46-0.5-2.01c-0.42,0-0.84,0-1.26,0C221.78,294.31,222.75,295.54,223.51,295.16z"/>
		<path fill="#FFFFFF" d="M226.03,326.63c1.14,4.15,2.41,8.16,4.779,11.08c-0.64,6.771-9.34,9.29-17.619,8.06
			c-2.21-0.329-4.95-1.529-7.301-2.27c-4.58-1.45-8.029-0.82-10.319-3.78c2.3-6.54,1.31-13.609,4.029-19.38
			c0.49,5.7-0.46,12.13-0.76,17.87c0.07,0.521,0.68,0.5,0.76,1.01c1.591,0.58,3.71-0.02,5.28-0.25c1.94,2.2,6.92,4.891,9.82,1.761
			c-3.99-11.391-4.97-25.471-5.54-39.521c0.41-0.08,0.439,0.23,0.76,0.25c3.59,6.24,2.49,19.17,9.311,22.15
			c1.689,0.739,5.579,0.18,7.3,0.5C227.79,325.13,226.04,325.46,226.03,326.63z M227.29,341.49c-1.07-0.23-1.271,0.41-1.51,1
			C226.77,342.73,227.28,342.73,227.29,341.49z M223.76,343.5c0.01-1,1.141-0.88,1.01-2.01c-1.189-0.5-2.25,0.58-2.27,2.01
			C222.92,343.5,223.34,343.5,223.76,343.5z M222.5,340.48c0.9,0.119,1.44-1.561,0.51-1.761c-0.39,0.36-0.88,0.63-1.01,1.25
			C222.28,340.03,222.39,340.25,222.5,340.48z M221.5,341.49c-0.34-0.08-0.48-0.36-1.01-0.26c-0.34,1.09-1.2,1.659-1.51,2.77
			C220.46,344.6,221.21,342.85,221.5,341.49z M213.44,344.76c9.279,1.03,3.13-9.97,1.51-16.109c-1.46-5.57-1.23-10.771-3.271-14.351
			c0.65,3.9,0.46,7.9,1.261,12.33C214.3,334.16,220.82,341.49,213.44,344.76z"/>
		<path d="M225.78,342.49c0.239-0.59,0.439-1.23,1.51-1C227.28,342.73,226.77,342.73,225.78,342.49z"/>
		<path d="M224.77,341.49c0.131,1.13-1,1.01-1.01,2.01c-0.42,0-0.84,0-1.26,0C222.52,342.07,223.58,340.99,224.77,341.49z"/>
		<path fill="#FFFFFF" d="M226.03,322.1C208.6,327.12,220,290.91,200.6,296.42c-1.06,0.62,0.851,2.62-0.5,3.53
			c-0.909-1.25-0.39-3.641,0-5.04c5.131-2.62,11.99-3.78,18.631-2.01C222.21,301.58,222.31,313.65,226.03,322.1z M217.22,294.66
			c-0.1,0.78,1.21,1.02,1.261,0.25C217.95,294.77,217.66,294.19,217.22,294.66z M216.97,300.2c0.21-1.141-0.279-1.57-1.01-1.76
			C215.45,299.07,215.67,300.59,216.97,300.2z M214.7,295.16c0.2,1.14,0.819,1.87,2.27,1.76
			C216.96,295.54,215.88,294.61,214.7,295.16z M214.2,301.96c1.17,0,1.17-1.25,0-1.26C213.72,301.18,214.35,301.16,214.2,301.96z
			 M211.68,295.67c0.59,1.34,1.32,2.54,3.021,2.771C214.27,296.94,213.64,295.63,211.68,295.67z"/>
		<path d="M223.01,293.15c0.28,0.55,0.65,1.029,0.5,2.01c-0.76,0.38-1.729-0.851-1.76-2.01
			C222.17,293.15,222.59,293.15,223.01,293.15z"/>
		<path d="M223.01,338.72c0.931,0.2,0.391,1.88-0.51,1.761c-0.11-0.23-0.22-0.45-0.5-0.511
			C222.13,339.35,222.62,339.08,223.01,338.72z"/>
		<path d="M220.49,341.23c0.529-0.101,0.67,0.18,1.01,0.26c-0.29,1.359-1.04,3.109-2.52,2.51
			C219.29,342.89,220.15,342.32,220.49,341.23z"/>
		<path d="M218.48,294.91c-0.051,0.77-1.36,0.53-1.261-0.25C217.66,294.19,217.95,294.77,218.48,294.91z"/>
		<path d="M215.96,298.44c0.73,0.189,1.22,0.619,1.01,1.76C215.67,300.59,215.45,299.07,215.96,298.44z"/>
		<path d="M216.97,296.92c-1.45,0.11-2.069-0.62-2.27-1.76C215.88,294.61,216.96,295.54,216.97,296.92z"/>
		<path d="M214.95,328.65c1.62,6.14,7.77,17.14-1.51,16.109c7.38-3.27,0.859-10.6-0.5-18.13c-0.801-4.43-0.61-8.43-1.261-12.33
			C213.72,317.88,213.49,323.08,214.95,328.65z"/>
		<path d="M214.2,300.7c1.17,0.01,1.17,1.26,0,1.26C214.35,301.16,213.72,301.18,214.2,300.7z"/>
		<path d="M214.7,298.44c-1.7-0.23-2.431-1.431-3.021-2.771C213.64,295.63,214.27,296.94,214.7,298.44z"/>
		<path fill="#FFFFFF" d="M213.19,340.73c-3.37,1.68-5.131-2.261-8.061-2.771c-1.56-0.27-2.89,0.8-4.53-0.25
			c1.631-7.27-0.449-14.43,0.761-21.15c0.29-1.64,1.609-3.21,2.26-5.029c1.31-3.65,1.55-6.99,3.53-9.57
			c0.21-0.05,0.239,0.1,0.25,0.25c0.109,9.18,1.79,19.26,2.77,27.19C210.67,333.46,212.69,336.64,213.19,340.73z M202.36,330.66
			c0.489,0.35,1.63,0.82,2.27,0.25C204.47,329.91,202.6,329.5,202.36,330.66z M201.86,334.94c-0.17,0.909,2.13,0.64,2.02,0
			C203.51,334.57,202.23,334.57,201.86,334.94z M202.11,333.43c1.18,0.13,2.39,0.431,2.77-0.76c-0.51-0.39-2.25-0.39-2.77,0
			C202.11,332.93,202.11,333.18,202.11,333.43z"/>
		<path fill="#FFFFFF" d="M198.84,307.25c1.83-4.44,3.57-13.15,9.32-8.31c-4.49,4.029-6.69,13.1-9.57,19.38
			c-2.64,5.76-5.47,10.81-8.31,15.609c-0.2,1.73-0.69,3.17-1.261,4.53c0.2,1.23,1.271,3.11,1.511,4.03
			c-2.19-0.141-4.931-1.061-6.29-2.771c-0.24-8.63,6.04-14.25,10.319-22.649C196.05,314.15,197.42,310.69,198.84,307.25z
			 M187.76,340.98c0.99-0.891,0.32-3.83-0.75-4.28C186.92,338.02,186.09,340.77,187.76,340.98z M187.26,335.7
			c1.19,0.42,1.391-1.45,0.25-1.26C187.3,334.73,187.18,335.11,187.26,335.7z M186,339.72c0.6-0.779-0.4-1.649-1.01-2.01
			C184.76,338.69,184.61,339.78,186,339.72z"/>
		<path d="M204.63,330.91c-0.64,0.57-1.78,0.1-2.27-0.25C202.6,329.5,204.47,329.91,204.63,330.91z"/>
		<path d="M203.88,334.94c0.11,0.64-2.189,0.909-2.02,0C202.23,334.57,203.51,334.57,203.88,334.94z"/>
		<path d="M204.88,332.67c-0.38,1.19-1.59,0.89-2.77,0.76c0-0.25,0-0.5,0-0.76C202.63,332.28,204.37,332.28,204.88,332.67z"/>
		<path d="M195.82,175.08c5.71,3.17,7.14,14.58,5.029,22.4c-1.75,0.729-3.29-0.23-5.529,0.51c-1.87,0.609-3.79,3.37-6.051,4.529
			c-6.439,3.301-14.8,2.021-22.149,2.011c-0.34,5.91,1.899,10.7,1.26,17.37c-0.24,2.479-1,5.09-1.76,7.3
			c-0.67,1.939-2.68,4.41-2.771,6.3c-0.08,1.45,1.16,3.3,1.511,4.78c4.38,18.66,1.319,42.87-1.261,61.93
			c3.021,1.01,7.4,2.64,10.07,4.79c1.1,0.88,2.63,3.17,3.771,4.28c3.67,3.54,9.29,6.68,8.31,12.58c-0.61,3.699-4.91,5.909-9.31,5.54
			c-1.641,4.939-10.33,7.06-14.61,3.02c-3.771,6.89-16.57,3.05-16.61-4.78c-6-1.38-9.48-9.34-7.05-15.609
			c1.53-3.96,5.85-5.87,7.05-9.57c1.12-3.46,0.72-8.67,0.75-13.09c0.09-12.62,0.38-27.95-3.02-39.021
			c-8.95,2.341-18.99-0.479-26.18-3.52c-4.85,15.79-8.97,38.97-3.02,57.14c4.9,2.95,10.72,6.69,9.82,13.351
			c-0.79,5.83-5.83,8.16-9.57,11.58c-0.87,9.17-13.92,13.619-19.38,5.79c-3.56,5.38-13.93,4.63-16.37-1.261
			c-6.03,0.021-8.52-6.62-6.29-11.58c3.78-8.43,20.4-10.739,22.91-18.63c-9.24-20.72-1.05-49.38,4.03-69.229
			c-16.08-24.32-0.93-57.41,6.04-80.06c-8.68,3.69-16.85,9.62-25.68,13.34c-5.09,2.15-11.16,1.12-16.36-0.75
			c-7.92-2.86-13.64-6.49-18.38-11.84c-5.78-1.32-9.71-3.35-13.35-6.79c-1.98-1.89-4.39-4.23-5.28-6.3
			c-6.57-15.18,4.2-32.16,21.65-31.72c3.76-4.16,14.57-5.72,19.13-2.01c3.71-0.66,6.78-1.96,10.58-2.52
			c-0.66-5.03,2.7-7.35,4.02-9.57c-2.02-2.4-3.65-5.29-4.28-8.56c-3.49-18.3,9.96-31.09,27.19-30.96
			c0.91-12.19,5.79-20.4,15.11-24.17c-4.41-8.75,6-13.78,13.85-12.59c3.38-3.66,7.61-6.48,13.59-7.55c0.92,0,1.85,0,2.77,0
			c11.12,5.24,24.04,8.69,25.93,23.16c6.011,0.72,7.551,9.08,2.011,11.58c8.1,10.74,9.77,49.75-6.29,53.37
			c-8.71,1.97-13.96-2.98-12.08-12.33c-3.03,4.38,1.949,13.23-2.021,18.37c-2.51,2.61-5.3,4.94-9.06,6.3
			c-0.23,1.87-1.89,3.64-1.51,5.28c2.67,0.46,6.72,0.5,7.8,3.28c1.27,3.22-0.58,6.81-1.761,9.56c4.82,1.73,7.721,4.93,13.851,4.79
			c-1.62,4.1,2.649,5.18,4.78,7.05c1.909-0.44,3.229-1.47,5.29-1.77c1.02,1.26-0.761,3.84,0.25,4.28c1.93-0.34,3.729-0.61,5.54-0.25
			c-0.461,2.48-0.87,5.01-1.771,7.05C186.17,159.22,192.32,165.82,195.82,175.08z M199.6,195.97c1.811-6.81,0.2-16.17-4.029-19.38
			C193.87,183.32,195.55,192.53,199.6,195.97z M193.8,196.98c1.55,0.119,2.61-0.25,3.78-0.511c-3.28-4.56-4.49-13.64-3.78-19.88
			c-0.68,0.49-2.1,0.24-2.76,0.75C189.38,184.54,191.72,191.86,193.8,196.98z M189.02,176.59c1.2-0.99,3.931-0.439,5.04-1.51
			c-3.92-7.58-8.29-14.72-13.85-20.65c-1.06,3.55-1.9,7.33-3.02,10.83C182.94,167.22,185.89,172,189.02,176.59z M185.75,201.76
			c7.8-4.08,3.01-13.359,3.52-21.899c-3.51-5.62-11.06-16.8-20.89-14.101c-3.22,0.88-5.36,3.96-5.54,8.06
			c4.8-0.42,10.12,1.83,14.101,2.26c-3.761,2.189-8.511-1.12-12.591-1c-6.109,0.17-11.72,7.4-6.04,12.58
			c3.051,2.79,9.69,1.47,13.341,2.77c-3.761,2-10.28,1.4-13.341-0.75C154.56,202.32,177.84,205.9,185.75,201.76z M177.19,328.14
			c7.529-0.399,7.359-7.37,4.029-12.08c-1.069-1.51-2.729-1.79-4.279-3.02c-1.23-0.98-1.95-2.69-3.28-3.78
			c-3.641-2.979-8.22-4.31-11.07-6.29c0.69-9.689,2.771-21.069,2.771-32.229c0-11.99-0.48-26.91-3.53-35.49
			c3.77-5.26,4.86-16.49,3.53-24.43c-0.94,2.68-1.551,5.67-2.771,8.06c-12.41,3.37-25.08,7.21-37.26,10.57
			c-4.1,1.13-8.29,3.09-12.59,2.52c1.25-1.35,1.28-3.92,1.76-6.04c-1.46,0.311-3.48,1.38-4.53,1.261c-0.39-1.62,0.67-3.83,0.76-5.79
			c-2.37-0.181-5.56,0.13-6.3-2.271c0.95,0.13,1.18,0.36,1.76-0.25c11.2-14.96,9.75-42.6,14.86-64.2c2.19,0.27,5.24-0.34,7.55-0.75
			c0.79-0.33-0.55-1.2,0.5-1.26c4.57-1.52,8.82-1.99,13.85-2.77c1.23-2.88,4.93-3.29,8.31-4.03c2.05-3.82,4.7-7.04,6.54-11.08
			c-4.5-4.11-10.08-2.03-16.36-1.76c-5.88,0.26-12.33,0.16-17.88-1.01c-1.4-0.29-2.44-1.01-3.77-1c-3.29,0.02-7.59,1.71-11.33,2.77
			c-7.59,2.15-13.62,5.81-20.39,8.81c-3.71,1.64-7.49,3.65-10.83,4.03c-6.25,0.7-8.62-2.18-13.34-4.03
			c-0.93,0.92-2.11,1.58-2.77,2.77c0.44,7.76-5.35,10.57-12.59,9.82c6.09,5.41,17.84,14.47,29.46,10.82
			c10.53-3.31,19.7-12.53,30.46-14.85c-7.31,23.19-22.62,58.87-7.3,83.58c-4.75,20.51-12.07,47.279-3.78,68.979
			c-2.94,3.11-5.46,6.7-9.56,9.82c-2.87,2.18-6.49,2.74-9.32,4.53c-3.71,2.35-7.77,12.22,0.25,13.6c0.54-4.18,2.08-10.38,6.3-10.83
			c-1.33,2.73-6.02,7.76-4.28,12.09c1.97,4.91,10.98,4.23,13.84,0c-1.05-3.81-0.75-10.17,2.77-11.59
			c-1.42,4.46-3.32,10.311,0,13.851c4.98,5.29,16.05,0,14.86-7.801c3.73-2.279,9.46-4.63,9.81-10.069
			c0.25-3.811-2.56-8.28-5.28-10.07c-1.29-0.85-2.57-0.75-3.53-2.27c-1.92-3.051-2.71-8.811-3.27-13.591
			c-2.03-17.31,0.28-33.899,6.04-45.319c-0.96-0.971-3.41-1.78-3.52-2.771c8.08,2.73,19.63,7.101,30.96,5.29
			c1.64-0.26,3.9-1.78,5.54-0.76c-0.71,1.38-3.31,0.89-4.03,2.27c4.8,14.721,5.62,37.91,2.27,53.87
			c-6.62,3.54-11.08,16.181-2.77,20.65c0.91,0.78,1.3-0.73,2.27,0c0.41,3.46,1.68,7.27,4.53,8.81c3.13,1.69,8.34,0.561,9.57-2.27
			c2-4.62-1.76-9.34-2.521-13.09c3.36,2.38,5.04,7.67,4.78,12.84c3.561,1.76,8.601,2.33,11.08-0.5c3.45-3.95,0.42-10.29-1.26-13.34
			C175.95,319.01,177.97,323.19,177.19,328.14z M179.2,43.66c0.27-0.65,0.609-1.24,0.51-2.27c-0.63-0.38-1.66-0.36-1.77-1.26
			c0.05-0.71,1.199-0.31,1.01-1.25c-0.66-0.52-1.851-0.5-2.521-1.01c-14.3,1.36-23.569-6.62-32.22-12.59
			c-5.95-4.53-18.32-6.05-23.16,0.5c-0.36,0.91-0.06,2.47-0.51,3.28c0.65,0.77,1,1.85,2.77,1.51c0.07-0.82-0.97-0.54-1-1.26
			c0.51-0.08,0.49-0.68,1-0.76c0.98,0.54,2.28,1.51,3.78,0.76c0.1-1.11-1.36-0.66-1.51-1.51c0.44-0.23,0.42-0.93,1.01-1.01
			c1.4,0.82,1.86,2,4.02,1.51c0.13-0.52-1.45-1.49,0.26-2.01c1.16,0.68,1.53,2.15,3.27,2.26c0.06-0.98-0.9-2.44,0.75-2.26
			c0.57,0.61,0.91,1.44,1.01,2.52c2.37,0.56,4.27,1.6,6.04,2.76c0.92,0,0.54-1.31,1.77-1c0.32,1.6,0.58,3.27,2.01,3.77
			c0.27-0.77-0.2-1.74,1.26-1.76c0.48,1.95,0.81,4.06,2.77,4.53c-0.07-0.86-0.64-1.21-0.51-2.26c0.38-0.13,0.64-0.38,1.01-0.51
			c0.06,0.2,0.21,0.3,0.5,0.26c0.48,2.7-0.3,3.76,2.02,4.78c-0.189-0.94-0.399-1.88,0.75-2.02c0.881,0.64,0.86,2.17,1.011,3.53
			c1.029-0.1,1.62,1.55,2.52,0.75c-1.319-3.06,2.38-1.43,1.76,1.52c0.83,0.34,1.69,0.66,2.521,1c0.27-0.94-0.63-0.72-0.5-1.51
			c0.5,0,0.31-0.69,1-0.5c1.11,0.55,2.28,1.77,1.26,3.02c1.101,0.16,2.101,0.42,3.021,0.75c-0.17-0.91-1.021-1.16-1.011-2.26
			c0.381-0.13,0.641-0.37,1.011-0.5c0.93,0.63,2.25,1.93,1.26,3.02c1.33-0.4,2.84,0.81,3.27-0.26c-0.739-0.18-1.06-0.78-1-1.76
			c0.37-0.13,0.63-0.37,1-0.5c0.88,0.85,1.74,1.88,1.261,2.77c0.27-0.57,1.58-0.1,2.27-0.25c-0.229-1.03-1.189-1.33-1.26-2.52
			c0.609,0.1,0.55-0.46,1.26-0.25c0.84,0.5,1.21,1.47,1.76,2.26c0.42-0.5,1.45-0.4,1.761-1c-0.65-0.44-1.271-0.91-1.261-2.02
			C177.43,42.23,178.43,43.11,179.2,43.66z M175.93,164.25c1.261-6.05,4.19-13.09,4.53-18.38c-4.11,0.59-7.86,1.54-12.33,1.76
			c2.18,4.66-2.689,6.75-2.77,10.58c-6.46,0.67-13.03,2.58-18.89,3.02c-0.65-4.19,3.89-4.17,4.79-6.55
			c0.431-1.14,0.29-2.94-0.76-4.28c-6.9,0.91-13.69,1.92-20.14,3.28c-4.42,25.86-9.72,51.04-14.6,77.03
			c15.21-4.43,30.55-8.72,45.82-13.09c1.45-4.51,2.75-9.17,3.78-14.101c-5.16-1.89-11.37-6.189-8.561-13.59
			c-4.92-4.67-1.97-15,4.28-15.86C160.79,165.8,168.23,162.13,175.93,164.25z M174.42,96.53c9.39-6.78,9.16-34.02,3.78-45.32
			c-0.48-0.99-2.12-3.46-3.03-3.77c-0.99-0.35-2.59,0.46-3.77,0.5c-2.891,0.1-4.54-0.32-7.811-0.76
			c-1.59,6.44,2.07,11.36,3.53,16.62c3.1,11.17,0.14,21.24-1.26,31.97c-1.9-5.49,0.5-9.93,1.26-16.11
			c0.67-5.45,0.05-10.83-1.26-15.36c-1.87-6.44-5.891-12.18-3.021-17.62c-0.77-0.33-1.71-0.47-2.52-0.76
			c-2.32,1.92-3.301,5.27-2.521,9.07c1.05,5.05,3.79,10.36,4.53,16.87c0.75,6.5-1.19,16.63-0.75,22.15
			C162.02,99.64,170.52,99.34,174.42,96.53z M175.17,145.12c0.28-0.74,0.57-1.45,0.51-2.52c-3.489,1.33-6.5,1.57-9.569,3.27
			C169.87,146.02,172.05,145.03,175.17,145.12z M173.92,36.86c1-7.34-3.65-12.01-8.82-15.61c-3.689-2.57-11.88-7.24-15.6-7.55
			c-6.83-0.57-9.59,3.74-13.6,6.29c1-0.16,1.01,0.67,2.02,0.51c0.65-0.44,0.46-1.72,1.76-1.51c0.66,0.78-0.27,1.59,0,2.77
			c5.42,2.05,9.38,5.55,14.1,8.3c0.2-0.55,0.5-1,1.25-1c0.12,1.72,1.069,2.63,2.52,3.02c-0.109-1.12,0.141-1.88,1.26-1.76
			c0.45,0.47,0.181,1.66,0.25,2.51c0.78,0.48,1.631,0.89,2.521,1.26c-0.04-0.8-0.57-1.11-0.5-2.01c0.729-0.33,1.439-0.21,1.76,0.5
			c-0.35,0.76,0.12,0.9,0,2.02c0.95,0.39,1.88,0.8,3.021,1c0.04-0.77-0.891-1.13-0.25-1.76c1.569-0.19,2.29,1.11,1.76,2.27
			c1.67,0,2.81,0.55,4.53,0.5c-0.261-1.02-0.33-1.81,1.01-1.76C173.74,35.02,173,36.77,173.92,36.86z M167.12,150.91
			c0.25-2.05-0.86-4.13-2.771-4.79c-0.25,0.84,0.061,2.24-1.26,2.02c-0.72-3.19,1.22-7.99,1.76-11.58c-2.01,0-4.02,0-6.04,0
			c-2.439,3.26-4.22,7.19-6.54,10.57c-0.76,0.33-0.88,0.07-2.02,0.25c1.46,1.85,3.48,5.6,1.51,8.56
			C156.93,154.88,166.49,155.96,167.12,150.91z M169.13,143.35c-0.81-1.36-2.24-2.12-3.52-3.02c-0.17,1.43-0.46,2.73-0.761,4.03
			C166.3,144.05,167.54,143.52,169.13,143.35z M164.6,155.94c-2.72-0.19-6.39,0.73-9.819,1.26c-2.521,0.39-6.35-0.03-6.79,2.77
			c3.64-0.57,7.29-1.52,11.069-2.01C160.93,157.71,163.92,157.97,164.6,155.94z M160.57,81.67c3.39-13.7-9.65-26.56-2.261-37
			c-10.53-3.92-18.729-19.31-33.229-13.35c-3.95,7.35-0.25,22.5-5.54,28.95c11.4,5.17,15.16,26.1,7.05,37.01
			c-8.52,11.46-33.23,8.45-43.31,0.51c-1.75,1.51-3.68,2.86-3.27,6.54c6.84-2.81,15.82-0.5,15.36,6.8
			c-0.4,6.25-6.63,5.49-10.32,8.56c6.97,4.11,16.56-0.14,17.87-7.05c0.95,0.4,1.08,1.61,1.26,2.77c5.09-1.93,11.6-4.77,19.38-5.29
			c11.57-0.77,22.46,2.5,29.209-3.27c6.79-5.8,3.221-17.53-0.76-23.92c2.5,1.11,3.601,3.62,5.04,5.79
			C157.8,85.71,159.92,84.3,160.57,81.67z M147.73,121.7c-4.78,0.24,5.94,0.66,4.79-1c-0.609-0.58-2.18-1.51-3.02-1.01
			c0.84,0.24,1.82,0.36,2.01,1.26C150.41,121.36,148.94,121.39,147.73,121.7z M148.74,148.89c-0.96-0.86-3.29-0.56-3.78,0.51
			C146.42,149.43,147.77,149.35,148.74,148.89z M144.71,119.94c0.31-2.71,1.03-5.02,1.76-7.3c-6.61,1.07-13.59-0.49-20.64-0.5
			c-0.79,1.89-0.43,4.93-1.01,7.05C131.15,119.59,138.05,120.71,144.71,119.94z M140.94,121.7c-0.84,0-1.68,0-2.52,0
			c-6.91-0.81-15.12-0.32-20.65-2.51c0.4-0.37,1.18-0.34,1.52-0.76c-1.34-0.08-2.38,0.14-2.52,1.26c5.93,2.21,14.26,2.01,22.15,2.26
			c0.34,0,0.67,0,1.01,0C140.31,121.91,140.86,122.04,140.94,121.7z M128.85,155.19c-1.78-0.24-4.67,0.5-6.8,0.75
			c-1.89,8.96-2.93,18.77-4.53,28.45c-2.19,13.25-3.64,27.65-10.32,35.5c1.12,0.301,2.58,0.271,4.03,0.25
			c3.92-21.51,9.55-42.64,13.09-63.689C125.9,156.09,128.05,156.32,128.85,155.19z M128.35,156.95c-0.5-0.32-2.14,0.37-3.02,0.5
			c-4.81,22.72-9.36,45.7-14.35,68.229c1.58-0.35,3.1-0.76,4.03-1.76C119.9,202.21,124.56,178.92,128.35,156.95z M123.31,116.92
			c0.33-1.35,0.7-2.66,0.76-4.28c-7.81-0.65-13.77,1.49-19.39,4.78c-6.47,3.79-14.88,9.99-21.4,2.77
			c-4.66,4.16-3.9,10.76-8.05,14.86c-1.56,1.53-3.56,2.97-5.79,3.77c-1.56,0.57-3.01,0.08-4.03,1.26
			c6.31,9.15,17.61,2.53,26.69-1.26c8.76-3.65,16.22-6.62,24.42-9.31C110.76,125.97,114.37,114.23,123.31,116.92z M121.05,39.88
			c-0.19-2.4,1.46-5.55,0.75-6.8c-9.66,3.1-13.47,12.04-15.1,23.17c1.36,0.56,3.54,0.31,5.03,0.75
			C112.96,49.42,115.99,43.64,121.05,39.88z M118.28,59.02c1.92-5.33,3.77-11.04,2.52-17.63c-3.48,4.42-6.81,8.97-7.81,15.86
			C114.85,57.75,116.32,58.62,118.28,59.02z M120.54,118.18C118.93,117.89,119.99,118.95,120.54,118.18L120.54,118.18z M97.89,65.81
			c-1.13-4.17-9.34-2.69-9.07,1.77C90.84,70.01,96.69,68.09,97.89,65.81z M91.84,114.65c4.23-4.94-0.33-10.42-6.29-10.07
			c-3.68,0.22-8.67,2.53-13.34,3.78c-5.02,1.34-9.93,2.85-13.35,4.03c1.75,1.78,3.91,3.14,4.54,6.04
			c9.09-3.74,19.02-7.06,29.45-10.07c-8.71,5.13-21.74,5.95-28.95,12.59c0.2,3.89-1.8,5.58-3.53,7.55c4.12,0.96,6.16,4.91,5.54,9.82
			c11.81-0.75,9.36-14.98,17.12-19.89C85.58,116.82,88.48,116.14,91.84,114.65z M56.35,145.12c6.27-0.92,10.05-8.57,6.04-13.85
			c-3.15-4.26-11.38,2.06-14.35-2.52c1.56-1.06,3.02,0,4.53,0c5.57,0.01,10.37-3.92,9.82-9.06c-0.57-5.3-6.77-6.39-11.83-7.81
			c4.55-0.98,9.74-1.33,13.59-3.02c-6.11-3.87-11.58,2.38-17.12,3.28c-5.2,0.83-8.61,0.71-11.83,2.77
			c-3.93,2.5-7.86,8.07-8.31,14.35c-1.01,14.04,10.76,24.42,23.67,24.42c4.28,0,9.08-1.6,9.31-7.81c-2.2,0.11-8.17,1.17-10.57,0.25
			C51.33,144.09,54,145.46,56.35,145.12z"/>
		<path fill="#FFFFFF" d="M195.57,176.59c4.229,3.21,5.84,12.57,4.029,19.38C195.55,192.53,193.87,183.32,195.57,176.59z
			 M198.84,193.45c0.86-0.141,0.62-2.311,0-2.51c0.03,0.449-0.25,0.59-0.76,0.5C198.16,192.29,197.75,193.62,198.84,193.45z
			 M196.57,183.63c1.59-0.46,0.729-2.7,0.51-4.02c-0.42,0-0.84,0-1.26,0C195.88,181.14,196.7,181.92,196.57,183.63z"/>
		<path d="M198.84,190.94c0.62,0.199,0.86,2.369,0,2.51c-1.09,0.17-0.68-1.16-0.76-2.01C198.59,191.53,198.87,191.39,198.84,190.94z
			"/>
		<path d="M197.08,179.61c0.22,1.319,1.08,3.56-0.51,4.02c0.13-1.71-0.69-2.49-0.75-4.02C196.24,179.61,196.66,179.61,197.08,179.61
			z"/>
		<path fill="#FFFFFF" d="M196.07,326.88c0.899,4.94-1.96,8.28-2.011,13.09c-0.88,0.23-2.159,0.37-3.529,0
			C191.15,334.39,194.08,331.1,196.07,326.88z"/>
		<path fill="#FFFFFF" d="M197.33,342.49c-1.58,1.3-4.561-0.05-5.79-0.75C193.3,340.26,195.95,341.93,197.33,342.49z"/>
		<path fill="#FFFFFF" d="M197.58,196.47c-1.17,0.261-2.23,0.63-3.78,0.511c-2.08-5.12-4.42-12.44-2.76-19.641
			c0.66-0.51,2.08-0.26,2.76-0.75C193.09,182.83,194.3,191.91,197.58,196.47z"/>
		<path fill="#FFFFFF" d="M194.06,175.08c-1.109,1.07-3.84,0.52-5.04,1.51c-3.13-4.59-6.079-9.37-11.829-11.33
			c1.119-3.5,1.96-7.28,3.02-10.83C185.77,160.36,190.14,167.5,194.06,175.08z"/>
		<path fill="#FFFFFF" d="M189.27,179.86c-0.51,8.54,4.28,17.819-3.52,21.899c-7.91,4.141-31.19,0.561-27.44-12.08
			c3.061,2.15,9.58,2.75,13.341,0.75c-3.65-1.3-10.29,0.021-13.341-2.77c-5.68-5.18-0.069-12.41,6.04-12.58
			c4.08-0.12,8.83,3.189,12.591,1c-3.98-0.43-9.301-2.68-14.101-2.26c0.18-4.1,2.32-7.18,5.54-8.06
			C178.21,163.06,185.76,174.24,189.27,179.86z"/>
		<path d="M187.01,336.7c1.07,0.45,1.74,3.39,0.75,4.28C186.09,340.77,186.92,338.02,187.01,336.7z"/>
		<path d="M187.51,334.44c1.141-0.19,0.94,1.68-0.25,1.26C187.18,335.11,187.3,334.73,187.51,334.44z"/>
		<path d="M184.99,337.71c0.609,0.36,1.609,1.23,1.01,2.01C184.61,339.78,184.76,338.69,184.99,337.71z"/>
		<path fill="#FFFFFF" d="M181.22,316.06c3.33,4.71,3.5,11.681-4.029,12.08c0.779-4.949-1.24-9.13-4.28-11.069
			c1.68,3.05,4.71,9.39,1.26,13.34c-2.479,2.83-7.52,2.26-11.08,0.5c0.26-5.17-1.42-10.46-4.78-12.84
			c0.761,3.75,4.521,8.47,2.521,13.09c-1.23,2.83-6.44,3.96-9.57,2.27c-2.85-1.54-4.12-5.35-4.53-8.81c-0.97-0.73-1.36,0.78-2.27,0
			c-8.31-4.47-3.85-17.11,2.77-20.65c3.35-15.96,2.53-39.149-2.27-53.87c0.72-1.38,3.32-0.89,4.03-2.27
			c-1.64-1.021-3.9,0.5-5.54,0.76c-11.33,1.811-22.88-2.56-30.96-5.29c0.11,0.99,2.56,1.8,3.52,2.771
			c-5.76,11.42-8.07,28.01-6.04,45.319c0.56,4.78,1.35,10.54,3.27,13.591c0.96,1.52,2.24,1.42,3.53,2.27
			c2.72,1.79,5.53,6.26,5.28,10.07c-0.35,5.439-6.08,7.79-9.81,10.069c1.19,7.801-9.88,13.091-14.86,7.801
			c-3.32-3.54-1.42-9.391,0-13.851c-3.52,1.42-3.82,7.78-2.77,11.59c-2.86,4.23-11.87,4.91-13.84,0
			c-1.74-4.33,2.95-9.359,4.28-12.09c-4.22,0.45-5.76,6.65-6.3,10.83c-8.02-1.38-3.96-11.25-0.25-13.6
			c2.83-1.79,6.45-2.351,9.32-4.53c4.1-3.12,6.62-6.71,9.56-9.82c-8.29-21.7-0.97-48.47,3.78-68.979
			c-15.32-24.71-0.01-60.39,7.3-83.58C97.7,153.48,88.53,162.7,78,166.01c-11.62,3.65-23.37-5.41-29.46-10.82
			c7.24,0.75,13.03-2.06,12.59-9.82c0.66-1.19,1.84-1.85,2.77-2.77c4.72,1.85,7.09,4.73,13.34,4.03c3.34-0.38,7.12-2.39,10.83-4.03
			c6.77-3,12.8-6.66,20.39-8.81c3.74-1.06,8.04-2.75,11.33-2.77c1.33-0.01,2.37,0.71,3.77,1c5.55,1.17,12,1.27,17.88,1.01
			c6.28-0.27,11.86-2.35,16.36,1.76c-1.84,4.04-4.49,7.26-6.54,11.08c-3.38,0.74-7.08,1.15-8.31,4.03
			c-5.03,0.78-9.28,1.25-13.85,2.77c-1.05,0.06,0.29,0.93-0.5,1.26c-2.31,0.41-5.36,1.02-7.55,0.75
			c-5.11,21.6-3.66,49.24-14.86,64.2c-0.58,0.61-0.81,0.38-1.76,0.25c0.74,2.4,3.93,2.09,6.3,2.271c-0.09,1.96-1.15,4.17-0.76,5.79
			c1.05,0.119,3.07-0.95,4.53-1.261c-0.48,2.12-0.51,4.69-1.76,6.04c4.3,0.57,8.49-1.39,12.59-2.52
			c12.18-3.36,24.85-7.2,37.26-10.57c1.22-2.39,1.83-5.38,2.771-8.06c1.33,7.939,0.239,19.17-3.53,24.43
			c3.05,8.58,3.53,23.5,3.53,35.49c0,11.16-2.08,22.54-2.771,32.229c2.851,1.98,7.43,3.311,11.07,6.29c1.33,1.09,2.05,2.8,3.28,3.78
			C178.49,314.27,180.15,314.55,181.22,316.06z"/>
		<path fill="#FFFFFF" d="M179.71,41.39c0.1,1.03-0.24,1.62-0.51,2.27c-0.771-0.55-1.771-1.43-2.771-1.01
			c-0.01,1.11,0.61,1.58,1.261,2.02c-0.311,0.6-1.341,0.5-1.761,1c-0.55-0.79-0.92-1.76-1.76-2.26c-0.71-0.21-0.65,0.35-1.26,0.25
			c0.07,1.19,1.03,1.49,1.26,2.52c-0.689,0.15-2-0.32-2.27,0.25c0.479-0.89-0.381-1.92-1.261-2.77c-0.37,0.13-0.63,0.37-1,0.5
			c-0.06,0.98,0.261,1.58,1,1.76c-0.43,1.07-1.939-0.14-3.27,0.26c0.99-1.09-0.33-2.39-1.26-3.02c-0.37,0.13-0.63,0.37-1.011,0.5
			c-0.01,1.1,0.841,1.35,1.011,2.26c-0.92-0.33-1.92-0.59-3.021-0.75c1.021-1.25-0.149-2.47-1.26-3.02c-0.69-0.19-0.5,0.5-1,0.5
			c-0.13,0.79,0.77,0.57,0.5,1.51c-0.83-0.34-1.69-0.66-2.521-1c0.62-2.95-3.079-4.58-1.76-1.52c-0.899,0.8-1.49-0.85-2.52-0.75
			c-0.15-1.36-0.13-2.89-1.011-3.53c-1.149,0.14-0.939,1.08-0.75,2.02c-2.319-1.02-1.539-2.08-2.02-4.78
			c-0.29,0.04-0.44-0.06-0.5-0.26c-0.37,0.13-0.63,0.38-1.01,0.51c-0.13,1.05,0.44,1.4,0.51,2.26c-1.96-0.47-2.29-2.58-2.77-4.53
			c-1.46,0.02-0.99,0.99-1.26,1.76c-1.43-0.5-1.69-2.17-2.01-3.77c-1.23-0.31-0.85,1-1.77,1c-1.77-1.16-3.67-2.2-6.04-2.76
			c-0.1-1.08-0.44-1.91-1.01-2.52c-1.65-0.18-0.69,1.28-0.75,2.26c-1.74-0.11-2.11-1.58-3.27-2.26c-1.71,0.52-0.13,1.49-0.26,2.01
			c-2.16,0.49-2.62-0.69-4.02-1.51c-0.59,0.08-0.57,0.78-1.01,1.01c0.15,0.85,1.61,0.4,1.51,1.51c-1.5,0.75-2.8-0.22-3.78-0.76
			c-0.51,0.08-0.49,0.68-1,0.76c0.03,0.72,1.07,0.44,1,1.26c-1.77,0.34-2.12-0.74-2.77-1.51c0.45-0.81,0.15-2.37,0.51-3.28
			c4.84-6.55,17.21-5.03,23.16-0.5c8.65,5.97,17.92,13.95,32.22,12.59c0.67,0.51,1.86,0.49,2.521,1.01
			c0.189,0.94-0.96,0.54-1.01,1.25C178.05,41.03,179.08,41.01,179.71,41.39z M176.69,39.88c-1.061-0.45-3.051,0.07-3.03,1.51
			C174.95,41.93,176.37,41.08,176.69,39.88z M169.64,40.89c-0.399,1.75,2.42,2.02,2.511,0.5C171.8,40.41,170.41,40.13,169.64,40.89z
			 M166.11,40.39c-1.28,1.82,2.859,3.11,2.52,0.5C167.4,41.12,167.45,40.06,166.11,40.39z M162.33,40.39
			c0.46,1.21,2.17,1.6,2.77,0.25C164.41,40.07,162.65,38.44,162.33,40.39z M160.32,39.63c0.569-1.09-0.23-2.71-1.511-2.77
			C158.21,37.99,158.72,39.89,160.32,39.63z M156.29,38.12c0.38-4.17-3.43-0.9-0.5,0.25C155.85,38.18,156,38.08,156.29,38.12z
			 M152.01,35.6c0.59-0.08,1.181-0.16,1.01-1c-0.579-0.08-0.97,0.04-1.26,0.25C151.75,35.19,151.88,35.4,152.01,35.6z M137.16,27.29
			c-0.2,0.98,1.54,1.46,1.76,0.51C138.69,27.24,137.81,26.67,137.16,27.29z M132.88,25.53c0.18-0.77-0.43-0.74-0.25-1.51
			c-0.62-0.03-1.21-0.04-1.51,0.25C131.03,25.51,131.94,26.02,132.88,25.53z M127.09,24.02c-1.06,1.3,1.51,2.97,2.01,1.26
			C128.5,24.79,128.42,23.78,127.09,24.02z M124.32,27.04c0.13-1.4-1.08-1.38-1.76-0.75C122.46,27.23,123.7,27.59,124.32,27.04z"/>
		<path fill="#FFFFFF" d="M180.46,145.87c-0.34,5.29-3.27,12.33-4.53,18.38c-7.699-2.12-15.14,1.55-14.85,9.82
			c-6.25,0.86-9.2,11.19-4.28,15.86c-2.81,7.4,3.4,11.7,8.561,13.59c-1.03,4.931-2.33,9.591-3.78,14.101
			c-15.27,4.37-30.61,8.66-45.82,13.09c4.88-25.99,10.18-51.17,14.6-77.03c6.45-1.36,13.24-2.37,20.14-3.28
			c1.05,1.34,1.19,3.14,0.76,4.28c-0.9,2.38-5.44,2.36-4.79,6.55c5.86-0.44,12.43-2.35,18.89-3.02c0.08-3.83,4.949-5.92,2.77-10.58
			C172.6,147.41,176.35,146.46,180.46,145.87z"/>
		<path fill="#FFFFFF" d="M178.2,51.21c5.38,11.3,5.609,38.54-3.78,45.32c-3.9,2.81-12.4,3.11-12.84-2.52
			c-0.44-5.52,1.5-15.65,0.75-22.15c-0.74-6.51-3.48-11.82-4.53-16.87c-0.78-3.8,0.2-7.15,2.521-9.07c0.81,0.29,1.75,0.43,2.52,0.76
			c-2.87,5.44,1.15,11.18,3.021,17.62c1.31,4.53,1.93,9.91,1.26,15.36c-0.76,6.18-3.16,10.62-1.26,16.11
			c1.399-10.73,4.359-20.8,1.26-31.97c-1.46-5.26-5.12-10.18-3.53-16.62c3.271,0.44,4.92,0.86,7.811,0.76
			c1.18-0.04,2.779-0.85,3.77-0.5C176.08,47.75,177.72,50.22,178.2,51.21z"/>
		<path d="M173.66,41.39c-0.021-1.44,1.97-1.96,3.03-1.51C176.37,41.08,174.95,41.93,173.66,41.39z"/>
		<path fill="#FFFFFF" d="M175.68,142.6c0.061,1.07-0.229,1.78-0.51,2.52c-3.12-0.09-5.3,0.9-9.06,0.75
			C169.18,144.17,172.19,143.93,175.68,142.6z"/>
		<path fill="#FFFFFF" d="M165.1,21.25c5.17,3.6,9.82,8.27,8.82,15.61c-0.92-0.09-0.18-1.84-1.01-2.01
			c-1.34-0.05-1.271,0.74-1.01,1.76c-1.721,0.05-2.86-0.5-4.53-0.5c0.53-1.16-0.19-2.46-1.76-2.27c-0.641,0.63,0.29,0.99,0.25,1.76
			c-1.141-0.2-2.07-0.61-3.021-1c0.12-1.12-0.35-1.26,0-2.02c-0.32-0.71-1.03-0.83-1.76-0.5c-0.07,0.9,0.46,1.21,0.5,2.01
			c-0.89-0.37-1.74-0.78-2.521-1.26c-0.069-0.85,0.2-2.04-0.25-2.51c-1.119-0.12-1.369,0.64-1.26,1.76
			c-1.45-0.39-2.399-1.3-2.52-3.02c-0.75,0-1.05,0.45-1.25,1c-4.72-2.75-8.68-6.25-14.1-8.3c-0.27-1.18,0.66-1.99,0-2.77
			c-1.3-0.21-1.11,1.07-1.76,1.51c-1.01,0.16-1.02-0.67-2.02-0.51c4.01-2.55,6.77-6.86,13.6-6.29
			C153.22,14.01,161.41,18.68,165.1,21.25z M172.91,33.34c0.06-1.24-0.59-1.76-1.26-2.27c-0.07,0.35-0.551,0.29-0.75,0.5
			C170.83,32.82,171.69,34.17,172.91,33.34z M171.4,29.81c0.09-1.1-0.721-1.29-0.761-2.26c-0.58-0.08-0.96,0.04-1.26,0.25
			C169.1,28.42,170.09,30.78,171.4,29.81z M170.64,35.1c0.12-1.29-0.97-1.38-1-2.52C166.74,32.33,169.04,36.21,170.64,35.1z
			 M169.13,31.32C169.18,27.19,165.14,31.23,169.13,31.32L169.13,31.32z M168.63,26.79c0.66-0.79-0.53-1.33-0.5-2.26
			c-0.59-0.09-0.97,0.04-1.26,0.25C167,25.9,167.16,27.01,168.63,26.79z M166.36,27.8c0.3-1.24-1.41-1.71-1.511-0.51
			C164.88,27.94,165.7,27.79,166.36,27.8z M164.35,32.08c0.75,0.33,1.28,0.26,1.761-0.25c-0.24-0.94-0.58-1.77-1.761-1.77
			C163.85,30.56,164.19,31.5,164.35,32.08z M165.36,23.27c0.159-1.29-1.28-1.49-1.771-0.76C163.6,23.56,164.57,23.64,165.36,23.27z
			 M149.24,15.97c-1.08-0.31-2.26,0.56-1.51,1.25C148.06,17.13,149.24,17.06,149.24,15.97z M145.22,18.23
			c0.17-0.74,0.75-1.09,0.5-2.26c-0.44,0.01-0.78-0.06-1.01-0.26c-0.47,0.57-1.16,1.87-0.75,2.52
			C144.38,18.23,144.8,18.23,145.22,18.23z M140.94,19.99c1.87,0.54,1.92-1.82,1.76-2.51C141.04,17.24,140.79,18.42,140.94,19.99z"
			/>
		<path d="M171.65,31.07c0.67,0.51,1.319,1.03,1.26,2.27c-1.22,0.83-2.08-0.52-2.01-1.77C171.1,31.36,171.58,31.42,171.65,31.07z"/>
		<path d="M170.64,27.55c0.04,0.97,0.851,1.16,0.761,2.26c-1.311,0.97-2.301-1.39-2.021-2.01
			C169.68,27.59,170.06,27.47,170.64,27.55z"/>
		<path d="M172.15,41.39c-0.091,1.52-2.91,1.25-2.511-0.5C170.41,40.13,171.8,40.41,172.15,41.39z"/>
		<path d="M169.64,32.58c0.03,1.14,1.12,1.23,1,2.52C169.04,36.21,166.74,32.33,169.64,32.58z"/>
		<path d="M169.13,31.32C165.14,31.23,169.18,27.19,169.13,31.32L169.13,31.32z"/>
		<path d="M168.13,24.53c-0.03,0.93,1.16,1.47,0.5,2.26c-1.47,0.22-1.63-0.89-1.76-2.01C167.16,24.57,167.54,24.44,168.13,24.53z"/>
		<path d="M168.63,40.89c0.34,2.61-3.8,1.32-2.52-0.5C167.45,40.06,167.4,41.12,168.63,40.89z"/>
		<path fill="#FFFFFF" d="M164.35,146.12c1.91,0.66,3.021,2.74,2.771,4.79c-0.63,5.05-10.19,3.97-15.36,5.03
			c1.971-2.96-0.05-6.71-1.51-8.56c1.14-0.18,1.26,0.08,2.02-0.25c2.32-3.38,4.101-7.31,6.54-10.57c2.021,0,4.03,0,6.04,0
			c-0.54,3.59-2.479,8.39-1.76,11.58C164.41,148.36,164.1,146.96,164.35,146.12z M157.55,148.64c0.38-2.91,2.16-7.05,1.01-9.82
			c-1.439,2.44-3.42,5.63-4.279,7.81C155.25,147.42,156.29,148.14,157.55,148.64z"/>
		<path d="M164.85,27.29c0.101-1.2,1.811-0.73,1.511,0.51C165.7,27.79,164.88,27.94,164.85,27.29z"/>
		<path fill="#FFFFFF" d="M165.61,140.33c1.279,0.9,2.71,1.66,3.52,3.02c-1.59,0.17-2.83,0.7-4.28,1.01
			C165.15,143.06,165.44,141.76,165.61,140.33z"/>
		<path d="M166.11,31.83c-0.48,0.51-1.011,0.58-1.761,0.25c-0.159-0.58-0.5-1.52,0-2.02C165.53,30.06,165.87,30.89,166.11,31.83z"/>
		<path d="M163.59,22.51c0.49-0.73,1.93-0.53,1.771,0.76C164.57,23.64,163.6,23.56,163.59,22.51z"/>
		<path fill="#FFFFFF" d="M154.78,157.2c3.43-0.53,7.1-1.45,9.819-1.26c-0.68,2.03-3.67,1.77-5.54,2.02
			c-3.779,0.49-7.43,1.44-11.069,2.01C148.43,157.17,152.26,157.59,154.78,157.2z"/>
		<path d="M165.1,40.64c-0.6,1.35-2.31,0.96-2.77-0.25C162.65,38.44,164.41,40.07,165.1,40.64z"/>
		<path fill="#FFFFFF" d="M158.31,44.67c-7.39,10.44,5.65,23.3,2.261,37c-0.65,2.63-2.771,4.04-3.521,7.05
			c-1.439-2.17-2.54-4.68-5.04-5.79c3.98,6.39,7.55,18.12,0.76,23.92c-6.75,5.77-17.64,2.5-29.209,3.27
			c-7.78,0.52-14.29,3.36-19.38,5.29c-0.18-1.16-0.31-2.37-1.26-2.77c-1.31,6.91-10.9,11.16-17.87,7.05
			c3.69-3.07,9.92-2.31,10.32-8.56c0.46-7.3-8.52-9.61-15.36-6.8c-0.41-3.68,1.52-5.03,3.27-6.54c10.08,7.94,34.79,10.95,43.31-0.51
			c8.11-10.91,4.35-31.84-7.05-37.01c5.29-6.45,1.59-21.6,5.54-28.95C139.58,25.36,147.78,40.75,158.31,44.67z M142.19,55.74
			c5.08-3.46-0.77-11.61-6.29-8.05c-4.92-7.08-13.48,2.42-7.8,6.29c1.85,1.27,4.76,0.65,6.29-0.5
			C135.07,56.69,139.98,57.26,142.19,55.74z M139.43,83.44c-5,0.71-8.02,3.39-8.82,8.3C133.33,88.75,136.55,86.27,139.43,83.44z"/>
		<path d="M158.81,36.86c1.28,0.06,2.08,1.68,1.511,2.77C158.72,39.89,158.21,37.99,158.81,36.86z"/>
		<path d="M158.56,138.82c1.15,2.77-0.63,6.91-1.01,9.82c-1.26-0.5-2.3-1.22-3.27-2.01C155.14,144.45,157.12,141.26,158.56,138.82z"
			/>
		<path d="M155.79,38.37c-2.93-1.15,0.88-4.42,0.5-0.25C156,38.08,155.85,38.18,155.79,38.37z"/>
		<path d="M153.02,34.6c0.171,0.84-0.42,0.92-1.01,1c-0.13-0.2-0.26-0.41-0.25-0.75C152.05,34.64,152.44,34.52,153.02,34.6z"/>
		<path fill="#FFFFFF" d="M152.52,120.7c1.15,1.66-9.569,1.24-4.79,1c1.21-0.31,2.68-0.34,3.78-0.75c-0.189-0.9-1.17-1.02-2.01-1.26
			C150.34,119.19,151.91,120.12,152.52,120.7z"/>
		<path d="M147.73,17.22c-0.75-0.69,0.43-1.56,1.51-1.25C149.24,17.06,148.06,17.13,147.73,17.22z"/>
		<path fill="#FFFFFF" d="M144.96,149.4c0.49-1.07,2.82-1.37,3.78-0.51C147.77,149.35,146.42,149.43,144.96,149.4z"/>
		<path d="M145.72,15.97c0.25,1.17-0.33,1.52-0.5,2.26c-0.42,0-0.84,0-1.26,0c-0.41-0.65,0.28-1.95,0.75-2.52
			C144.94,15.91,145.28,15.98,145.72,15.97z"/>
		<path fill="#FFFFFF" d="M146.47,112.64c-0.73,2.28-1.45,4.59-1.76,7.3c-6.66,0.77-13.56-0.35-19.89-0.75
			c0.58-2.12,0.22-5.16,1.01-7.05C132.88,112.15,139.86,113.71,146.47,112.64z"/>
		<path d="M142.7,17.48c0.16,0.69,0.11,3.05-1.76,2.51C140.79,18.42,141.04,17.24,142.7,17.48z"/>
		<path d="M135.9,47.69c5.52-3.56,11.37,4.59,6.29,8.05c-2.21,1.52-7.12,0.95-7.8-2.26c-1.53,1.15-4.44,1.77-6.29,0.5
			C122.42,50.11,130.98,40.61,135.9,47.69z M139.17,55.49c2.53-0.13,3.56-2.45,3.28-4.28c-0.67-4.25-8.53-3.47-7.05,1.51
			C136.49,48.04,143.13,52.96,139.17,55.49z M132.88,51.21c0.06,1.14-1.48,1.79-0.76,2.27c7.84-4.64-5.83-11.59-4.78-2.27
			C127.65,48.48,132.7,47.59,132.88,51.21z"/>
		<path fill="#FFFFFF" d="M142.45,51.21c0.28,1.83-0.75,4.15-3.28,4.28c3.96-2.53-2.68-7.45-3.77-2.77
			C133.92,47.74,141.78,46.96,142.45,51.21z"/>
		<path fill="#FFFFFF" d="M138.42,121.7c0.84,0,1.68,0,2.52,0c-0.08,0.34-0.63,0.21-1.01,0.25c-0.34,0-0.67,0-1.01,0
			c-7.89-0.25-16.22-0.05-22.15-2.26c0.14-1.12,1.18-1.34,2.52-1.26c-0.34,0.42-1.12,0.39-1.52,0.76
			C123.3,121.38,131.51,120.89,138.42,121.7z"/>
		<path d="M138.92,27.8c-0.22,0.95-1.96,0.47-1.76-0.51C137.81,26.67,138.69,27.24,138.92,27.8z"/>
		<path d="M130.61,91.74c0.8-4.91,3.82-7.59,8.82-8.3C136.55,86.27,133.33,88.75,130.61,91.74z"/>
		<path d="M132.63,24.02c-0.18,0.77,0.43,0.74,0.25,1.51c-0.94,0.49-1.85-0.02-1.76-1.26C131.42,23.98,132.01,23.99,132.63,24.02z"
			/>
		<path fill="#FFFFFF" d="M132.12,53.48c-0.72-0.48,0.82-1.13,0.76-2.27c-0.18-3.62-5.23-2.73-5.54,0
			C126.29,41.89,139.96,48.84,132.12,53.48z"/>
		<path fill="#FFFFFF" d="M122.05,155.94c2.13-0.25,5.02-0.99,6.8-0.75c-0.8,1.13-2.95,0.9-4.53,1.26
			c-3.54,21.05-9.17,42.18-13.09,63.689c-1.45,0.021-2.91,0.051-4.03-0.25c6.68-7.85,8.13-22.25,10.32-35.5
			C119.12,174.71,120.16,164.9,122.05,155.94z"/>
		<path d="M129.1,25.28c-0.5,1.71-3.07,0.04-2.01-1.26C128.42,23.78,128.5,24.79,129.1,25.28z"/>
		<path fill="#FFFFFF" d="M125.33,157.45c0.88-0.13,2.52-0.82,3.02-0.5c-3.79,21.97-8.45,45.26-13.34,66.97
			c-0.93,1-2.45,1.41-4.03,1.76C115.97,203.15,120.52,180.17,125.33,157.45z"/>
		<path d="M122.56,26.29c0.68-0.63,1.89-0.65,1.76,0.75C123.7,27.59,122.46,27.23,122.56,26.29z"/>
		<path fill="#FFFFFF" d="M124.07,112.64c-0.06,1.62-0.43,2.93-0.76,4.28c-8.94-2.69-12.55,9.05-6.79,12.59
			c-8.2,2.69-15.66,5.66-24.42,9.31c-9.08,3.79-20.38,10.41-26.69,1.26c1.02-1.18,2.47-0.69,4.03-1.26c2.23-0.8,4.23-2.24,5.79-3.77
			c4.15-4.1,3.39-10.7,8.05-14.86c6.52,7.22,14.93,1.02,21.4-2.77C110.3,114.13,116.26,111.99,124.07,112.64z"/>
		<path fill="#FFFFFF" d="M121.8,33.08c0.71,1.25-0.94,4.4-0.75,6.8c-5.06,3.76-8.09,9.54-9.32,17.12
			c-1.49-0.44-3.67-0.19-5.03-0.75C108.33,45.12,112.14,36.18,121.8,33.08z"/>
		<path fill="#FFFFFF" d="M120.8,41.39c1.25,6.59-0.6,12.3-2.52,17.63c-1.96-0.4-3.43-1.27-5.29-1.77
			C113.99,50.36,117.32,45.81,120.8,41.39z"/>
		<path fill="#FFFFFF" d="M120.54,118.18C119.99,118.95,118.93,117.89,120.54,118.18L120.54,118.18z"/>
		<path fill="#FFFFFF" d="M88.82,67.58c-0.27-4.46,7.94-5.94,9.07-1.77C96.69,68.09,90.84,70.01,88.82,67.58z"/>
		<path fill="#FFFFFF" d="M85.55,104.58c5.96-0.35,10.52,5.13,6.29,10.07c-3.36,1.49-6.26,2.17-8.81,3.78
			c-7.76,4.91-5.31,19.14-17.12,19.89c0.62-4.91-1.42-8.86-5.54-9.82c1.73-1.97,3.73-3.66,3.53-7.55
			c7.21-6.64,20.24-7.46,28.95-12.59c-10.43,3.01-20.36,6.33-29.45,10.07c-0.63-2.9-2.79-4.26-4.54-6.04
			c3.42-1.18,8.33-2.69,13.35-4.03C76.88,107.11,81.87,104.8,85.55,104.58z M71.2,113.9c1.09-0.93,3.46-0.57,4.28-1.76
			c-2.7-1.99-5.9-3.69-9.06-1.01C67.95,112.11,69.66,112.92,71.2,113.9z"/>
		<path d="M75.48,112.14c-0.82,1.19-3.19,0.83-4.28,1.76c-1.54-0.98-3.25-1.79-4.78-2.77C69.58,108.45,72.78,110.15,75.48,112.14z
			 M70.95,112.14c0.5,0.43,2.04,0.36,2.26-0.26c-0.52-0.14-0.71-0.62-1.51-0.5C72.09,112.28,70.85,111.53,70.95,112.14z"/>
		<path fill="#FFFFFF" d="M73.21,111.88c-0.22,0.62-1.76,0.69-2.26,0.26c-0.1-0.61,1.14,0.14,0.75-0.76
			C72.5,111.26,72.69,111.74,73.21,111.88z"/>
		<path fill="#FFFFFF" d="M62.39,131.27c4.01,5.28,0.23,12.93-6.04,13.85c-2.35,0.34-5.02-1.03-7.05,1
			c2.4,0.92,8.37-0.14,10.57-0.25c-0.23,6.21-5.03,7.81-9.31,7.81c-12.91,0-24.68-10.38-23.67-24.42
			c0.45-6.28,4.38-11.85,8.31-14.35c3.22-2.06,6.63-1.94,11.83-2.77c5.54-0.9,11.01-7.15,17.12-3.28
			c-3.85,1.69-9.04,2.04-13.59,3.02c5.06,1.42,11.26,2.51,11.83,7.81c0.55,5.14-4.25,9.07-9.82,9.06c-1.51,0-2.97-1.06-4.53,0
			C51.01,133.33,59.24,127.01,62.39,131.27z"/>
	</g>
	<g>
	</g>
</g>
</svg>
