<?xml version="1.0" encoding="utf-8"?>
<!-- Generator: Adobe Illustrator 16.0.0, SVG Export Plug-In . SVG Version: 6.00 Build 0)  -->
<!DOCTYPE svg PUBLIC "-//W3C//DTD SVG 1.1//EN" "http://www.w3.org/Graphics/SVG/1.1/DTD/svg11.dtd">
<svg version="1.1" id="Lager_1" xmlns="http://www.w3.org/2000/svg" xmlns:xlink="http://www.w3.org/1999/xlink" x="0px" y="0px"
	 width="300px" height="350px" viewBox="0 0 300 350" enable-background="new 0 0 300 350" xml:space="preserve">
<g>
	<path fill="#FFFFFF" d="M289.868,355.934c-86.239,0-172.477,0-258.715,0c0-121.833,0-243.666,0-365.5c86.238,0,172.476,0,258.715,0
		C289.868,112.268,289.868,234.101,289.868,355.934z M224.398,157.391c0.171-0.164,0.342-0.326,0.512-0.489
		c1.18,0.759,2.417,1.443,3.529,2.29c7.649,5.823,15.113,11.907,22.95,17.466c7.945,5.636,16.222,10.81,24.444,16.042
		c0.783,0.498,2.432,0.347,3.295-0.157c1.299-0.759,1.523-2.309,0.694-3.644c-0.598-0.961-1.375-1.912-2.292-2.556
		c-2.656-1.868-5.378-3.652-8.155-5.338c-5.415-3.285-9.557-7.671-12.086-13.517c-0.975-2.252-2.054-4.468-2.883-6.772
		c-4.497-12.497-9.66-24.816-13.165-37.589c-3.043-11.094-4.347-22.685-6.126-34.102c-2.565-16.461-7.771-31.769-17.884-45.269
		c-12.701-16.958-28.714-28.556-50.045-31.801c-9.812-1.493-19.577-1.268-28.664,3.184c-12.554,6.152-20.448,16.495-24.9,29.532
		c-3.915,11.466-4.237,23.248-2.543,35.159c0.141,0.994,0.059,2.209-0.4,3.062c-1.236,2.298-1.249,3.241,0.842,4.758
		c2.748,1.994,5.604,3.838,8.399,5.767c0.585,0.404,1.11,0.895,2.135,1.731c-1.328,0.071-1.956,0.121-2.585,0.135
		c-4.264,0.098-8.541,0.018-12.791,0.313c-14.492,1.009-28.041,4.92-39.768,13.83c-12.64,9.603-19.286,22.24-17.779,38.298
		c1.617,17.225,8.933,31.839,21.666,43.651c5.763,5.348,12.256,9.646,19.188,13.313c2.357,1.246,2.317,1.284,0.738,3.478
		c-1.731,2.404-3.285,4.941-5.1,7.277c-0.687,0.884-1.807,1.762-2.864,1.978c-8.978,1.829-17.53,4.887-25.802,8.749
		c-2,0.934-3.598,0.871-5.689,0.023c-3.086-1.251-6.434-1.952-9.731-2.541c-1.501-0.269-2.764,0.743-2.951,2.514
		c-0.196,1.846,0.792,2.874,2.455,3.286c1.118,0.277,2.291,0.322,3.422,0.554c0.689,0.141,1.346,0.437,2.431,0.802
		c-1.155,0.806-1.891,1.253-2.551,1.792c-1.729,1.411-3.605,2.701-5.088,4.343c-1.646,1.821-0.666,4.349,1.675,4.499
		c1.038,0.067,2.198-0.516,3.172-1.045c1.16-0.629,2.178-1.518,3.576-2.523c0.062,1.006-0.095,1.674,0.165,2.066
		c0.661,1,1.334,2.248,2.323,2.713c1.356,0.638,2.489-0.353,3.072-1.67c0.496-1.121,0.849-2.305,1.281-3.455
		c0.669-1.781,1.417-3.418,3.423-4.206c6.858-2.69,13.675-5.484,20.516-8.217c0.621-0.247,1.305-0.336,2.328-0.591
		c-0.239,0.956-0.374,1.483-0.501,2.012c-1.24,5.112-2.993,10.162-3.618,15.349c-1.572,13.054,1.913,24.781,10.587,34.812
		c5.442,6.292,12.169,10.851,19.69,14.276c1.494,0.682,2.251,1.564,2.222,3.282c-0.068,3.921,0.25,4.291-4.015,4.001
		c-0.216-0.015-0.434-0.009-0.651,0.003c-2.022,0.109-2.945,1.034-2.75,3.028c0.119,1.208,0.505,2.396,0.837,3.576
		c0.608,2.157,0.307,2.48-1.979,2.531c-3.172,0.069-6.382,0.02-9.496,0.52c-1.651,0.265-3.535,1.232-4.624,2.484
		c-4.401,5.06-1.406,13.868,5.124,15.146c10.034,1.962,20.174,1.163,30.285,0.771c1.927-0.075,2.973-1.246,3.077-3.248
		c0.154-2.96,0.418-5.915,0.572-8.876c0.21-4.043,0.377-8.09,0.532-12.135c0.081-2.104-0.957-3.242-3.078-3.381
		c-1.443-0.095-2.901-0.118-4.319-0.363c-0.752-0.131-1.594-0.522-2.084-1.073c-0.272-0.306-0.053-1.627,0.206-1.714
		c0.666-0.223,1.515-0.154,2.223,0.043c12.198,3.395,24.588,4.53,37.169,3.029c3.796-0.452,7.537-1.361,11.324-1.915
		c0.619-0.091,1.349,0.578,2.027,0.896c-0.564,0.581-1.1,1.194-1.711,1.72c-0.164,0.141-0.56,0.014-0.849,0.007
		c-4.756-0.103-5.664,1.12-4.241,5.717c0.085,0.275,0.201,0.542,0.283,0.818c0.663,2.247,0.289,2.558-2.083,2.61
		c-3.38,0.075-6.822,0.063-10.105,0.737c-1.686,0.347-3.633,1.775-4.515,3.272c-3.728,6.324-0.241,13.736,6.98,14.324
		c8.339,0.68,16.741,0.726,25.117,0.774c6.745,0.039,6.767-0.14,7.146-6.918c0.319-5.702,0.647-11.406,0.842-17.114
		c0.098-2.828-0.678-3.565-3.511-3.854c-1.294-0.132-2.617-0.032-3.894-0.242c-0.694-0.114-1.642-0.492-1.918-1.035
		c-1.16-2.274-0.219-4.579,2.115-5.567c9.828-4.163,18.269-9.969,23.33-19.752c0.659-1.273,1.489-1.239,2.682-0.812
		c2.171,0.776,4.359,1.622,6.615,2.028c11.182,2.016,21.385-0.954,30.842-6.719c2.584-1.575,4.693-3.993,6.833-6.205
		c1.108-1.147,1.376-2.733,0.24-4.171c-1.187-1.504-2.819-1.489-4.333-0.815c-1.433,0.637-2.79,1.531-4.023,2.512
		c-4.654,3.701-9.847,6.301-15.581,7.816c-6.054,1.601-12.038,1.11-17.962-0.731c-1.219-0.379-2.084-0.934-1.722-2.471
		c2.544-10.789,1.423-21.388-1.705-31.879c-0.174-0.583-0.216-1.205-0.382-2.169c0.879,0.206,1.437,0.244,1.912,0.462
		c4.792,2.194,9.606,4.349,14.324,6.695c0.905,0.451,1.607,1.604,2.065,2.59c0.665,1.428,0.995,3.008,1.52,4.505
		c0.498,1.425,1.453,2.455,3.05,2.196c1.584-0.257,2.512-1.322,2.581-3.021c0.02-0.461,0.164-0.917,0.324-1.757
		c1.423,1.121,2.569,2.066,3.761,2.952c1.695,1.26,3.403,1.264,4.489-0.037c1.28-1.532,0.789-3.043-0.455-4.249
		c-1.552-1.505-3.279-2.828-4.92-4.241c-0.551-0.475-1.069-0.986-1.719-1.59c0.505-0.263,0.678-0.413,0.868-0.44
		c1.145-0.169,2.29-0.333,3.44-0.453c2.696-0.282,3.978-1.435,3.804-3.459c-0.159-1.844-1.632-3.031-4.232-2.586
		c-3.097,0.53-6.073,1.73-9.146,2.442c-1.23,0.285-2.734,0.423-3.855-0.022c-6.64-2.634-13.223-5.413-19.773-8.264
		c-1.109-0.482-2.198-1.379-2.903-2.365c-3.185-4.46-6.132-9.091-9.376-13.505c-1.141-1.554-0.871-2.235,0.349-3.549
		c3.673-3.955,7.26-8.012,10.568-12.271c1.328-1.71,2.425-2.628,4.714-2.552c7.006,0.235,12.707-2.453,16.544-8.464
		c2.99-4.684,3.889-9.908,3.341-15.383C225.121,161.175,224.71,159.288,224.398,157.391z"/>
	<path fill-rule="evenodd" clip-rule="evenodd" d="M224.398,157.391c0.312,1.897,0.723,3.785,0.914,5.694
		c0.548,5.476-0.351,10.699-3.341,15.383c-3.837,6.011-9.538,8.699-16.544,8.464c-2.289-0.076-3.386,0.842-4.714,2.552
		c-3.309,4.259-6.896,8.315-10.568,12.271c-1.22,1.313-1.489,1.995-0.349,3.549c3.244,4.414,6.191,9.045,9.376,13.505
		c0.705,0.986,1.794,1.883,2.903,2.365c6.551,2.851,13.134,5.63,19.773,8.264c1.121,0.445,2.625,0.308,3.855,0.022
		c3.073-0.712,6.05-1.912,9.146-2.442c2.601-0.445,4.073,0.742,4.232,2.586c0.174,2.024-1.107,3.177-3.804,3.459
		c-1.15,0.12-2.296,0.284-3.44,0.453c-0.19,0.027-0.363,0.178-0.868,0.44c0.649,0.604,1.168,1.115,1.719,1.59
		c1.641,1.413,3.368,2.736,4.92,4.241c1.244,1.206,1.735,2.717,0.455,4.249c-1.086,1.301-2.794,1.297-4.489,0.037
		c-1.191-0.886-2.338-1.831-3.761-2.952c-0.16,0.84-0.305,1.296-0.324,1.757c-0.069,1.698-0.997,2.764-2.581,3.021
		c-1.597,0.259-2.552-0.771-3.05-2.196c-0.524-1.497-0.854-3.077-1.52-4.505c-0.458-0.986-1.16-2.139-2.065-2.59
		c-4.718-2.347-9.532-4.501-14.324-6.695c-0.476-0.218-1.033-0.256-1.912-0.462c0.166,0.964,0.208,1.586,0.382,2.169
		c3.128,10.491,4.249,21.09,1.705,31.879c-0.362,1.537,0.503,2.092,1.722,2.471c5.924,1.842,11.908,2.332,17.962,0.731
		c5.734-1.516,10.927-4.115,15.581-7.816c1.233-0.98,2.591-1.875,4.023-2.512c1.514-0.674,3.146-0.688,4.333,0.815
		c1.136,1.438,0.868,3.023-0.24,4.171c-2.14,2.212-4.249,4.63-6.833,6.205c-9.457,5.765-19.66,8.734-30.842,6.719
		c-2.256-0.406-4.444-1.252-6.615-2.028c-1.192-0.427-2.022-0.461-2.682,0.812c-5.062,9.783-13.502,15.589-23.33,19.752
		c-2.334,0.988-3.275,3.293-2.115,5.567c0.276,0.543,1.224,0.921,1.918,1.035c1.276,0.21,2.6,0.11,3.894,0.242
		c2.833,0.289,3.608,1.026,3.511,3.854c-0.194,5.708-0.522,11.412-0.842,17.114c-0.379,6.778-0.4,6.957-7.146,6.918
		c-8.376-0.049-16.778-0.095-25.117-0.774c-7.221-0.588-10.708-8-6.98-14.324c0.882-1.497,2.83-2.926,4.515-3.272
		c3.283-0.674,6.726-0.662,10.105-0.737c2.372-0.053,2.746-0.363,2.083-2.61c-0.082-0.276-0.198-0.543-0.283-0.818
		c-1.423-4.597-0.515-5.819,4.241-5.717c0.289,0.007,0.685,0.134,0.849-0.007c0.611-0.525,1.146-1.139,1.711-1.72
		c-0.679-0.317-1.408-0.986-2.027-0.896c-3.787,0.554-7.528,1.463-11.324,1.915c-12.581,1.501-24.971,0.365-37.169-3.029
		c-0.708-0.197-1.558-0.266-2.223-0.043c-0.259,0.087-0.478,1.408-0.206,1.714c0.49,0.551,1.333,0.942,2.084,1.073
		c1.418,0.245,2.876,0.269,4.319,0.363c2.121,0.139,3.158,1.276,3.078,3.381c-0.155,4.045-0.322,8.092-0.532,12.135
		c-0.154,2.961-0.417,5.916-0.572,8.876c-0.104,2.002-1.15,3.173-3.077,3.248c-10.11,0.392-20.251,1.19-30.285-0.771
		c-6.53-1.277-9.525-10.086-5.124-15.146c1.088-1.252,2.972-2.22,4.624-2.484c3.114-0.5,6.324-0.45,9.496-0.52
		c2.286-0.051,2.588-0.374,1.979-2.531c-0.332-1.18-0.718-2.368-0.837-3.576c-0.195-1.994,0.728-2.919,2.75-3.028
		c0.217-0.012,0.435-0.018,0.651-0.003c4.264,0.29,3.947-0.08,4.015-4.001c0.029-1.718-0.729-2.601-2.222-3.282
		c-7.521-3.426-14.248-7.984-19.69-14.276c-8.674-10.03-12.159-21.758-10.587-34.812c0.625-5.187,2.377-10.236,3.618-15.349
		c0.128-0.528,0.263-1.056,0.501-2.012c-1.023,0.255-1.708,0.344-2.328,0.591c-6.841,2.732-13.658,5.526-20.516,8.217
		c-2.006,0.788-2.754,2.425-3.423,4.206c-0.432,1.15-0.785,2.334-1.281,3.455c-0.583,1.317-1.716,2.308-3.072,1.67
		c-0.989-0.465-1.662-1.713-2.323-2.713c-0.259-0.393-0.103-1.061-0.165-2.066c-1.398,1.006-2.417,1.895-3.576,2.523
		c-0.974,0.529-2.134,1.112-3.172,1.045c-2.341-0.15-3.321-2.678-1.675-4.499c1.482-1.642,3.358-2.932,5.088-4.343
		c0.66-0.539,1.396-0.986,2.551-1.792c-1.084-0.365-1.742-0.661-2.431-0.802c-1.132-0.231-2.305-0.276-3.422-0.554
		c-1.663-0.412-2.651-1.44-2.455-3.286c0.187-1.771,1.449-2.782,2.951-2.514c3.298,0.589,6.646,1.29,9.731,2.541
		c2.091,0.848,3.688,0.91,5.689-0.023c8.271-3.862,16.824-6.92,25.802-8.749c1.058-0.216,2.177-1.094,2.864-1.978
		c1.814-2.336,3.368-4.873,5.1-7.277c1.579-2.193,1.619-2.231-0.738-3.478c-6.932-3.667-13.425-7.966-19.188-13.313
		c-12.733-11.812-20.049-26.426-21.666-43.651c-1.507-16.058,5.14-28.695,17.779-38.298c11.728-8.91,25.276-12.821,39.768-13.83
		c4.25-0.296,8.527-0.215,12.791-0.313c0.629-0.015,1.258-0.064,2.585-0.135c-1.025-0.836-1.55-1.327-2.135-1.731
		c-2.795-1.929-5.652-3.773-8.399-5.767c-2.09-1.517-2.078-2.46-0.842-4.758c0.459-0.853,0.542-2.068,0.4-3.062
		c-1.694-11.911-1.372-23.693,2.543-35.159c4.452-13.037,12.346-23.38,24.9-29.532c9.087-4.452,18.851-4.677,28.664-3.184
		c21.331,3.245,37.344,14.843,50.045,31.801c10.112,13.5,15.318,28.808,17.884,45.269c1.779,11.417,3.083,23.007,6.126,34.102
		c3.505,12.773,8.668,25.092,13.165,37.589c0.829,2.305,1.908,4.521,2.883,6.772c2.529,5.845,6.671,10.231,12.086,13.517
		c2.777,1.686,5.499,3.47,8.155,5.338c0.917,0.644,1.694,1.595,2.292,2.556c0.829,1.335,0.604,2.885-0.694,3.644
		c-0.863,0.504-2.512,0.655-3.295,0.157c-8.223-5.232-16.499-10.406-24.444-16.042c-7.837-5.559-15.301-11.643-22.95-17.466
		c-1.112-0.847-2.35-1.531-3.529-2.29C224.74,157.064,224.569,157.227,224.398,157.391z M251.162,169.194
		c-0.229-0.995-0.289-1.548-0.482-2.05c-1.762-4.58-3.425-9.204-5.351-13.715c-5.011-11.734-9.124-23.736-11.238-36.358
		c-1.683-10.049-3.219-20.124-4.994-30.156c-3.119-17.623-9.669-33.675-21.737-47.226c-13.859-15.562-30.922-23.828-51.96-23.523
		c-7.068,0.102-13.556,1.663-19.36,5.875c-6.449,4.681-11.595,10.436-15.005,17.651c-6.57,13.903-6.897,28.466-4.476,43.317
		c0.28,1.72,1.038,2.924,2.517,3.802c4.722,2.806,9.39,5.703,14.131,8.475c16.095,9.412,32.308,18.627,48.282,28.239
		c8.413,5.062,16.255,11.074,24.657,16.156c14.785,8.942,29.817,17.477,43.227,28.496
		C249.776,168.509,250.291,168.706,251.162,169.194z M186.261,174.869c-2.886,1.709-5.355,3.533-8.1,4.727
		c-7.688,3.343-15.272,0.881-19.39-6.021c-6.474-10.848-1.563-23.637,10.674-27.199c6.656-1.938,13.206-2.018,18.455,3.698
		c0.919,1.001,1.753,0.74,2.568-0.143c2.507-2.72,5.574-4.553,9.058-5.743c0.417-0.143,0.753-0.522,1.518-1.075
		c-9.609-6.205-18.302-13.162-28.429-18.696c0,1.164-0.034,1.795,0.006,2.421c0.353,5.535-2.465,10.181-7.342,12.083
		c-5.209,2.031-11.287,0.586-14.646-3.481c-5.074-6.145-3.808-15.921,2.658-20.601c0.384-0.278,0.706-0.642,1.186-1.084
		c-0.55-0.465-0.932-0.901-1.407-1.171c-5.845-3.318-11.693-6.628-17.569-9.89c-0.738-0.409-1.622-0.656-2.466-0.763
		c-14.626-1.846-29.166-1.63-43.497,2.187c-8.233,2.192-16.125,5.267-22.666,10.911c-10.462,9.029-14.429,20.578-12.743,34.201
		c1.945,15.721,9.077,28.65,21.063,38.892c12.575,10.744,27.266,17.285,43.213,21.161c15.544,3.778,31.159,4.637,46.765,0.392
		c12.875-3.502,23.442-10.354,30.799-21.745c1.129-1.749,0.925-2.755-0.951-3.738c-3.28-1.72-5.723-4.366-7.588-7.555
		C187.075,176.028,186.653,175.46,186.261,174.869z M92.82,262.144c-0.01-0.146-0.02-0.293-0.029-0.44
		c0.521-0.082,1.045-0.247,1.563-0.233c4.835,0.134,9.67,0.265,14.502,0.459c16.981,0.682,33.957,1.637,50.944,2.005
		c12.934,0.28,25.882-0.201,38.824-0.273c2.237-0.012,3.434-0.947,3.561-3.123c0.26-4.46,0.626-8.924,0.599-13.385
		c-0.02-3.285-0.345-3.324-3.642-3.328c-17.434-0.019-34.867,0.041-52.299-0.104c-20.542-0.171-41.083-0.523-61.624-0.796
		c-2.732-0.037-3.488,0.489-3.228,3.281c0.393,4.226,1.149,8.419,1.822,12.615c0.271,1.689,1.477,2.353,3.111,2.445
		c0.829,0.047,1.649,0.243,2.474,0.371c-0.279,0.423-0.485,0.498-0.696,0.511c-3.667,0.209-3.834,0.506-2.2,3.73
		c3.723,7.343,9.401,12.756,16.58,16.624c1.291,0.695,2.832,1.217,4.28,1.276c6.864,0.28,13.735,0.4,20.605,0.528
		c13.09,0.241,26.182,0.417,39.271,0.705c2.01,0.044,2.991-0.581,3.021-2.64c0.011-0.783,0.054-1.718,0.474-2.305
		c0.529-0.741,1.447-1.631,2.218-1.652c0.76-0.02,1.83,0.808,2.248,1.553c0.499,0.889,0.297,2.146,0.685,3.13
		c0.304,0.77,1.003,1.906,1.597,1.95c2.708,0.204,5.489,0.56,8.022-0.997c6.127-3.764,10.956-8.701,14.009-15.277
		c1.767-3.806,1.549-4.175-2.581-3.994c-20.837,0.909-41.652,0.146-62.467-0.755c-11.992-0.52-23.984-1.021-35.977-1.541
		C96.597,262.401,94.709,262.259,92.82,262.144z M151.25,242.874c10.182,0,29.195-0.001,48.21,0.002
		c2.401,0,2.944-0.473,2.363-2.794c-0.996-3.979-2.184-7.913-3.38-11.839c-0.217-0.713-0.718-1.594-1.331-1.889
		c-3.153-1.512-6.114-3.357-9.912-3.338c-23.347,0.112-46.695,0.093-70.043,0.047c-8.747-0.017-17.495-0.169-26.24-0.371
		c-2.489-0.057-4.177,0.624-4.849,3.208c-1.088,4.181-2.385,8.312-3.369,12.516c-0.734,3.133-0.267,3.564,2.902,3.606
		C104.539,242.271,123.478,242.515,151.25,242.874z M193.156,218.062c0,0.165,0.088-0.108-0.013-0.246
		c-2.583-3.553-5.13-7.135-7.853-10.579c-0.346-0.437-1.74-0.412-2.451-0.119c-1.659,0.684-3.162,1.734-4.79,2.506
		c-17.721,8.395-36.337,9.68-55.295,6.151c-7.828-1.457-15.395-4.34-23.06-6.642c-1.376-0.413-2.664-0.97-3.687,0.497
		c-2.31,3.312-4.621,6.624-6.849,9.991c-0.954,1.44-0.269,2.135,1.314,2.162c0.723,0.012,1.446,0.026,2.169,0.035
		c18.724,0.227,37.447,0.553,56.172,0.646c12.651,0.062,25.303-0.187,37.954-0.354c0.948-0.013,2.041-0.266,2.802-0.79
		C190.812,220.463,191.839,219.289,193.156,218.062z M176.8,146.619c-11.279,0.143-21.526,7.558-18.979,20.394
		c1.519,7.652,6.883,12.701,13.772,12.623c4.921-0.056,9.13-2.094,12.535-5.578c0.727-0.743,1.182-2.247,1.018-3.282
		c-0.891-5.582-0.484-10.945,2.065-16.046c0.799-1.599,0.472-2.903-0.703-4.134C183.724,147.678,180.203,146.675,176.8,146.619z
		 M107.6,322.529c0.005-0.17,0.01-0.339,0.016-0.507c3.395,0,6.789,0.01,10.184-0.007c1.217-0.006,2.307-0.137,2.387-1.799
		c0.236-4.905,0.519-9.809,0.84-14.709c0.104-1.58-0.513-2.258-2.093-2.254c-2.672,0.008-5.347-0.02-8.018-0.117
		c-4.326-0.158-4.325-0.188-3.232,3.955c0.944,3.582-0.085,4.768-3.822,4.572c-3.239-0.169-6.499-0.45-9.723-0.254
		c-3.136,0.192-5.035,2.611-5.068,5.704c-0.03,2.77,1.378,4.232,4.925,4.56C98.518,322.09,103.063,322.256,107.6,322.529z
		 M167.711,323.615c0.007-0.19,0.015-0.38,0.021-0.57c3.543,0,7.086-0.006,10.628,0.003c1.357,0.003,2.168-0.483,2.241-2.001
		c0.235-4.84,0.521-9.678,0.828-14.514c0.099-1.555-0.492-2.274-2.097-2.273c-3.399,0.001-6.799-0.062-10.198-0.135
		c-1.454-0.03-2.026,0.56-1.585,1.993c0.148,0.482,0.317,0.96,0.463,1.443c1.271,4.237,0.195,5.448-4.141,5.128
		c-3.302-0.244-6.647-0.353-9.941-0.106c-2.661,0.198-4.438,2.921-4.364,5.868c0.062,2.515,1.253,3.841,4.318,4.151
		C158.48,323.068,163.101,323.29,167.711,323.615z M109.866,285.056c-0.032,0.2-0.063,0.401-0.094,0.602
		c0.21,0.185,0.397,0.413,0.637,0.543c0.506,0.273,1.032,0.514,1.563,0.733c9.028,3.733,18.434,5.857,28.176,6.401
		c9.206,0.514,18.342-0.03,27.367-2.09c2.099-0.479,2.336-1.863,2.203-3.569c-0.14-1.794-1.504-1.631-2.737-1.652
		c-17.921-0.322-35.843-0.646-53.765-0.966C112.101,285.038,110.983,285.056,109.866,285.056z M217.478,153.982
		c0.316,0.687,0.625,1.376,0.949,2.06c2.391,5.039,2.935,10.258,1.399,15.63c-1.784,6.238-6.633,10.269-12.572,10.57
		c-11.604,0.588-19.42-8.29-17.47-19.845c1.436-8.507,6.877-13.596,15.428-14.445c0.549-0.054,1.087-0.198,1.879-0.347
		c-2.253-2.12-4.5-2.903-7.298-2.002c-7.261,2.337-11.294,7.585-13.027,14.695c-2.729,11.195,2.946,21.519,13.194,24.397
		c11.15,3.132,20.519-2.043,23.308-12.948c1.097-4.287,0.863-8.57-0.181-12.875C222.386,155.983,220.527,154.532,217.478,153.982z
		 M204.305,158.265c-0.145-1.354-0.421-3.866-0.674-6.379c-0.193-1.92-1.233-2.22-2.873-1.618c-5.242,1.923-8.049,5.861-9.277,11.12
		c-1.653,7.081,0.797,13.918,6.151,17.186c2.007,1.224,2.523,1.062,3.317-1.112C203.073,171.642,204.184,165.633,204.305,158.265z
		 M209.502,158.102c-0.055,7.666-1.143,14.032-3.327,20.213c-0.812,2.295-0.498,2.668,1.975,2.359
		c4.026-0.501,6.996-2.634,8.887-6.154c2.441-4.544,2.666-9.362,1.387-14.297c-1.037-4.006-3.031-7.328-6.825-9.283
		c-0.647-0.333-1.47-0.326-2.211-0.476c-0.102,0.684-0.316,1.373-0.282,2.05C209.216,154.748,209.418,156.977,209.502,158.102z
		 M152.465,127.746c0.253,4.489,3.86,7.585,8.379,7.461c4.186-0.115,7.323-3.385,7.267-7.572c-0.062-4.641-4.068-8.799-8.604-8.931
		c-3.72-0.107-6.506,2.536-6.678,6.333c3.032-2.556,5.582-2.888,7.329-0.954c1.318,1.461,1.021,3.655-0.702,5.162
		C157.337,131.099,155.231,130.697,152.465,127.746z"/>
	<path fill-rule="evenodd" clip-rule="evenodd" fill="#FFFFFF" d="M251.162,169.194c-0.871-0.488-1.386-0.685-1.79-1.017
		c-13.409-11.02-28.441-19.554-43.227-28.496c-8.402-5.083-16.244-11.094-24.657-16.156c-15.975-9.611-32.187-18.827-48.282-28.239
		c-4.741-2.772-9.409-5.669-14.131-8.475c-1.479-0.878-2.236-2.082-2.517-3.802c-2.421-14.851-2.094-29.414,4.476-43.317
		c3.41-7.216,8.556-12.971,15.005-17.651c5.804-4.212,12.292-5.773,19.36-5.875c21.038-0.304,38.101,7.962,51.96,23.523
		c12.068,13.551,18.618,29.603,21.737,47.226c1.775,10.032,3.312,20.106,4.994,30.156c2.114,12.622,6.228,24.624,11.238,36.358
		c1.926,4.511,3.589,9.135,5.351,13.715C250.873,167.646,250.934,168.199,251.162,169.194z M142.714,58.177
		c2.897,0,5.746,0.182,8.548-0.098c0.986-0.098,2.311-1.137,2.7-2.071c1.27-3.048,3.403-4.91,6.444-5.977
		c1.146-0.402,2.247-1.011,3.267-1.68c3.069-2.014,4.361-5.279,3.522-8.845c-0.862-3.659-2.873-6.571-5.867-8.84
		c-4.735-3.59-9.836-2.78-14.847-1.003c-4.315,1.53-6.593,5.022-5.744,9.516c0.753,3.988,1.075,7.733-0.299,11.607
		c-0.362,1.021-0.055,2.279-0.055,3.428c-0.286,0.075-0.571,0.149-0.856,0.225c-1.066-1.913-2.313-3.751-3.15-5.76
		c-0.922-2.213-2.179-3.554-3.908-3.434c-1.815,0.126-3.444,1.645-3.781,3.637c-0.349,2.065,0.239,3.651,2.301,4.61
		c0.871,0.405,1.73,1.089,2.286,1.868c1.802,2.526,3.439,5.17,5.186,7.737c0.823,1.209,0.621,2.156-0.765,2.466
		c-1.955,0.437-3.96,0.675-5.957,0.879c-1.288,0.132-2.626-0.118-3.889,0.105c-1.859,0.328-3.158,1.484-3.402,3.449
		c-0.258,2.076,0.639,3.699,2.438,4.693c1.71,0.944,3.144,0.262,4.5-0.971c0.715-0.65,1.627-1.194,2.546-1.484
		c2.543-0.804,5.117-1.54,7.721-2.107c0.867-0.188,2.242-0.131,2.735,0.408c2.232,2.442,4.761,4.836,6.188,7.738
		c1.972,4.008,7.334,3.229,9.316,0.261c1.616-2.418,0.583-5.481-2.265-5.565c-3.322-0.098-4.771-2.21-6.515-4.3
		c-1.076-1.29-0.781-2.036,0.739-2.497c1.865-0.565,3.74-1.103,5.585-1.728c1.739-0.589,3.302-0.58,4.95,0.461
		c1.785,1.127,3.605,0.792,5.166-0.658c2.002-1.86,2.159-4.683,0.398-6.831c-1.842-2.246-4.783-2.524-7.205-0.931
		c-1.465,0.963-3.119,1.683-4.765,2.312c-2.221,0.85-4.536,1.45-6.773,2.262C145.271,62.489,144.085,61.948,142.714,58.177z"/>
	<path fill-rule="evenodd" clip-rule="evenodd" fill="#FFFFFF" d="M186.261,174.869c0.393,0.591,0.814,1.159,1.169,1.767
		c1.865,3.188,4.308,5.835,7.588,7.555c1.876,0.983,2.08,1.989,0.951,3.738c-7.356,11.392-17.924,18.243-30.799,21.745
		c-15.606,4.245-31.221,3.387-46.765-0.392c-15.947-3.876-30.638-10.417-43.213-21.161c-11.986-10.241-19.118-23.17-21.063-38.892
		c-1.686-13.624,2.281-25.172,12.743-34.201c6.54-5.644,14.433-8.719,22.666-10.911c14.332-3.816,28.871-4.032,43.497-2.187
		c0.844,0.106,1.728,0.354,2.466,0.763c5.876,3.262,11.725,6.572,17.569,9.89c0.476,0.27,0.857,0.707,1.407,1.171
		c-0.479,0.442-0.802,0.806-1.186,1.084c-6.466,4.68-7.732,14.457-2.658,20.601c3.358,4.067,9.437,5.513,14.646,3.481
		c4.877-1.901,7.694-6.548,7.342-12.083c-0.04-0.626-0.006-1.257-0.006-2.421c10.127,5.534,18.819,12.491,28.429,18.696
		c-0.765,0.553-1.101,0.932-1.518,1.075c-3.483,1.19-6.551,3.023-9.058,5.743c-0.815,0.883-1.649,1.144-2.568,0.143
		c-5.249-5.716-11.799-5.636-18.455-3.698c-12.237,3.562-17.147,16.351-10.674,27.199c4.117,6.901,11.702,9.363,19.39,6.021
		C180.905,178.402,183.375,176.578,186.261,174.869z M80.771,144.784c3.524-0.197,7.28-1.077,10.602-3.351
		c4.737-3.243,6.705-7.912,5.202-13.336c-1.886-6.808-6.101-11.753-12.85-14.177c-7.123-2.558-14.697,0.376-17.995,6.775
		C59.931,131.95,67.712,144.782,80.771,144.784z M131.405,130.725c6.806,0.048,11.592-4.595,11.628-11.28
		c0.038-7.087-5.573-12.786-12.728-12.926c-6.634-0.13-12.403,5.341-12.482,11.838C117.743,125.001,123.972,130.672,131.405,130.725
		z M125.065,191.956c8.097-0.08,15.01-2.03,20.219-7.85c1.73-1.934,2.889-4.453,3.946-6.864c0.291-0.662-0.485-2.293-1.224-2.751
		c-0.614-0.381-2.065,0.058-2.827,0.589c-0.837,0.584-1.3,1.697-1.941,2.569c-5.98,8.126-14.259,10.5-23.76,8.957
		c-8.382-1.361-13.862-6.354-16.17-14.644c-0.344-1.237-0.95-2.675-2.415-2.021c-0.763,0.34-1.435,1.973-1.341,2.944
		c0.323,3.346,1.514,6.45,3.652,9.118C108.947,189.169,116.765,191.666,125.065,191.956z"/>
	<path fill-rule="evenodd" clip-rule="evenodd" fill="#FFFFFF" d="M92.82,262.144c1.889,0.115,3.777,0.258,5.667,0.34
		c11.992,0.521,23.984,1.021,35.977,1.541c20.814,0.901,41.63,1.664,62.467,0.755c4.13-0.181,4.348,0.188,2.581,3.994
		c-3.053,6.576-7.882,11.514-14.009,15.277c-2.533,1.557-5.314,1.201-8.022,0.997c-0.594-0.044-1.293-1.181-1.597-1.95
		c-0.388-0.984-0.186-2.241-0.685-3.13c-0.418-0.745-1.488-1.572-2.248-1.553c-0.771,0.021-1.688,0.911-2.218,1.652
		c-0.42,0.587-0.463,1.521-0.474,2.305c-0.03,2.059-1.012,2.684-3.021,2.64c-13.089-0.288-26.181-0.464-39.271-0.705
		c-6.87-0.128-13.741-0.248-20.605-0.528c-1.448-0.06-2.989-0.581-4.28-1.276c-7.179-3.868-12.857-9.281-16.58-16.624
		c-1.635-3.225-1.467-3.521,2.2-3.73c0.21-0.013,0.417-0.088,0.696-0.511c-0.824-0.128-1.645-0.324-2.474-0.371
		c-1.634-0.093-2.84-0.756-3.111-2.445c-0.673-4.196-1.429-8.39-1.822-12.615c-0.26-2.792,0.496-3.318,3.228-3.281
		c20.541,0.272,41.082,0.625,61.624,0.796c17.432,0.146,34.866,0.086,52.299,0.104c3.297,0.004,3.622,0.043,3.642,3.328
		c0.027,4.461-0.339,8.925-0.599,13.385c-0.127,2.176-1.323,3.111-3.561,3.123c-12.942,0.072-25.891,0.554-38.824,0.273
		c-16.987-0.368-33.962-1.323-50.944-2.005c-4.833-0.194-9.667-0.325-14.502-0.459c-0.519-0.014-1.042,0.151-1.563,0.233
		C92.801,261.851,92.811,261.997,92.82,262.144z"/>
	<path fill-rule="evenodd" clip-rule="evenodd" fill="#FFFFFF" d="M151.25,242.874c-27.772-0.359-46.711-0.603-65.649-0.852
		c-3.169-0.042-3.636-0.474-2.902-3.606c0.984-4.204,2.281-8.335,3.369-12.516c0.672-2.584,2.36-3.265,4.849-3.208
		c8.745,0.202,17.493,0.354,26.24,0.371c23.348,0.046,46.697,0.065,70.043-0.047c3.798-0.02,6.759,1.826,9.912,3.338
		c0.613,0.295,1.114,1.176,1.331,1.889c1.196,3.926,2.384,7.859,3.38,11.839c0.581,2.321,0.038,2.794-2.363,2.794
		C180.445,242.873,161.432,242.874,151.25,242.874z"/>
	<path fill-rule="evenodd" clip-rule="evenodd" fill="#FFFFFF" d="M193.156,218.062c-1.317,1.228-2.344,2.401-3.587,3.259
		c-0.761,0.524-1.854,0.777-2.802,0.79c-12.65,0.167-25.303,0.416-37.954,0.354c-18.725-0.093-37.448-0.419-56.172-0.646
		c-0.723-0.009-1.446-0.023-2.169-0.035c-1.583-0.027-2.268-0.722-1.314-2.162c2.229-3.367,4.539-6.68,6.849-9.991
		c1.023-1.467,2.311-0.91,3.687-0.497c7.666,2.302,15.232,5.185,23.06,6.642c18.958,3.528,37.574,2.243,55.295-6.151
		c1.628-0.771,3.131-1.822,4.79-2.506c0.711-0.293,2.105-0.317,2.451,0.119c2.723,3.444,5.27,7.026,7.853,10.579
		C193.244,217.953,193.156,218.227,193.156,218.062z"/>
	<path fill-rule="evenodd" clip-rule="evenodd" fill="#FFFFFF" d="M176.8,146.619c3.403,0.057,6.924,1.059,9.708,3.978
		c1.175,1.231,1.502,2.535,0.703,4.134c-2.55,5.101-2.956,10.464-2.065,16.046c0.164,1.035-0.291,2.539-1.018,3.282
		c-3.405,3.484-7.614,5.522-12.535,5.578c-6.89,0.078-12.254-4.971-13.772-12.623C155.273,154.176,165.521,146.762,176.8,146.619z"
		/>
	<path fill-rule="evenodd" clip-rule="evenodd" fill="#FFFFFF" d="M107.6,322.529c-4.536-0.273-9.082-0.439-13.605-0.855
		c-3.546-0.327-4.955-1.79-4.925-4.56c0.033-3.093,1.932-5.512,5.068-5.704c3.224-0.196,6.484,0.085,9.723,0.254
		c3.736,0.195,4.766-0.99,3.822-4.572c-1.092-4.143-1.094-4.113,3.232-3.955c2.671,0.098,5.345,0.125,8.018,0.117
		c1.58-0.004,2.197,0.674,2.093,2.254c-0.321,4.9-0.604,9.804-0.84,14.709c-0.08,1.662-1.17,1.793-2.387,1.799
		c-3.395,0.017-6.789,0.007-10.184,0.007C107.61,322.19,107.605,322.359,107.6,322.529z"/>
	<path fill-rule="evenodd" clip-rule="evenodd" fill="#FFFFFF" d="M167.711,323.615c-4.61-0.325-9.23-0.547-13.826-1.013
		c-3.065-0.311-4.256-1.637-4.318-4.151c-0.074-2.947,1.703-5.67,4.364-5.868c3.294-0.246,6.64-0.138,9.941,0.106
		c4.336,0.32,5.411-0.891,4.141-5.128c-0.146-0.483-0.314-0.961-0.463-1.443c-0.441-1.434,0.131-2.023,1.585-1.993
		c3.399,0.072,6.799,0.136,10.198,0.135c1.604-0.001,2.195,0.719,2.097,2.273c-0.308,4.836-0.593,9.674-0.828,14.514
		c-0.073,1.518-0.884,2.004-2.241,2.001c-3.542-0.009-7.085-0.003-10.628-0.003C167.726,323.235,167.718,323.425,167.711,323.615z"
		/>
	<path fill-rule="evenodd" clip-rule="evenodd" fill="#FFFFFF" d="M109.866,285.056c1.117,0,2.234-0.018,3.351,0.002
		c17.922,0.319,35.844,0.644,53.765,0.966c1.233,0.021,2.598-0.142,2.737,1.652c0.133,1.706-0.104,3.091-2.203,3.569
		c-9.024,2.06-18.161,2.604-27.367,2.09c-9.742-0.544-19.148-2.668-28.176-6.401c-0.532-0.22-1.058-0.46-1.563-0.733
		c-0.24-0.13-0.427-0.358-0.637-0.543C109.803,285.457,109.834,285.256,109.866,285.056z"/>
	<path fill-rule="evenodd" clip-rule="evenodd" fill="#FFFFFF" d="M217.478,153.982c3.05,0.549,4.908,2,5.609,4.891
		c1.044,4.306,1.277,8.589,0.181,12.875c-2.789,10.905-12.157,16.08-23.308,12.948c-10.248-2.879-15.924-13.203-13.194-24.397
		c1.733-7.11,5.767-12.358,13.027-14.695c2.798-0.901,5.045-0.118,7.298,2.002c-0.792,0.149-1.33,0.293-1.879,0.347
		c-8.551,0.849-13.992,5.938-15.428,14.445c-1.95,11.555,5.865,20.433,17.47,19.845c5.939-0.301,10.788-4.332,12.572-10.57
		c1.535-5.372,0.991-10.592-1.399-15.63C218.103,155.359,217.794,154.669,217.478,153.982z"/>
	<path fill-rule="evenodd" clip-rule="evenodd" fill="#FFFFFF" d="M204.305,158.265c-0.121,7.369-1.231,13.377-3.355,19.196
		c-0.794,2.175-1.311,2.336-3.317,1.112c-5.354-3.268-7.805-10.105-6.151-17.186c1.229-5.259,4.035-9.197,9.277-11.12
		c1.64-0.602,2.68-0.302,2.873,1.618C203.884,154.399,204.16,156.91,204.305,158.265z"/>
	<path fill-rule="evenodd" clip-rule="evenodd" fill="#FFFFFF" d="M209.502,158.102c-0.084-1.125-0.286-3.354-0.397-5.587
		c-0.034-0.677,0.181-1.366,0.282-2.05c0.741,0.15,1.563,0.142,2.211,0.476c3.794,1.955,5.788,5.277,6.825,9.283
		c1.279,4.935,1.055,9.753-1.387,14.297c-1.891,3.52-4.86,5.653-8.887,6.154c-2.473,0.309-2.786-0.064-1.975-2.359
		C208.359,172.134,209.447,165.767,209.502,158.102z"/>
	<path fill-rule="evenodd" clip-rule="evenodd" fill="#FFFFFF" d="M152.465,127.746c2.767,2.951,4.872,3.353,6.991,1.5
		c1.723-1.507,2.021-3.701,0.702-5.162c-1.747-1.934-4.297-1.602-7.329,0.954c0.172-3.798,2.958-6.441,6.678-6.333
		c4.535,0.131,8.541,4.29,8.604,8.931c0.057,4.188-3.081,7.458-7.267,7.572C156.325,135.332,152.718,132.235,152.465,127.746z"/>
	<path fill-rule="evenodd" clip-rule="evenodd" d="M142.714,58.177c1.371,3.771,2.556,4.312,6.496,2.883
		c2.237-0.812,4.553-1.412,6.773-2.262c1.646-0.629,3.3-1.349,4.765-2.312c2.422-1.593,5.363-1.315,7.205,0.931
		c1.761,2.148,1.604,4.97-0.398,6.831c-1.561,1.45-3.381,1.785-5.166,0.658c-1.648-1.041-3.211-1.05-4.95-0.461
		c-1.845,0.625-3.72,1.163-5.585,1.728c-1.521,0.461-1.815,1.207-0.739,2.497c1.743,2.09,3.192,4.203,6.515,4.3
		c2.848,0.083,3.881,3.147,2.265,5.565c-1.982,2.968-7.345,3.748-9.316-0.261c-1.428-2.901-3.956-5.295-6.188-7.738
		c-0.493-0.539-1.868-0.597-2.735-0.408c-2.604,0.567-5.178,1.303-7.721,2.107c-0.918,0.29-1.831,0.834-2.546,1.484
		c-1.356,1.233-2.789,1.915-4.5,0.971c-1.799-0.994-2.695-2.617-2.438-4.693c0.244-1.964,1.543-3.121,3.402-3.449
		c1.263-0.223,2.602,0.026,3.889-0.105c1.996-0.205,4.002-0.442,5.957-0.879c1.386-0.31,1.588-1.256,0.765-2.466
		c-1.747-2.567-3.384-5.211-5.186-7.737c-0.556-0.778-1.416-1.463-2.286-1.868c-2.062-0.959-2.649-2.545-2.301-4.61
		c0.336-1.992,1.965-3.51,3.781-3.637c1.729-0.12,2.986,1.221,3.908,3.434c0.836,2.009,2.083,3.847,3.15,5.76
		c0.286-0.075,0.571-0.15,0.856-0.225c0-1.149-0.307-2.408,0.055-3.428c1.374-3.874,1.053-7.619,0.299-11.607
		c-0.849-4.494,1.429-7.986,5.744-9.516c5.011-1.777,10.111-2.587,14.847,1.003c2.994,2.269,5.005,5.181,5.867,8.84
		c0.839,3.566-0.453,6.831-3.522,8.845c-1.02,0.669-2.12,1.278-3.267,1.68c-3.041,1.067-5.175,2.929-6.444,5.977
		c-0.39,0.934-1.714,1.973-2.7,2.071C148.46,58.358,145.612,58.177,142.714,58.177z M130.273,67.762
		c-0.775,0-1.344-0.178-1.617,0.032c-1.012,0.775-2.377,1.528-2.728,2.582c-0.255,0.77,0.625,2.33,1.444,2.948
		c1.262,0.954,2.359-0.036,3.326-1.057c0.562-0.594,1.347-1.109,2.126-1.34c3.033-0.901,6.091-1.732,9.171-2.454
		c0.819-0.193,2.125-0.256,2.568,0.219c2.607,2.792,5.22,5.622,7.441,8.718c1.677,2.337,4.284,2.99,6.15,0.795
		c0.557-0.654,0.922-1.907,0.681-2.666c-0.198-0.624-1.475-1.366-2.183-1.283c-2.31,0.271-3.656-0.858-4.874-2.539
		c-0.803-1.11-1.75-2.118-2.651-3.154c-1.62-1.862-1.5-2.461,0.934-3.258c2.746-0.899,5.546-1.631,8.311-2.476
		c1.608-0.491,3.015-0.45,4.491,0.61c1.725,1.237,3.848,0.444,4.57-1.533c0.657-1.795,0.107-3.285-1.453-4.348
		c-1.552-1.057-3.062-1.009-4.579,0.208c-0.923,0.74-1.92,1.506-3.013,1.892c-2.312,0.815-4.736,1.299-7.062,2.076
		c-6.584,2.199-6.684,2.304-10.57-3.489c-2.188-3.26-5.208-6.02-6.202-10.075c-0.164-0.667-1.737-1.628-2.258-1.426
		c-0.9,0.351-1.909,1.428-2.083,2.349c-0.167,0.89,0.451,2.144,1.101,2.923c1.156,1.387,2.774,2.397,3.878,3.815
		c1.858,2.386,3.416,5.001,5.192,7.453c1.287,1.777,1.194,2.259-0.922,3.117C136.396,67.644,133.256,68.342,130.273,67.762z
		 M153.085,29.483c-7.683,0.199-13.501,4.955-10.211,13.16c0.664,1.654,0.587,3.153-0.083,4.799
		c-0.537,1.315-0.876,2.771-0.983,4.189c-0.2,2.671,1.262,4.668,3.57,5.251c3.692,0.932,6.709,0.01,7.861-2.525
		c1.075-2.364,2.75-4.016,5.165-4.963c1.075-0.421,2.128-0.908,3.156-1.434c3.923-2.005,5.155-4.901,3.94-9.168
		C163.926,33.268,159.192,29.718,153.085,29.483z"/>
	<path fill-rule="evenodd" clip-rule="evenodd" d="M80.771,144.784c-13.059-0.002-20.84-12.834-15.041-24.089
		c3.297-6.399,10.872-9.333,17.995-6.775c6.749,2.424,10.963,7.369,12.85,14.177c1.503,5.424-0.465,10.093-5.202,13.336
		C88.051,143.708,84.295,144.587,80.771,144.784z"/>
	<path fill-rule="evenodd" clip-rule="evenodd" d="M131.405,130.725c-7.433-0.053-13.662-5.724-13.582-12.368
		c0.079-6.497,5.848-11.968,12.482-11.838c7.154,0.14,12.765,5.838,12.728,12.926C142.998,126.13,138.211,130.773,131.405,130.725z
		 M123.652,119.856c0.302,3.181,3.315,5.481,7.37,5.828c3.541,0.302,6.067-1.232,6.918-4.202c1.064-3.711-0.474-7.731-3.58-9.357
		c-2.671-1.399-6.745-0.413-8.803,2.267c2.486-0.3,5.03-0.706,6.024,2.26c0.603,1.8-0.333,3.248-1.744,4.311
		C128.078,122.287,126.572,122.002,123.652,119.856z"/>
	<path fill-rule="evenodd" clip-rule="evenodd" d="M125.065,191.956c-8.3-0.29-16.118-2.787-21.862-9.953
		c-2.138-2.668-3.329-5.772-3.652-9.118c-0.094-0.971,0.579-2.604,1.341-2.944c1.465-0.653,2.071,0.785,2.415,2.021
		c2.308,8.29,7.788,13.283,16.17,14.644c9.501,1.543,17.78-0.831,23.76-8.957c0.641-0.872,1.104-1.985,1.941-2.569
		c0.762-0.532,2.213-0.97,2.827-0.589c0.738,0.458,1.515,2.089,1.224,2.751c-1.057,2.411-2.215,4.931-3.946,6.864
		C140.076,189.926,133.163,191.876,125.065,191.956z"/>
	<path fill-rule="evenodd" clip-rule="evenodd" fill="#FFFFFF" d="M130.273,67.762c2.983,0.581,6.123-0.118,9.19-1.36
		c2.116-0.858,2.209-1.34,0.922-3.117c-1.777-2.452-3.334-5.067-5.192-7.453c-1.104-1.418-2.722-2.429-3.878-3.815
		c-0.65-0.78-1.269-2.034-1.101-2.923c0.174-0.921,1.183-1.998,2.083-2.349c0.521-0.203,2.095,0.759,2.258,1.426
		c0.994,4.056,4.014,6.815,6.202,10.075c3.887,5.793,3.986,5.688,10.57,3.489c2.326-0.777,4.751-1.261,7.062-2.076
		c1.093-0.385,2.09-1.151,3.013-1.892c1.517-1.217,3.027-1.265,4.579-0.208c1.561,1.063,2.11,2.553,1.453,4.348
		c-0.723,1.978-2.846,2.771-4.57,1.533c-1.477-1.06-2.883-1.101-4.491-0.61c-2.765,0.845-5.564,1.577-8.311,2.476
		c-2.433,0.797-2.553,1.396-0.934,3.258c0.901,1.036,1.849,2.044,2.651,3.154c1.218,1.681,2.564,2.811,4.874,2.539
		c0.708-0.083,1.984,0.659,2.183,1.283c0.241,0.758-0.124,2.012-0.681,2.666c-1.866,2.195-4.474,1.542-6.15-0.795
		c-2.222-3.096-4.834-5.925-7.441-8.718c-0.443-0.475-1.75-0.412-2.568-0.219c-3.08,0.722-6.138,1.553-9.171,2.454
		c-0.78,0.231-1.564,0.747-2.126,1.34c-0.966,1.021-2.063,2.011-3.326,1.057c-0.819-0.619-1.699-2.178-1.444-2.948
		c0.35-1.054,1.716-1.807,2.728-2.582C128.929,67.584,129.498,67.762,130.273,67.762z"/>
	<path fill-rule="evenodd" clip-rule="evenodd" fill="#FFFFFF" d="M153.085,29.483c6.107,0.235,10.841,3.785,12.415,9.31
		c1.215,4.267-0.018,7.163-3.94,9.168c-1.028,0.526-2.081,1.012-3.156,1.434c-2.415,0.947-4.09,2.6-5.165,4.963
		c-1.152,2.535-4.169,3.457-7.861,2.525c-2.308-0.583-3.77-2.58-3.57-5.251c0.107-1.418,0.447-2.874,0.983-4.189
		c0.67-1.646,0.747-3.145,0.083-4.799C139.584,34.438,145.402,29.683,153.085,29.483z M145.96,45.888
		c-0.224,0.171-0.449,0.342-0.673,0.514c0.713,0.787,1.282,1.898,2.169,2.292c1.698,0.755,3.78,1.866,5.337,1.453
		c2.86-0.758,5.489-2.453,8.155-3.871c2.377-1.264,3.073-2.876,2.656-5.57c-0.962-6.216-6.309-9.968-12.592-8.837
		c-6.207,1.118-8.063,4.138-6.235,10.145C145.17,43.306,145.566,44.597,145.96,45.888z M147.304,55.083
		c0.983-0.125,1.395-0.069,1.68-0.234c0.65-0.377,1.238-0.861,1.852-1.302c-0.48-0.557-0.886-1.216-1.462-1.644
		c-0.68-0.504-1.476-0.909-2.282-1.17c-0.737-0.238-1.555-0.229-2.338-0.328c-0.021,0.941-0.414,2.145,0.023,2.764
		C145.439,54.106,146.678,54.639,147.304,55.083z"/>
	<path fill-rule="evenodd" clip-rule="evenodd" fill="#FFFFFF" d="M123.652,119.856c2.92,2.146,4.426,2.431,6.186,1.106
		c1.411-1.063,2.347-2.51,1.744-4.311c-0.994-2.965-3.538-2.56-6.024-2.26c2.058-2.679,6.132-3.666,8.803-2.267
		c3.105,1.626,4.644,5.646,3.58,9.357c-0.851,2.97-3.378,4.504-6.918,4.202C126.967,125.337,123.954,123.037,123.652,119.856z"/>
	<path fill-rule="evenodd" clip-rule="evenodd" d="M145.96,45.888c-0.394-1.291-0.79-2.582-1.183-3.874
		c-1.828-6.007,0.028-9.027,6.235-10.145c6.283-1.131,11.63,2.621,12.592,8.837c0.417,2.693-0.279,4.306-2.656,5.57
		c-2.666,1.417-5.295,3.113-8.155,3.871c-1.558,0.413-3.639-0.698-5.337-1.453c-0.887-0.394-1.456-1.505-2.169-2.292
		C145.511,46.23,145.736,46.059,145.96,45.888z M153.216,32.961c-0.302,0.043-0.947,0.111-1.584,0.231
		c-5.782,1.09-7.177,3.477-5.314,9.018c0.388,1.152,0.785,2.318,0.998,3.51c0.365,2.04,3.393,3.839,5.313,2.973
		c2.496-1.127,5.041-2.203,7.367-3.625c1.01-0.617,2.088-2.001,2.168-3.106C162.507,37.198,158.338,33.008,153.216,32.961z"/>
	<path fill-rule="evenodd" clip-rule="evenodd" d="M147.304,55.083c-0.625-0.444-1.864-0.977-2.527-1.915
		c-0.437-0.619-0.044-1.822-0.023-2.764c0.783,0.1,1.601,0.09,2.338,0.328c0.806,0.262,1.602,0.666,2.282,1.17
		c0.576,0.428,0.981,1.087,1.462,1.644c-0.613,0.441-1.201,0.925-1.852,1.302C148.698,55.014,148.287,54.958,147.304,55.083z"/>
	<path fill-rule="evenodd" clip-rule="evenodd" fill="#FFFFFF" d="M153.216,32.961c5.122,0.047,9.291,4.237,8.948,9
		c-0.08,1.105-1.158,2.489-2.168,3.106c-2.326,1.422-4.871,2.498-7.367,3.625c-1.92,0.867-4.948-0.933-5.313-2.973
		c-0.213-1.192-0.61-2.358-0.998-3.51c-1.863-5.541-0.468-7.928,5.314-9.018C152.269,33.072,152.914,33.004,153.216,32.961z
		 M157.307,38.217c-1.81-0.028-3.344,1.411-3.431,3.217c-0.087,1.812,1.349,3.208,3.319,3.225c1.725,0.015,3.104-1.37,3.171-3.186
		C160.433,39.708,159.057,38.243,157.307,38.217z M150.226,34.678c-1.787-0.007-3.242,1.346-3.297,3.063
		c-0.053,1.666,1.502,3.302,3.104,3.266c1.68-0.038,3.147-1.706,3.121-3.545C153.129,35.766,151.992,34.685,150.226,34.678z"/>
	<path fill-rule="evenodd" clip-rule="evenodd" d="M157.307,38.217c1.75,0.026,3.126,1.491,3.06,3.256
		c-0.067,1.816-1.446,3.201-3.171,3.186c-1.971-0.017-3.406-1.413-3.319-3.225C153.963,39.628,155.497,38.188,157.307,38.217z
		 M159.572,41.435c-1.078-0.85-1.878-1.832-2.237-1.69c-0.779,0.306-1.334,1.185-1.979,1.83c0.566,0.539,1.136,1.508,1.701,1.505
		C157.734,43.077,158.409,42.246,159.572,41.435z"/>
	<path fill-rule="evenodd" clip-rule="evenodd" d="M150.226,34.678c1.767,0.007,2.903,1.088,2.929,2.784
		c0.026,1.839-1.441,3.507-3.121,3.545c-1.602,0.036-3.157-1.6-3.104-3.266C146.983,36.023,148.439,34.67,150.226,34.678z
		 M152.346,37.644c-1.026-0.715-1.723-1.537-2.139-1.413c-0.676,0.2-1.44,0.94-1.634,1.607c-0.112,0.385,0.942,1.595,1.262,1.521
		C150.591,39.186,151.221,38.467,152.346,37.644z"/>
	<path fill-rule="evenodd" clip-rule="evenodd" fill="#FFFFFF" d="M159.572,41.435c-1.163,0.812-1.838,1.643-2.516,1.645
		c-0.565,0.002-1.135-0.966-1.701-1.505c0.646-0.645,1.2-1.524,1.979-1.83C157.694,39.603,158.494,40.585,159.572,41.435z"/>
	<path fill-rule="evenodd" clip-rule="evenodd" fill="#FFFFFF" d="M152.346,37.644c-1.125,0.823-1.755,1.542-2.511,1.715
		c-0.32,0.074-1.374-1.137-1.262-1.521c0.194-0.667,0.958-1.407,1.634-1.607C150.623,36.107,151.319,36.929,152.346,37.644z"/>
</g>
</svg>
